<svg width="28" height="28" viewBox="0 0 28 28" fill="none" xmlns="http://www.w3.org/2000/svg">
<path d="M27 14C27 21.1797 21.1797 27 14 27C6.8203 27 1 21.1797 1 14C1 6.8203 6.8203 1 14 1C21.1797 1 27 6.8203 27 14Z" fill="#00A5DF" stroke="#00A5DF" stroke-width="2"/>
<rect width="14" height="14" transform="translate(7 7)" fill="#00A5DF"/>
<path d="M18.4609 8.86512L12.0752 15.7443L9.61911 13.1046C9.48567 12.9372 9.32146 12.8011 9.13678 12.7051C8.95211 12.6091 8.75097 12.5551 8.54597 12.5466C8.34097 12.5381 8.13655 12.5752 7.94554 12.6557C7.75452 12.7361 7.58104 12.8581 7.43598 13.014C7.29091 13.1699 7.1774 13.3564 7.10257 13.5617C7.02773 13.767 6.99319 13.9867 7.00111 14.207C7.00903 14.4273 7.05923 14.6435 7.14858 14.842C7.23793 15.0405 7.36448 15.2169 7.5203 15.3604L11.0183 19.1359C11.1574 19.2842 11.3224 19.4015 11.5037 19.4811C11.6851 19.5607 11.8793 19.6011 12.0752 19.5999C12.4657 19.5981 12.8399 19.4315 13.1171 19.1359L20.5597 11.1369C20.6992 10.9881 20.81 10.8112 20.8855 10.6162C20.9611 10.4213 21 10.2122 21 10.001C21 9.78979 20.9611 9.58069 20.8855 9.38573C20.81 9.19078 20.6992 9.01384 20.5597 8.86512C20.2808 8.56715 19.9035 8.3999 19.5103 8.3999C19.1171 8.3999 18.7398 8.56715 18.4609 8.86512Z" fill="white"/>
</svg>
