<svg width="16" height="16" viewBox="0 0 16 16" fill="none" xmlns="http://www.w3.org/2000/svg">
<circle cx="8" cy="8" r="8" fill="#78BE21"/>
<path d="M10.5491 5.06589L6.90009 8.99686L5.49663 7.48846C5.42038 7.39276 5.32655 7.31504 5.22102 7.26017C5.11549 7.2053 5.00055 7.17446 4.88341 7.1696C4.76627 7.16474 4.64946 7.18595 4.54031 7.23191C4.43116 7.27787 4.33202 7.34758 4.24913 7.43667C4.16624 7.52576 4.10137 7.63231 4.05861 7.74962C4.01585 7.86694 3.99611 7.99248 4.00063 8.11838C4.00516 8.24428 4.03385 8.36782 4.0849 8.48124C4.13596 8.59465 4.20827 8.6955 4.29731 8.77746L6.29618 10.9349C6.37566 11.0196 6.46991 11.0867 6.57355 11.1322C6.67718 11.1777 6.78815 11.2007 6.90009 11.2C7.12323 11.199 7.33707 11.1038 7.4955 10.9349L11.7484 6.36402C11.8281 6.27904 11.8914 6.17793 11.9346 6.06653C11.9778 5.95512 12 5.83564 12 5.71495C12 5.59427 11.9778 5.47478 11.9346 5.36338C11.8914 5.25198 11.8281 5.15087 11.7484 5.06589C11.589 4.89562 11.3735 4.80005 11.1487 4.80005C10.924 4.80005 10.7084 4.89562 10.5491 5.06589Z" fill="white"/>
</svg>
