<?xml version="1.0" encoding="UTF-8"?>
<svg width="32px" height="32px" version="1.1" xmlns="http://www.w3.org/2000/svg" xmlns:xlink="http://www.w3.org/1999/xlink">
    <g id="icon/twitter_altblue" stroke="none" stroke-width="1" fill-rule="evenodd">
        <g>
            <polygon id="Path" opacity="0.87" points="24 24 0 24 0 0 24 0"></polygon>
            <path d="M12,1 C18.0751322,1 23,5.92486775 23,12 C23,18.0751322 18.0751322,23 12,23 C5.92486775,23 1,18.0751322 1,12 C1,5.92486775 5.92486775,1 12,1 Z M14.6927686,7 C13.1064706,7 11.8204104,8.24334092 11.8204104,9.77690859 C11.8204104,9.99455392 11.8458612,10.2065056 11.8948169,10.4097435 C9.50766304,10.29394 7.3912506,9.18838499 5.9746077,7.50831766 C5.72737116,7.91845727 5.58572735,8.3954847 5.58572735,8.90439647 C5.58572735,9.8678087 6.09284905,10.7177938 6.86354293,11.2157639 C6.39267713,11.2013566 5.9498226,11.0764432 5.56252972,10.8684523 L5.56232489,10.9033568 L5.56232489,10.9033568 C5.56232489,12.2488365 6.55239768,13.3712249 7.86636674,13.6262996 C7.62532645,13.6897713 7.37158638,13.7236855 7.10960167,13.7236855 C6.92453272,13.7236855 6.74458466,13.7063075 6.5692454,13.6738786 C6.93472329,14.7771561 7.99546435,15.5800079 9.25233548,15.6024359 C8.26932954,16.3472126 7.03084239,16.7911674 5.68517502,16.7911674 C5.45335235,16.7911674 5.22470463,16.7780473 5,16.7524012 C6.27110721,17.540301 7.78089908,18 9.40294086,18 C14.6860602,18 17.5750613,13.7685414 17.5750613,10.0989207 C17.5750613,9.97851272 17.572296,9.85874838 17.5667654,9.7396772 C18.1279125,9.34815327 18.6149091,8.85904545 19,8.30215863 C18.4848897,8.52302207 17.9313216,8.67229428 17.3503054,8.73942963 C17.9433556,8.39573223 18.3987564,7.85151995 18.6132192,7.20308942 C18.0582684,7.52128924 17.4435568,7.75240123 16.789312,7.87696801 C16.2653426,7.33726111 15.5188705,7 14.6927686,7 Z" id="Combined-Shape" fill="#000000"></path>
        </g>
    </g>
</svg>