<svg width="39" height="35" viewBox="0 0 39 35" fill="none" xmlns="http://www.w3.org/2000/svg">
  <g clip-path="url(#clip0_5241_28329)">
    <path d="M22.6449 30.6522C22.5345 30.6523 22.4261 30.6235 22.3304 30.5687L16.0401 26.9601C15.9445 26.9052 15.865 26.8263 15.8098 26.7312C15.7546 26.6362 15.7256 26.5284 15.7256 26.4187V19.2022C15.7256 19.0925 15.7546 18.9847 15.8098 18.8897C15.865 18.7946 15.9445 18.7157 16.0401 18.6608L22.3304 15.0522C22.4261 14.9974 22.5345 14.9685 22.6449 14.9685C22.7554 14.9685 22.8638 14.9974 22.9595 15.0522L29.2498 18.6608C29.3454 18.7157 29.4249 18.7946 29.4801 18.8897C29.5353 18.9847 29.5643 19.0925 29.5643 19.2022V26.4187C29.5643 26.5284 29.5353 26.6362 29.4801 26.7312C29.4249 26.8263 29.3454 26.9052 29.2498 26.9601L22.9595 30.5687C22.8638 30.6235 22.7553 30.6523 22.6449 30.6522ZM16.9837 26.0577L22.6449 29.3054L28.3062 26.0577V19.5632L22.6449 16.3155L16.9837 19.5632V26.0577Z" fill="#00A5DF" />
    <path d="M32.2786 28.9626C32.1682 28.9626 32.0597 28.9338 31.9641 28.879L28.6208 26.9602C28.4763 26.8774 28.3708 26.7408 28.3276 26.5807C28.2844 26.4206 28.307 26.2499 28.3904 26.1063C28.4738 25.9627 28.6112 25.8579 28.7724 25.815C28.9336 25.7721 29.1053 25.7945 29.2498 25.8774L32.5939 27.7962C32.7139 27.8649 32.8077 27.9711 32.8607 28.0983C32.9138 28.2254 32.9231 28.3664 32.8873 28.4993C32.8514 28.6323 32.7724 28.7497 32.6625 28.8335C32.5526 28.9173 32.4179 28.9626 32.2794 28.9626H32.2786Z" fill="#00A5DF" />
    <path d="M28.9355 19.8275C28.797 19.8276 28.6623 19.7822 28.5524 19.6984C28.4425 19.6147 28.3635 19.4972 28.3276 19.3643C28.2918 19.2313 28.3011 19.0904 28.3541 18.9632C28.4072 18.8361 28.501 18.7299 28.621 18.6611L34.5968 15.233V8.73769L28.9355 5.49003L23.2742 8.73769V15.5939C23.2742 15.7597 23.2079 15.9187 23.0899 16.0359C22.972 16.1531 22.812 16.2189 22.6451 16.2189C22.4783 16.2189 22.3183 16.1531 22.2004 16.0359C22.0824 15.9187 22.0161 15.7597 22.0161 15.5939V8.37675C22.0161 8.26701 22.0451 8.15921 22.1003 8.06417C22.1556 7.96913 22.235 7.89021 22.3306 7.83534L28.621 4.22753C28.7166 4.17268 28.8251 4.1438 28.9355 4.1438C29.0459 4.1438 29.1544 4.17268 29.25 4.22753L35.5403 7.83534C35.636 7.89021 35.7154 7.96913 35.7706 8.06417C35.8258 8.15921 35.8548 8.26701 35.8548 8.37675V15.5939C35.8548 15.7037 35.8258 15.8115 35.7706 15.9065C35.7154 16.0016 35.636 16.0805 35.5403 16.1353L29.25 19.7439C29.1543 19.7987 29.0459 19.8276 28.9355 19.8275Z" fill="#00A5DF" />
    <path d="M25.1613 14.9687C24.9944 14.9687 24.8344 14.9028 24.7165 14.7856C24.5985 14.6684 24.5322 14.5094 24.5322 14.3437V9.62646C24.5322 9.4607 24.5985 9.30174 24.7165 9.18453C24.8344 9.06732 24.9944 9.00146 25.1613 9.00146C25.3281 9.00146 25.4881 9.06732 25.606 9.18453C25.724 9.30174 25.7903 9.4607 25.7903 9.62646V14.3437C25.7903 14.5094 25.724 14.6684 25.606 14.7856C25.4881 14.9028 25.3281 14.9687 25.1613 14.9687Z" fill="#00A5DF" />
    <path d="M10.0644 30.6522C9.95397 30.6523 9.8455 30.6235 9.74986 30.5687L3.45954 26.9601C3.36389 26.9052 3.28446 26.8263 3.22925 26.7312C3.17404 26.6362 3.14499 26.5284 3.14502 26.4187V19.2022C3.14499 19.0925 3.17404 18.9847 3.22925 18.8897C3.28446 18.7946 3.36389 18.7157 3.45954 18.6608L9.74986 15.0522C9.84548 14.9974 9.95396 14.9685 10.0644 14.9685C10.1748 14.9685 10.2833 14.9974 10.3789 15.0522L16.6692 18.6608C16.8137 18.7437 16.9192 18.8802 16.9624 19.0404C17.0056 19.2005 16.983 19.3712 16.8996 19.5147C16.8583 19.5858 16.8033 19.6482 16.7377 19.6981C16.6722 19.7481 16.5974 19.7848 16.5176 19.806C16.3564 19.849 16.1847 19.8265 16.0402 19.7436L10.0644 16.3155L4.40308 19.5632V26.0577L10.0644 29.3054L16.0402 25.8772C16.1847 25.7944 16.3564 25.7719 16.5176 25.8148C16.6788 25.8578 16.8162 25.9626 16.8996 26.1062C16.983 26.2497 17.0056 26.4204 16.9624 26.5805C16.9192 26.7406 16.8137 26.8772 16.6692 26.9601L10.3789 30.5687C10.2833 30.6235 10.1748 30.6523 10.0644 30.6522Z" fill="#00A5DF" />
    <path d="M9.7294 28.064C9.59088 28.064 9.45622 28.0187 9.34631 27.9349C9.2364 27.8511 9.15737 27.7337 9.12152 27.6007C9.08567 27.4678 9.09501 27.3268 9.14805 27.1997C9.20109 27.0725 9.29489 26.9663 9.41488 26.8976L13.8181 24.3718C13.9626 24.2889 14.1344 24.2665 14.2955 24.3094C14.4567 24.3523 14.5941 24.4571 14.6775 24.6007C14.7609 24.7443 14.7835 24.9149 14.7403 25.0751C14.6971 25.2352 14.5917 25.3717 14.4471 25.4546L10.0439 27.9804C9.94836 28.0354 9.83983 28.0643 9.7294 28.064Z" fill="#00A5DF" />
    <path d="M28.9352 5.39062C28.7684 5.39062 28.6084 5.32478 28.4904 5.20757C28.3724 5.09036 28.3062 4.93139 28.3062 4.76562V0.625C28.3062 0.45924 28.3724 0.300268 28.4904 0.183058C28.6084 0.0658476 28.7684 0 28.9352 0C29.102 0 29.262 0.0658476 29.38 0.183058C29.4979 0.300268 29.5642 0.45924 29.5642 0.625V4.76562C29.5642 4.93139 29.4979 5.09036 29.38 5.20757C29.262 5.32478 29.102 5.39062 28.9352 5.39062Z" fill="#00A5DF" />
    <path d="M10.0646 16.2187C9.89775 16.2187 9.73776 16.1529 9.6198 16.0357C9.50183 15.9185 9.43555 15.7595 9.43555 15.5937V11.25C9.43555 11.0842 9.50183 10.9253 9.6198 10.8081C9.73776 10.6908 9.89775 10.625 10.0646 10.625C10.2314 10.625 10.3914 10.6908 10.5094 10.8081C10.6273 10.9253 10.6936 11.0842 10.6936 11.25V15.5937C10.6936 15.7595 10.6273 15.9185 10.5094 16.0357C10.3914 16.1529 10.2314 16.2187 10.0646 16.2187Z" fill="#00A5DF" />
    <path d="M22.6451 35C22.4783 35 22.3183 34.9342 22.2004 34.8169C22.0824 34.6997 22.0161 34.5408 22.0161 34.375V30.0273C22.0161 29.8616 22.0824 29.7026 22.2004 29.5854C22.3183 29.4682 22.4783 29.4023 22.6451 29.4023C22.812 29.4023 22.972 29.4682 23.0899 29.5854C23.2079 29.7026 23.2742 29.8616 23.2742 30.0273V34.375C23.2742 34.5408 23.2079 34.6997 23.0899 34.8169C22.972 34.9342 22.812 35 22.6451 35Z" fill="#00A5DF" />
    <path d="M0.628915 28.8281C0.488597 28.8304 0.351541 28.7859 0.239571 28.7019C0.127601 28.6178 0.047138 28.499 0.0109785 28.3643C-0.0251809 28.2295 -0.014937 28.0867 0.0400421 27.9584C0.0950212 27.8301 0.191586 27.7237 0.314399 27.6563L3.45956 25.8766C3.53138 25.8359 3.61053 25.8098 3.69253 25.7995C3.77453 25.7893 3.85774 25.7952 3.93744 25.817C4.01713 25.8387 4.09175 25.8758 4.15701 25.9262C4.22227 25.9766 4.27691 26.0392 4.3178 26.1106C4.35869 26.1819 4.38502 26.2606 4.39531 26.342C4.40561 26.4235 4.39967 26.5062 4.37781 26.5854C4.35594 26.6646 4.31859 26.7387 4.26789 26.8035C4.21719 26.8684 4.15411 26.9227 4.0823 26.9633L0.937135 28.743C0.843496 28.7973 0.737326 28.8266 0.628915 28.8281Z" fill="#00A5DF" />
    <path d="M35.226 9.00153C35.0874 9.00159 34.9528 8.95621 34.8429 8.87245C34.733 8.78869 34.654 8.67122 34.6181 8.53828C34.5823 8.40534 34.5916 8.26436 34.6446 8.13722C34.6976 8.01008 34.7914 7.90389 34.9114 7.83513L38.0566 6.03123C38.1282 5.99019 38.2072 5.96355 38.2891 5.95285C38.371 5.94214 38.4542 5.94757 38.534 5.96883C38.6138 5.99008 38.6886 6.02675 38.7542 6.07673C38.8197 6.12671 38.8747 6.18903 38.916 6.26013C38.9573 6.33123 38.9841 6.40972 38.9949 6.49111C39.0057 6.5725 39.0002 6.6552 38.9788 6.73449C38.9574 6.81379 38.9205 6.88812 38.8702 6.95324C38.8199 7.01836 38.7572 7.073 38.6856 7.11404L35.5405 8.91794C35.4449 8.97296 35.3364 9.0018 35.226 9.00153Z" fill="#00A5DF" />
  </g>
  <defs>
    <clipPath id="clip0_5241_28329">
      <rect width="39" height="35" fill="white" />
    </clipPath>
  </defs>
</svg>
  