<svg width="38" height="33" viewBox="0 0 38 33" fill="none" xmlns="http://www.w3.org/2000/svg">
  <g clip-path="url(#clip0_5241_28327)">
    <path d="M32.6022 30.6454C30.8901 31.8675 28.9054 32.642 26.8253 32.8998C24.7452 33.1577 22.6343 32.8909 20.6809 32.1232C20.5 32.0526 20.3543 31.9123 20.2757 31.7331C20.1971 31.5539 20.1922 31.3504 20.2619 31.1675C20.3317 30.9846 20.4705 30.8372 20.6477 30.7578C20.825 30.6783 21.0262 30.6733 21.2071 30.7439C23.4162 31.6053 25.8375 31.7415 28.1275 31.1332C30.4175 30.525 32.4599 29.2031 33.9652 27.3551C35.4704 25.5071 36.362 23.2268 36.5135 20.8376C36.665 18.4484 36.0687 16.0716 34.8091 14.0444L27.9009 2.95077C27.6206 2.49993 27.2318 2.12835 26.7709 1.8708C26.3099 1.61326 25.7919 1.47816 25.2653 1.47816C24.7386 1.47816 24.2206 1.61326 23.7596 1.8708C23.2987 2.12835 22.9099 2.49993 22.6296 2.95077L17.1489 11.7537C17.037 11.8942 16.8782 11.9885 16.7024 12.0188C16.5266 12.0491 16.3459 12.0133 16.1943 11.9182C16.0428 11.8231 15.9308 11.6753 15.8796 11.5025C15.8284 11.3298 15.8415 11.144 15.9163 10.9803L21.3922 2.1626C21.804 1.50007 22.3754 0.954019 23.0527 0.575543C23.7301 0.197067 24.4914 -0.00146484 25.2653 -0.00146484C26.0392 -0.00146484 26.8004 0.197067 27.4778 0.575543C28.1552 0.954019 28.7265 1.50007 29.1383 2.1626L36.0466 13.2661C37.7826 16.0579 38.3931 19.4168 37.7522 22.6503C37.1114 25.8838 35.268 28.7455 32.6022 30.6454ZM25.2653 6.936C25.0715 6.936 24.8856 7.01385 24.7485 7.15242C24.6115 7.29099 24.5345 7.47894 24.5345 7.67492V29.0592C24.5345 29.2551 24.6115 29.4431 24.7485 29.5816C24.8856 29.7202 25.0715 29.7981 25.2653 29.7981C25.4591 29.7981 25.645 29.7202 25.782 29.5816C25.919 29.4431 25.996 29.2551 25.996 29.0592V26.133L31.7642 20.3005C31.8933 20.1605 31.9636 19.9752 31.9603 19.7838C31.9569 19.5923 31.8802 19.4097 31.7463 19.2743C31.6124 19.1389 31.4318 19.0614 31.2425 19.058C31.0532 19.0546 30.87 19.1257 30.7314 19.2562L25.996 24.0444V16.4532L29.3722 13.0394C29.4826 12.8981 29.5382 12.7208 29.5284 12.5409C29.5187 12.361 29.4443 12.1909 29.3192 12.0626C29.1941 11.9343 29.027 11.8567 28.8492 11.8442C28.6715 11.8318 28.4954 11.8855 28.354 11.9951L26.0107 14.3646V7.67492C26.0107 7.57662 25.9913 7.47931 25.9537 7.38868C25.916 7.29806 25.8609 7.21594 25.7915 7.14713C25.7221 7.07832 25.6398 7.02419 25.5494 6.98794C25.4591 6.95169 25.3625 6.93403 25.2653 6.936ZM4.41887 10.6946L14.3525 12.9803C16.099 13.3823 17.7072 14.2502 19.0094 15.4938C20.3117 16.7374 21.2605 18.3113 21.7571 20.0515C22.2537 21.7917 22.2799 23.6347 21.833 25.3886C21.3861 27.1426 20.4825 28.7434 19.2162 30.0244C17.9498 31.3053 16.3671 32.2197 14.6326 32.6723C12.8982 33.1248 11.0755 33.0991 9.35429 32.5976C7.63306 32.0962 6.0762 31.1375 4.84577 29.8212C3.61533 28.5049 2.75631 26.8792 2.3581 25.1133L0.0975865 15.069C-0.0389169 14.4668 -0.0220169 13.8394 0.146703 13.2456C0.315424 12.6518 0.630443 12.111 1.06225 11.6739C1.49407 11.2367 2.02854 10.9176 2.61561 10.7463C3.20268 10.5751 3.82314 10.5573 4.41887 10.6946ZM1.49579 14.739L3.78066 24.7734C4.11711 26.2845 4.84844 27.6767 5.89834 28.8046C6.94824 29.9324 8.27824 30.7548 9.74959 31.1858C11.2209 31.6168 12.7797 31.6406 14.2633 31.2549C15.7469 30.8691 17.1009 30.0878 18.184 28.9926C19.2672 27.8973 20.0399 26.5282 20.4214 25.0281C20.8029 23.528 20.7793 21.9518 20.3531 20.4641C19.9268 18.9763 19.1136 17.6315 17.9981 16.5699C16.8826 15.5083 15.5059 14.7688 14.0114 14.4286L4.07297 12.138C3.71983 12.0606 3.35313 12.0744 3.00663 12.178C2.66013 12.2816 2.34499 12.4717 2.09022 12.7308C1.83546 12.9898 1.64926 13.3096 1.54879 13.6605C1.44831 14.0115 1.43679 14.3823 1.51528 14.739H1.49579ZM15.9894 27.8325C16.1263 27.9717 16.3124 28.0501 16.5065 28.0506C16.7006 28.051 16.887 27.9735 17.0246 27.835C17.1622 27.6965 17.2398 27.5084 17.2403 27.3121C17.2407 27.1158 17.164 26.9274 17.0271 26.7882L14.0066 23.734V18.0986C14.0066 17.9026 13.9296 17.7146 13.7925 17.5761C13.6555 17.4375 13.4696 17.3596 13.2758 17.3596C13.082 17.3596 12.8961 17.4375 12.7591 17.5761C12.622 17.7146 12.545 17.9026 12.545 18.0986V22.2562L5.90964 15.5271C5.77268 15.388 5.58666 15.3096 5.39251 15.3091C5.19836 15.3086 5.01199 15.3862 4.87438 15.5247C4.73677 15.6632 4.65921 15.8512 4.65875 16.0476C4.6583 16.2439 4.73498 16.4323 4.87194 16.5715L15.9894 27.8325Z" fill="#00A5DF" />
  </g>
  <defs>
    <clipPath id="clip0_5241_28327">
      <rect width="38" height="33" fill="white" />
    </clipPath>
  </defs>
</svg>
  