<svg width="38" height="31" viewBox="0 0 38 31" fill="none" xmlns="http://www.w3.org/2000/svg">
  <g clip-path="url(#clip0_5504_31870)">
  <path d="M26.02 15.3601C26.02 16.9957 25.535 18.5947 24.6262 19.9547C23.7175 21.3146 22.4259 22.3746 20.9148 23.0006C19.4036 23.6265 17.7408 23.7903 16.1366 23.4712C14.5324 23.1521 13.0588 22.3644 11.9022 21.2079C10.7456 20.0513 9.95799 18.5777 9.63889 16.9735C9.31979 15.3693 9.48356 13.7064 10.1095 12.1953C10.7354 10.6842 11.7954 9.39255 13.1554 8.48383C14.5154 7.57511 16.1143 7.09009 17.75 7.09009" stroke="#00A5DF" stroke-width="2" stroke-linecap="round" stroke-linejoin="round"/>
  <path d="M33.7398 13.55C33.7398 13.55 34.4298 23.27 34.4298 27.23C34.4298 28.52 33.5098 29.83 32.3698 29.83C31.2298 29.83 30.2998 28.52 30.2998 27.23C30.2998 23.23 30.9898 13.55 30.9898 13.55" stroke="#00A5DF" stroke-width="2" stroke-linecap="round" stroke-linejoin="round"/>
  <path d="M30.9902 13.5501C30.6202 13.0801 29.5002 11.65 28.9902 11.09C28.6445 10.6484 28.3896 10.1426 28.2403 9.60201C28.091 9.06138 28.0501 8.49654 28.1202 7.94005V2.05005H36.5702V7.94005C36.7099 9.06236 36.4008 10.1945 35.7102 11.09C35.2202 11.64 34.1002 13.0901 33.7102 13.5501" stroke="#00A5DF" stroke-width="2" stroke-linecap="round" stroke-linejoin="round"/>
  <path d="M0.999985 28.1199V1.19995C0.999985 1.19995 6.07999 1.38995 6.07999 4.63995V18.31H4.07999C4.07999 18.31 4.82999 25.02 4.82999 27.94C4.79489 28.4265 4.57684 28.8818 4.2197 29.2141C3.86255 29.5464 3.39282 29.7311 2.90498 29.7311C2.41715 29.7311 1.94741 29.5464 1.59027 29.2141C1.23313 28.8818 1.01507 28.4265 0.97998 27.94" stroke="#00A5DF" stroke-width="2" stroke-linecap="round" stroke-linejoin="round"/>
  <path d="M30.96 2.05005V8.04005" stroke="#00A5DF" stroke-width="2" stroke-linecap="round" stroke-linejoin="round"/>
  <path d="M33.77 2.05005V8.04005" stroke="#00A5DF" stroke-width="2" stroke-linecap="round" stroke-linejoin="round"/>
  <path d="M30.4798 21.9999C29.1973 24.455 27.2322 26.4869 24.8212 27.8505C22.4103 29.2141 19.6564 29.8514 16.8915 29.6854C14.1266 29.5195 11.4686 28.5574 9.23805 26.9153C7.00748 25.2731 5.29945 23.0208 4.31982 20.4299" stroke="#00A5DF" stroke-width="2" stroke-linecap="round" stroke-linejoin="round"/>
  <path d="M6.08008 7.01004C7.30723 5.28979 8.89938 3.86201 10.7427 2.82882C12.5859 1.79564 14.6348 1.18258 16.7426 1.03353C18.8504 0.884468 20.9651 1.20309 22.9355 1.96659C24.9058 2.73009 26.6831 3.91961 28.1401 5.45004" stroke="#00A5DF" stroke-width="2" stroke-linecap="round" stroke-linejoin="round"/>
  </g>
  <defs>
  <clipPath id="clip0_5504_31870">
  <rect width="37.59" height="30.83" fill="white"/>
  </clipPath>
  </defs>
  </svg>
  