<svg width="38" height="18" viewBox="0 0 38 18" fill="none" xmlns="http://www.w3.org/2000/svg">
  <g clip-path="url(#clip0_5215_27973)">
    <path d="M28.9818 0H9.01825C6.62647 0 4.33264 0.948211 2.64139 2.63604C0.95014 4.32387 0 6.61305 0 9C0 11.387 0.95014 13.6761 2.64139 15.364C4.33264 17.0518 6.62647 18 9.01825 18H28.9818C31.3736 18 33.6674 17.0518 35.3586 15.364C37.0499 13.6761 38 11.387 38 9C38 6.61305 37.0499 4.32387 35.3586 2.63604C33.6674 0.948211 31.3736 0 28.9818 0ZM9.59252 3.44505C8.01596 3.45451 6.50669 4.08373 5.39188 5.19629C4.27707 6.30885 3.64656 7.81508 3.63707 9.38844C3.63707 9.56859 3.56536 9.74136 3.43772 9.86874C3.31008 9.99612 3.13697 10.0677 2.95646 10.0677C2.77595 10.0677 2.60284 9.99612 2.4752 9.86874C2.34756 9.74136 2.27585 9.56859 2.27585 9.38844C2.28257 7.45111 3.05672 5.59505 4.42941 4.22514C5.80209 2.85523 7.66191 2.08266 9.60316 2.07594C9.78368 2.07594 9.95679 2.14751 10.0844 2.27489C10.2121 2.40227 10.2838 2.57504 10.2838 2.75519C10.2838 2.93533 10.2121 3.1081 10.0844 3.23549C9.95679 3.36287 9.78368 3.43444 9.60316 3.43444L9.59252 3.44505ZM33.6653 13.6741C33.0533 14.2916 32.3245 14.7818 31.5213 15.1163C30.7181 15.4508 29.8564 15.6229 28.986 15.6226H20.1954V2.37736H28.986C30.2983 2.37561 31.5815 2.76293 32.6729 3.49018C33.7642 4.21743 34.6145 5.25182 35.1158 6.46211C35.6171 7.6724 35.7469 9.00403 35.4887 10.288C35.2304 11.5721 34.5958 12.7506 33.6653 13.6741Z" fill="#00A5DF" />
  </g>
  <defs>
    <clipPath id="clip0_5215_27973">
      <rect width="38" height="18" fill="white" />
    </clipPath>
  </defs>
</svg>
  