<svg width="143" height="131" viewBox="0 0 143 131" fill="none" xmlns="http://www.w3.org/2000/svg">
  <g clip-path="url(#clip0_4754_25140)">
    <path fill-rule="evenodd" clip-rule="evenodd" d="M123.237 34.4732H19.7675C17.2681 34.4771 14.8719 35.4648 13.1032 37.2204C12.2248 38.0873 11.5271 39.118 11.05 40.2534C10.5729 41.3887 10.3258 42.6065 10.3229 43.837V111.343C10.3258 112.573 10.5729 113.791 11.05 114.926C11.5271 116.062 12.2248 117.093 13.1032 117.959C14.8711 119.717 17.267 120.708 19.7675 120.715H123.237C125.734 120.704 128.126 119.712 129.891 117.954C131.655 116.197 132.649 113.817 132.656 111.334V43.8453C132.653 41.363 131.659 38.9835 129.893 37.2288C128.123 35.477 125.726 34.495 123.228 34.4984L123.237 34.4732ZM41.3948 21.7342V11.935C41.4037 8.7709 42.6726 5.73906 44.924 3.50249C47.1755 1.26593 50.2262 0.00663023 53.4091 0H89.5445C92.7274 0.00663023 95.7781 1.26593 98.0295 3.50249C100.281 5.73906 101.55 8.7709 101.559 11.935V21.7342H91.2464V11.935C91.2401 11.4973 91.0617 11.0794 90.7493 10.7708C90.4368 10.4583 90.013 10.2807 89.5698 10.2766H53.4343C52.9874 10.2766 52.5589 10.4531 52.2428 10.7673C51.9268 11.0814 51.7493 11.5075 51.7493 11.9517V21.751L41.3948 21.7342ZM71.4726 48.0582C77.3497 48.0582 83.0949 49.7907 87.9816 53.0366C92.8683 56.2825 96.677 60.896 98.9261 66.2938C101.175 71.6915 101.764 77.6311 100.617 83.3613C99.4705 89.0915 96.6404 94.355 92.4846 98.4863C88.3288 102.618 83.034 105.431 77.2698 106.571C71.5056 107.711 65.5308 107.126 60.101 104.89C54.6712 102.654 50.0302 98.8678 46.7651 94.0099C43.4999 89.1521 41.7571 83.4408 41.7571 77.5983C41.7571 73.719 42.5257 69.8778 44.0191 66.2938C45.5124 62.7098 47.7012 59.4533 50.4606 56.7103C56.0333 51.1704 63.5915 48.0582 71.4726 48.0582ZM58.0597 72.4977H66.3501V64.2646C66.3501 63.7418 66.5584 63.2404 66.9295 62.8699C67.3006 62.4995 67.8041 62.2902 68.33 62.288H74.6236C75.1502 62.2902 75.6547 62.4992 76.0271 62.8694C76.3995 63.2396 76.6097 63.7411 76.6119 64.2646V72.4893H84.8854C85.4113 72.4915 85.9149 72.7007 86.2859 73.0712C86.657 73.4416 86.8653 73.9431 86.8653 74.4659V80.714C86.8653 81.2367 86.657 81.7382 86.2859 82.1087C85.9149 82.4791 85.4113 82.6883 84.8854 82.6906H76.6119V90.9236C76.6075 91.4465 76.3966 91.9467 76.0247 92.3164C75.6528 92.6862 75.1496 92.8958 74.6236 92.9002H68.3553C67.8301 92.8958 67.3278 92.6859 66.9572 92.3159C66.5866 91.9459 66.3776 91.4457 66.3754 90.9236V82.6906H58.085C57.5591 82.6883 57.0556 82.4791 56.6845 82.1087C56.3134 81.7382 56.1051 81.2367 56.1051 80.714V74.4659C56.1051 73.9431 56.3134 73.4416 56.6845 73.0712C57.0556 72.7007 57.5591 72.4915 58.085 72.4893L58.0597 72.4977ZM19.7675 24.1966H123.237C125.83 24.2006 128.398 24.7131 130.792 25.7048C133.186 26.6964 135.36 28.1477 137.189 29.9756C139.027 31.7954 140.487 33.958 141.483 36.3395C142.479 38.721 142.992 41.2745 142.994 43.8537V111.36C142.98 116.568 140.892 121.559 137.187 125.242C133.481 128.924 128.459 130.997 123.22 131.008H19.7675C17.1767 131.007 14.6119 130.496 12.2204 129.506C9.82886 128.516 7.65787 127.065 5.83227 125.238C3.99293 123.419 2.53324 121.256 1.53706 118.874C0.540869 116.493 0.0278105 113.939 0.0273438 111.36V43.8453C0.028732 41.2662 0.542211 38.7126 1.53834 36.3311C2.53448 33.9496 3.99367 31.787 5.83227 29.9673C7.65787 28.1399 9.82886 26.6894 12.2204 25.699C14.6119 24.7087 17.1767 24.1981 19.7675 24.1966Z" fill="#00A5DF" />
  </g>
  <defs>
    <clipPath id="clip0_4754_25140">
      <rect width="143" height="131" fill="white" />
    </clipPath>
  </defs>
</svg>
  