<svg width="40" height="40" viewBox="0 0 40 40" fill="none" xmlns="http://www.w3.org/2000/svg">
<g clip-path="url(#clip0_10257_94971)">
<path d="M18.5483 35.4271L17.5759 34.9658C17.3876 34.8749 17.2221 34.7428 17.0918 34.5793C16.9614 34.4158 16.8696 34.2251 16.823 34.0213C16.7765 33.8175 16.7764 33.6058 16.8229 33.402C16.8693 33.1982 16.961 33.0074 17.0913 32.8438L17.7651 32.0012C17.8478 31.898 17.8929 31.7698 17.8931 31.6376C17.8932 31.5053 17.8483 31.377 17.7658 31.2736C17.6833 31.1703 17.5681 31.098 17.4391 31.0687C17.3101 31.0394 17.175 31.0549 17.0559 31.1125L16.0835 31.5738C15.8951 31.6645 15.6886 31.7116 15.4794 31.7116C15.2702 31.7116 15.0637 31.6645 14.8753 31.5738C14.6868 31.4831 14.5212 31.3511 14.3908 31.1876C14.2604 31.0242 14.1685 30.8335 14.1219 30.6296L13.8819 29.5794C13.8525 29.4507 13.7803 29.3358 13.677 29.2535C13.5737 29.1712 13.4455 29.1263 13.3134 29.1263C13.1813 29.1263 13.0532 29.1712 12.9499 29.2535C12.8466 29.3358 12.7743 29.4507 12.745 29.5794L12.5049 30.6296C12.4584 30.8335 12.3665 31.0242 12.2361 31.1876C12.1057 31.3511 11.9401 31.4831 11.7516 31.5738C11.5631 31.6645 11.3566 31.7116 11.1475 31.7116C10.9383 31.7116 10.7318 31.6645 10.5433 31.5738L9.57098 31.1125C9.45197 31.0556 9.31717 31.0407 9.18861 31.0703C9.06004 31.0999 8.94532 31.1721 8.86317 31.2753C8.78102 31.3785 8.7363 31.5064 8.73632 31.6383C8.73634 31.7701 8.78109 31.8981 8.86327 32.0012L9.5356 32.8438C9.66584 33.0074 9.75757 33.1982 9.80401 33.402C9.85044 33.6058 9.85037 33.8175 9.80383 34.0213C9.75728 34.2251 9.66545 34.4158 9.53512 34.5793C9.4048 34.7428 9.23932 34.8749 9.05097 34.9658L8.07863 35.4271C7.96007 35.4845 7.86447 35.5805 7.80744 35.6992C7.75041 35.8179 7.7353 35.9524 7.76456 36.0808C7.79383 36.2092 7.86575 36.324 7.9686 36.4063C8.07145 36.4886 8.19917 36.5337 8.33094 36.5342H9.4079C9.61745 36.5328 9.82458 36.579 10.0137 36.6692C10.2028 36.7595 10.3689 36.8914 10.4996 37.0552C10.6302 37.2189 10.722 37.4102 10.7679 37.6145C10.8139 37.8188 10.8128 38.0309 10.7649 38.2348L10.5249 39.2865C10.4957 39.4152 10.5111 39.55 10.5685 39.6688C10.6259 39.7877 10.722 39.8835 10.841 39.9406C10.96 39.9978 11.0949 40.0129 11.2236 39.9834C11.3523 39.954 11.4672 39.8818 11.5495 39.7786L12.2296 38.9421C12.3591 38.7774 12.5244 38.6443 12.713 38.5527C12.9015 38.4611 13.1084 38.4136 13.3181 38.4136C13.5277 38.4136 13.7346 38.4611 13.9231 38.5527C14.1117 38.6443 14.277 38.7774 14.4066 38.9421L15.0804 39.7847C15.1354 39.8542 15.2057 39.9101 15.2857 39.9482C15.3657 39.9864 15.4534 40.0056 15.542 40.0046C15.6295 40.0049 15.7158 39.9849 15.7943 39.9462C15.9116 39.8877 16.0058 39.7914 16.0617 39.6728C16.1175 39.5542 16.1317 39.4203 16.102 39.2927L15.862 38.2409C15.814 38.0369 15.813 37.8247 15.859 37.6203C15.9051 37.4158 15.997 37.2245 16.1278 37.0607C16.2586 36.8969 16.425 36.765 16.6142 36.6749C16.8035 36.5847 17.0108 36.5387 17.2205 36.5403H18.2975C18.4292 36.5398 18.557 36.4947 18.6598 36.4124C18.7627 36.3301 18.8346 36.2154 18.8639 36.087C18.8931 35.9586 18.878 35.8241 18.821 35.7053C18.7639 35.5866 18.6684 35.4907 18.5498 35.4332L18.5483 35.4271ZM15.2174 36.3281C14.9162 36.7031 14.7279 37.1558 14.6743 37.6336C14.2662 37.3793 13.795 37.2446 13.3142 37.2446C12.8334 37.2446 12.3622 37.3793 11.9542 37.6336C11.8995 37.1565 11.7119 36.7043 11.4127 36.3286C11.1135 35.9529 10.7147 35.6688 10.2618 35.5086C10.601 35.1677 10.8376 34.7386 10.9448 34.2699C11.0519 33.8013 11.0253 33.312 10.868 32.8577C11.346 32.9102 11.8292 32.8275 12.2625 32.619C12.6958 32.4105 13.0618 32.0846 13.3188 31.6783C13.5755 32.0849 13.9414 32.4112 14.3748 32.6197C14.8082 32.8283 15.2916 32.9108 15.7697 32.8577C15.6116 33.3118 15.5844 33.8011 15.6913 34.2698C15.7983 34.7386 16.0349 35.1679 16.3743 35.5086C15.9188 35.6667 15.5175 35.9509 15.2174 36.3281Z" fill="#00A5DF"/>
<path d="M39.6708 24.7482L38.6985 24.2869C38.5091 24.1973 38.3425 24.0659 38.2113 23.9026C38.0801 23.7394 37.9877 23.5485 37.9411 23.3443C37.8944 23.1402 37.8947 22.9281 37.942 22.7241C37.9892 22.52 38.0822 22.3294 38.2138 22.1665L38.8862 21.3224C38.9692 21.2195 39.0147 21.0913 39.015 20.9591C39.0154 20.8269 38.9707 20.6986 38.8882 20.5952C38.8057 20.4918 38.6905 20.4196 38.5615 20.3905C38.4324 20.3614 38.2973 20.3772 38.1784 20.4351L37.2061 20.8964C37.0179 20.9887 36.8111 21.037 36.6014 21.0377C36.3918 21.0385 36.1847 20.9916 35.9958 20.9007C35.8069 20.8098 35.6411 20.6772 35.511 20.5129C35.3808 20.3486 35.2897 20.1569 35.2445 19.9523L35.0029 18.9006C34.9729 18.7726 34.9005 18.6585 34.7975 18.5769C34.6944 18.4952 34.5667 18.4508 34.4352 18.4508C34.3037 18.4508 34.1761 18.4952 34.073 18.5769C33.9699 18.6585 33.8975 18.7726 33.8675 18.9006L33.6275 19.9523C33.581 20.1561 33.4891 20.3469 33.3586 20.5103C33.2282 20.6738 33.0626 20.8057 32.8742 20.8965C32.6857 20.9872 32.4792 21.0343 32.27 21.0343C32.0608 21.0343 31.8544 20.9871 31.6659 20.8964L30.6935 20.4351C30.5747 20.3782 30.44 20.3632 30.3115 20.3925C30.183 20.4219 30.0682 20.4939 29.9859 20.5969C29.9036 20.6998 29.8587 20.8276 29.8584 20.9593C29.8581 21.0911 29.9025 21.2191 29.9843 21.3224L30.6566 22.1665C30.7883 22.3294 30.8812 22.52 30.9285 22.7241C30.9757 22.9281 30.9761 23.1402 30.9294 23.3443C30.8827 23.5485 30.7903 23.7394 30.6591 23.9026C30.5279 24.0659 30.3614 24.1973 30.172 24.2869L29.2012 24.7482C29.0826 24.8057 28.987 24.9016 28.93 25.0203C28.873 25.139 28.8579 25.2736 28.8871 25.402C28.9164 25.5304 28.9883 25.6451 29.0912 25.7274C29.194 25.8097 29.3217 25.8548 29.4535 25.8553H30.5305C30.7397 25.8552 30.9462 25.9021 31.1348 25.9927C31.3233 26.0833 31.489 26.2153 31.6195 26.3786C31.75 26.542 31.842 26.7327 31.8887 26.9365C31.9353 27.1404 31.9354 27.3521 31.889 27.5559L31.649 28.6077C31.62 28.7361 31.6354 28.8706 31.6926 28.9892C31.7499 29.1078 31.8456 29.2035 31.9643 29.2608C32.0829 29.318 32.2175 29.3334 32.346 29.3044C32.4746 29.2755 32.5895 29.2038 32.6721 29.1012L33.346 28.2571C33.4765 28.0939 33.6422 27.9622 33.8306 27.8717C34.019 27.7812 34.2254 27.7342 34.4345 27.7342C34.6435 27.7342 34.8499 27.7812 35.0383 27.8717C35.2267 27.9622 35.3924 28.0939 35.523 28.2571L36.1953 29.1012C36.2507 29.1702 36.321 29.2256 36.401 29.2634C36.4809 29.3013 36.5684 29.3205 36.6569 29.3196C36.7447 29.3197 36.8314 29.3002 36.9107 29.2627C37.0296 29.2052 37.1255 29.1091 37.1827 28.9902C37.24 28.8712 37.2553 28.7364 37.2261 28.6077L36.9861 27.5559C36.9397 27.3522 36.9397 27.1406 36.9863 26.9369C37.0329 26.7332 37.1247 26.5426 37.2551 26.3792C37.3854 26.2159 37.5509 26.0839 37.7393 25.9932C37.9276 25.9025 38.134 25.8554 38.3431 25.8553H39.42C39.5519 25.8552 39.6799 25.8103 39.783 25.7281C39.8861 25.6459 39.9583 25.5312 39.9878 25.4027C40.0172 25.2742 40.0022 25.1395 39.9452 25.0207C39.8882 24.9018 39.7926 24.8057 39.6739 24.7482H39.6708ZM36.3384 25.6523C36.0382 26.0284 35.85 26.4813 35.7953 26.9593C35.3881 26.7029 34.9165 26.5675 34.4352 26.5688C33.954 26.5675 33.4823 26.7029 33.0752 26.9593C33.0201 26.4822 32.8324 26.03 32.5333 25.6542C32.2341 25.2783 31.8356 24.9937 31.3828 24.8328C31.722 24.4919 31.9583 24.0625 32.0647 23.5937C32.1711 23.1249 32.1432 22.6356 31.9844 22.1819C32.4625 22.235 32.9458 22.1525 33.3792 21.9439C33.8127 21.7354 34.1786 21.4091 34.4352 21.0025C34.6923 21.4088 35.0583 21.7347 35.4916 21.9432C35.9249 22.1517 36.4081 22.2344 36.8861 22.1819C36.7287 22.6359 36.702 23.125 36.8092 23.5934C36.9164 24.0618 37.1531 24.4907 37.4923 24.8312C37.0381 24.9911 36.6381 25.2757 36.3384 25.6523Z" fill="#00A5DF"/>
<path d="M3.80324 22.3049L4.47711 21.4623C4.60668 21.2976 4.77198 21.1645 4.96054 21.0729C5.14909 20.9814 5.35598 20.9338 5.56561 20.9338C5.77524 20.9338 5.98214 20.9814 6.17069 21.0729C6.35925 21.1645 6.52455 21.2976 6.65412 21.4623L7.32799 22.3049C7.38308 22.3743 7.4533 22.4302 7.53329 22.4683C7.61329 22.5064 7.70094 22.5257 7.78955 22.5248C7.87694 22.5242 7.96311 22.5042 8.04187 22.4664C8.15933 22.4076 8.25356 22.311 8.30938 22.1922C8.3652 22.0734 8.37937 21.9392 8.34957 21.8113L8.10955 20.7611C8.06316 20.5573 8.06324 20.3457 8.10981 20.1419C8.15637 19.9381 8.24822 19.7475 8.37854 19.584C8.50887 19.4205 8.67432 19.2884 8.86266 19.1975C9.051 19.1067 9.25739 19.0593 9.46653 19.059H10.5435C10.6753 19.0585 10.803 19.0134 10.9058 18.9311C11.0087 18.8488 11.0806 18.734 11.1099 18.6056C11.1391 18.4772 11.124 18.3427 11.067 18.224C11.01 18.1053 10.9144 18.0094 10.7958 17.9519L9.82347 17.4906C9.63512 17.3997 9.46965 17.2676 9.33932 17.1041C9.20899 16.9406 9.11716 16.7499 9.07061 16.5461C9.02407 16.3423 9.024 16.1307 9.07043 15.9268C9.11687 15.723 9.2086 15.5322 9.33884 15.3686L10.0127 14.5245C10.0945 14.4212 10.1389 14.2932 10.1386 14.1615C10.1383 14.0297 10.0934 13.9019 10.0111 13.799C9.9288 13.6961 9.81404 13.6241 9.68552 13.5947C9.55701 13.5653 9.42232 13.5803 9.30345 13.6373L8.3311 14.0986C8.14264 14.1893 7.93615 14.2364 7.72697 14.2364C7.51779 14.2364 7.3113 14.1893 7.12283 14.0986C6.93437 14.0079 6.76877 13.8759 6.63835 13.7124C6.50793 13.549 6.41603 13.3583 6.36949 13.1545L6.12948 12.1027C6.10009 11.974 6.02784 11.8591 5.92456 11.7768C5.82128 11.6945 5.6931 11.6496 5.561 11.6496C5.4289 11.6496 5.30071 11.6945 5.19744 11.7768C5.09416 11.8591 5.02191 11.974 4.99252 12.1027L4.75251 13.1545C4.70597 13.3583 4.61406 13.549 4.48364 13.7124C4.35322 13.8759 4.18763 14.0079 3.99917 14.0986C3.8107 14.1893 3.60421 14.2364 3.39503 14.2364C3.18585 14.2364 2.97936 14.1893 2.7909 14.0986L1.81855 13.6373C1.69967 13.5803 1.56499 13.5653 1.43647 13.5947C1.30796 13.6241 1.1932 13.6961 1.11091 13.799C1.02862 13.9019 0.983663 14.0297 0.983368 14.1615C0.983074 14.2932 1.02746 14.4212 1.10928 14.5245L1.78316 15.3686C1.91339 15.5322 2.00513 15.723 2.05156 15.9268C2.09799 16.1307 2.09794 16.3423 2.05139 16.5461C2.00485 16.7499 1.913 16.9406 1.78268 17.1041C1.65235 17.2676 1.48688 17.3997 1.29853 17.4906L0.326182 17.9519C0.207622 18.0094 0.112039 18.1053 0.0550064 18.224C-0.00202582 18.3427 -0.0171444 18.4772 0.0121205 18.6056C0.0413854 18.734 0.113303 18.8488 0.216155 18.9311C0.319007 19.0134 0.446732 19.0585 0.578502 19.059H1.65547C1.86461 19.0593 2.071 19.1067 2.25933 19.1975C2.44767 19.2884 2.61313 19.4205 2.74346 19.584C2.87378 19.7475 2.96563 19.9381 3.01219 20.1419C3.05875 20.3457 3.05884 20.5573 3.01244 20.7611L2.77243 21.8113C2.74343 21.9398 2.75881 22.0743 2.81607 22.1929C2.87333 22.3115 2.96909 22.4072 3.08774 22.4644C3.2064 22.5217 3.34096 22.5371 3.46949 22.5081C3.59802 22.4791 3.71295 22.4075 3.79554 22.3049H3.80324ZM2.50934 18.038C2.84853 17.6971 3.08517 17.268 3.19233 16.7993C3.2995 16.3307 3.27289 15.8414 3.11552 15.3871C3.59356 15.4396 4.07674 15.3569 4.51004 15.1484C4.94335 14.9399 5.30936 14.614 5.56638 14.2077C5.8229 14.6141 6.18859 14.9402 6.62169 15.1487C7.0548 15.3573 7.53786 15.4399 8.01571 15.3871C7.85834 15.8414 7.83173 16.3307 7.93889 16.7993C8.04606 17.268 8.28269 17.6971 8.62188 18.038C8.16866 18.1977 7.76958 18.4818 7.47029 18.8575C7.17101 19.2333 6.9836 19.6857 6.92951 20.163C6.52185 19.9077 6.05052 19.7724 5.56946 19.7724C5.08841 19.7724 4.61706 19.9077 4.20941 20.163C4.1548 19.6859 3.96719 19.2338 3.66798 18.8581C3.36876 18.4823 2.96997 18.1982 2.51703 18.038H2.50934Z" fill="#00A5DF"/>
<path d="M18.9269 7.40831H20.0039C20.213 7.40864 20.4194 7.456 20.6078 7.54688C20.7961 7.63776 20.9616 7.76983 21.0919 7.9333C21.2222 8.09678 21.3141 8.28747 21.3606 8.49125C21.4072 8.69502 21.4073 8.90666 21.3609 9.11047L21.1209 10.1622C21.0917 10.2909 21.1071 10.4257 21.1645 10.5445C21.2219 10.6633 21.318 10.7592 21.437 10.8163C21.556 10.8734 21.6909 10.8885 21.8196 10.8591C21.9483 10.8297 22.0632 10.7574 22.1455 10.6543L22.8178 9.81164C22.9474 9.64694 23.1127 9.51379 23.3013 9.42224C23.4898 9.33068 23.6967 9.28311 23.9064 9.28311C24.116 9.28311 24.3229 9.33068 24.5114 9.42224C24.7 9.51379 24.8653 9.64694 24.9948 9.81164L25.6687 10.6543C25.7238 10.7236 25.794 10.7795 25.874 10.8176C25.954 10.8557 26.0417 10.875 26.1303 10.8741C26.2178 10.8746 26.3042 10.8546 26.3826 10.8157C26.5005 10.7579 26.5952 10.6616 26.6511 10.5429C26.707 10.4241 26.7209 10.2899 26.6903 10.1622L26.4503 9.11047C26.4039 8.90653 26.404 8.69476 26.4506 8.49087C26.4973 8.28698 26.5893 8.09621 26.7198 7.9327C26.8503 7.7692 27.0159 7.63716 27.2044 7.54638C27.393 7.4556 27.5995 7.4084 27.8088 7.40831H28.8858C29.0177 7.40817 29.1456 7.36333 29.2487 7.28113C29.3519 7.19893 29.424 7.08422 29.4535 6.95573C29.483 6.82723 29.468 6.69255 29.411 6.57367C29.354 6.4548 29.2583 6.35874 29.1396 6.30121L28.1673 5.83992C27.9777 5.75036 27.8109 5.61893 27.6795 5.45553C27.5481 5.29213 27.4556 5.10104 27.4089 4.89668C27.3623 4.69233 27.3626 4.48004 27.4101 4.27585C27.4575 4.07166 27.5507 3.88091 27.6826 3.71799L28.355 2.87537C28.4377 2.77215 28.4828 2.64391 28.4829 2.51169C28.483 2.37947 28.4381 2.25114 28.3557 2.14777C28.2732 2.0444 28.158 1.97214 28.0289 1.94286C27.8999 1.91357 27.7648 1.929 27.6457 1.98661L26.6734 2.4479C26.4849 2.53861 26.2784 2.58572 26.0692 2.58573C25.8601 2.58573 25.6536 2.53863 25.4651 2.44792C25.2766 2.35721 25.111 2.22523 24.9806 2.06178C24.8502 1.89833 24.7583 1.70762 24.7118 1.5038L24.4718 0.453595C24.4424 0.324881 24.3701 0.209952 24.2668 0.127636C24.1636 0.0453192 24.0354 0.000488281 23.9033 0.000488281C23.7712 0.000488281 23.643 0.0453192 23.5397 0.127636C23.4364 0.209952 23.3642 0.324881 23.3348 0.453595L23.0948 1.5038C23.0496 1.70841 22.9584 1.90008 22.8283 2.06437C22.6982 2.22865 22.5324 2.36124 22.3435 2.45215C22.1546 2.54307 21.9475 2.58993 21.7378 2.58919C21.5282 2.58845 21.3214 2.54014 21.1332 2.4479L20.1608 1.98661C20.0418 1.92973 19.907 1.91487 19.7784 1.94444C19.6499 1.97402 19.5352 2.04629 19.453 2.14946C19.3708 2.25262 19.3261 2.38058 19.3262 2.51243C19.3262 2.64428 19.3709 2.77222 19.4531 2.87537L20.1254 3.71799C20.2574 3.88091 20.3506 4.07166 20.398 4.27585C20.4454 4.48004 20.4458 4.69233 20.3992 4.89668C20.3525 5.10104 20.26 5.29213 20.1286 5.45553C19.9972 5.61893 19.8304 5.75036 19.6408 5.83992L18.6685 6.30121C18.5498 6.35874 18.4541 6.4548 18.3971 6.57367C18.3401 6.69255 18.3251 6.82723 18.3546 6.95573C18.384 7.08422 18.4562 7.19893 18.5593 7.28113C18.6625 7.36333 18.7904 7.40817 18.9223 7.40831H18.9269ZM21.5424 5.14798C21.6505 4.67727 21.6222 4.18553 21.4609 3.73029C21.9389 3.78281 22.4221 3.7001 22.8554 3.49159C23.2887 3.28309 23.6547 2.95716 23.9117 2.55093C24.1681 2.95704 24.5336 3.28295 24.9664 3.49148C25.3992 3.70001 25.8819 3.78276 26.3595 3.73029C26.2014 4.18435 26.1743 4.67371 26.2812 5.14246C26.3881 5.61121 26.6248 6.04045 26.9642 6.38117C26.5113 6.54154 26.1126 6.82574 25.8134 7.20142C25.5142 7.57709 25.3266 8.02916 25.2718 8.50618C24.8638 8.25196 24.3926 8.11719 23.9117 8.11719C23.4309 8.11719 22.9597 8.25196 22.5517 8.50618C22.4969 8.02916 22.3092 7.57709 22.01 7.20142C21.7108 6.82574 21.3122 6.54154 20.8593 6.38117C21.1963 6.042 21.4305 5.61448 21.5347 5.14798H21.5424Z" fill="#00A5DF"/>
<path d="M9.18958 10.0976C9.2407 10.1861 9.31427 10.2596 9.40287 10.3106C9.49147 10.3616 9.59196 10.3884 9.69421 10.3883C9.7964 10.3885 9.89678 10.3614 9.98499 10.3098L10.8189 9.8301C11.0502 10.0487 11.3294 10.2103 11.6343 10.3021V11.2647C11.6343 11.4193 11.6957 11.5675 11.8051 11.6768C11.9144 11.7861 12.0627 11.8475 12.2174 11.8475C12.372 11.8475 12.5203 11.7861 12.6297 11.6768C12.739 11.5675 12.8005 11.4193 12.8005 11.2647V10.3052C13.1055 10.2138 13.3848 10.0521 13.6159 9.83316L14.4498 10.3129C14.538 10.3645 14.6384 10.3915 14.7406 10.3913C14.8689 10.3914 14.9936 10.3491 15.0955 10.2711C15.1973 10.1931 15.2706 10.0837 15.3039 9.95982C15.3372 9.83597 15.3287 9.7046 15.2797 9.58607C15.2307 9.46754 15.1439 9.36847 15.0329 9.30422L14.2005 8.82448C14.2764 8.51435 14.2764 8.1905 14.2005 7.88037L15.0329 7.40063C15.1018 7.36374 15.1625 7.3134 15.2115 7.25258C15.2606 7.19177 15.2969 7.12172 15.3183 7.04661C15.3397 6.9715 15.3457 6.89286 15.3361 6.81535C15.3265 6.73785 15.3014 6.66306 15.2624 6.59544C15.2233 6.52781 15.171 6.46874 15.1086 6.42171C15.0462 6.37468 14.975 6.34066 14.8992 6.32168C14.8234 6.30269 14.7446 6.29913 14.6674 6.3112C14.5902 6.32327 14.5162 6.35073 14.4498 6.39194L13.6159 6.87322C13.3853 6.65332 13.1059 6.49103 12.8005 6.39963V5.43707C12.8005 5.28251 12.739 5.13428 12.6297 5.02499C12.5203 4.9157 12.372 4.85431 12.2174 4.85431C12.0627 4.85431 11.9144 4.9157 11.8051 5.02499C11.6957 5.13428 11.6343 5.28251 11.6343 5.43707V6.39656C11.3291 6.48834 11.0498 6.65056 10.8189 6.87014L9.98499 6.38886C9.85152 6.31739 9.69547 6.3006 9.54985 6.34206C9.40422 6.38352 9.28043 6.47996 9.20468 6.611C9.12894 6.74203 9.10716 6.89738 9.14397 7.04418C9.18077 7.19097 9.27327 7.3177 9.40189 7.39755L10.2296 7.88191C10.1537 8.19204 10.1537 8.51589 10.2296 8.82602L9.39728 9.30576C9.26546 9.38397 9.16975 9.5109 9.13088 9.6591C9.092 9.80731 9.11309 9.96486 9.18958 10.0976ZM12.2174 7.47597C12.3902 7.47597 12.5592 7.5272 12.7029 7.62317C12.8466 7.71913 12.9586 7.85553 13.0247 8.01512C13.0909 8.17471 13.1082 8.35032 13.0745 8.51974C13.0408 8.68916 12.9575 8.84478 12.8353 8.96692C12.7131 9.08907 12.5574 9.17224 12.3879 9.20594C12.2184 9.23964 12.0426 9.22235 11.883 9.15625C11.7233 9.09014 11.5868 8.97819 11.4908 8.83457C11.3948 8.69094 11.3435 8.52208 11.3435 8.34935C11.3439 8.11784 11.4361 7.89593 11.5999 7.73223C11.7637 7.56853 11.9857 7.47638 12.2174 7.47597Z" fill="#00A5DF"/>
<path d="M30.5595 13.9802C30.5977 14.0466 30.6487 14.1047 30.7094 14.1514C30.7702 14.1981 30.8396 14.2323 30.9136 14.2521C30.9876 14.272 31.0648 14.2771 31.1408 14.2671C31.2168 14.2571 31.2901 14.2322 31.3564 14.1939L32.1903 13.7126C32.4192 13.9317 32.6964 14.0939 32.9996 14.1862V15.1457C32.9996 15.3003 33.061 15.4485 33.1703 15.5578C33.2797 15.6671 33.428 15.7285 33.5826 15.7285C33.7373 15.7285 33.8856 15.6671 33.995 15.5578C34.1043 15.4485 34.1658 15.3003 34.1658 15.1457V14.1862C34.471 14.0944 34.7503 13.9322 34.9812 13.7126L35.815 14.1939C35.9035 14.2448 36.0037 14.2718 36.1058 14.2723C36.2341 14.2724 36.3589 14.2301 36.4607 14.1521C36.5626 14.0741 36.6358 13.9647 36.6691 13.8408C36.7024 13.717 36.6939 13.5856 36.6449 13.4671C36.5959 13.3485 36.5092 13.2495 36.3981 13.1852L35.5658 12.7039C35.6417 12.3943 35.6417 12.071 35.5658 11.7614L36.3981 11.2816C36.5268 11.2018 36.6193 11.075 36.6561 10.9282C36.6929 10.7815 36.6711 10.6261 36.5953 10.4951C36.5196 10.364 36.3958 10.2676 36.2502 10.2261C36.1046 10.1847 35.9485 10.2015 35.815 10.273L34.9812 10.7527C34.7498 10.5341 34.4706 10.3724 34.1658 10.2806V9.31961C34.1658 9.16505 34.1043 9.01682 33.995 8.90753C33.8856 8.79824 33.7373 8.73685 33.5826 8.73685C33.428 8.73685 33.2797 8.79824 33.1703 8.90753C33.061 9.01682 32.9996 9.16505 32.9996 9.31961V10.2806C32.6945 10.3721 32.4153 10.5338 32.1841 10.7527L31.3503 10.273C31.2839 10.2317 31.2099 10.2043 31.1327 10.1922C31.0555 10.1801 30.9766 10.1837 30.9008 10.2027C30.825 10.2217 30.7538 10.2557 30.6915 10.3027C30.6291 10.3497 30.5768 10.4088 30.5377 10.4764C30.4986 10.5441 30.4735 10.6188 30.4639 10.6963C30.4543 10.7739 30.4604 10.8525 30.4818 10.9276C30.5032 11.0027 30.5395 11.0728 30.5885 11.1336C30.6375 11.1944 30.6983 11.2447 30.7672 11.2816L31.5995 11.7614C31.5236 12.071 31.5236 12.3943 31.5995 12.7039L30.7672 13.1852C30.6345 13.2634 30.5382 13.391 30.4993 13.5399C30.4604 13.6888 30.482 13.8471 30.5595 13.9802ZM33.5888 11.3585C33.762 11.3582 33.9314 11.4093 34.0756 11.5052C34.2197 11.6012 34.3322 11.7377 34.3987 11.8975C34.4652 12.0574 34.4827 12.2334 34.4491 12.4032C34.4155 12.573 34.3323 12.729 34.2099 12.8515C34.0875 12.9741 33.9316 13.0575 33.7617 13.0914C33.5918 13.1253 33.4157 13.1081 33.2557 13.0419C33.0956 12.9757 32.9588 12.8636 32.8626 12.7197C32.7663 12.5758 32.7149 12.4065 32.7149 12.2334C32.7149 12.0017 32.8069 11.7794 32.9708 11.6153C33.1346 11.4513 33.3569 11.3589 33.5888 11.3585Z" fill="#00A5DF"/>
<path d="M30.789 31.8444C30.7115 31.7107 30.5841 31.6131 30.4347 31.573C30.2854 31.533 30.1262 31.5537 29.9921 31.6307L29.1597 32.1119C28.9279 31.8928 28.6482 31.7307 28.3428 31.6384V30.6789C28.3351 30.5297 28.2704 30.3892 28.162 30.2863C28.0537 30.1834 27.9099 30.126 27.7605 30.126C27.611 30.126 27.4672 30.1834 27.3589 30.2863C27.2505 30.3892 27.1858 30.5297 27.1781 30.6789V31.6384C26.8727 31.7307 26.593 31.8928 26.3612 32.1119L25.5288 31.6307C25.3948 31.5534 25.2355 31.5325 25.0861 31.5726C24.9366 31.6126 24.8092 31.7104 24.7319 31.8444C24.6545 31.9784 24.6336 32.1375 24.6737 32.2869C24.7139 32.4363 24.8117 32.5636 24.9457 32.6409L25.7781 33.1206C25.7022 33.4302 25.7022 33.7536 25.7781 34.0632L24.9457 34.5445C24.8348 34.6087 24.7481 34.7076 24.6991 34.826C24.6501 34.9443 24.6414 35.0756 24.6746 35.1993C24.7077 35.3231 24.7806 35.4325 24.8822 35.5106C24.9838 35.5888 25.1083 35.6313 25.2365 35.6316C25.3391 35.6313 25.4399 35.6042 25.5288 35.5532L26.3612 35.0719C26.5926 35.2915 26.8724 35.4538 27.1781 35.5455V36.505C27.1741 36.5839 27.1861 36.6629 27.2135 36.737C27.241 36.8111 27.2832 36.8789 27.3377 36.9362C27.3922 36.9936 27.4577 37.0392 27.5304 37.0704C27.6031 37.1016 27.6814 37.1177 27.7605 37.1177C27.8395 37.1177 27.9178 37.1016 27.9905 37.0704C28.0632 37.0392 28.1287 36.9936 28.1832 36.9362C28.2377 36.8789 28.2799 36.8111 28.3074 36.737C28.3348 36.6629 28.3468 36.5839 28.3428 36.505V35.5455C28.6485 35.4538 28.9283 35.2915 29.1597 35.0719L29.9921 35.5532C30.0811 35.6042 30.1818 35.6313 30.2844 35.6316C30.4126 35.6313 30.5371 35.5888 30.6387 35.5106C30.7403 35.4325 30.8132 35.3231 30.8463 35.1993C30.8795 35.0756 30.8708 34.9443 30.8218 34.826C30.7728 34.7076 30.6861 34.6087 30.5752 34.5445L29.7428 34.0632C29.8187 33.7536 29.8187 33.4302 29.7428 33.1206L30.5752 32.6409C30.6416 32.6027 30.6998 32.5517 30.7465 32.491C30.7932 32.4303 30.8274 32.3609 30.8473 32.2869C30.8672 32.213 30.8722 32.1358 30.8622 32.0599C30.8522 31.9839 30.8274 31.9107 30.789 31.8444ZM27.7689 34.4661C27.5956 34.4664 27.4262 34.4153 27.282 34.3192C27.1378 34.2232 27.0253 34.0866 26.9589 33.9267C26.8924 33.7667 26.875 33.5907 26.9087 33.4208C26.9424 33.251 27.0258 33.0949 27.1484 32.9725C27.2709 32.85 27.427 32.7667 27.597 32.733C27.7669 32.6993 27.9431 32.7167 28.1031 32.7831C28.2631 32.8495 28.3998 32.9619 28.4959 33.106C28.592 33.2501 28.6431 33.4195 28.6428 33.5927C28.6424 33.8242 28.5502 34.0461 28.3864 34.2098C28.2226 34.3735 28.0006 34.4657 27.7689 34.4661Z" fill="#00A5DF"/>
<path d="M8.53714 28.2248C8.46808 27.7344 8.25935 27.2742 7.93585 26.8991C7.61235 26.524 7.18772 26.2498 6.7126 26.1092C6.23749 25.9686 5.73194 25.9675 5.25623 26.1061C4.78052 26.2447 4.35474 26.5171 4.02965 26.8908C3.70456 27.2646 3.49389 27.7239 3.42276 28.214C3.35162 28.7041 3.42302 29.2043 3.62844 29.6549C3.83387 30.1056 4.16466 30.4877 4.58135 30.7557C4.99805 31.0236 5.48307 31.1662 5.97858 31.1663C6.09907 31.1667 6.21943 31.158 6.33859 31.1402C7.01675 31.0445 7.62918 30.6837 8.0414 30.1371C8.45362 29.5905 8.63192 28.9027 8.53714 28.2248ZM6.17704 29.9869C5.99278 30.0129 5.80521 30.0023 5.62504 29.9558C5.44487 29.9093 5.27563 29.8278 5.12698 29.7159C4.97833 29.604 4.85318 29.464 4.75868 29.3038C4.66418 29.1436 4.60218 28.9664 4.57622 28.7822C4.55025 28.598 4.56084 28.4106 4.60736 28.2305C4.65389 28.0505 4.73546 27.8813 4.84739 27.7327C4.95933 27.5842 5.09944 27.4591 5.25974 27.3646C5.42004 27.2702 5.59739 27.2082 5.78165 27.1823C5.84742 27.1732 5.91372 27.1686 5.98012 27.1685C6.33872 27.1686 6.68392 27.3047 6.94612 27.5492C7.20831 27.7937 7.36799 28.1284 7.39298 28.486C7.41796 28.8435 7.30638 29.1972 7.08073 29.4757C6.85508 29.7543 6.53214 29.937 6.17704 29.9869Z" fill="#00A5DF"/>
<path d="M22.2776 25.5478C22.4149 25.4311 22.542 25.303 22.6577 25.1649L25.2347 25.8461C25.2848 25.8599 25.3366 25.8667 25.3885 25.8661C25.5312 25.8682 25.6697 25.8179 25.7778 25.7248C25.8859 25.6317 25.956 25.5022 25.975 25.3608C25.9939 25.2195 25.9604 25.0761 25.8807 24.9578C25.8009 24.8395 25.6806 24.7545 25.5424 24.719L23.2746 24.1209C23.3502 23.918 23.4064 23.7085 23.4423 23.4951H25.827C25.9817 23.4951 26.13 23.4336 26.2393 23.3244C26.3487 23.2151 26.4101 23.0668 26.4101 22.9123C26.4101 22.7577 26.3487 22.6095 26.2393 22.5002C26.13 22.3909 25.9817 22.3295 25.827 22.3295H23.4854V21.5607H25.8178C25.9724 21.5607 26.1207 21.4993 26.2301 21.39C26.3394 21.2807 26.4009 21.1325 26.4009 20.9779C26.4009 20.8234 26.3394 20.6752 26.2301 20.5659C26.1207 20.4566 25.9724 20.3952 25.8178 20.3952H23.4854V19.6264H25.8178C25.8968 19.6304 25.9758 19.6184 26.05 19.591C26.1241 19.5635 26.192 19.5213 26.2493 19.4669C26.3067 19.4124 26.3523 19.3469 26.3835 19.2743C26.4147 19.2016 26.4308 19.1234 26.4308 19.0444C26.4308 18.9653 26.4147 18.8871 26.3835 18.8144C26.3523 18.7418 26.3067 18.6763 26.2493 18.6218C26.192 18.5674 26.1241 18.5252 26.05 18.4978C25.9758 18.4704 25.8968 18.4583 25.8178 18.4624H23.4331C23.398 18.2526 23.3429 18.0466 23.2685 17.8473L25.5332 17.2492C25.6765 17.2044 25.7971 17.106 25.8697 16.9746C25.9423 16.8431 25.9613 16.6888 25.9229 16.5437C25.8844 16.3985 25.7913 16.2738 25.6631 16.1956C25.5349 16.1173 25.3814 16.0916 25.2347 16.1236L22.6654 16.8017C22.546 16.6621 22.4164 16.5316 22.2776 16.4112L24.2639 14.626C24.3787 14.5228 24.4479 14.3783 24.4561 14.2241C24.4643 14.07 24.411 13.9189 24.3077 13.8041C24.2045 13.6893 24.0599 13.6202 23.9056 13.612C23.7514 13.6038 23.6002 13.6571 23.4854 13.7603L21.233 15.7854C21.0191 15.7034 20.7974 15.6431 20.5714 15.6054V13.2221C20.5714 13.0676 20.51 12.9193 20.4006 12.81C20.2913 12.7007 20.143 12.6393 19.9883 12.6393C19.8337 12.6393 19.6854 12.7007 19.576 12.81C19.4667 12.9193 19.4052 13.0676 19.4052 13.2221V15.6054C19.1797 15.6431 18.9586 15.7034 18.7452 15.7854L16.4928 13.7603C16.4364 13.7063 16.3698 13.6642 16.2968 13.6364C16.2238 13.6087 16.146 13.5959 16.0679 13.5987C15.9899 13.6016 15.9132 13.6201 15.8425 13.6532C15.7718 13.6862 15.7084 13.7331 15.6561 13.7911C15.6039 13.8491 15.5638 13.917 15.5383 13.9908C15.5128 14.0645 15.5024 14.1427 15.5077 14.2205C15.513 14.2984 15.5338 14.3744 15.5691 14.4441C15.6043 14.5137 15.6532 14.5756 15.7128 14.626L17.699 16.4112C17.5586 16.5307 17.4274 16.6608 17.3067 16.8002L14.6912 16.1098C14.6159 16.0858 14.5364 16.0773 14.4577 16.085C14.379 16.0926 14.3027 16.1161 14.2334 16.1542C14.1641 16.1922 14.1032 16.2439 14.0545 16.3062C14.0058 16.3685 13.9703 16.44 13.9502 16.5164C13.93 16.5928 13.9256 16.6726 13.9373 16.7507C13.9489 16.8289 13.9763 16.9039 14.0178 16.9711C14.0594 17.0384 14.1142 17.0965 14.1789 17.1419C14.2436 17.1873 14.3169 17.2191 14.3943 17.2353L16.702 17.8504C16.6325 18.0467 16.581 18.249 16.5482 18.4547H14.1604C14.0814 18.4506 14.0024 18.4627 13.9282 18.4901C13.8541 18.5175 13.7862 18.5597 13.7289 18.6142C13.6715 18.6686 13.6259 18.7341 13.5947 18.8068C13.5635 18.8794 13.5474 18.9576 13.5474 19.0367C13.5474 19.1157 13.5635 19.1939 13.5947 19.2666C13.6259 19.3392 13.6715 19.4048 13.7289 19.4592C13.7862 19.5136 13.8541 19.5558 13.9282 19.5833C14.0024 19.6107 14.0814 19.6227 14.1604 19.6187H16.4913V20.3875H14.1604C14.0058 20.3875 13.8574 20.4489 13.7481 20.5582C13.6387 20.6675 13.5773 20.8157 13.5773 20.9703C13.5773 21.1248 13.6387 21.273 13.7481 21.3823C13.8574 21.4916 14.0058 21.553 14.1604 21.553H16.4913V22.3218H14.1604C14.0058 22.3218 13.8574 22.3832 13.7481 22.4925C13.6387 22.6018 13.5773 22.75 13.5773 22.9046C13.5773 23.0591 13.6387 23.2074 13.7481 23.3167C13.8574 23.426 14.0058 23.4874 14.1604 23.4874H16.5374C16.5732 23.6969 16.6278 23.9027 16.7005 24.1024L14.3927 24.7175C14.2545 24.753 14.1342 24.838 14.0544 24.9562C13.9747 25.0745 13.9412 25.2179 13.9601 25.3593C13.9791 25.5006 14.0492 25.6301 14.1573 25.7232C14.2654 25.8163 14.4039 25.8666 14.5466 25.8645C14.5986 25.8652 14.6504 25.8585 14.7004 25.8445L17.3159 25.1526C17.435 25.2939 17.5652 25.4256 17.7052 25.5462L15.7189 27.3314C15.662 27.3826 15.6156 27.4445 15.5826 27.5136C15.5496 27.5827 15.5304 27.6576 15.5264 27.7341C15.5223 27.8105 15.5333 27.887 15.5589 27.9592C15.5844 28.0314 15.6239 28.0979 15.6751 28.1548C15.7263 28.2118 15.7882 28.2581 15.8574 28.2911C15.9265 28.3241 16.0014 28.3432 16.0779 28.3473C16.1544 28.3514 16.231 28.3403 16.3032 28.3148C16.3755 28.2893 16.442 28.2499 16.499 28.1987L18.7452 26.1798C18.9586 26.2618 19.1797 26.322 19.4052 26.3597V28.743C19.4052 28.8976 19.4667 29.0458 19.576 29.1551C19.6854 29.2644 19.8337 29.3257 19.9883 29.3257C20.143 29.3257 20.2913 29.2644 20.4006 29.1551C20.51 29.0458 20.5714 28.8976 20.5714 28.743V26.3597C20.7974 26.322 21.0191 26.2618 21.233 26.1798L23.4854 28.2048C23.5419 28.2584 23.6087 28.3001 23.6816 28.3275C23.7546 28.3548 23.8323 28.3673 23.9101 28.3642C23.988 28.361 24.0644 28.3423 24.1349 28.3091C24.2054 28.276 24.2685 28.229 24.3206 28.171C24.3726 28.1131 24.4125 28.0453 24.4378 27.9716C24.4632 27.898 24.4736 27.82 24.4683 27.7424C24.463 27.6647 24.4422 27.5888 24.4071 27.5193C24.372 27.4498 24.3233 27.388 24.2639 27.3376L22.2776 25.5478ZM19.9883 25.2403C19.3704 25.2394 18.778 24.9937 18.3411 24.5571C17.9041 24.1204 17.6583 23.5283 17.6575 22.9107V19.0298C17.6495 18.7187 17.7039 18.4092 17.8174 18.1195C17.931 17.8298 18.1015 17.5657 18.3188 17.3429C18.5361 17.1201 18.7958 16.943 19.0827 16.8221C19.3696 16.7011 19.6778 16.6388 19.9891 16.6388C20.3004 16.6388 20.6086 16.7011 20.8955 16.8221C21.1823 16.943 21.4421 17.1201 21.6594 17.3429C21.8767 17.5657 22.0472 17.8298 22.1607 18.1195C22.2743 18.4092 22.3287 18.7187 22.3207 19.0298V22.9123C22.3199 23.5301 22.0739 24.1224 21.6366 24.5591C21.1993 24.9959 20.6065 25.2414 19.9883 25.2418V25.2403Z" fill="#00A5DF"/>
</g>
<defs>
<clipPath id="clip0_10257_94971">
<rect width="40" height="40" fill="white"/>
</clipPath>
</defs>
</svg>
