<svg width="90" height="90" viewBox="0 0 90 90" fill="none" xmlns="http://www.w3.org/2000/svg">
<circle opacity="0.3" cx="45" cy="45" r="45" fill="#00A5DF"/>
<path d="M48.0193 50.4552H38.2791C37.6333 50.4552 37.0139 50.7117 36.5572 51.1684C36.1006 51.625 35.844 52.2444 35.844 52.8902C35.844 53.536 36.1006 54.1554 36.5572 54.6121C37.0139 55.0687 37.6333 55.3253 38.2791 55.3253H48.0193C48.6652 55.3253 49.2845 55.0687 49.7412 54.6121C50.1979 54.1554 50.4544 53.536 50.4544 52.8902C50.4544 52.2444 50.1979 51.625 49.7412 51.1684C49.2845 50.7117 48.6652 50.4552 48.0193 50.4552ZM57.7596 26.1045H54.8862C54.3838 24.6835 53.4542 23.4527 52.2249 22.5808C50.9955 21.7089 49.5265 21.2386 48.0193 21.2344H43.1492C41.642 21.2386 40.1731 21.7089 38.9437 22.5808C37.7143 23.4527 36.7847 24.6835 36.2823 26.1045H33.409C31.4715 26.1045 29.6134 26.8742 28.2434 28.2441C26.8734 29.6141 26.1038 31.4722 26.1038 33.4097V62.6305C26.1038 64.5679 26.8734 66.426 28.2434 67.796C29.6134 69.166 31.4715 69.9357 33.409 69.9357H57.7596C59.6971 69.9357 61.5552 69.166 62.9252 67.796C64.2951 66.426 65.0648 64.5679 65.0648 62.6305V33.4097C65.0648 31.4722 64.2951 29.6141 62.9252 28.2441C61.5552 26.8742 59.6971 26.1045 57.7596 26.1045ZM40.7141 28.5396C40.7141 27.8938 40.9707 27.2744 41.4274 26.8177C41.884 26.3611 42.5034 26.1045 43.1492 26.1045H48.0193C48.6652 26.1045 49.2845 26.3611 49.7412 26.8177C50.1979 27.2744 50.4544 27.8938 50.4544 28.5396V30.9746H40.7141V28.5396ZM60.1947 62.6305C60.1947 63.2763 59.9381 63.8957 59.4815 64.3523C59.0248 64.809 58.4054 65.0655 57.7596 65.0655H33.409C32.7631 65.0655 32.1438 64.809 31.6871 64.3523C31.2304 63.8957 30.9739 63.2763 30.9739 62.6305V33.4097C30.9739 32.7639 31.2304 32.1445 31.6871 31.6878C32.1438 31.2312 32.7631 30.9746 33.409 30.9746H35.844V33.4097C35.844 34.0555 36.1006 34.6749 36.5572 35.1316C37.0139 35.5882 37.6333 35.8448 38.2791 35.8448H52.8895C53.5353 35.8448 54.1547 35.5882 54.6113 35.1316C55.068 34.6749 55.3245 34.0555 55.3245 33.4097V30.9746H57.7596C58.4054 30.9746 59.0248 31.2312 59.4815 31.6878C59.9381 32.1445 60.1947 32.7639 60.1947 33.4097V62.6305ZM52.8895 40.7149H38.2791C37.6333 40.7149 37.0139 40.9714 36.5572 41.4281C36.1006 41.8848 35.844 42.5041 35.844 43.15C35.844 43.7958 36.1006 44.4151 36.5572 44.8718C37.0139 45.3285 37.6333 45.585 38.2791 45.585H52.8895C53.5353 45.585 54.1547 45.3285 54.6113 44.8718C55.068 44.4151 55.3245 43.7958 55.3245 43.15C55.3245 42.5041 55.068 41.8848 54.6113 41.4281C54.1547 40.9714 53.5353 40.7149 52.8895 40.7149Z" fill="#00A5DF"/>
</svg>
