<svg width="90" height="90" viewBox="0 0 90 90" fill="none" xmlns="http://www.w3.org/2000/svg">
<circle opacity="0.3" cx="45" cy="45" r="45" fill="#00A5DF"/>
<path d="M45.5843 21.2344C40.4177 21.2344 35.4628 23.2868 31.8095 26.9401C28.1562 30.5934 26.1038 35.5483 26.1038 40.7149C26.1038 53.8642 43.271 68.7181 44.0015 69.3513C44.4426 69.7285 45.0039 69.9358 45.5843 69.9358C46.1647 69.9358 46.726 69.7285 47.1671 69.3513C48.0193 68.7181 65.0648 53.8642 65.0648 40.7149C65.0648 35.5483 63.0124 30.5934 59.3591 26.9401C55.7058 23.2868 50.7508 21.2344 45.5843 21.2344ZM45.5843 64.2133C40.3976 59.3431 30.9739 48.848 30.9739 40.7149C30.9739 36.84 32.5132 33.1238 35.2532 30.3838C37.9932 27.6438 41.7094 26.1045 45.5843 26.1045C49.4592 26.1045 53.1754 27.6438 55.9154 30.3838C58.6554 33.1238 60.1947 36.84 60.1947 40.7149C60.1947 48.848 50.771 59.3675 45.5843 64.2133ZM45.5843 30.9746C43.6578 30.9746 41.7747 31.5459 40.1729 32.6162C38.5711 33.6864 37.3227 35.2077 36.5855 36.9875C35.8482 38.7673 35.6553 40.7257 36.0312 42.6151C36.407 44.5046 37.3347 46.2401 38.6969 47.6023C40.0591 48.9645 41.7946 49.8922 43.684 50.268C45.5735 50.6438 47.5319 50.4509 49.3117 49.7137C51.0915 48.9765 52.6127 47.7281 53.683 46.1263C54.7533 44.5245 55.3245 42.6413 55.3245 40.7149C55.3245 38.1316 54.2983 35.6541 52.4717 33.8275C50.645 32.0008 48.1676 30.9746 45.5843 30.9746ZM45.5843 45.585C44.6211 45.585 43.6795 45.2994 42.8786 44.7643C42.0777 44.2291 41.4535 43.4685 41.0849 42.5786C40.7163 41.6887 40.6198 40.7095 40.8077 39.7648C40.9956 38.8201 41.4595 37.9523 42.1406 37.2712C42.8217 36.5901 43.6895 36.1263 44.6342 35.9383C45.5789 35.7504 46.5581 35.8469 47.448 36.2155C48.3379 36.5841 49.0985 37.2083 49.6336 38.0092C50.1688 38.8101 50.4544 39.7517 50.4544 40.7149C50.4544 42.0065 49.9413 43.2453 49.028 44.1586C48.1147 45.0719 46.8759 45.585 45.5843 45.585Z" fill="#00A5DF"/>
</svg>
