<svg width="64" height="64" viewBox="0 0 64 64" fill="none" xmlns="http://www.w3.org/2000/svg">
<circle opacity="0.3" cx="32" cy="32" r="32" fill="#00A5DF"/>
<path d="M32.4998 32.3668C33.3891 31.5971 34.1024 30.645 34.5913 29.5752C35.0802 28.5054 35.3332 27.343 35.3332 26.1668C35.3332 23.9567 34.4552 21.8371 32.8924 20.2743C31.3296 18.7115 29.21 17.8335 26.9998 17.8335C24.7897 17.8335 22.6701 18.7115 21.1073 20.2743C19.5445 21.8371 18.6665 23.9567 18.6665 26.1668C18.6665 27.343 18.9195 28.5054 19.4084 29.5752C19.8973 30.645 20.6105 31.5971 21.4998 32.3668C19.1667 33.4233 17.1873 35.1294 15.7981 37.2811C14.409 39.4328 13.669 41.939 13.6665 44.5002C13.6665 44.9422 13.8421 45.3661 14.1547 45.6787C14.4672 45.9912 14.8911 46.1668 15.3332 46.1668C15.7752 46.1668 16.1991 45.9912 16.5117 45.6787C16.8242 45.3661 16.9998 44.9422 16.9998 44.5002C16.9998 41.848 18.0534 39.3045 19.9288 37.4291C21.8041 35.5537 24.3477 34.5002 26.9998 34.5002C29.652 34.5002 32.1955 35.5537 34.0709 37.4291C35.9463 39.3045 36.9998 41.848 36.9998 44.5002C36.9998 44.9422 37.1754 45.3661 37.488 45.6787C37.8006 45.9912 38.2245 46.1668 38.6665 46.1668C39.1085 46.1668 39.5325 45.9912 39.845 45.6787C40.1576 45.3661 40.3332 44.9422 40.3332 44.5002C40.3307 41.939 39.5907 39.4328 38.2015 37.2811C36.8124 35.1294 34.8329 33.4233 32.4998 32.3668ZM26.9998 31.1668C26.0109 31.1668 25.0442 30.8736 24.222 30.3242C23.3997 29.7748 22.7589 28.9939 22.3804 28.0802C22.002 27.1666 21.903 26.1613 22.0959 25.1914C22.2888 24.2215 22.765 23.3306 23.4643 22.6313C24.1636 21.932 25.0545 21.4558 26.0244 21.2629C26.9943 21.07 27.9996 21.169 28.9133 21.5474C29.8269 21.9259 30.6078 22.5667 31.1572 23.389C31.7066 24.2112 31.9998 25.1779 31.9998 26.1668C31.9998 27.4929 31.4731 28.7647 30.5354 29.7024C29.5977 30.64 28.3259 31.1668 26.9998 31.1668ZM43.2332 31.7002C44.2998 30.499 44.9965 29.0153 45.2395 27.4274C45.4825 25.8395 45.2614 24.2153 44.6028 22.7502C43.9442 21.285 42.8762 20.0415 41.5273 19.1692C40.1784 18.2969 38.6062 17.8331 36.9998 17.8335C36.5578 17.8335 36.1339 18.0091 35.8213 18.3217C35.5088 18.6342 35.3332 19.0581 35.3332 19.5002C35.3332 19.9422 35.5088 20.3661 35.8213 20.6787C36.1339 20.9912 36.5578 21.1668 36.9998 21.1668C38.3259 21.1668 39.5977 21.6936 40.5354 22.6313C41.4731 23.569 41.9998 24.8407 41.9998 26.1668C41.9975 27.0422 41.7653 27.9017 41.3266 28.6592C40.8879 29.4167 40.258 30.0458 39.4998 30.4835C39.2527 30.626 39.0464 30.8296 38.9004 31.0747C38.7545 31.3199 38.674 31.5983 38.6665 31.8835C38.6595 32.1664 38.7247 32.4465 38.8559 32.6973C38.9872 32.948 39.1801 33.1613 39.4165 33.3168L40.0665 33.7502L40.2832 33.8668C42.2922 34.8197 43.987 36.3268 45.1681 38.2107C46.3492 40.0946 46.9674 42.2767 46.9498 44.5002C46.9498 44.9422 47.1254 45.3661 47.438 45.6787C47.7506 45.9912 48.1745 46.1668 48.6165 46.1668C49.0585 46.1668 49.4825 45.9912 49.795 45.6787C50.1076 45.3661 50.2832 44.9422 50.2832 44.5002C50.2968 41.9425 49.6562 39.4239 48.4223 37.1836C47.1884 34.9433 45.4021 33.0557 43.2332 31.7002Z" fill="#00A5DF"/>
</svg>
