<svg width="24" height="24" viewBox="0 0 24 24" fill="none" xmlns="http://www.w3.org/2000/svg">
<path d="M17.8906 12.0231C17.4095 11.9752 16.351 11.9752 16.351 11.3015C16.351 10.3875 17.698 9.1847 19.8631 7.88561C20.5365 7.45248 21.9322 6.77909 21.9322 5.86483C21.9322 5.14315 21.4027 4.61403 20.2962 4.75831C19.2377 4.90258 17.6017 5.62427 15.437 7.45248C13.1757 9.32898 11.0589 12.4563 11.0589 15.5353C11.0589 18.6626 13.1757 21.7899 16.5918 21.7899C19.334 21.7899 21.6916 19.7211 21.6916 16.8824C21.6913 14.7173 20.1999 12.2157 17.8906 12.0231Z" fill="#002855"/>
<path d="M11.1284 10.6692C10.7332 10.4627 10.2998 10.3275 9.83201 10.2887C9.35089 10.2407 8.29235 10.2407 8.29235 9.56697C8.29235 8.65301 9.63944 7.45021 11.8045 6.15111C12.4782 5.71798 13.8733 5.04459 13.8733 4.13033C13.8733 3.40865 13.3438 2.87954 12.2373 3.02381C11.1788 3.16809 9.54285 3.88977 7.3781 5.71798C5.11706 7.59448 3 10.7218 3 13.8011C3 16.9284 5.11676 20.0557 8.53292 20.0557C9.336 20.0557 10.1057 19.8771 10.793 19.5548C10.119 18.3362 9.75972 16.9263 9.75972 15.5345C9.76002 13.816 10.3134 12.1494 11.1284 10.6692Z" fill="#002855"/>
</svg>
