<svg width="60" height="76" viewBox="0 0 60 76" fill="none" xmlns="http://www.w3.org/2000/svg">
<g filter="url(#filter0_ddd_11382_116530)">
<g clip-path="url(#clip0_11382_116530)">
<path d="M30.0002 1C16.1934 1 5 12.0862 5 25.7626C5 44.191 29.0582 65.9333 29.0582 65.9333C29.5735 66.7116 30.4261 66.7116 30.9426 65.9333C30.9426 65.9333 54.9996 44.191 54.9996 25.7626C55 12.0862 43.8053 1 30.0002 1ZM30.0002 39.3464C22.2385 39.3464 15.9465 33.1142 15.9465 25.4261C15.9465 17.7381 22.2385 11.5054 30.0002 11.5054C37.7619 11.5054 44.0523 17.7377 44.0523 25.4278C44.0523 33.1179 37.7615 39.346 30.0002 39.346V39.3464Z" fill="#00B2F0"/>
<circle cx="30.0004" cy="26.0004" r="16.3793" fill="#00B2F0"/>
<path d="M34.3112 40.7097C30.5642 40.7097 27.4514 37.602 27.4514 33.7321V21.536C27.4514 17.842 24.4538 14.793 20.8221 14.793H15.3457V34.1425C15.3457 48.6841 34.3112 52.2022 34.3112 40.7097Z" fill="#002855"/>
<path d="M34.3105 21.5054C34.3105 17.8281 37.2991 14.793 40.9197 14.793H46.3795V27.2839C46.3795 36.0976 40.1726 40.8255 34.3105 40.6503V21.5054Z" fill="white"/>
</g>
</g>
<defs>
<filter id="filter0_ddd_11382_116530" x="0" y="0" width="60" height="75.5156" filterUnits="userSpaceOnUse" color-interpolation-filters="sRGB">
<feFlood flood-opacity="0" result="BackgroundImageFix"/>
<feColorMatrix in="SourceAlpha" type="matrix" values="0 0 0 0 0 0 0 0 0 0 0 0 0 0 0 0 0 0 127 0" result="hardAlpha"/>
<feMorphology radius="1" operator="erode" in="SourceAlpha" result="effect1_dropShadow_11382_116530"/>
<feOffset dy="2"/>
<feGaussianBlur stdDeviation="2"/>
<feColorMatrix type="matrix" values="0 0 0 0 0.4 0 0 0 0 0.431373 0 0 0 0 0.490196 0 0 0 0.06 0"/>
<feBlend mode="normal" in2="BackgroundImageFix" result="effect1_dropShadow_11382_116530"/>
<feColorMatrix in="SourceAlpha" type="matrix" values="0 0 0 0 0 0 0 0 0 0 0 0 0 0 0 0 0 0 127 0" result="hardAlpha"/>
<feMorphology radius="1" operator="erode" in="SourceAlpha" result="effect2_dropShadow_11382_116530"/>
<feOffset dy="4"/>
<feGaussianBlur stdDeviation="3"/>
<feColorMatrix type="matrix" values="0 0 0 0 0.4 0 0 0 0 0.431373 0 0 0 0 0.490196 0 0 0 0.1 0"/>
<feBlend mode="normal" in2="effect1_dropShadow_11382_116530" result="effect2_dropShadow_11382_116530"/>
<feColorMatrix in="SourceAlpha" type="matrix" values="0 0 0 0 0 0 0 0 0 0 0 0 0 0 0 0 0 0 127 0" result="hardAlpha"/>
<feOffset/>
<feGaussianBlur stdDeviation="0.5"/>
<feColorMatrix type="matrix" values="0 0 0 0 0.4 0 0 0 0 0.431373 0 0 0 0 0.490196 0 0 0 0.06 0"/>
<feBlend mode="normal" in2="effect2_dropShadow_11382_116530" result="effect3_dropShadow_11382_116530"/>
<feBlend mode="normal" in="SourceGraphic" in2="effect3_dropShadow_11382_116530" result="shape"/>
</filter>
<clipPath id="clip0_11382_116530">
<rect width="50" height="65.5172" fill="white" transform="translate(5 1)"/>
</clipPath>
</defs>
</svg>
