<?xml version="1.0" encoding="UTF-8"?>
<svg width="80px" height="80px" viewBox="0 0 80 80" version="1.1" xmlns="http://www.w3.org/2000/svg" xmlns:xlink="http://www.w3.org/1999/xlink">
    <title>8251CEA4-D560-4CCD-8989-31CF739144AA@0x</title>
    <g id="-" stroke="none" stroke-width="1" fill="none" fill-rule="evenodd">
        <g id="Contact-Us-Page-Success" transform="translate(-680.000000, -432.000000)">
            <g id="Content" transform="translate(304.000000, 152.000000)">
                <g id="check_circle_outline-24px" transform="translate(376.000000, 280.000000)">
                    <polygon id="Path" points="0 0 80 0 80 80 0 80"></polygon>
                    <path d="M40.4761905,6.66666667 C21.8133333,6.66666667 6.66666667,21.8133333 6.66666667,40.4761905 C6.66666667,59.1390476 21.8133333,74.2857143 40.4761905,74.2857143 C59.1390476,74.2857143 74.2857143,59.1390476 74.2857143,40.4761905 C74.2857143,21.8133333 59.1390476,6.66666667 40.4761905,6.66666667 Z M40.4761905,67.5238095 C25.5661905,67.5238095 13.4285714,55.3861905 13.4285714,40.4761905 C13.4285714,25.5661905 25.5661905,13.4285714 40.4761905,13.4285714 C55.3861905,13.4285714 67.5238095,25.5661905 67.5238095,40.4761905 C67.5238095,55.3861905 55.3861905,67.5238095 40.4761905,67.5238095 Z M53.5942857,27.9328571 L33.7142857,47.8128571 L27.3580952,41.4566667 C26.0395238,40.1380952 23.9095238,40.1380952 22.5909524,41.4566667 C21.272381,42.7752381 21.272381,44.9052381 22.5909524,46.2238095 L31.347619,54.9804762 C32.6661905,56.2990476 34.7961905,56.2990476 36.1147619,54.9804762 L58.3952381,32.7 C59.7138095,31.3814286 59.7138095,29.2514286 58.3952381,27.9328571 C57.0766667,26.6142857 54.9128571,26.6142857 53.5942857,27.9328571 Z" id="Shape" fill="#470A68"></path>
                </g>
            </g>
        </g>
    </g>
</svg>