<?xml version="1.0" encoding="UTF-8"?>
<svg width="14px" height="20px" viewBox="0 0 14 20" version="1.1" xmlns="http://www.w3.org/2000/svg" xmlns:xlink="http://www.w3.org/1999/xlink">
    <!-- Generator: sketchtool 60.1 (101010) - https://sketch.com -->
    <title>6DC81E01-509A-4752-96AE-C74A3318C9D6@3.00x</title>
    <desc>Created with sketchtool.</desc>
    <g id="Symbols" stroke="none" stroke-width="1" fill="none" fill-rule="evenodd">
        <g id="icon/DMGlocation" transform="translate(-5.000000, -2.000000)">
            <g>
                <g>
                    <polygon id="Path" points="0 0 24 0 24 24 0 24"></polygon>
                    <path d="M12,2 C15.86,2 19,5.14 19,9 C19,13.17 14.58,18.92 12.76,21.11 C12.36,21.59 11.63,21.59 11.23,21.11 C9.42,18.92 5,13.17 5,9 C5,5.14 8.14,2 12,2 Z M12.5,6 L11.5,6 C11.225,6 11,6.225 11,6.5 L11,6.5 L11,8 L9.5,8 C9.225,8 9,8.225 9,8.5 L9,8.5 L9,9.5 C9,9.775 9.225,10 9.5,10 L9.5,10 L11,10 L11,11.5 C11,11.775 11.225,12 11.5,12 L11.5,12 L12.5,12 C12.775,12 13,11.775 13,11.5 L13,11.5 L13,10 L14.5,10 C14.775,10 15,9.775 15,9.5 L15,9.5 L15,8.5 C15,8.225 14.775,8 14.5,8 L14.5,8 L13,8 L13,6.5 C13,6.225 12.775,6 12.5,6 L12.5,6 Z" id="Combined-Shape" fill="#1F334F"></path>
                </g>
            </g>
        </g>
    </g>
</svg>