<svg width="24" height="24" viewBox="0 0 24 24" fill="none" xmlns="http://www.w3.org/2000/svg">
<path d="M18.2338 11.3199L17.2284 10.8395L16.7913 9.63833C16.1356 7.87667 14.3434 6.6355 12.3327 6.59546C10.7591 6.59546 9.88482 7.03588 8.26747 7.63644C7.30581 7.95674 6.51899 8.63739 6.08187 9.47818L5.77589 9.99867C5.42619 10.6393 5.73218 11.4 6.38786 11.7203C7.08725 12.0406 7.91778 11.8004 8.26747 11.1598L8.57346 10.5992C8.70459 10.319 8.96687 10.1188 9.27285 9.99867L10.4531 9.55826L9.79739 12.0006C9.53512 12.8414 9.79739 13.7222 10.4531 14.3628L13.0321 16.9653C13.3818 17.2856 13.6003 17.6859 13.6878 18.0863L14.5183 21.0091C14.6931 21.6897 15.4362 22.1301 16.1793 21.9299C16.9662 21.7698 17.4033 21.0891 17.2284 20.4085L16.2668 16.8451C16.1356 16.4047 15.9171 16.0444 15.6111 15.7241L13.6003 13.7222L14.3434 10.9996L14.6057 11.6402C14.8243 12.2808 15.3488 12.8013 16.0045 13.1216L17.0099 13.6021C17.6656 13.9224 18.4961 13.6421 18.8458 13.0415C19.1955 12.4009 18.9332 11.6002 18.2338 11.3199ZM8.22376 16.9252C8.09263 17.2455 7.87407 17.5658 7.61179 17.806L5.42619 19.8079C4.85794 20.2884 4.85794 21.1292 5.42619 21.6096C5.95074 22.1301 6.86869 22.1301 7.39323 21.6096L10.016 19.2474C10.2782 19.0072 10.4531 18.6869 10.6279 18.3666L11.1962 17.0053C8.79202 14.603 9.53512 15.3637 9.14171 14.8833L8.22376 16.9252Z" fill="#002855"/>
<path d="M16 4C16 5.125 15.0833 6 14 6C12.875 6 12 5.125 12 4C12 2.91667 12.875 2 14 2C15.0833 2 16 2.91667 16 4Z" fill="#002855"/>
</svg>
