<svg width="24" height="24" viewBox="0 0 24 24" fill="none" xmlns="http://www.w3.org/2000/svg">
<path d="M12 22C17.5228 22 22 17.5228 22 12C22 6.47715 17.5228 2 12 2C6.47715 2 2 6.47715 2 12C2 17.5228 6.47715 22 12 22Z" fill="#002855"/>
<path d="M12.0467 19.9063C16.37 19.9063 19.8748 16.4015 19.8748 12.0782C19.8748 7.75483 16.37 4.25006 12.0467 4.25006C7.72334 4.25006 4.21857 7.75483 4.21857 12.0782C4.21857 16.4015 7.72334 19.9063 12.0467 19.9063Z" fill="white"/>
<path d="M12 17.7501C15.1756 17.7501 17.7499 15.1757 17.7499 12.0001C17.7499 8.82452 15.1756 6.25018 12 6.25018C8.82437 6.25018 6.25003 8.82452 6.25003 12.0001C6.25003 15.1757 8.82437 17.7501 12 17.7501Z" fill="#002855"/>
<path d="M11.9374 15.8127C14.0602 15.8127 15.7811 14.0918 15.7811 11.9689C15.7811 9.84609 14.0602 8.12518 11.9374 8.12518C9.8145 8.12518 8.0936 9.84609 8.0936 11.9689C8.0936 14.0918 9.8145 15.8127 11.9374 15.8127Z" fill="white"/>
<path d="M12 13.9063C13.0528 13.9063 13.9062 13.0529 13.9062 12.0001C13.9062 10.9474 13.0528 10.0939 12 10.0939C10.9472 10.0939 10.0938 10.9474 10.0938 12.0001C10.0938 13.0529 10.9472 13.9063 12 13.9063Z" fill="#002855"/>
</svg>
