<svg width="24" height="24" viewBox="0 0 24 24" fill="none" xmlns="http://www.w3.org/2000/svg">
<path d="M21.3799 5.75992C21.3458 5.63223 21.2867 5.51257 21.206 5.40786C21.1253 5.30316 21.0247 5.21549 20.9099 5.14992L15.7099 2.14992C15.5964 2.08339 15.4709 2.03992 15.3405 2.022C15.2101 2.00409 15.0775 2.01209 14.9502 2.04553C14.8229 2.07897 14.7035 2.13721 14.5988 2.2169C14.4941 2.29659 14.4061 2.39616 14.3399 2.50992L11.9999 6.56992L9.65995 2.50992C9.59379 2.39616 9.50582 2.29659 9.4011 2.2169C9.29638 2.13721 9.17695 2.07897 9.04968 2.04553C8.9224 2.01209 8.78978 2.00409 8.65941 2.022C8.52904 2.03992 8.40349 2.08339 8.28995 2.14992L3.08995 5.14992C2.97518 5.21549 2.87455 5.30316 2.79388 5.40786C2.7132 5.51257 2.65409 5.63223 2.61995 5.75992C2.55377 6.01337 2.58967 6.28266 2.71995 6.50992L6.71995 13.3399C6.2737 14.1575 6.02699 15.0689 5.99995 15.9999C5.99757 16.9082 6.20143 17.8052 6.59617 18.6232C6.9909 19.4412 7.56621 20.159 8.2787 20.7223C8.9912 21.2856 9.82229 21.6798 10.7093 21.8752C11.5963 22.0706 12.5162 22.062 13.3994 21.8502C14.2826 21.6383 15.1062 21.2287 15.8081 20.6522C16.51 20.0757 17.0719 19.3474 17.4513 18.5222C17.8307 17.6969 18.0179 16.7963 17.9986 15.8882C17.9793 14.9801 17.7541 14.0883 17.3399 13.2799L21.2399 6.51992C21.3125 6.40886 21.3623 6.28447 21.3863 6.15399C21.4104 6.02351 21.4082 5.88955 21.3799 5.75992ZM4.99995 6.37992L8.45995 4.37992L11.6799 9.99992C10.3074 10.0847 9.00674 10.6431 7.99995 11.5799L4.99995 6.37992ZM11.9999 19.9999C10.9391 19.9999 9.92167 19.5785 9.17152 18.8283C8.42138 18.0782 7.99995 17.0608 7.99995 15.9999C7.99995 14.9391 8.42138 13.9216 9.17152 13.1715C9.92167 12.4213 10.9391 11.9999 11.9999 11.9999C13.0608 11.9999 14.0782 12.4213 14.8284 13.1715C15.5785 13.9216 15.9999 14.9391 15.9999 15.9999C15.9999 17.0608 15.5785 18.0782 14.8284 18.8283C14.0782 19.5785 13.0608 19.9999 11.9999 19.9999ZM15.9999 11.5499C15.457 11.054 14.8262 10.664 14.1399 10.3999L13.1599 8.56992L15.5799 4.37992L19.0399 6.37992L15.9999 11.5499Z" fill="#002855"/>
</svg>
