<svg width="24" height="24" viewBox="0 0 24 24" fill="none" xmlns="http://www.w3.org/2000/svg">
<path d="M19 2H4.99995C3.29995 2 1.99995 3.3 1.99995 5V19C1.99995 20.7 3.29995 22 4.99995 22H19C20.7 22 22 20.7 22 19V5C22 3.3 20.7 2 19 2ZM7.99996 17C7.99996 17.6 7.59996 18 6.99995 18C6.39995 18 5.99995 17.6 5.99995 17V13C5.99995 12.4 6.39995 12 6.99995 12C7.59996 12 7.99996 12.4 7.99996 13V17ZM13 17C13 17.6 12.6 18 12 18C11.4 18 11 17.6 11 17V7C11 6.4 11.4 6 12 6C12.6 6 13 6.4 13 7V17ZM18 17C18 17.6 17.6 18 17 18C16.4 18 16 17.6 16 17V11C16 10.4 16.4 10 17 10C17.6 10 18 10.4 18 11V17Z" fill="#002855"/>
</svg>
