<svg width="24" height="24" viewBox="0 0 24 24" fill="none" xmlns="http://www.w3.org/2000/svg">
<path d="M22 10.0349C22.1 9.57453 21.7 9.02212 21.2 9.02212L15.5 8.28558L12.9 3.49805C12.8 3.31391 12.7 3.22184 12.5 3.12977C12 2.85357 11.4 3.03771 11.1 3.49805L8.6 8.28558L2.9 9.02212C2.6 9.02212 2.4 9.11419 2.3 9.29833C1.9 9.6666 1.9 10.219 2.3 10.5873L6.4 14.27L5.4 19.5179C5.4 19.702 5.4 19.8861 5.5 20.0703C5.8 20.5306 6.4 20.7148 6.9 20.4386L12 17.9527L17.1 20.4386C17.2 20.5306 17.4 20.5306 17.6 20.5306C17.7 20.5306 17.7 20.5306 17.8 20.5306C18.3 20.4386 18.7 19.9782 18.6 19.4258L17.6 14.1779L21.7 10.4952C21.9 10.4031 22 10.219 22 10.0349Z" fill="#002855"/>
</svg>
