<svg width="24" height="24" viewBox="0 0 24 24" fill="none" xmlns="http://www.w3.org/2000/svg">
<path d="M20.6465 12.6254C20.5166 12.5181 20.3593 12.4494 20.1923 12.4272C20.0254 12.4049 19.8555 12.43 19.7022 12.4995C18.7512 12.9347 17.7172 13.1587 16.6714 13.156C14.7368 13.1537 12.8815 12.3866 11.5102 11.022C10.1389 9.6574 9.36262 7.80597 9.35076 5.8714C9.35486 5.26509 9.43032 4.66138 9.57559 4.07272C9.60642 3.91582 9.59486 3.75354 9.5421 3.6026C9.48934 3.45165 9.39729 3.3175 9.27543 3.21397C9.15357 3.11044 9.00632 3.04127 8.84883 3.01358C8.69135 2.9859 8.52933 3.0007 8.37947 3.05647C6.9696 3.69042 5.74402 4.67236 4.81787 5.91006C3.89172 7.14775 3.2954 8.60056 3.08492 10.132C2.87445 11.6635 3.05674 13.2233 3.61465 14.6649C4.17257 16.1066 5.08781 17.3827 6.27439 18.3735C7.46096 19.3643 8.87993 20.0372 10.398 20.329C11.916 20.6208 13.4834 20.5219 14.9527 20.0416C16.422 19.5613 17.7452 18.7154 18.7978 17.5833C19.8504 16.4512 20.5979 15.0701 20.9702 13.5697C21.0156 13.398 21.009 13.2166 20.9514 13.0485C20.8938 12.8805 20.7877 12.7333 20.6465 12.6254ZM12.1027 18.642C10.5934 18.6314 9.1243 18.1545 7.89652 17.2766C6.66873 16.3987 5.74231 15.1628 5.24409 13.738C4.74587 12.3133 4.70022 10.7694 5.11338 9.31767C5.52654 7.86597 6.37831 6.57747 7.55208 5.62858V5.8714C7.55446 8.28926 8.516 10.6074 10.2257 12.3171C11.9354 14.0268 14.2535 14.9883 16.6714 14.9907C17.3062 14.993 17.9394 14.9267 18.56 14.7928C17.9394 15.9669 17.0099 16.9493 15.872 17.634C14.7341 18.3187 13.4308 18.6796 12.1027 18.678V18.642Z" fill="#002855"/>
</svg>
