<svg width="24" height="24" viewBox="0 0 24 24" fill="none" xmlns="http://www.w3.org/2000/svg">
<path d="M17.66 8.94444C17.9223 8.94342 18.1737 8.84699 18.36 8.67593L19.07 8.01852C19.1747 7.93551 19.2597 7.83337 19.3197 7.71849C19.3797 7.60362 19.4135 7.47849 19.4188 7.35098C19.4241 7.22346 19.4009 7.0963 19.3506 6.97748C19.3004 6.85866 19.2241 6.75074 19.1266 6.66051C19.0292 6.57027 18.9126 6.49966 18.7843 6.45311C18.656 6.40656 18.5187 6.38508 18.3809 6.39C18.2432 6.39493 18.1081 6.42616 17.984 6.48174C17.86 6.53731 17.7496 6.61604 17.66 6.71296L17 7.37037C16.8137 7.54385 16.7092 7.77853 16.7092 8.02315C16.7092 8.26776 16.8137 8.50244 17 8.67593C17.1763 8.8383 17.4116 8.93403 17.66 8.94444ZM12 6.77778C12.2652 6.77778 12.5196 6.68022 12.7071 6.50658C12.8946 6.33294 13 6.09742 13 5.85185V4.92593C13 4.68036 12.8946 4.44484 12.7071 4.2712C12.5196 4.09755 12.2652 4 12 4C11.7348 4 11.4804 4.09755 11.2929 4.2712C11.1054 4.44484 11 4.68036 11 4.92593V5.85185C11 6.09742 11.1054 6.33294 11.2929 6.50658C11.4804 6.68022 11.7348 6.77778 12 6.77778ZM4 12.3333H3C2.73478 12.3333 2.48043 12.4309 2.29289 12.6045C2.10536 12.7782 2 13.0137 2 13.2593C2 13.5048 2.10536 13.7403 2.29289 13.914C2.48043 14.0876 2.73478 14.1852 3 14.1852H4C4.26522 14.1852 4.51957 14.0876 4.70711 13.914C4.89464 13.7403 5 13.5048 5 13.2593C5 13.0137 4.89464 12.7782 4.70711 12.6045C4.51957 12.4309 4.26522 12.3333 4 12.3333ZM5.64 8.67593C5.82626 8.84699 6.07766 8.94342 6.34 8.94444C6.47161 8.94515 6.60207 8.92179 6.72391 8.87571C6.84574 8.82964 6.95656 8.76174 7.05 8.67593C7.23625 8.50244 7.34079 8.26776 7.34079 8.02315C7.34079 7.77853 7.23625 7.54385 7.05 7.37037L6.34 6.71296C6.1487 6.56127 5.90262 6.48201 5.65095 6.49101C5.39927 6.50001 5.16053 6.59661 4.98244 6.76152C4.80434 6.92642 4.70001 7.14747 4.69029 7.38051C4.68057 7.61354 4.76617 7.84139 4.93 8.01852L5.64 8.67593ZM21 12.3333H20C19.7348 12.3333 19.4804 12.4309 19.2929 12.6045C19.1054 12.7782 19 13.0137 19 13.2593C19 13.5048 19.1054 13.7403 19.2929 13.914C19.4804 14.0876 19.7348 14.1852 20 14.1852H21C21.2652 14.1852 21.5196 14.0876 21.7071 13.914C21.8946 13.7403 22 13.5048 22 13.2593C22 13.0137 21.8946 12.7782 21.7071 12.6045C21.5196 12.4309 21.2652 12.3333 21 12.3333ZM11 18.8148H8C7.73478 18.8148 7.48043 18.9124 7.29289 19.086C7.10536 19.2597 7 19.4952 7 19.7407C7 19.9863 7.10536 20.2218 7.29289 20.3955C7.48043 20.5691 7.73478 20.6667 8 20.6667H11C11.2652 20.6667 11.5196 20.5691 11.7071 20.3955C11.8946 20.2218 12 19.9863 12 19.7407C12 19.4952 11.8946 19.2597 11.7071 19.086C11.5196 18.9124 11.2652 18.8148 11 18.8148ZM18 15.1111H17.12C17.3726 14.5218 17.5015 13.8933 17.5 13.2593C17.5 11.9086 16.9205 10.6133 15.8891 9.65825C14.8576 8.70321 13.4587 8.16667 12 8.16667C10.5413 8.16667 9.14236 8.70321 8.11091 9.65825C7.07946 10.6133 6.5 11.9086 6.5 13.2593C6.49848 13.8933 6.62744 14.5218 6.88 15.1111H6C5.73478 15.1111 5.48043 15.2087 5.29289 15.3823C5.10536 15.556 5 15.7915 5 16.037C5 16.2826 5.10536 16.5181 5.29289 16.6918C5.48043 16.8654 5.73478 16.963 6 16.963H18C18.2652 16.963 18.5196 16.8654 18.7071 16.6918C18.8946 16.5181 19 16.2826 19 16.037C19 15.7915 18.8946 15.556 18.7071 15.3823C18.5196 15.2087 18.2652 15.1111 18 15.1111ZM14.85 15.1111H9.15C8.72987 14.5718 8.50258 13.9242 8.5 13.2593C8.5 12.3998 8.86875 11.5755 9.52513 10.9677C10.1815 10.36 11.0717 10.0185 12 10.0185C12.9283 10.0185 13.8185 10.36 14.4749 10.9677C15.1313 11.5755 15.5 12.3998 15.5 13.2593C15.4974 13.9242 15.2701 14.5718 14.85 15.1111ZM16 18.8148H15C14.7348 18.8148 14.4804 18.9124 14.2929 19.086C14.1054 19.2597 14 19.4952 14 19.7407C14 19.9863 14.1054 20.2218 14.2929 20.3955C14.4804 20.5691 14.7348 20.6667 15 20.6667H16C16.2652 20.6667 16.5196 20.5691 16.7071 20.3955C16.8946 20.2218 17 19.9863 17 19.7407C17 19.4952 16.8946 19.2597 16.7071 19.086C16.5196 18.9124 16.2652 18.8148 16 18.8148Z" fill="#002855"/>
</svg>
