<svg width="144" height="67" viewBox="0 0 144 67" fill="none" xmlns="http://www.w3.org/2000/svg">
  <path d="M8.61975 60.334V62.8766H6.5675V60.334H5.0625V66.9309H6.5675V64.3196H8.61975V66.9309H10.1247V60.334H8.61975Z" fill="#00A5DF"/>
  <path d="M12.6562 60.334V66.9309H16.7608V65.4878H14.1612V64.3196H16.4871V62.8766H14.1612V61.7771H16.6924V60.334H12.6562Z" fill="#00A5DF"/>
  <path d="M21.6859 62.0519L22.4384 64.4571H20.9334L21.6859 62.0519ZM20.7282 60.334L18.4707 66.9309H20.1125L20.4545 65.9001H22.9173L23.2593 66.9309H24.9011L22.6436 60.334H20.7282Z" fill="#00A5DF"/>
  <path d="M26.8164 60.334V66.9309H30.7157V65.4878H28.3214V60.334H26.8164Z" fill="#00A5DF"/>
  <path d="M31.6055 60.334V61.7771H33.3157V66.9309H34.8207V61.7771H36.4625V60.334H31.6055Z" fill="#00A5DF"/>
  <path d="M42.0719 60.334V62.8766H40.0196V60.334H38.5146V66.9309H40.0196V64.3196H42.0719V66.9309H43.5769V60.334H42.0719Z" fill="#00A5DF"/>
  <path d="M51.1701 61.3648L52.333 64.5945H50.0071L51.1701 61.3648ZM50.6912 60.334L48.2285 66.9309H49.1862L49.7335 65.4878H52.6751L53.2223 66.9309H54.1801L51.7174 60.334H50.6912Z" fill="#00A5DF"/>
  <path d="M60.0634 60.334V65.213L56.7114 60.334H56.0273V66.9309H56.9167V61.9832L60.2687 66.9309H60.9528V60.334H60.0634Z" fill="#00A5DF"/>
  <path d="M64.3727 66.1063H66.0829C66.767 66.1063 67.3143 65.9002 67.7247 65.4191C68.1352 64.9381 68.3404 64.3884 68.3404 63.6325C68.3404 62.9453 68.1352 62.3268 67.7247 61.8458C67.3143 61.3648 66.767 61.1586 66.0829 61.1586H64.3727V66.1063ZM63.4834 60.334H66.0145C66.9038 60.334 67.6563 60.6776 68.2036 61.2961C68.8193 61.9145 69.0929 62.6704 69.0929 63.6325C69.0929 64.5258 68.8193 65.3504 68.2036 65.9689C67.5879 66.5873 66.9038 66.9309 66.0145 66.9309H63.4834V60.334Z" fill="#00A5DF"/>
  <path d="M76.9605 67.0003C76.0027 67.0003 75.1818 66.6567 74.4978 66.0383C73.8821 65.4198 73.54 64.5952 73.54 63.5644C73.54 62.6024 73.8821 61.7778 74.4978 61.1593C75.1134 60.4721 75.9343 60.1973 76.9605 60.1973C77.5761 60.1973 78.055 60.3347 78.6023 60.6096C79.0811 60.8844 79.4916 61.228 79.7652 61.709L78.4655 62.4649C78.3286 62.1901 78.1234 61.9839 77.8498 61.8465C77.5761 61.7091 77.3025 61.6403 76.9605 61.6403C76.3448 61.6403 75.9343 61.8465 75.5923 62.1901C75.2503 62.5337 75.045 63.0147 75.045 63.6332C75.045 64.2516 75.1818 64.7326 75.5923 65.0762C75.9343 65.4198 76.4132 65.626 76.9605 65.626C77.3025 65.626 77.5761 65.5573 77.8498 65.4198C78.1234 65.2824 78.3286 65.0762 78.4655 64.8013L79.7652 65.5572C79.4916 66.0383 79.0811 66.3819 78.6023 66.6567C78.055 66.9316 77.5077 67.0003 76.9605 67.0003Z" fill="#00A5DF"/>
  <path d="M84.4847 62.0519L85.2372 64.4571H83.7322L84.4847 62.0519ZM83.527 60.334L81.2695 66.9309H82.9114L83.2534 65.9001H85.7161L86.0581 66.9309H87.6999L85.4425 60.334H83.527Z" fill="#00A5DF"/>
  <path d="M92.2148 61.7083H91.1202V63.4263H92.2148C92.42 63.4263 92.6252 63.3576 92.762 63.1514C92.8989 63.014 92.9673 62.8078 92.9673 62.533C92.9673 62.2581 92.8989 62.1207 92.762 61.9145C92.6252 61.8458 92.42 61.7083 92.2148 61.7083ZM94.6091 66.9309H93.0357L91.8043 64.8007H91.1202V66.9309H89.6152V60.334H92.2148C92.8304 60.334 93.3777 60.5401 93.7882 61.0212C94.1986 61.4335 94.4723 61.9832 94.4723 62.6017C94.4723 63.014 94.3354 63.3576 94.1302 63.7012C93.925 64.0448 93.5829 64.3196 93.2409 64.5258L94.6091 66.9309Z" fill="#00A5DF"/>
  <path d="M96.7305 60.334V66.9309H100.835V65.4878H98.2355V64.3196H100.561V62.8766H98.2355V61.7771H100.835V60.334H96.7305Z" fill="#00A5DF"/>
  <path d="M28.6632 0V17.3169C25.7216 15.0492 22.096 13.7436 18.1283 13.7436C8.07222 13.7436 0 22.3333 0 32.9159C0 43.4984 8.14062 52.0882 18.1283 52.0882C22.3012 52.0882 26.2005 50.5764 29.2789 48.0338C29.8946 50.3015 32.4941 51.6758 34.8884 51.882H40.0875V50.7138V40.1312V39.1692V0H28.6632ZM18.6071 41.5743C14.0922 41.5743 10.4665 37.7261 10.4665 32.9159C10.4665 28.1743 14.0922 24.2574 18.6071 24.2574C23.1221 24.2574 26.7478 28.1056 26.7478 32.9159C26.7478 37.7261 23.1221 41.5743 18.6071 41.5743Z" fill="#002855"/>
  <path d="M101.245 0.207031H89.752V51.9516H101.245V0.207031Z" fill="#002855"/>
  <path d="M69.2974 44.1174C64.8509 44.1174 61.1568 40.4754 61.1568 35.94V21.6467C61.1568 17.3175 57.5996 13.7441 53.2898 13.7441H46.791V36.421C46.791 53.4631 69.2974 57.5862 69.2974 44.1174Z" fill="#002855"/>
  <path d="M69.2979 21.6467C69.2979 17.3175 72.8551 13.7441 77.1648 13.7441H83.6637V28.4498C83.6637 38.8262 76.2755 44.3923 69.2979 44.1862V21.6467Z" fill="#00A5DF"/>
  <path d="M137.843 13.3308C135.38 13.6057 132.986 15.461 132.576 17.7974V33.74C132.576 33.9462 132.576 34.221 132.576 34.4272C132.576 38.6877 129.087 41.0241 126.624 41.0241C124.161 41.0241 121.083 38.6877 121.083 34.4272C121.083 34.0836 121.015 33.74 121.015 33.3277V18.2098C120.741 15.6672 117.868 13.6057 115.268 13.3308H108.975V25.0815V33.3277C108.975 39.7185 110.616 43.8415 113.763 47.14C116.978 50.4384 121.288 52.0877 126.556 52.0877C128.539 52.0877 130.387 51.7441 132.097 51.0569C132.781 50.782 133.396 50.5072 133.944 50.0949C133.739 51.8128 133.123 54.0118 132.028 55.18C130.729 56.5543 128.882 57.1728 126.487 57.1728C124.161 57.1728 122.314 56.3482 120.946 54.5615H109.453V54.6302C110.822 58.4097 113.011 61.4333 115.952 63.6323C118.962 65.9 122.451 66.9995 126.419 66.9995C129.771 66.9995 132.781 66.1748 135.449 64.5943C138.117 63.0138 140.237 60.8148 141.742 58.0661C143.247 55.3174 144 52.2251 144 48.9267V24.2569V13.1934H137.843V13.3308Z" fill="#002855"/>
  </svg>
  