<svg width="204" height="95" viewBox="0 0 204 95" fill="none" xmlns="http://www.w3.org/2000/svg">
<path d="M12.2108 85.5483V89.1535H9.30347V85.5483H7.17139V94.9022H9.30347V91.1996H12.2108V94.9022H14.3429V85.5483H12.2108Z" fill="white"/>
<path d="M17.9287 85.5487V94.9026H23.7434V92.8564H20.0608V91.2H23.3558V89.1538H20.0608V87.5949H23.6465V85.5487H17.9287Z" fill="white"/>
<path d="M30.7214 87.9846L31.7874 91.3949H29.6553L30.7214 87.9846ZM29.3646 85.5487L26.1665 94.9026H28.4924L28.9769 93.441H32.4658L32.9504 94.9026H35.2762L32.0781 85.5487H29.3646Z" fill="white"/>
<path d="M37.9897 85.5487V94.9026H43.5137V92.8564H40.1218V85.5487H37.9897Z" fill="white"/>
<path d="M44.7734 85.5487V87.5949H47.1962V94.9026H49.3283V87.5949H51.6542V85.5487H44.7734Z" fill="white"/>
<path d="M59.601 85.5487V89.1538H56.6936V85.5487H54.5615V94.9026H56.6936V91.2H59.601V94.9026H61.733V85.5487H59.601Z" fill="white"/>
<path d="M72.4905 87.0102L74.138 91.5897H70.843L72.4905 87.0102ZM71.8121 85.5487L68.3232 94.9026H69.68L70.4553 92.8564H74.6225L75.3978 94.9026H76.7546L73.2658 85.5487H71.8121Z" fill="white"/>
<path d="M85.0889 85.5487V92.4667L80.3402 85.5487H79.3711V94.9026H80.631V87.8872L85.3797 94.9026H86.3488V85.5487H85.0889Z" fill="white"/>
<path d="M91.1944 93.7334H93.6172C94.5864 93.7334 95.3617 93.441 95.9431 92.759C96.5246 92.0769 96.8153 91.2974 96.8153 90.2257C96.8153 89.2513 96.5246 88.3744 95.9431 87.6923C95.3617 87.0103 94.5864 86.7179 93.6172 86.7179H91.1944V93.7334ZM89.9346 85.5487H93.5203C94.7802 85.5487 95.8462 86.0359 96.6215 86.9128C97.4937 87.7898 97.8814 88.8615 97.8814 90.2257C97.8814 91.4923 97.4937 92.6615 96.6215 93.5385C95.7493 94.4154 94.7802 94.9026 93.5203 94.9026H89.9346V85.5487Z" fill="white"/>
<path d="M109.026 95C107.67 95 106.507 94.5128 105.537 93.6359C104.665 92.759 104.181 91.5898 104.181 90.1282C104.181 88.7641 104.665 87.5949 105.537 86.718C106.41 85.7436 107.573 85.3539 109.026 85.3539C109.898 85.3539 110.577 85.5488 111.352 85.9385C112.031 86.3282 112.612 86.8154 113 87.4975L111.158 88.5692C110.965 88.1795 110.674 87.8872 110.286 87.6923C109.898 87.4975 109.511 87.4 109.026 87.4C108.154 87.4 107.573 87.6923 107.088 88.1795C106.603 88.6667 106.313 89.3487 106.313 90.2257C106.313 91.1026 106.507 91.7846 107.088 92.2718C107.573 92.759 108.251 93.0513 109.026 93.0513C109.511 93.0513 109.898 92.9539 110.286 92.759C110.674 92.5641 110.965 92.2718 111.158 91.8821L113 92.9539C112.612 93.6359 112.031 94.1231 111.352 94.5128C110.577 94.9026 109.802 95 109.026 95Z" fill="white"/>
<path d="M119.687 87.9846L120.753 91.3949H118.621L119.687 87.9846ZM118.33 85.5487L115.132 94.9026H117.458L117.942 93.441H121.431L121.916 94.9026H124.242L121.043 85.5487H118.33Z" fill="white"/>
<path d="M130.638 87.4974H129.087V89.9333H130.638C130.928 89.9333 131.219 89.8359 131.413 89.5436C131.607 89.3487 131.704 89.0564 131.704 88.6667C131.704 88.2769 131.607 88.0821 131.413 87.7898C131.219 87.6923 130.928 87.4974 130.638 87.4974ZM134.03 94.9026H131.801L130.056 91.882H129.087V94.9026H126.955V85.5487H130.638C131.51 85.5487 132.285 85.841 132.867 86.5231C133.448 87.1077 133.836 87.8872 133.836 88.7641C133.836 89.3487 133.642 89.8359 133.351 90.3231C133.061 90.8103 132.576 91.2 132.091 91.4923L134.03 94.9026Z" fill="white"/>
<path d="M137.034 85.5487V94.9026H142.848V92.8564H139.166V91.2H142.461V89.1538H139.166V87.5949H142.848V85.5487H137.034Z" fill="white"/>
<path d="M40.6062 0V24.5538C36.439 21.3385 31.3026 19.4872 25.6817 19.4872C11.4356 19.4872 0 31.6666 0 46.6717C0 61.6769 11.5326 73.8563 25.6817 73.8563C31.5934 73.8563 37.1174 71.7127 41.4784 68.1076C42.3506 71.323 46.0333 73.2717 49.4252 73.564H56.7906V71.9076V56.9025V55.5384V0H40.6062ZM26.3601 58.9487C19.9639 58.9487 14.8276 53.4922 14.8276 46.6717C14.8276 39.9487 19.9639 34.3948 26.3601 34.3948C32.7563 34.3948 37.8927 39.8512 37.8927 46.6717C37.8927 53.4922 32.7563 58.9487 26.3601 58.9487Z" fill="#470A68"/>
<path d="M143.43 0.292358H127.149V73.6615H143.43V0.292358Z" fill="#470A68"/>
<path d="M98.1722 62.5538C91.8729 62.5538 86.6396 57.3897 86.6396 50.9589V30.6923C86.6396 24.5538 81.6002 19.4872 75.4947 19.4872H66.2881V51.641C66.2881 75.8051 98.1722 81.6512 98.1722 62.5538Z" fill="#470A68"/>
<path d="M98.1719 30.6923C98.1719 24.5538 103.211 19.4872 109.317 19.4872H118.523V40.3384C118.523 55.0513 108.057 62.9435 98.1719 62.6512V30.6923Z" fill="white"/>
<path d="M195.278 18.9025C191.789 19.2922 188.397 21.923 187.816 25.2358V47.8409C187.816 48.1332 187.816 48.523 187.816 48.8153C187.816 54.8563 182.873 58.1691 179.384 58.1691C175.895 58.1691 171.534 54.8563 171.534 48.8153C171.534 48.3281 171.437 47.8409 171.437 47.2563V25.8204C171.05 22.2153 166.979 19.2922 163.297 18.9025H154.381V35.564V47.2563C154.381 56.3178 156.707 62.164 161.165 66.8409C165.72 71.5178 171.825 73.8563 179.287 73.8563C182.098 73.8563 184.714 73.3691 187.137 72.3947C188.106 72.005 188.979 71.6153 189.754 71.0307C189.463 73.4665 188.591 76.5845 187.04 78.2409C185.199 80.1896 182.582 81.0666 179.19 81.0666C175.895 81.0666 173.279 79.8973 171.34 77.364H155.059V77.4614C156.998 82.8204 160.099 87.1076 164.266 90.2255C168.53 93.4409 173.473 94.9999 179.093 94.9999C183.842 94.9999 188.106 93.8306 191.886 91.5896C195.665 89.3486 198.67 86.2306 200.802 82.3332C202.934 78.4358 204 74.0512 204 69.3743V34.3948V18.7076H195.278V18.9025Z" fill="#470A68"/>
</svg>
