<svg width="104" height="48" viewBox="0 0 104 48" fill="none" xmlns="http://www.w3.org/2000/svg">
<path d="M6.22538 43.2246V45.0462H4.74319V43.2246H3.65625V47.9508H4.74319V46.08H6.22538V47.9508H7.31231V43.2246H6.22538Z" fill="#C5299B"/>
<path d="M9.14062 43.2246V47.9508H12.105V46.9169H10.2276V46.08H11.9074V45.0462H10.2276V44.2585H12.0556V43.2246H9.14062Z" fill="#C5299B"/>
<path d="M15.6619 44.4554L16.2054 46.1785H15.1185L15.6619 44.4554ZM14.9702 43.2246L13.3398 47.9508H14.5256L14.7726 47.2123H16.5512L16.7983 47.9508H17.984L16.3536 43.2246H14.9702Z" fill="#C5299B"/>
<path d="M19.3672 43.2246V47.9508H22.1833V46.9169H20.4541V43.2246H19.3672Z" fill="#C5299B"/>
<path d="M22.8262 43.2246V44.2585H24.0613V47.9508H25.1483V44.2585H26.334V43.2246H22.8262Z" fill="#C5299B"/>
<path d="M30.3855 43.2246V45.0462H28.9033V43.2246H27.8164V47.9508H28.9033V46.08H30.3855V47.9508H31.4725V43.2246H30.3855Z" fill="#C5299B"/>
<path d="M36.9565 43.9631L37.7964 46.2769H36.1166L36.9565 43.9631ZM36.6107 43.2246L34.832 47.9508H35.5237L35.919 46.9169H38.0434L38.4387 47.9508H39.1304L37.3517 43.2246H36.6107Z" fill="#C5299B"/>
<path d="M43.3798 43.2246V46.72L40.9589 43.2246H40.4648V47.9508H41.1071V44.4062L43.528 47.9508H44.0221V43.2246H43.3798Z" fill="#C5299B"/>
<path d="M46.4919 47.36H47.7271C48.2211 47.36 48.6164 47.2123 48.9128 46.8677C49.2092 46.5231 49.3575 46.1292 49.3575 45.5877C49.3575 45.0954 49.2092 44.6523 48.9128 44.3077C48.6164 43.9631 48.2211 43.8154 47.7271 43.8154H46.4919V47.36ZM45.8496 43.2246H47.6776C48.3199 43.2246 48.8634 43.4708 49.2586 43.9139C49.7033 44.3569 49.9009 44.8985 49.9009 45.5877C49.9009 46.2277 49.7033 46.8185 49.2586 47.2615C48.814 47.7046 48.3199 47.9508 47.6776 47.9508H45.8496V43.2246Z" fill="#C5299B"/>
<path d="M55.5816 48.0008C54.89 48.0008 54.2971 47.7546 53.803 47.3116C53.3584 46.8685 53.1113 46.2777 53.1113 45.5393C53.1113 44.85 53.3584 44.2593 53.803 43.8162C54.2477 43.3239 54.8405 43.127 55.5816 43.127C56.0263 43.127 56.3721 43.2254 56.7674 43.4223C57.1132 43.6193 57.4097 43.8654 57.6073 44.21L56.6686 44.7516C56.5698 44.5546 56.4215 44.4069 56.2239 44.3085C56.0263 44.21 55.8287 44.1608 55.5816 44.1608C55.137 44.1608 54.8405 44.3085 54.5935 44.5546C54.3465 44.8008 54.1983 45.1454 54.1983 45.5885C54.1983 46.0316 54.2971 46.3762 54.5935 46.6223C54.8405 46.8685 55.1864 47.0162 55.5816 47.0162C55.8287 47.0162 56.0263 46.967 56.2239 46.8685C56.4215 46.77 56.5698 46.6223 56.6686 46.4254L57.6073 46.9669C57.4097 47.3116 57.1132 47.5577 56.7674 47.7546C56.3721 47.9516 55.9769 48.0008 55.5816 48.0008Z" fill="#C5299B"/>
<path d="M61.0174 44.4554L61.5609 46.1785H60.4739L61.0174 44.4554ZM60.3257 43.2246L58.6953 47.9508H59.8811L60.1281 47.2123H61.9067L62.1537 47.9508H63.3395L61.7091 43.2246H60.3257Z" fill="#C5299B"/>
<path d="M66.6001 44.2092H65.8096V45.44H66.6001C66.7483 45.44 66.8965 45.3908 66.9954 45.2431C67.0942 45.1446 67.1436 44.9969 67.1436 44.8C67.1436 44.6031 67.0942 44.5046 66.9954 44.3569C66.8965 44.3077 66.7483 44.2092 66.6001 44.2092ZM68.3293 47.9508H67.193L66.3037 46.4246H65.8096V47.9508H64.7227V43.2246H66.6001C67.0448 43.2246 67.44 43.3723 67.7365 43.7169C68.0329 44.0123 68.2305 44.4062 68.2305 44.8492C68.2305 45.1446 68.1317 45.3908 67.9835 45.6369C67.8353 45.8831 67.5882 46.08 67.3412 46.2277L68.3293 47.9508Z" fill="#C5299B"/>
<path d="M69.8613 43.2246V47.9508H72.8257V46.9169H70.9483V46.08H72.6281V45.0462H70.9483V44.2585H72.8257V43.2246H69.8613Z" fill="#C5299B"/>
<path d="M20.7012 0V12.4061C18.5767 10.7815 15.9582 9.84614 13.0926 9.84614C5.82993 9.84614 0 16 0 23.5815C0 31.163 5.87934 37.3169 13.0926 37.3169C16.1064 37.3169 18.9226 36.2338 21.1459 34.4123C21.5905 36.0369 23.468 37.0215 25.1972 37.1692H28.952V36.3323V28.7507V28.0615V0H20.7012ZM13.4385 29.7846C10.1777 29.7846 7.55915 27.0277 7.55915 23.5815C7.55915 20.1846 10.1777 17.3784 13.4385 17.3784C16.6993 17.3784 19.3178 20.1354 19.3178 23.5815C19.3178 27.0277 16.6993 29.7846 13.4385 29.7846Z" fill="#470A68"/>
<path d="M73.1205 0.148438H64.8203V37.2192H73.1205V0.148438Z" fill="#470A68"/>
<path d="M50.0476 31.6057C46.8362 31.6057 44.1683 28.9964 44.1683 25.7472V15.5072C44.1683 12.4057 41.5991 9.8457 38.4866 9.8457H33.793V26.0918C33.793 38.3011 50.0476 41.2549 50.0476 31.6057Z" fill="#470A68"/>
<path d="M50.0488 15.5072C50.0488 12.4057 52.618 9.8457 55.7305 9.8457H60.4241V20.3811C60.4241 27.8149 55.0883 31.8026 50.0488 31.6549V15.5072Z" fill="#C5299B"/>
<path d="M99.5526 9.55158C97.7739 9.7485 96.0447 11.0777 95.7483 12.7516V24.1731C95.7483 24.3208 95.7483 24.5177 95.7483 24.6654C95.7483 27.7177 93.2286 29.3916 91.4499 29.3916C89.6713 29.3916 87.448 27.7177 87.448 24.6654C87.448 24.4193 87.3986 24.1731 87.3986 23.8777V13.047C87.201 11.2254 85.1259 9.7485 83.2485 9.55158H78.7031V17.97V23.8777C78.7031 28.4562 79.8889 31.41 82.1616 33.7731C84.4837 36.1362 87.5963 37.3177 91.4005 37.3177C92.8333 37.3177 94.1673 37.0715 95.4024 36.5792C95.8965 36.3823 96.3412 36.1854 96.7364 35.89C96.5882 37.1208 96.1435 38.6962 95.353 39.5331C94.4143 40.5177 93.0803 40.9608 91.3511 40.9608C89.6713 40.9608 88.3373 40.37 87.3492 39.09H79.049V39.1392C80.0371 41.8469 81.6181 44.0131 83.7426 45.5885C85.9164 47.2131 88.4362 48.0008 91.3017 48.0008C93.7226 48.0008 95.8965 47.41 97.8233 46.2777C99.7502 45.1454 101.282 43.57 102.369 41.6008C103.456 39.6316 103.999 37.4162 103.999 35.0531V17.3793V9.45312H99.5526V9.55158Z" fill="#470A68"/>
</svg>
