<svg width="24" height="24" viewBox="0 0 24 24" fill="none" xmlns="http://www.w3.org/2000/svg">
<path d="M20.4678 8.96715C20.4678 8.96715 20.4678 8.96715 20.4678 8.92202C19.8324 7.18556 18.6795 5.68634 17.165 4.62717C15.6505 3.568 13.8475 3 12 3C10.1525 3 8.3495 3.568 6.83501 4.62717C5.32052 5.68634 4.1676 7.18556 3.5322 8.92202C3.5322 8.92202 3.5322 8.92202 3.5322 8.96715C2.8226 10.9267 2.8226 13.0733 3.5322 15.0328C3.5322 15.0328 3.5322 15.0328 3.5322 15.078C4.1676 16.8144 5.32052 18.3137 6.83501 19.3728C8.3495 20.432 10.1525 21 12 21C13.8475 21 15.6505 20.432 17.165 19.3728C18.6795 18.3137 19.8324 16.8144 20.4678 15.078C20.4678 15.078 20.4678 15.078 20.4678 15.0328C21.1774 13.0733 21.1774 10.9267 20.4678 8.96715ZM5.00211 13.8053C4.6894 12.6221 4.6894 11.3779 5.00211 10.1947H6.67944C6.53518 11.3939 6.53518 12.6061 6.67944 13.8053H5.00211ZM5.74158 15.6105H7.00409C7.21575 16.4155 7.5183 17.1938 7.90588 17.9303C7.02149 17.3273 6.2822 16.5349 5.74158 15.6105ZM7.00409 8.38947H5.74158C6.27442 7.46796 7.00426 6.67579 7.87882 6.0697C7.50057 6.80737 7.20712 7.5856 7.00409 8.38947ZM11.0802 18.9503C9.97257 18.1367 9.19467 16.9512 8.88883 15.6105H11.0802V18.9503ZM11.0802 13.8053H8.50106C8.33277 12.6076 8.33277 11.3924 8.50106 10.1947H11.0802V13.8053ZM11.0802 8.38947H8.88883C9.19467 7.04885 9.97257 5.86329 11.0802 5.04973V8.38947ZM18.2223 8.38947H16.9598C16.7482 7.58446 16.4456 6.80619 16.0581 6.0697C16.9424 6.67272 17.6817 7.46512 18.2223 8.38947ZM12.8838 5.04973C13.9914 5.86329 14.7693 7.04885 15.0751 8.38947H12.8838V5.04973ZM12.8838 18.9503V15.6105H15.0751C14.7693 16.9512 13.9914 18.1367 12.8838 18.9503ZM15.4629 13.8053H12.8838V10.1947H15.4629C15.6312 11.3924 15.6312 12.6076 15.4629 13.8053ZM16.0851 17.9303C16.4727 17.1938 16.7752 16.4155 16.9869 15.6105H18.2494C17.7088 16.5349 16.9695 17.3273 16.0851 17.9303ZM18.9618 13.8053H17.2845C17.3578 13.2063 17.394 12.6034 17.3927 12C17.3937 11.3966 17.3576 10.7937 17.2845 10.1947H18.9618C19.2745 11.3779 19.2745 12.6221 18.9618 13.8053Z" fill="#002855"/>
</svg>
