<svg width="24" height="24" viewBox="0 0 24 24" fill="none" xmlns="http://www.w3.org/2000/svg">
<path d="M13.409 11.9991L19.7044 5.71303C19.8926 5.52485 19.9983 5.26961 19.9983 5.00347C19.9983 4.73733 19.8926 4.4821 19.7044 4.29391C19.5162 4.10572 19.261 4 18.9949 4C18.7288 4 18.4736 4.10572 18.2854 4.29391L12 10.59L5.71456 4.29391C5.52639 4.10572 5.27118 4 5.00507 4C4.73896 4 4.48375 4.10572 4.29558 4.29391C4.10742 4.4821 4.00171 4.73733 4.00171 5.00347C4.00171 5.26961 4.10742 5.52485 4.29558 5.71303L10.591 11.9991L4.29558 18.2853C4.20192 18.3782 4.12758 18.4887 4.07685 18.6105C4.02612 18.7323 4 18.8629 4 18.9948C4 19.1268 4.02612 19.2574 4.07685 19.3792C4.12758 19.5009 4.20192 19.6115 4.29558 19.7044C4.38848 19.7981 4.499 19.8724 4.62077 19.9231C4.74254 19.9739 4.87315 20 5.00507 20C5.13699 20 5.2676 19.9739 5.38937 19.9231C5.51114 19.8724 5.62166 19.7981 5.71456 19.7044L12 13.4083L18.2854 19.7044C18.3783 19.7981 18.4889 19.8724 18.6106 19.9231C18.7324 19.9739 18.863 20 18.9949 20C19.1268 20 19.2575 19.9739 19.3792 19.9231C19.501 19.8724 19.6115 19.7981 19.7044 19.7044C19.7981 19.6115 19.8724 19.5009 19.9232 19.3792C19.9739 19.2574 20 19.1268 20 18.9948C20 18.8629 19.9739 18.7323 19.9232 18.6105C19.8724 18.4887 19.7981 18.3782 19.7044 18.2853L13.409 11.9991Z" fill="#002855"/>
</svg>
