<svg width="24" height="24" viewBox="0 0 24 24" fill="none" xmlns="http://www.w3.org/2000/svg">
<path d="M21 12.0001C20.7348 12.0001 20.4804 12.1054 20.2929 12.293C20.1054 12.4805 20 12.7348 20 13.0001V19.0001C20 19.2653 19.8946 19.5196 19.7071 19.7072C19.5196 19.8947 19.2652 20.0001 19 20.0001H5C4.73478 20.0001 4.48043 19.8947 4.29289 19.7072C4.10536 19.5196 4 19.2653 4 19.0001V5.00006C4 4.73484 4.10536 4.48049 4.29289 4.29295C4.48043 4.10542 4.73478 4.00006 5 4.00006H11C11.2652 4.00006 11.5196 3.8947 11.7071 3.70717C11.8946 3.51963 12 3.26528 12 3.00006C12 2.73484 11.8946 2.48049 11.7071 2.29295C11.5196 2.10542 11.2652 2.00006 11 2.00006H5C4.20435 2.00006 3.44129 2.31613 2.87868 2.87874C2.31607 3.44135 2 4.20441 2 5.00006V19.0001C2 19.7957 2.31607 20.5588 2.87868 21.1214C3.44129 21.684 4.20435 22.0001 5 22.0001H19C19.7956 22.0001 20.5587 21.684 21.1213 21.1214C21.6839 20.5588 22 19.7957 22 19.0001V13.0001C22 12.7348 21.8946 12.4805 21.7071 12.293C21.5196 12.1054 21.2652 12.0001 21 12.0001ZM6 12.7601V17.0001C6 17.2653 6.10536 17.5196 6.29289 17.7072C6.48043 17.8947 6.73478 18.0001 7 18.0001H11.24C11.3716 18.0008 11.5021 17.9756 11.6239 17.9258C11.7457 17.8761 11.8566 17.8027 11.95 17.7101L18.87 10.7801L21.71 8.00006C21.8037 7.9071 21.8781 7.7965 21.9289 7.67464C21.9797 7.55278 22.0058 7.42207 22.0058 7.29006C22.0058 7.15805 21.9797 7.02734 21.9289 6.90548C21.8781 6.78363 21.8037 6.67302 21.71 6.58006L17.47 2.29006C17.377 2.19633 17.2664 2.12194 17.1446 2.07117C17.0227 2.0204 16.892 1.99426 16.76 1.99426C16.628 1.99426 16.4973 2.0204 16.3754 2.07117C16.2536 2.12194 16.143 2.19633 16.05 2.29006L13.23 5.12006L6.29 12.0501C6.19732 12.1435 6.12399 12.2543 6.07423 12.3762C6.02446 12.498 5.99924 12.6285 6 12.7601ZM16.76 4.41006L19.59 7.24006L18.17 8.66006L15.34 5.83006L16.76 4.41006ZM8 13.1701L13.93 7.24006L16.76 10.0701L10.83 16.0001H8V13.1701Z" fill="#002855"/>
</svg>
