<svg width="24" height="24" viewBox="0 0 24 24" fill="none" xmlns="http://www.w3.org/2000/svg">
<path d="M21.9997 9.67002C21.9366 9.48711 21.8217 9.32645 21.669 9.20753C21.5164 9.0886 21.3325 9.01652 21.1397 9.00002L15.4497 8.17002L12.8997 3.00002C12.8178 2.83095 12.69 2.68837 12.5308 2.5886C12.3716 2.48883 12.1876 2.43591 11.9997 2.43591C11.8118 2.43591 11.6278 2.48883 11.4686 2.5886C11.3094 2.68837 11.1816 2.83095 11.0997 3.00002L8.5497 8.16002L2.8597 9.00002C2.67463 9.02633 2.50063 9.10399 2.35745 9.22418C2.21428 9.34438 2.10766 9.5023 2.0497 9.68002C1.99665 9.8537 1.99189 10.0385 2.03593 10.2147C2.07997 10.3909 2.17116 10.5517 2.2997 10.68L6.4297 14.68L5.4297 20.36C5.394 20.5475 5.4127 20.7413 5.48357 20.9185C5.55445 21.0957 5.67456 21.2489 5.8297 21.36C5.98092 21.4681 6.15928 21.5319 6.34475 21.5443C6.53022 21.5567 6.71547 21.5171 6.8797 21.43L11.9997 18.76L17.0997 21.44C17.2401 21.5192 17.3986 21.5606 17.5597 21.56C17.7715 21.5608 17.9781 21.4942 18.1497 21.37C18.3048 21.2589 18.425 21.1057 18.4958 20.9285C18.5667 20.7513 18.5854 20.5575 18.5497 20.37L17.5497 14.69L21.6797 10.69C21.8241 10.5677 21.9308 10.4069 21.9874 10.2264C22.0441 10.0458 22.0483 9.8529 21.9997 9.67002ZM15.8497 13.67C15.7324 13.7835 15.6447 13.9239 15.5941 14.079C15.5436 14.2341 15.5318 14.3993 15.5597 14.56L16.2797 18.75L12.5197 16.75C12.375 16.673 12.2136 16.6327 12.0497 16.6327C11.8858 16.6327 11.7244 16.673 11.5797 16.75L7.8197 18.75L8.5397 14.56C8.56764 14.3993 8.55582 14.2341 8.50527 14.079C8.45472 13.9239 8.36698 13.7835 8.2497 13.67L5.2497 10.67L9.4597 10.06C9.6217 10.0375 9.7757 9.97556 9.9082 9.87967C10.0407 9.78379 10.1477 9.65686 10.2197 9.51002L11.9997 5.70002L13.8797 9.52002C13.9517 9.66686 14.0587 9.79379 14.1912 9.88968C14.3237 9.98556 14.4777 10.0475 14.6397 10.07L18.8497 10.68L15.8497 13.67Z" fill="#002855"/>
</svg>
