<svg width="24" height="24" viewBox="0 0 24 24" fill="none" xmlns="http://www.w3.org/2000/svg">
<path d="M21.71 3.28994C21.617 3.19621 21.5064 3.12182 21.3846 3.07105C21.2627 3.02028 21.132 2.99414 21 2.99414C20.868 2.99414 20.7373 3.02028 20.6154 3.07105C20.4936 3.12182 20.383 3.19621 20.29 3.28994L2.29 21.2899C2.19627 21.3829 2.12188 21.4935 2.07111 21.6154C2.02034 21.7372 1.9942 21.8679 1.9942 21.9999C1.9942 22.132 2.02034 22.2627 2.07111 22.3845C2.12188 22.5064 2.19627 22.617 2.29 22.7099C2.38296 22.8037 2.49356 22.8781 2.61542 22.9288C2.73728 22.9796 2.86799 23.0057 3 23.0057C3.13201 23.0057 3.26272 22.9796 3.38458 22.9288C3.50644 22.8781 3.61704 22.8037 3.71 22.7099L21.71 4.70994C21.8037 4.61698 21.8781 4.50638 21.9289 4.38452C21.9797 4.26266 22.0058 4.13195 22.0058 3.99994C22.0058 3.86793 21.9797 3.73722 21.9289 3.61536C21.8781 3.4935 21.8037 3.3829 21.71 3.28994Z" fill="#002855"/>
</svg>
