<svg width="24" height="24" viewBox="0 0 24 24" fill="none" xmlns="http://www.w3.org/2000/svg">
<g clip-path="url(#clip0_1730_1279)">
<path d="M18.1398 2.34709L3.29055 7.29684C2.70542 7.49307 2.19505 7.86499 1.82902 8.36189C1.46299 8.85879 1.25912 9.45649 1.24521 10.0735C1.23129 10.6905 1.408 11.2968 1.75125 11.8097C2.0945 12.3226 2.58758 12.7171 3.16327 12.9395L8.65749 15.0397C8.7878 15.093 8.90619 15.1717 9.00574 15.2712C9.1053 15.3708 9.18402 15.4892 9.23732 15.6195L11.3374 21.1137C11.5166 21.5804 11.8096 21.9949 12.1897 22.3196C12.5699 22.6443 13.0251 22.8688 13.5141 22.9728C14.0031 23.0768 14.5103 23.0569 14.9897 22.915C15.469 22.7731 15.9053 22.5136 16.2589 22.1602C16.5867 21.8258 16.8355 21.4224 16.9872 20.9794L21.937 6.13011C22.1115 5.60232 22.1359 5.03642 22.0075 4.49556C21.8791 3.95469 21.603 3.46013 21.2099 3.06706C20.8168 2.67398 20.3223 2.39785 19.7814 2.26947C19.2406 2.14109 18.6747 2.16552 18.1469 2.34002L18.1398 2.34709ZM20.0348 5.50079L15.0851 20.35C15.0175 20.5424 14.8927 20.7096 14.7275 20.8291C14.5622 20.9485 14.3643 21.0146 14.1605 21.0185C13.9566 21.0223 13.7564 20.9637 13.5867 20.8506C13.417 20.7374 13.286 20.5751 13.2113 20.3854L11.1041 14.8982C11.0753 14.8257 11.0422 14.7548 11.0051 14.6861L15.8771 9.81414C16.0646 9.6266 16.1699 9.37225 16.1699 9.10703C16.1699 8.84182 16.0646 8.58746 15.8771 8.39993C15.6895 8.21239 15.4352 8.10703 15.1699 8.10703C14.9047 8.10703 14.6504 8.21239 14.4628 8.39993L9.59087 13.2719C9.52216 13.2348 9.45132 13.2017 9.37874 13.1729L3.89159 11.0657C3.70187 10.9909 3.53954 10.8599 3.42638 10.6903C3.31323 10.5206 3.25464 10.3204 3.25849 10.1165C3.26234 9.91263 3.32843 9.71478 3.44791 9.54951C3.56739 9.38425 3.73454 9.25946 3.92695 9.19188L18.7762 4.24214C18.9514 4.18565 19.1387 4.1786 19.3176 4.22176C19.4965 4.26493 19.6601 4.35663 19.7902 4.48677C19.9203 4.61691 20.0121 4.78044 20.0552 4.95935C20.0984 5.13827 20.0913 5.32562 20.0348 5.50079Z" fill="#002855"/>
</g>
<defs>
<clipPath id="clip0_1730_1279">
<rect width="24" height="24" fill="white"/>
</clipPath>
</defs>
</svg>
