<svg width="24" height="24" viewBox="0 0 24 24" fill="none" xmlns="http://www.w3.org/2000/svg">
<path d="M8.71 7.70977L11 5.40977V14.9998C11 15.265 11.1054 15.5193 11.2929 15.7069C11.4804 15.8944 11.7348 15.9998 12 15.9998C12.2652 15.9998 12.5196 15.8944 12.7071 15.7069C12.8946 15.5193 13 15.265 13 14.9998V5.40977L15.29 7.70977C15.383 7.8035 15.4936 7.8779 15.6154 7.92867C15.7373 7.97943 15.868 8.00557 16 8.00557C16.132 8.00557 16.2627 7.97943 16.3846 7.92867C16.5064 7.8779 16.617 7.8035 16.71 7.70977C16.8037 7.61681 16.8781 7.50621 16.9289 7.38435C16.9797 7.26249 17.0058 7.13179 17.0058 6.99977C17.0058 6.86776 16.9797 6.73706 16.9289 6.6152C16.8781 6.49334 16.8037 6.38274 16.71 6.28977L12.71 2.28977C12.6149 2.19873 12.5028 2.12737 12.38 2.07977C12.1365 1.97976 11.8635 1.97976 11.62 2.07977C11.4972 2.12737 11.3851 2.19873 11.29 2.28977L7.29 6.28977C7.19676 6.38301 7.1228 6.4937 7.07234 6.61552C7.02188 6.73735 6.99591 6.86791 6.99591 6.99977C6.99591 7.13163 7.02188 7.2622 7.07234 7.38402C7.1228 7.50585 7.19676 7.61654 7.29 7.70977C7.38324 7.80301 7.49393 7.87697 7.61575 7.92743C7.73757 7.97789 7.86814 8.00387 8 8.00387C8.13186 8.00386 8.26243 7.97789 8.38425 7.92743C8.50607 7.87697 8.61676 7.80301 8.71 7.70977ZM21 13.9998C20.7348 13.9998 20.4804 14.1051 20.2929 14.2927C20.1054 14.4802 20 14.7346 20 14.9998V18.9998C20 19.265 19.8946 19.5193 19.7071 19.7069C19.5196 19.8944 19.2652 19.9998 19 19.9998H5C4.73478 19.9998 4.48043 19.8944 4.29289 19.7069C4.10536 19.5193 4 19.265 4 18.9998V14.9998C4 14.7346 3.89464 14.4802 3.70711 14.2927C3.51957 14.1051 3.26522 13.9998 3 13.9998C2.73478 13.9998 2.48043 14.1051 2.29289 14.2927C2.10536 14.4802 2 14.7346 2 14.9998V18.9998C2 19.7954 2.31607 20.5585 2.87868 21.1211C3.44129 21.6837 4.20435 21.9998 5 21.9998H19C19.7956 21.9998 20.5587 21.6837 21.1213 21.1211C21.6839 20.5585 22 19.7954 22 18.9998V14.9998C22 14.7346 21.8946 14.4802 21.7071 14.2927C21.5196 14.1051 21.2652 13.9998 21 13.9998Z" fill="#002855"/>
</svg>
