<svg width="24" height="24" viewBox="0 0 24 24" fill="none" xmlns="http://www.w3.org/2000/svg">
<path d="M20 2H8.00003C6.90003 2 6.00003 2.9 6.00003 4V16C6.00003 17.1 6.90003 18 8.00003 18H20C21.1 18 22 17.1 22 16V4C22 2.9 21.1 2 20 2ZM11.5 9.5C11.5 10.33 10.83 11 10 11H9.00003V13H7.50003V7H10C10.83 7 11.5 7.67 11.5 8.5V9.5ZM16.5 11.5C16.5 12.33 15.83 13 15 13H12.5V7H15C15.83 7 16.5 7.67 16.5 8.5V11.5ZM20.5 8.5H19V9.5H20.5V11H19V13H17.5V7H20.5V8.5ZM9.00003 9.5H10V8.5H9.00003V9.5ZM4.00003 6H2.00003V20C2.00003 21.1 2.90003 22 4.00003 22H18V20H4.00003V6ZM14 11.5H15V8.5H14V11.5Z" fill="#002855"/>
</svg>
