<svg width="72" height="72" viewBox="0 0 72 72" fill="none" xmlns="http://www.w3.org/2000/svg">
<circle cx="36" cy="36" r="36" fill="#F3F6FA"/>
<path d="M38.1026 39.7276H31.6091C31.1785 39.7276 30.7656 39.8986 30.4612 40.2031C30.1567 40.5075 29.9857 40.9204 29.9857 41.351C29.9857 41.7815 30.1567 42.1944 30.4612 42.4989C30.7656 42.8033 31.1785 42.9743 31.6091 42.9743H38.1026C38.5331 42.9743 38.946 42.8033 39.2505 42.4989C39.5549 42.1944 39.726 41.7815 39.726 41.351C39.726 40.9204 39.5549 40.5075 39.2505 40.2031C38.946 39.8986 38.5331 39.7276 38.1026 39.7276ZM44.5961 23.4938H42.6805C42.3456 22.5465 41.7258 21.726 40.9063 21.1447C40.0867 20.5634 39.1074 20.2499 38.1026 20.2471H34.8558C33.851 20.2499 32.8717 20.5634 32.0521 21.1447C31.2326 21.726 30.6128 22.5465 30.2779 23.4938H28.3623C27.0707 23.4938 25.8319 24.0069 24.9186 24.9203C24.0053 25.8336 23.4922 27.0723 23.4922 28.364V47.8445C23.4922 49.1361 24.0053 50.3748 24.9186 51.2882C25.8319 52.2015 27.0707 52.7146 28.3623 52.7146H44.5961C45.8877 52.7146 47.1265 52.2015 48.0398 51.2882C48.9531 50.3748 49.4662 49.1361 49.4662 47.8445V28.364C49.4662 27.0723 48.9531 25.8336 48.0398 24.9203C47.1265 24.0069 45.8877 23.4938 44.5961 23.4938ZM33.2324 25.1172C33.2324 24.6867 33.4035 24.2737 33.7079 23.9693C34.0124 23.6649 34.4253 23.4938 34.8558 23.4938H38.1026C38.5331 23.4938 38.946 23.6649 39.2505 23.9693C39.5549 24.2737 39.726 24.6867 39.726 25.1172V26.7406H33.2324V25.1172ZM46.2195 47.8445C46.2195 48.275 46.0484 48.6879 45.744 48.9924C45.4395 49.2968 45.0266 49.4678 44.5961 49.4678H28.3623C27.9318 49.4678 27.5189 49.2968 27.2144 48.9924C26.91 48.6879 26.7389 48.275 26.7389 47.8445V28.364C26.7389 27.9334 26.91 27.5205 27.2144 27.2161C27.5189 26.9116 27.9318 26.7406 28.3623 26.7406H29.9857V28.364C29.9857 28.7945 30.1567 29.2074 30.4612 29.5119C30.7656 29.8163 31.1785 29.9873 31.6091 29.9873H41.3493C41.7799 29.9873 42.1928 29.8163 42.4972 29.5119C42.8017 29.2074 42.9727 28.7945 42.9727 28.364V26.7406H44.5961C45.0266 26.7406 45.4395 26.9116 45.744 27.2161C46.0484 27.5205 46.2195 27.9334 46.2195 28.364V47.8445ZM41.3493 33.2341H31.6091C31.1785 33.2341 30.7656 33.4051 30.4612 33.7096C30.1567 34.014 29.9857 34.4269 29.9857 34.8575C29.9857 35.288 30.1567 35.7009 30.4612 36.0054C30.7656 36.3098 31.1785 36.4808 31.6091 36.4808H41.3493C41.7799 36.4808 42.1928 36.3098 42.4972 36.0054C42.8017 35.7009 42.9727 35.288 42.9727 34.8575C42.9727 34.4269 42.8017 34.014 42.4972 33.7096C42.1928 33.4051 41.7799 33.2341 41.3493 33.2341Z" fill="#C5299B"/>
<circle cx="36" cy="36" r="34.5" stroke="#C5299B" stroke-width="3"/>
</svg>
