<svg width="76" height="77" viewBox="0 0 76 77" fill="none" xmlns="http://www.w3.org/2000/svg">
<path d="M69.5 41C69.5 59.5015 54.5015 74.5 36 74.5C17.4985 74.5 2.5 59.5015 2.5 41C2.5 22.4985 17.4985 7.5 36 7.5C54.5015 7.5 69.5 22.4985 69.5 41Z" fill="#00A5DF" stroke="#00A5DF" stroke-width="5"/>
<path d="M38.1026 42.7276H31.6091C31.1785 42.7276 30.7656 42.8986 30.4612 43.2031C30.1567 43.5075 29.9857 43.9204 29.9857 44.351C29.9857 44.7815 30.1567 45.1944 30.4612 45.4989C30.7656 45.8033 31.1785 45.9743 31.6091 45.9743H38.1026C38.5331 45.9743 38.946 45.8033 39.2505 45.4989C39.5549 45.1944 39.726 44.7815 39.726 44.351C39.726 43.9204 39.5549 43.5075 39.2505 43.2031C38.946 42.8986 38.5331 42.7276 38.1026 42.7276ZM44.5961 26.4938H42.6805C42.3456 25.5465 41.7258 24.726 40.9063 24.1447C40.0867 23.5634 39.1074 23.2499 38.1026 23.2471H34.8558C33.851 23.2499 32.8717 23.5634 32.0521 24.1447C31.2326 24.726 30.6128 25.5465 30.2779 26.4938H28.3623C27.0707 26.4938 25.8319 27.0069 24.9186 27.9203C24.0053 28.8336 23.4922 30.0723 23.4922 31.364V50.8445C23.4922 52.1361 24.0053 53.3748 24.9186 54.2882C25.8319 55.2015 27.0707 55.7146 28.3623 55.7146H44.5961C45.8877 55.7146 47.1265 55.2015 48.0398 54.2882C48.9531 53.3748 49.4662 52.1361 49.4662 50.8445V31.364C49.4662 30.0723 48.9531 28.8336 48.0398 27.9203C47.1265 27.0069 45.8877 26.4938 44.5961 26.4938ZM33.2324 28.1172C33.2324 27.6867 33.4035 27.2737 33.7079 26.9693C34.0124 26.6649 34.4253 26.4938 34.8558 26.4938H38.1026C38.5331 26.4938 38.946 26.6649 39.2505 26.9693C39.5549 27.2737 39.726 27.6867 39.726 28.1172V29.7406H33.2324V28.1172ZM46.2195 50.8445C46.2195 51.275 46.0484 51.6879 45.744 51.9924C45.4395 52.2968 45.0266 52.4678 44.5961 52.4678H28.3623C27.9318 52.4678 27.5189 52.2968 27.2144 51.9924C26.91 51.6879 26.7389 51.275 26.7389 50.8445V31.364C26.7389 30.9334 26.91 30.5205 27.2144 30.2161C27.5189 29.9116 27.9318 29.7406 28.3623 29.7406H29.9857V31.364C29.9857 31.7945 30.1567 32.2074 30.4612 32.5119C30.7656 32.8163 31.1785 32.9873 31.6091 32.9873H41.3493C41.7799 32.9873 42.1928 32.8163 42.4972 32.5119C42.8017 32.2074 42.9727 31.7945 42.9727 31.364V29.7406H44.5961C45.0266 29.7406 45.4395 29.9116 45.744 30.2161C46.0484 30.5205 46.2195 30.9334 46.2195 31.364V50.8445ZM41.3493 36.2341H31.6091C31.1785 36.2341 30.7656 36.4051 30.4612 36.7096C30.1567 37.014 29.9857 37.4269 29.9857 37.8575C29.9857 38.288 30.1567 38.7009 30.4612 39.0054C30.7656 39.3098 31.1785 39.4808 31.6091 39.4808H41.3493C41.7799 39.4808 42.1928 39.3098 42.4972 39.0054C42.8017 38.7009 42.9727 38.288 42.9727 37.8575C42.9727 37.4269 42.8017 37.014 42.4972 36.7096C42.1928 36.4051 41.7799 36.2341 41.3493 36.2341Z" fill="white"/>
<circle cx="59.5" cy="15.5" r="9.5" fill="white" stroke="#00B2F0" stroke-width="2"/>
<g filter="url(#filter0_d_13830_114973)">
<circle cx="59.5" cy="15.5" r="10.5" fill="#20BD06"/>
<circle cx="59.5" cy="15.5" r="10.5" stroke="white" stroke-width="3"/>
</g>
<path d="M62.8457 11.6497L58.0564 16.8091L56.2143 14.8293C56.1143 14.7037 55.9911 14.6017 55.8526 14.5297C55.7141 14.4577 55.5632 14.4172 55.4095 14.4108C55.2557 14.4044 55.1024 14.4323 54.9592 14.4926C54.8159 14.5529 54.6858 14.6444 54.577 14.7614C54.4682 14.8783 54.3831 15.0181 54.3269 15.1721C54.2708 15.3261 54.2449 15.4908 54.2508 15.6561C54.2568 15.8213 54.2944 15.9835 54.3614 16.1323C54.4284 16.2812 54.5234 16.4136 54.6402 16.5211L57.2637 19.3528C57.3681 19.464 57.4918 19.552 57.6278 19.6117C57.7638 19.6714 57.9094 19.7017 58.0564 19.7008C58.3492 19.6994 58.6299 19.5745 58.8378 19.3528L64.4198 13.3535C64.5244 13.242 64.6075 13.1092 64.6641 12.963C64.7208 12.8168 64.75 12.66 64.75 12.5016C64.75 12.3432 64.7208 12.1864 64.6641 12.0402C64.6075 11.8939 64.5244 11.7612 64.4198 11.6497C64.2106 11.4262 63.9277 11.3008 63.6327 11.3008C63.3378 11.3008 63.0548 11.4262 62.8457 11.6497Z" fill="white"/>
<defs>
<filter id="filter0_d_13830_114973" x="43.5" y="0.5" width="32" height="32" filterUnits="userSpaceOnUse" color-interpolation-filters="sRGB">
<feFlood flood-opacity="0" result="BackgroundImageFix"/>
<feColorMatrix in="SourceAlpha" type="matrix" values="0 0 0 0 0 0 0 0 0 0 0 0 0 0 0 0 0 0 127 0" result="hardAlpha"/>
<feOffset dy="1"/>
<feGaussianBlur stdDeviation="2"/>
<feComposite in2="hardAlpha" operator="out"/>
<feColorMatrix type="matrix" values="0 0 0 0 0 0 0 0 0 0 0 0 0 0 0 0 0 0 0.25 0"/>
<feBlend mode="normal" in2="BackgroundImageFix" result="effect1_dropShadow_13830_114973"/>
<feBlend mode="normal" in="SourceGraphic" in2="effect1_dropShadow_13830_114973" result="shape"/>
</filter>
</defs>
</svg>
