<svg width="72" height="72" viewBox="0 0 72 72" fill="none" xmlns="http://www.w3.org/2000/svg">
<circle cx="36" cy="36" r="36" fill="#F3F6FA"/>
<circle cx="36" cy="36" r="34.5" stroke="#C5299B" stroke-width="3"/>
<path d="M42.975 46.4678H29.988C28.6963 46.4678 27.4576 45.9547 26.5443 45.0414C25.6309 44.1281 25.1178 42.8894 25.1178 41.5977V25.364C25.1178 24.9334 24.9468 24.5205 24.6424 24.2161C24.3379 23.9116 23.925 23.7406 23.4945 23.7406C23.0639 23.7406 22.651 23.9116 22.3466 24.2161C22.0421 24.5205 21.8711 24.9334 21.8711 25.364V41.5977C21.8711 43.7505 22.7263 45.815 24.2485 47.3372C25.7707 48.8594 27.8352 49.7146 29.988 49.7146H42.975C43.4055 49.7146 43.8185 49.5436 44.1229 49.2391C44.4273 48.9347 44.5984 48.5218 44.5984 48.0912C44.5984 47.6607 44.4273 47.2478 44.1229 46.9433C43.8185 46.6389 43.4055 46.4678 42.975 46.4678ZM51.0919 28.5133C51.075 28.3642 51.0423 28.2172 50.9945 28.075V27.9289C50.9164 27.762 50.8123 27.6085 50.686 27.4743L40.9458 17.7341C40.8116 17.6078 40.6581 17.5037 40.4912 17.4256H40.3451L39.8256 17.2471H33.2347C31.9431 17.2471 30.7044 17.7602 29.791 18.6735C28.8777 19.5868 28.3646 20.8256 28.3646 22.1172V38.351C28.3646 39.6426 28.8777 40.8813 29.791 41.7947C30.7044 42.708 31.9431 43.2211 33.2347 43.2211H46.2217C47.5134 43.2211 48.7521 42.708 49.6654 41.7947C50.5788 40.8813 51.0919 39.6426 51.0919 38.351V28.6107C51.0919 28.6107 51.0919 28.6107 51.0919 28.5133ZM41.3516 22.7828L45.5562 26.9873H42.975C42.5444 26.9873 42.1315 26.8163 41.8271 26.5119C41.5226 26.2074 41.3516 25.7945 41.3516 25.364V22.7828ZM47.8451 38.351C47.8451 38.7815 47.6741 39.1944 47.3696 39.4989C47.0652 39.8033 46.6523 39.9743 46.2217 39.9743H33.2347C32.8042 39.9743 32.3913 39.8033 32.0868 39.4989C31.7824 39.1944 31.6114 38.7815 31.6114 38.351V22.1172C31.6114 21.6867 31.7824 21.2737 32.0868 20.9693C32.3913 20.6649 32.8042 20.4938 33.2347 20.4938H38.1049V25.364C38.1049 26.6556 38.618 27.8943 39.5313 28.8077C40.4446 29.721 41.6834 30.2341 42.975 30.2341H47.8451V38.351Z" fill="#C5299B"/>
</svg>
