<svg width="72" height="72" viewBox="0 0 72 72" fill="none" xmlns="http://www.w3.org/2000/svg">
<path d="M70.5 36C70.5 55.0538 55.0538 70.5 36 70.5C16.9462 70.5 1.5 55.0538 1.5 36C1.5 16.9462 16.9462 1.5 36 1.5C55.0538 1.5 70.5 16.9462 70.5 36Z" fill="#DAF5FF" stroke="#00A5DF" stroke-width="3"/>
<path d="M42.975 49.4678H29.988C28.6963 49.4678 27.4576 48.9547 26.5443 48.0414C25.6309 47.1281 25.1178 45.8894 25.1178 44.5977V28.364C25.1178 27.9334 24.9468 27.5205 24.6424 27.2161C24.3379 26.9116 23.925 26.7406 23.4945 26.7406C23.0639 26.7406 22.651 26.9116 22.3466 27.2161C22.0421 27.5205 21.8711 27.9334 21.8711 28.364V44.5977C21.8711 46.7505 22.7263 48.815 24.2485 50.3372C25.7707 51.8594 27.8352 52.7146 29.988 52.7146H42.975C43.4055 52.7146 43.8185 52.5436 44.1229 52.2391C44.4273 51.9347 44.5984 51.5218 44.5984 51.0912C44.5984 50.6607 44.4273 50.2478 44.1229 49.9433C43.8185 49.6389 43.4055 49.4678 42.975 49.4678ZM51.0919 31.5133C51.075 31.3642 51.0423 31.2172 50.9945 31.075V30.9289C50.9164 30.762 50.8123 30.6085 50.686 30.4743L40.9458 20.7341C40.8116 20.6078 40.6581 20.5037 40.4912 20.4256H40.3451L39.8256 20.2471H33.2347C31.9431 20.2471 30.7044 20.7602 29.791 21.6735C28.8777 22.5868 28.3646 23.8256 28.3646 25.1172V41.351C28.3646 42.6426 28.8777 43.8813 29.791 44.7947C30.7044 45.708 31.9431 46.2211 33.2347 46.2211H46.2217C47.5134 46.2211 48.7521 45.708 49.6654 44.7947C50.5788 43.8813 51.0919 42.6426 51.0919 41.351V31.6107C51.0919 31.6107 51.0919 31.6107 51.0919 31.5133ZM41.3516 25.7828L45.5562 29.9873H42.975C42.5444 29.9873 42.1315 29.8163 41.8271 29.5119C41.5226 29.2074 41.3516 28.7945 41.3516 28.364V25.7828ZM47.8451 41.351C47.8451 41.7815 47.6741 42.1944 47.3696 42.4989C47.0652 42.8033 46.6523 42.9743 46.2217 42.9743H33.2347C32.8042 42.9743 32.3913 42.8033 32.0868 42.4989C31.7824 42.1944 31.6114 41.7815 31.6114 41.351V25.1172C31.6114 24.6867 31.7824 24.2737 32.0868 23.9693C32.3913 23.6649 32.8042 23.4938 33.2347 23.4938H38.1049V28.364C38.1049 29.6556 38.618 30.8943 39.5313 31.8077C40.4446 32.721 41.6834 33.2341 42.975 33.2341H47.8451V41.351Z" fill="#00A5DF"/>
</svg>
