<svg width="72" height="72" viewBox="0 0 72 72" fill="none" xmlns="http://www.w3.org/2000/svg">
<path d="M70.5 36C70.5 55.0538 55.0538 70.5 36 70.5C16.9462 70.5 1.5 55.0538 1.5 36C1.5 16.9462 16.9462 1.5 36 1.5C55.0538 1.5 70.5 16.9462 70.5 36Z" fill="white" stroke="#00A5DF" stroke-width="3"/>
<path fill-rule="evenodd" clip-rule="evenodd" d="M23.4978 46.1237L23.4135 46.2775C23.1416 46.774 22.999 47.3366 23 47.9091C23.001 48.4815 23.1455 49.0437 23.419 49.5391C23.6926 50.0345 24.0856 50.4458 24.5585 50.7317C24.9404 50.9626 25.3637 51.1052 25.7999 51.1515L25.8048 51.1521C25.9072 51.1628 26.0104 51.1682 26.1139 51.1682H26.7892V51.1536L35.7836 51.1674V51.1688L36.2468 51.1681L36.7099 51.1688V51.1674L45.7043 51.1536V51.1682H46.3796C46.4831 51.1682 46.5863 51.1628 46.6887 51.1521L46.6936 51.1515C47.1299 51.1052 47.5531 50.9626 47.935 50.7317C48.4079 50.4458 48.8009 50.0345 49.0745 49.5391C49.348 49.0437 49.4925 48.4815 49.4935 47.9091C49.4945 47.3366 49.3519 46.774 49.08 46.2775L48.9957 46.1237L41.3903 30.1583V23.1594H41.8906C42.7227 23.1594 43.3972 22.4521 43.3972 21.5797C43.3972 20.7073 42.7227 20 41.8906 20H41.355H31.1385H30.6029C29.7708 20 29.0963 20.7073 29.0963 21.5797C29.0963 22.4521 29.7708 23.1594 30.6029 23.1594H31.1033V30.1583L23.4978 46.1237ZM33.8043 23.1594V30.7807L31.2512 36.3881H41.2423L38.6892 30.7807V23.1594H33.8043ZM39.3644 23.1594V30.6203L41.9906 36.3881H41.9906L39.3645 30.6203V23.1594H39.3644ZM42.6544 39.4894H29.8391L26.0153 47.8876C26.0146 47.8928 26.0142 47.8981 26.0142 47.9035C26.0142 47.9218 26.0189 47.9398 26.0276 47.9557C26.0364 47.9715 26.049 47.9847 26.0641 47.9938C26.0792 48.003 26.0964 48.0078 26.1139 48.0078L26.7892 48.0084H35.7836H36.7099H45.7043L46.3796 48.0078C46.3971 48.0078 46.4143 48.003 46.4294 47.9938C46.4445 47.9847 46.4571 47.9715 46.4659 47.9557C46.4747 47.9398 46.4793 47.9218 46.4793 47.9035C46.4793 47.8981 46.4789 47.8928 46.4782 47.8876L42.6544 39.4894ZM46.2174 49.7847L46.3796 48.7164L46.3796 50.4602C46.3796 50.4602 46.3796 50.4602 46.3796 50.4602V48.7164C46.3796 48.7164 46.3796 48.7164 46.3796 48.7164H46.3796L46.2174 49.7847ZM46.7332 48.6264C46.7445 48.6203 46.7557 48.6139 46.7667 48.6072C46.8844 48.5361 46.9823 48.4337 47.0503 48.3104C47.1184 48.1871 47.1544 48.0472 47.1546 47.9047C47.1548 47.8116 47.1397 47.7195 47.1102 47.6323L47.1102 47.6323C47.1396 47.7194 47.1547 47.8116 47.1546 47.9047C47.1545 47.9395 47.1523 47.9741 47.1481 48.0084C47.1349 48.1145 47.1018 48.2172 47.0503 48.3104C46.9822 48.4337 46.8844 48.5361 46.7667 48.6072C46.7557 48.6139 46.7445 48.6203 46.7332 48.6264ZM48.4944 46.6301C48.4944 46.6301 48.4944 46.6301 48.4944 46.6301L48.4849 46.6358L48.4849 46.6358L48.4944 46.6301Z" fill="#00A5DF"/>
</svg>
