<svg width="76" height="77" viewBox="0 0 76 77" fill="none" xmlns="http://www.w3.org/2000/svg">
<path d="M69.5 41C69.5 59.5015 54.5015 74.5 36 74.5C17.4985 74.5 2.5 59.5015 2.5 41C2.5 22.4985 17.4985 7.5 36 7.5C54.5015 7.5 69.5 22.4985 69.5 41Z" fill="#00A5DF" stroke="#00A5DF" stroke-width="5"/>
<path fill-rule="evenodd" clip-rule="evenodd" d="M23.4978 48.1237L23.4135 48.2775C23.1416 48.774 22.999 49.3366 23 49.9091C23.001 50.4815 23.1455 51.0437 23.419 51.5391C23.6926 52.0345 24.0856 52.4458 24.5585 52.7317C24.9404 52.9626 25.3637 53.1052 25.7999 53.1515L25.8048 53.1521C25.9072 53.1628 26.0104 53.1682 26.1139 53.1682H26.7892V53.1536L35.7836 53.1674V53.1688L36.2468 53.1681L36.7099 53.1688V53.1674L45.7043 53.1536V53.1682H46.3796C46.4831 53.1682 46.5863 53.1628 46.6887 53.1521L46.6936 53.1515C47.1299 53.1052 47.5531 52.9626 47.935 52.7317C48.4079 52.4458 48.8009 52.0345 49.0745 51.5391C49.348 51.0437 49.4925 50.4815 49.4935 49.9091C49.4945 49.3366 49.3519 48.774 49.08 48.2775L48.9957 48.1237L41.3903 32.1583V25.1594H41.8906C42.7227 25.1594 43.3972 24.4521 43.3972 23.5797C43.3972 22.7073 42.7227 22 41.8906 22H41.355H31.1385H30.6029C29.7708 22 29.0963 22.7073 29.0963 23.5797C29.0963 24.4521 29.7708 25.1594 30.6029 25.1594H31.1033V32.1583L23.4978 48.1237ZM33.8043 25.1594V32.7807L31.2512 38.3881H41.2423L38.6892 32.7807V25.1594H33.8043ZM39.3644 25.1594V32.6203L41.9906 38.3881H41.9906L39.3645 32.6203V25.1594H39.3644ZM42.6544 41.4894H29.8391L26.0153 49.8876C26.0146 49.8928 26.0142 49.8981 26.0142 49.9035C26.0142 49.9218 26.0189 49.9398 26.0276 49.9557C26.0364 49.9715 26.049 49.9847 26.0641 49.9938C26.0792 50.003 26.0964 50.0078 26.1139 50.0078L26.7892 50.0084H35.7836H36.7099H45.7043L46.3796 50.0078C46.3971 50.0078 46.4143 50.003 46.4294 49.9938C46.4445 49.9847 46.4571 49.9715 46.4659 49.9557C46.4747 49.9398 46.4793 49.9218 46.4793 49.9035C46.4793 49.8981 46.4789 49.8928 46.4782 49.8876L42.6544 41.4894ZM46.2174 51.7847L46.3796 50.7164L46.3796 52.4602C46.3796 52.4602 46.3796 52.4602 46.3796 52.4602V50.7164C46.3796 50.7164 46.3796 50.7164 46.3796 50.7164H46.3796L46.2174 51.7847ZM46.7332 50.6264C46.7445 50.6203 46.7557 50.6139 46.7667 50.6072C46.8844 50.5361 46.9823 50.4337 47.0503 50.3104C47.1184 50.1871 47.1544 50.0472 47.1546 49.9047C47.1548 49.8116 47.1397 49.7195 47.1102 49.6323L47.1102 49.6323C47.1396 49.7194 47.1547 49.8116 47.1546 49.9047C47.1545 49.9395 47.1523 49.9741 47.1481 50.0084C47.1349 50.1145 47.1018 50.2172 47.0503 50.3104C46.9822 50.4337 46.8844 50.5361 46.7667 50.6072C46.7557 50.6139 46.7445 50.6203 46.7332 50.6264ZM48.4944 48.6301C48.4944 48.6301 48.4944 48.6301 48.4944 48.6301L48.4849 48.6358L48.4849 48.6358L48.4944 48.6301Z" fill="white"/>
<circle cx="59.5" cy="15.5" r="9.5" fill="white" stroke="#00B2F0" stroke-width="2"/>
<g filter="url(#filter0_d_15145_129011)">
<circle cx="59.5" cy="15.5" r="10.5" fill="#FF965A"/>
<circle cx="59.5" cy="15.5" r="10.5" stroke="#F1F1F1" stroke-width="3"/>
</g>
<path d="M62.8457 11.6497L58.0564 16.8091L56.2143 14.8293C56.1143 14.7037 55.9911 14.6017 55.8526 14.5297C55.7141 14.4577 55.5632 14.4172 55.4095 14.4108C55.2557 14.4044 55.1024 14.4323 54.9592 14.4926C54.8159 14.5529 54.6858 14.6444 54.577 14.7614C54.4682 14.8783 54.3831 15.0181 54.3269 15.1721C54.2708 15.3261 54.2449 15.4908 54.2508 15.6561C54.2568 15.8213 54.2944 15.9835 54.3614 16.1323C54.4284 16.2812 54.5234 16.4136 54.6402 16.5211L57.2637 19.3528C57.3681 19.464 57.4918 19.552 57.6278 19.6117C57.7638 19.6714 57.9094 19.7017 58.0564 19.7008C58.3492 19.6994 58.6299 19.5745 58.8378 19.3528L64.4198 13.3535C64.5244 13.242 64.6075 13.1092 64.6641 12.963C64.7208 12.8168 64.75 12.66 64.75 12.5016C64.75 12.3432 64.7208 12.1864 64.6641 12.0402C64.6075 11.8939 64.5244 11.7612 64.4198 11.6497C64.2106 11.4262 63.9277 11.3008 63.6327 11.3008C63.3378 11.3008 63.0548 11.4262 62.8457 11.6497Z" fill="white"/>
<defs>
<filter id="filter0_d_15145_129011" x="43.5" y="0.5" width="32" height="32" filterUnits="userSpaceOnUse" color-interpolation-filters="sRGB">
<feFlood flood-opacity="0" result="BackgroundImageFix"/>
<feColorMatrix in="SourceAlpha" type="matrix" values="0 0 0 0 0 0 0 0 0 0 0 0 0 0 0 0 0 0 127 0" result="hardAlpha"/>
<feOffset dy="1"/>
<feGaussianBlur stdDeviation="2"/>
<feComposite in2="hardAlpha" operator="out"/>
<feColorMatrix type="matrix" values="0 0 0 0 0 0 0 0 0 0 0 0 0 0 0 0 0 0 0.25 0"/>
<feBlend mode="normal" in2="BackgroundImageFix" result="effect1_dropShadow_15145_129011"/>
<feBlend mode="normal" in="SourceGraphic" in2="effect1_dropShadow_15145_129011" result="shape"/>
</filter>
</defs>
</svg>
