<svg width="75" height="80" viewBox="0 0 75 80" fill="none" xmlns="http://www.w3.org/2000/svg">
<path d="M69.5 44C69.5 62.5015 54.5015 77.5 36 77.5C17.4985 77.5 2.5 62.5015 2.5 44C2.5 25.4985 17.4985 10.5 36 10.5C54.5015 10.5 69.5 25.4985 69.5 44Z" fill="#00A5DF" stroke="#00A5DF" stroke-width="5"/>
<path d="M36.4787 28.2461C34.3469 28.2461 32.2359 28.666 30.2663 29.4818C28.2968 30.2976 26.5072 31.4934 24.9997 33.0009C21.9553 36.0453 20.245 40.1744 20.245 44.4799C20.2308 48.2285 21.5287 51.8639 23.9138 54.7558L20.6671 58.0026C20.4418 58.2309 20.2892 58.5208 20.2285 58.8357C20.1679 59.1506 20.2018 59.4764 20.3261 59.7721C20.461 60.0642 20.6796 60.3096 20.9541 60.4772C21.2287 60.6449 21.5469 60.7272 21.8684 60.7136H36.4787C40.7842 60.7136 44.9133 59.0033 47.9577 55.9589C51.0022 52.9144 52.7125 48.7853 52.7125 44.4799C52.7125 40.1744 51.0022 36.0453 47.9577 33.0009C44.9133 29.9564 40.7842 28.2461 36.4787 28.2461ZM36.4787 57.4669H25.7807L27.2904 55.9571C27.5928 55.653 27.7625 55.2415 27.7625 54.8127C27.7625 54.3838 27.5928 53.9723 27.2904 53.6682C25.1648 51.5449 23.841 48.7502 23.5448 45.7604C23.2486 42.7705 23.9981 39.7705 25.6658 37.2713C27.3335 34.7721 29.8161 32.9285 32.6906 32.0545C35.5652 31.1805 38.6538 31.3302 41.4304 32.4781C44.2069 33.626 46.4996 35.7011 47.9178 38.3498C49.3359 40.9985 49.7918 44.057 49.2078 47.0042C48.6238 49.9514 47.0361 52.6049 44.715 54.5127C42.394 56.4205 39.4832 57.4645 36.4787 57.4669ZM41.3489 42.8565H38.1021V39.6097C38.1021 39.1792 37.9311 38.7663 37.6266 38.4618C37.3222 38.1574 36.9093 37.9864 36.4787 37.9864C36.0482 37.9864 35.6353 38.1574 35.3308 38.4618C35.0264 38.7663 34.8554 39.1792 34.8554 39.6097V42.8565H31.6086C31.1781 42.8565 30.7652 43.0275 30.4607 43.332C30.1563 43.6364 29.9852 44.0493 29.9852 44.4799C29.9852 44.9104 30.1563 45.3233 30.4607 45.6278C30.7652 45.9322 31.1781 46.1032 31.6086 46.1032H34.8554V49.35C34.8554 49.7805 35.0264 50.1934 35.3308 50.4979C35.6353 50.8023 36.0482 50.9734 36.4787 50.9734C36.9093 50.9734 37.3222 50.8023 37.6266 50.4979C37.9311 50.1934 38.1021 49.7805 38.1021 49.35V46.1032H41.3489C41.7794 46.1032 42.1923 45.9322 42.4968 45.6278C42.8012 45.3233 42.9722 44.9104 42.9722 44.4799C42.9722 44.0493 42.8012 43.6364 42.4968 43.332C42.1923 43.0275 41.7794 42.8565 41.3489 42.8565Z" fill="white"/>
<circle cx="58.5" cy="15.5" r="9.5" fill="white" stroke="#00B2F0" stroke-width="2"/>
<g filter="url(#filter0_d_15145_129013)">
<circle cx="58.5" cy="15.5" r="10.5" fill="#FF965A"/>
<circle cx="58.5" cy="15.5" r="10.5" stroke="white" stroke-width="3"/>
</g>
<path d="M61.8457 11.6497L57.0564 16.8091L55.2143 14.8293C55.1143 14.7037 54.9911 14.6017 54.8526 14.5297C54.7141 14.4577 54.5632 14.4172 54.4095 14.4108C54.2557 14.4044 54.1024 14.4323 53.9592 14.4926C53.8159 14.5529 53.6858 14.6444 53.577 14.7614C53.4682 14.8783 53.3831 15.0181 53.3269 15.1721C53.2708 15.3261 53.2449 15.4908 53.2508 15.6561C53.2568 15.8213 53.2944 15.9835 53.3614 16.1323C53.4284 16.2812 53.5234 16.4136 53.6402 16.5211L56.2637 19.3528C56.3681 19.464 56.4918 19.552 56.6278 19.6117C56.7638 19.6714 56.9094 19.7017 57.0564 19.7008C57.3492 19.6994 57.6299 19.5745 57.8378 19.3528L63.4198 13.3535C63.5244 13.242 63.6075 13.1092 63.6641 12.963C63.7208 12.8168 63.75 12.66 63.75 12.5016C63.75 12.3432 63.7208 12.1864 63.6641 12.0402C63.6075 11.8939 63.5244 11.7612 63.4198 11.6497C63.2106 11.4262 62.9277 11.3008 62.6327 11.3008C62.3378 11.3008 62.0548 11.4262 61.8457 11.6497Z" fill="white"/>
<defs>
<filter id="filter0_d_15145_129013" x="42.5" y="0.5" width="32" height="32" filterUnits="userSpaceOnUse" color-interpolation-filters="sRGB">
<feFlood flood-opacity="0" result="BackgroundImageFix"/>
<feColorMatrix in="SourceAlpha" type="matrix" values="0 0 0 0 0 0 0 0 0 0 0 0 0 0 0 0 0 0 127 0" result="hardAlpha"/>
<feOffset dy="1"/>
<feGaussianBlur stdDeviation="2"/>
<feComposite in2="hardAlpha" operator="out"/>
<feColorMatrix type="matrix" values="0 0 0 0 0 0 0 0 0 0 0 0 0 0 0 0 0 0 0.25 0"/>
<feBlend mode="normal" in2="BackgroundImageFix" result="effect1_dropShadow_15145_129013"/>
<feBlend mode="normal" in="SourceGraphic" in2="effect1_dropShadow_15145_129013" result="shape"/>
</filter>
</defs>
</svg>
