<svg width="75" height="77" viewBox="0 0 75 77" fill="none" xmlns="http://www.w3.org/2000/svg">
<path d="M69.5 41C69.5 59.5015 54.5015 74.5 36 74.5C17.4985 74.5 2.5 59.5015 2.5 41C2.5 22.4985 17.4985 7.5 36 7.5C54.5015 7.5 69.5 22.4985 69.5 41Z" fill="#00A5DF" stroke="#00A5DF" stroke-width="5"/>
<path d="M42.975 54.4678H29.988C28.6963 54.4678 27.4576 53.9547 26.5443 53.0414C25.6309 52.1281 25.1178 50.8894 25.1178 49.5977V33.364C25.1178 32.9334 24.9468 32.5205 24.6424 32.2161C24.3379 31.9116 23.925 31.7406 23.4945 31.7406C23.0639 31.7406 22.651 31.9116 22.3466 32.2161C22.0421 32.5205 21.8711 32.9334 21.8711 33.364V49.5977C21.8711 51.7505 22.7263 53.815 24.2485 55.3372C25.7707 56.8594 27.8352 57.7146 29.988 57.7146H42.975C43.4055 57.7146 43.8185 57.5436 44.1229 57.2391C44.4273 56.9347 44.5984 56.5218 44.5984 56.0912C44.5984 55.6607 44.4273 55.2478 44.1229 54.9433C43.8185 54.6389 43.4055 54.4678 42.975 54.4678ZM51.0919 36.5133C51.075 36.3642 51.0423 36.2172 50.9945 36.075V35.9289C50.9164 35.762 50.8123 35.6085 50.686 35.4743L40.9458 25.7341C40.8116 25.6078 40.6581 25.5037 40.4912 25.4256H40.3451L39.8256 25.2471H33.2347C31.9431 25.2471 30.7044 25.7602 29.791 26.6735C28.8777 27.5868 28.3646 28.8256 28.3646 30.1172V46.351C28.3646 47.6426 28.8777 48.8813 29.791 49.7947C30.7044 50.708 31.9431 51.2211 33.2347 51.2211H46.2217C47.5134 51.2211 48.7521 50.708 49.6654 49.7947C50.5788 48.8813 51.0919 47.6426 51.0919 46.351V36.6107C51.0919 36.6107 51.0919 36.6107 51.0919 36.5133ZM41.3516 30.7828L45.5562 34.9873H42.975C42.5444 34.9873 42.1315 34.8163 41.8271 34.5119C41.5226 34.2074 41.3516 33.7945 41.3516 33.364V30.7828ZM47.8451 46.351C47.8451 46.7815 47.6741 47.1944 47.3696 47.4989C47.0652 47.8033 46.6523 47.9743 46.2217 47.9743H33.2347C32.8042 47.9743 32.3913 47.8033 32.0868 47.4989C31.7824 47.1944 31.6114 46.7815 31.6114 46.351V30.1172C31.6114 29.6867 31.7824 29.2737 32.0868 28.9693C32.3913 28.6649 32.8042 28.4938 33.2347 28.4938H38.1049V33.364C38.1049 34.6556 38.618 35.8943 39.5313 36.8077C40.4446 37.721 41.6834 38.2341 42.975 38.2341H47.8451V46.351Z" fill="white"/>
<circle cx="58.5" cy="15.5" r="9.5" fill="white" stroke="#00B2F0" stroke-width="2"/>
<g filter="url(#filter0_d_15165_131024)">
<circle cx="58.5" cy="15.5" r="10.5" fill="#FF965A"/>
<circle cx="58.5" cy="15.5" r="10.5" stroke="white" stroke-width="3"/>
</g>
<path d="M61.8457 11.6497L57.0564 16.8091L55.2143 14.8293C55.1143 14.7037 54.9911 14.6017 54.8526 14.5297C54.7141 14.4577 54.5632 14.4172 54.4095 14.4108C54.2557 14.4044 54.1024 14.4323 53.9592 14.4926C53.8159 14.5529 53.6858 14.6444 53.577 14.7614C53.4682 14.8783 53.3831 15.0181 53.3269 15.1721C53.2708 15.3261 53.2449 15.4908 53.2508 15.6561C53.2568 15.8213 53.2944 15.9835 53.3614 16.1323C53.4284 16.2812 53.5234 16.4136 53.6402 16.5211L56.2637 19.3528C56.3681 19.464 56.4918 19.552 56.6278 19.6117C56.7638 19.6714 56.9094 19.7017 57.0564 19.7008C57.3492 19.6994 57.6299 19.5745 57.8378 19.3528L63.4198 13.3535C63.5244 13.242 63.6075 13.1092 63.6641 12.963C63.7208 12.8168 63.75 12.66 63.75 12.5016C63.75 12.3432 63.7208 12.1864 63.6641 12.0402C63.6075 11.8939 63.5244 11.7612 63.4198 11.6497C63.2106 11.4262 62.9277 11.3008 62.6327 11.3008C62.3378 11.3008 62.0548 11.4262 61.8457 11.6497Z" fill="white"/>
<defs>
<filter id="filter0_d_15165_131024" x="42.5" y="0.5" width="32" height="32" filterUnits="userSpaceOnUse" color-interpolation-filters="sRGB">
<feFlood flood-opacity="0" result="BackgroundImageFix"/>
<feColorMatrix in="SourceAlpha" type="matrix" values="0 0 0 0 0 0 0 0 0 0 0 0 0 0 0 0 0 0 127 0" result="hardAlpha"/>
<feOffset dy="1"/>
<feGaussianBlur stdDeviation="2"/>
<feComposite in2="hardAlpha" operator="out"/>
<feColorMatrix type="matrix" values="0 0 0 0 0 0 0 0 0 0 0 0 0 0 0 0 0 0 0.25 0"/>
<feBlend mode="normal" in2="BackgroundImageFix" result="effect1_dropShadow_15165_131024"/>
<feBlend mode="normal" in="SourceGraphic" in2="effect1_dropShadow_15165_131024" result="shape"/>
</filter>
</defs>
</svg>

