<svg width="75" height="79" viewBox="0 0 75 79" fill="none" xmlns="http://www.w3.org/2000/svg">
<path d="M69.5 43C69.5 61.5015 54.5015 76.5 36 76.5C17.4985 76.5 2.5 61.5015 2.5 43C2.5 24.4985 17.4985 9.5 36 9.5C54.5015 9.5 69.5 24.4985 69.5 43Z" fill="#00A5DF" stroke="#00A5DF" stroke-width="5"/>
<path d="M47.8451 27.9893H25.1178C24.2568 27.9893 23.4309 28.3042 22.822 28.8648C22.2132 29.4254 21.8711 30.1857 21.8711 30.9785V33.9677C21.8711 34.7605 22.2132 35.5208 22.822 36.0814C23.4309 36.642 24.2568 36.9569 25.1178 36.9569V53.3976C25.1178 54.5868 25.6309 55.7273 26.5443 56.5682C27.4576 57.4091 28.6963 57.8815 29.988 57.8815H42.975C44.2666 57.8815 45.5054 57.4091 46.4187 56.5682C47.332 55.7273 47.8451 54.5868 47.8451 53.3976V36.9569C48.7062 36.9569 49.532 36.642 50.1409 36.0814C50.7498 35.5208 51.0919 34.7605 51.0919 33.9677V30.9785C51.0919 30.1857 50.7498 29.4254 50.1409 28.8648C49.532 28.3042 48.7062 27.9893 47.8451 27.9893ZM44.5984 48.9138H34.8581V42.9354H44.5984V48.9138ZM44.5984 39.9461H33.2347C32.8042 39.9461 32.3913 40.1036 32.0868 40.3839C31.7824 40.6642 31.6114 41.0444 31.6114 41.4407V50.4084C31.6114 50.8048 31.7824 51.185 32.0868 51.4653C32.3913 51.7456 32.8042 51.903 33.2347 51.903H44.5984V53.3976C44.5984 53.794 44.4273 54.1742 44.1229 54.4545C43.8185 54.7348 43.4055 54.8922 42.975 54.8922H29.988C29.5574 54.8922 29.1445 54.7348 28.8401 54.4545C28.5356 54.1742 28.3646 53.794 28.3646 53.3976V36.9569H44.5984V39.9461ZM25.1178 33.9677V30.9785H47.8451V33.9677H25.1178Z" fill="white"/>
<circle cx="57.5" cy="14.5" r="9.5" fill="white" stroke="#00B2F0" stroke-width="2"/>
<g filter="url(#filter0_d_13830_114969)">
<circle cx="58.5" cy="15.5" r="10.5" fill="#20BD06"/>
<circle cx="58.5" cy="15.5" r="10.5" stroke="white" stroke-width="3"/>
</g>
<path d="M61.5957 12.3489L56.8064 17.5083L54.9643 15.5285C54.8643 15.4029 54.7411 15.3009 54.6026 15.2289C54.4641 15.1569 54.3132 15.1164 54.1595 15.11C54.0057 15.1037 53.8524 15.1315 53.7092 15.1918C53.5659 15.2521 53.4358 15.3436 53.327 15.4606C53.2182 15.5775 53.1331 15.7173 53.0769 15.8713C53.0208 16.0253 52.9949 16.1901 53.0008 16.3553C53.0068 16.5206 53.0444 16.6827 53.1114 16.8316C53.1784 16.9804 53.2734 17.1128 53.3902 17.2203L56.0137 20.052C56.1181 20.1632 56.2418 20.2512 56.3778 20.3109C56.5138 20.3706 56.6594 20.4009 56.8064 20.4C57.0992 20.3987 57.3799 20.2737 57.5878 20.052L63.1698 14.0527C63.2744 13.9412 63.3575 13.8085 63.4141 13.6623C63.4708 13.516 63.5 13.3592 63.5 13.2008C63.5 13.0424 63.4708 12.8856 63.4141 12.7394C63.3575 12.5932 63.2744 12.4605 63.1698 12.3489C62.9606 12.1254 62.6777 12 62.3827 12C62.0878 12 61.8048 12.1254 61.5957 12.3489Z" fill="white"/>
<defs>
<filter id="filter0_d_13830_114969" x="42.5" y="0.5" width="32" height="32" filterUnits="userSpaceOnUse" color-interpolation-filters="sRGB">
<feFlood flood-opacity="0" result="BackgroundImageFix"/>
<feColorMatrix in="SourceAlpha" type="matrix" values="0 0 0 0 0 0 0 0 0 0 0 0 0 0 0 0 0 0 127 0" result="hardAlpha"/>
<feOffset dy="1"/>
<feGaussianBlur stdDeviation="2"/>
<feComposite in2="hardAlpha" operator="out"/>
<feColorMatrix type="matrix" values="0 0 0 0 0 0 0 0 0 0 0 0 0 0 0 0 0 0 0.25 0"/>
<feBlend mode="normal" in2="BackgroundImageFix" result="effect1_dropShadow_13830_114969"/>
<feBlend mode="normal" in="SourceGraphic" in2="effect1_dropShadow_13830_114969" result="shape"/>
</filter>
</defs>
</svg>
