<svg width="72" height="72" viewBox="0 0 72 72" fill="none" xmlns="http://www.w3.org/2000/svg">
<path d="M70.5 36C70.5 55.0538 55.0538 70.5 36 70.5C16.9462 70.5 1.5 55.0538 1.5 36C1.5 16.9462 16.9462 1.5 36 1.5C55.0538 1.5 70.5 16.9462 70.5 36Z" fill="#DAF5FF" stroke="#00A5DF" stroke-width="3"/>
<path d="M47.8451 20.9893H25.1178C24.2568 20.9893 23.4309 21.3042 22.822 21.8648C22.2132 22.4254 21.8711 23.1857 21.8711 23.9785V26.9677C21.8711 27.7605 22.2132 28.5208 22.822 29.0814C23.4309 29.642 24.2568 29.9569 25.1178 29.9569V46.3976C25.1178 47.5868 25.6309 48.7273 26.5443 49.5682C27.4576 50.4091 28.6963 50.8815 29.988 50.8815H42.975C44.2666 50.8815 45.5054 50.4091 46.4187 49.5682C47.332 48.7273 47.8451 47.5868 47.8451 46.3976V29.9569C48.7062 29.9569 49.532 29.642 50.1409 29.0814C50.7498 28.5208 51.0919 27.7605 51.0919 26.9677V23.9785C51.0919 23.1857 50.7498 22.4254 50.1409 21.8648C49.532 21.3042 48.7062 20.9893 47.8451 20.9893ZM44.5984 41.9138H34.8581V35.9354H44.5984V41.9138ZM44.5984 32.9461H33.2347C32.8042 32.9461 32.3913 33.1036 32.0868 33.3839C31.7824 33.6642 31.6114 34.0444 31.6114 34.4407V43.4084C31.6114 43.8048 31.7824 44.185 32.0868 44.4653C32.3913 44.7456 32.8042 44.903 33.2347 44.903H44.5984V46.3976C44.5984 46.794 44.4273 47.1742 44.1229 47.4545C43.8185 47.7348 43.4055 47.8922 42.975 47.8922H29.988C29.5574 47.8922 29.1445 47.7348 28.8401 47.4545C28.5356 47.1742 28.3646 46.794 28.3646 46.3976V29.9569H44.5984V32.9461ZM25.1178 26.9677V23.9785H47.8451V26.9677H25.1178Z" fill="#00A5DF"/>
</svg>
