<svg width="72" height="72" viewBox="0 0 72 72" fill="none" xmlns="http://www.w3.org/2000/svg">
<circle cx="36" cy="36" r="36" fill="#F3F6FA"/>
<circle cx="36" cy="36" r="34.5" stroke="#C5299B" stroke-width="3"/>
<path d="M36.4787 20.2471C34.3469 20.2471 32.2359 20.667 30.2663 21.4828C28.2968 22.2986 26.5072 23.4944 24.9997 25.0018C21.9553 28.0463 20.245 32.1754 20.245 36.4808C20.2308 40.2294 21.5287 43.8648 23.9138 46.7568L20.6671 50.0036C20.4418 50.2319 20.2892 50.5217 20.2285 50.8367C20.1679 51.1516 20.2018 51.4774 20.3261 51.773C20.461 52.0651 20.6796 52.3106 20.9541 52.4782C21.2287 52.6459 21.5469 52.7281 21.8684 52.7146H36.4787C40.7842 52.7146 44.9133 51.0043 47.9577 47.9598C51.0022 44.9154 52.7125 40.7863 52.7125 36.4808C52.7125 32.1754 51.0022 28.0463 47.9577 25.0018C44.9133 21.9574 40.7842 20.2471 36.4787 20.2471ZM36.4787 49.4679H25.7807L27.2904 47.9581C27.5928 47.654 27.7625 47.2425 27.7625 46.8136C27.7625 46.3848 27.5928 45.9733 27.2904 45.6691C25.1648 43.5458 23.841 40.7512 23.5448 37.7613C23.2486 34.7715 23.9981 31.7714 25.6658 29.2723C27.3335 26.7731 29.8161 24.9295 32.6906 24.0555C35.5652 23.1815 38.6538 23.3312 41.4304 24.4791C44.2069 25.627 46.4996 27.7021 47.9178 30.3508C49.3359 32.9995 49.7918 36.058 49.2078 39.0052C48.6238 41.9524 47.0361 44.6059 44.715 46.5137C42.394 48.4215 39.4832 49.4655 36.4787 49.4679ZM41.3489 34.8575H38.1021V31.6107C38.1021 31.1802 37.9311 30.7672 37.6266 30.4628C37.3222 30.1584 36.9093 29.9873 36.4787 29.9873C36.0482 29.9873 35.6353 30.1584 35.3308 30.4628C35.0264 30.7672 34.8554 31.1802 34.8554 31.6107V34.8575H31.6086C31.1781 34.8575 30.7652 35.0285 30.4607 35.3329C30.1563 35.6374 29.9852 36.0503 29.9852 36.4808C29.9852 36.9114 30.1563 37.3243 30.4607 37.6287C30.7652 37.9332 31.1781 38.1042 31.6086 38.1042H34.8554V41.351C34.8554 41.7815 35.0264 42.1944 35.3308 42.4989C35.6353 42.8033 36.0482 42.9743 36.4787 42.9743C36.9093 42.9743 37.3222 42.8033 37.6266 42.4989C37.9311 42.1944 38.1021 41.7815 38.1021 41.351V38.1042H41.3489C41.7794 38.1042 42.1923 37.9332 42.4968 37.6287C42.8012 37.3243 42.9722 36.9114 42.9722 36.4808C42.9722 36.0503 42.8012 35.6374 42.4968 35.3329C42.1923 35.0285 41.7794 34.8575 41.3489 34.8575Z" fill="#C5299B"/>
</svg>
