<svg width="75" height="80" viewBox="0 0 75 80" fill="none" xmlns="http://www.w3.org/2000/svg">
<path d="M69.5 44C69.5 62.5015 54.5015 77.5 36 77.5C17.4985 77.5 2.5 62.5015 2.5 44C2.5 25.4985 17.4985 10.5 36 10.5C54.5015 10.5 69.5 25.4985 69.5 44Z" fill="#00A5DF" stroke="#00A5DF" stroke-width="5"/>
<path d="M36.4787 28.2471C34.3469 28.2471 32.2359 28.667 30.2663 29.4828C28.2968 30.2986 26.5072 31.4944 24.9997 33.0018C21.9553 36.0463 20.245 40.1754 20.245 44.4808C20.2308 48.2294 21.5287 51.8648 23.9138 54.7568L20.6671 58.0036C20.4418 58.2319 20.2892 58.5217 20.2285 58.8367C20.1679 59.1516 20.2018 59.4774 20.3261 59.773C20.461 60.0651 20.6796 60.3106 20.9541 60.4782C21.2287 60.6459 21.5469 60.7281 21.8684 60.7146H36.4787C40.7842 60.7146 44.9133 59.0043 47.9577 55.9598C51.0022 52.9154 52.7125 48.7863 52.7125 44.4808C52.7125 40.1754 51.0022 36.0463 47.9577 33.0018C44.9133 29.9574 40.7842 28.2471 36.4787 28.2471ZM36.4787 57.4679H25.7807L27.2904 55.9581C27.5928 55.654 27.7625 55.2425 27.7625 54.8136C27.7625 54.3848 27.5928 53.9733 27.2904 53.6691C25.1648 51.5458 23.841 48.7512 23.5448 45.7613C23.2486 42.7715 23.9981 39.7714 25.6658 37.2723C27.3335 34.7731 29.8161 32.9295 32.6906 32.0555C35.5652 31.1815 38.6538 31.3312 41.4304 32.4791C44.2069 33.627 46.4996 35.7021 47.9178 38.3508C49.3359 40.9995 49.7918 44.058 49.2078 47.0052C48.6238 49.9524 47.0361 52.6059 44.715 54.5137C42.394 56.4215 39.4832 57.4655 36.4787 57.4679ZM41.3489 42.8575H38.1021V39.6107C38.1021 39.1802 37.9311 38.7672 37.6266 38.4628C37.3222 38.1584 36.9093 37.9873 36.4787 37.9873C36.0482 37.9873 35.6353 38.1584 35.3308 38.4628C35.0264 38.7672 34.8554 39.1802 34.8554 39.6107V42.8575H31.6086C31.1781 42.8575 30.7652 43.0285 30.4607 43.3329C30.1563 43.6374 29.9852 44.0503 29.9852 44.4808C29.9852 44.9114 30.1563 45.3243 30.4607 45.6287C30.7652 45.9332 31.1781 46.1042 31.6086 46.1042H34.8554V49.351C34.8554 49.7815 35.0264 50.1944 35.3308 50.4989C35.6353 50.8033 36.0482 50.9743 36.4787 50.9743C36.9093 50.9743 37.3222 50.8033 37.6266 50.4989C37.9311 50.1944 38.1021 49.7815 38.1021 49.351V46.1042H41.3489C41.7794 46.1042 42.1923 45.9332 42.4968 45.6287C42.8012 45.3243 42.9722 44.9114 42.9722 44.4808C42.9722 44.0503 42.8012 43.6374 42.4968 43.3329C42.1923 43.0285 41.7794 42.8575 41.3489 42.8575Z" fill="white"/>
<circle cx="58.5" cy="15.5" r="9.5" fill="white" stroke="#00B2F0" stroke-width="2"/>
<g filter="url(#filter0_d_13830_114970)">
<circle cx="58.5" cy="15.5" r="10.5" fill="#20BD06"/>
<circle cx="58.5" cy="15.5" r="10.5" stroke="white" stroke-width="3"/>
</g>
<path d="M61.8457 11.6497L57.0564 16.8091L55.2143 14.8293C55.1143 14.7037 54.9911 14.6017 54.8526 14.5297C54.7141 14.4577 54.5632 14.4172 54.4095 14.4108C54.2557 14.4044 54.1024 14.4323 53.9592 14.4926C53.8159 14.5529 53.6858 14.6444 53.577 14.7614C53.4682 14.8783 53.3831 15.0181 53.3269 15.1721C53.2708 15.3261 53.2449 15.4908 53.2508 15.6561C53.2568 15.8213 53.2944 15.9835 53.3614 16.1323C53.4284 16.2812 53.5234 16.4136 53.6402 16.5211L56.2637 19.3528C56.3681 19.464 56.4918 19.552 56.6278 19.6117C56.7638 19.6714 56.9094 19.7017 57.0564 19.7008C57.3492 19.6994 57.6299 19.5745 57.8378 19.3528L63.4198 13.3535C63.5244 13.242 63.6075 13.1092 63.6641 12.963C63.7208 12.8168 63.75 12.66 63.75 12.5016C63.75 12.3432 63.7208 12.1864 63.6641 12.0402C63.6075 11.8939 63.5244 11.7612 63.4198 11.6497C63.2106 11.4262 62.9277 11.3008 62.6327 11.3008C62.3378 11.3008 62.0548 11.4262 61.8457 11.6497Z" fill="white"/>
<defs>
<filter id="filter0_d_13830_114970" x="42.5" y="0.5" width="32" height="32" filterUnits="userSpaceOnUse" color-interpolation-filters="sRGB">
<feFlood flood-opacity="0" result="BackgroundImageFix"/>
<feColorMatrix in="SourceAlpha" type="matrix" values="0 0 0 0 0 0 0 0 0 0 0 0 0 0 0 0 0 0 127 0" result="hardAlpha"/>
<feOffset dy="1"/>
<feGaussianBlur stdDeviation="2"/>
<feComposite in2="hardAlpha" operator="out"/>
<feColorMatrix type="matrix" values="0 0 0 0 0 0 0 0 0 0 0 0 0 0 0 0 0 0 0.25 0"/>
<feBlend mode="normal" in2="BackgroundImageFix" result="effect1_dropShadow_13830_114970"/>
<feBlend mode="normal" in="SourceGraphic" in2="effect1_dropShadow_13830_114970" result="shape"/>
</filter>
</defs>
</svg>
