<svg width="24" height="24" viewBox="0 0 24 24" fill="none" xmlns="http://www.w3.org/2000/svg">
<path d="M19 3H5C4.46957 3 3.96086 3.194 3.58579 3.53932C3.21071 3.88464 3 4.353 3 4.84136V6.68272C3 7.17108 3.21071 7.63943 3.58579 7.98476C3.96086 8.33008 4.46957 8.52408 5 8.52408V18.6516C5 19.3841 5.31607 20.0866 5.87868 20.6046C6.44129 21.1226 7.20435 21.4136 8 21.4136H16C16.7956 21.4136 17.5587 21.1226 18.1213 20.6046C18.6839 20.0866 19 19.3841 19 18.6516V8.52408C19.5304 8.52408 20.0391 8.33008 20.4142 7.98476C20.7893 7.63943 21 7.17108 21 6.68272V4.84136C21 4.353 20.7893 3.88464 20.4142 3.53932C20.0391 3.194 19.5304 3 19 3ZM17 15.8895H11V12.2068H17V15.8895ZM17 10.3654H10C9.73478 10.3654 9.48043 10.4624 9.29289 10.6351C9.10536 10.8078 9 11.0419 9 11.2861V16.8102C9 17.0544 9.10536 17.2886 9.29289 17.4612C9.48043 17.6339 9.73478 17.7309 10 17.7309H17V18.6516C17 18.8957 16.8946 19.1299 16.7071 19.3026C16.5196 19.4752 16.2652 19.5722 16 19.5722H8C7.73478 19.5722 7.48043 19.4752 7.29289 19.3026C7.10536 19.1299 7 18.8957 7 18.6516V8.52408H17V10.3654ZM5 6.68272V4.84136H19V6.68272H5Z" fill="#002855"/>
</svg>
