<svg width="24" height="24" viewBox="0 0 24 24" fill="none" xmlns="http://www.w3.org/2000/svg">
<path d="M22.7 17.5L14.6 3.49999C13.8 2.09999 11.9 1.59999 10.5 2.39999C10 2.69999 9.60001 3.09999 9.40001 3.49999L1.30001 17.5C0.500011 18.9 1.00001 20.8 2.40001 21.6C2.90001 21.9 3.40001 22 3.90001 22H20C21.7 22 23 20.6 23 19C23.1 18.4 22.9 17.9 22.7 17.5ZM12 18C11.4 18 11 17.6 11 17C11 16.4 11.4 16 12 16C12.6 16 13 16.4 13 17C13 17.6 12.6 18 12 18ZM13 13C13 13.6 12.6 14 12 14C11.4 14 11 13.6 11 13V8.99999C11 8.39999 11.4 7.99999 12 7.99999C12.6 7.99999 13 8.39999 13 8.99999V13Z" fill="#002855"/>
</svg>
