<?xml version="1.0" encoding="UTF-8"?>
<svg width="40px" height="40px" viewBox="0 0 40 40" version="1.1" xmlns="http://www.w3.org/2000/svg" xmlns:xlink="http://www.w3.org/1999/xlink">
    <title>icon/specialty/cardiology</title>
    <g id="icon/specialty/cardiology" stroke="none" stroke-width="1" fill="none" fill-rule="evenodd">
        <path d="M22.5850376,0.9745 C22.9941374,0.9745 23.3343849,1.26929193 23.4049448,1.65804061 L23.4183709,1.80783333 L23.4183333,3.33833333 L23.5704353,3.3943663 C23.8925672,3.52122466 24.2385307,3.70082281 24.5888737,3.9457252 L24.8521481,4.14184286 C25.9776468,5.0335478 26.7069653,6.37869578 26.8785677,8.20612762 C27.5985,8.18246247 28.343515,8.13637984 29.1091603,8.06747671 L30.4424023,7.929123 C30.7202788,7.89720391 31.0716702,7.85519586 31.4880289,7.80298601 C31.9446898,7.74572238 32.361308,8.0694979 32.4185716,8.52615887 C32.4758353,8.98281984 32.1520598,9.39943804 31.6953988,9.45670167 L30.121638,9.64121834 C28.7300797,9.79409912 27.3964026,9.8741539 26.137813,9.89519499 C26.1208904,9.89718212 26.1026472,9.89777731 26.0842649,9.89777731 L26.0541952,9.89650786 C24.7021826,9.91635918 23.4377229,9.86810328 22.2823161,9.76899921 L21.5535119,9.6972393 C21.4800336,9.93425974 21.4291947,10.1746372 21.3956007,10.4155924 C21.3456173,10.773807 21.6030972,11.1159837 21.9701831,11.1728024 L22.6382307,11.263619 C23.088246,11.3129701 23.4165469,11.712571 23.3776372,12.1636091 C23.3150224,12.889435 23.0766194,13.8937451 22.5436459,14.9380372 L22.2809535,15.4140449 C22.2754263,15.4232869 22.2723727,15.428215 22.2692613,15.433123 L22.1268779,15.673327 C22.085403,15.7462963 22.0378752,15.8319394 21.985301,15.9294837 C21.7627936,16.3423153 21.5396067,16.8060259 21.331347,17.3081715 C20.6569798,18.9341732 20.2979057,20.5633021 20.4115306,22.0461674 C20.5054395,23.2717284 20.9212579,24.3415089 21.7102965,25.2418369 C22.0136373,25.5879622 21.9789536,26.1144585 21.6328284,26.4177993 C21.2867031,26.7211401 20.7602068,26.6864564 20.456866,26.3403312 C19.4189468,25.1560195 18.8700685,23.7439141 18.7497354,22.1735028 C18.6130218,20.3893193 19.0257221,18.5168874 19.7918342,16.6696747 C19.9397108,16.3131218 20.0943303,15.9741382 20.2515531,15.6555833 C19.1265163,15.6476545 18.0201677,16.0350886 17.1348039,16.7635265 L16.8900954,16.9789385 L15.6364987,18.1590933 C12.9025329,20.7320399 12.2179581,24.816105 14.0034296,28.0458572 C14.6261708,29.1724017 15.4899472,30.306799 16.6066467,31.4318884 L17.0508749,31.8396073 C17.1982969,31.9701882 17.3720836,32.1206838 17.5701899,32.2875538 C18.3443092,32.9396141 19.1997139,33.5920495 20.1095086,34.199814 C22.1275676,35.5479252 24.1110549,36.4757959 25.925392,36.7984194 C27.1090931,37.008599 28.288291,36.5007561 28.9335703,35.5013521 C29.2870317,34.9538446 29.6296366,34.2922332 29.9533016,33.5056923 C30.5815979,31.9790228 30.9708656,30.465696 31.0965172,28.9849476 C31.2415635,27.2761465 31.1471803,25.6179361 30.9015663,24.1142884 C30.804163,23.5179853 30.7082068,23.091214 30.6549895,22.897524 C29.9662851,20.6851982 28.3109024,18.8726763 26.1500331,17.9619631 C25.8618594,17.8019477 25.8618594,17.8019477 25.6687772,17.4762265 C25.2391282,16.3953906 24.8669066,14.6267743 24.885954,12.2927835 C24.8895894,11.8473132 25.2429417,11.4834819 25.6881156,11.4668329 L26.9002744,11.4062635 C27.850096,11.3516479 28.8720275,11.2790505 29.9055921,11.1882276 L31.1933705,11.0290687 C31.2864353,11.0168685 31.3825093,11.0041458 31.4813034,10.9909193 C31.9374707,10.9298477 32.3567757,11.2501361 32.4178473,11.7063034 C32.4789189,12.1624707 32.1586305,12.5817757 31.7024632,12.6428473 L30.0723176,12.846407 C29.2683845,12.9172489 28.4831972,12.9764608 27.7333727,13.0250694 L26.5616667,13.0933333 L26.5679749,13.2385186 C26.6243336,14.5771403 26.822364,15.6444561 27.0550552,16.3972796 L27.11,16.5666667 L27.1982868,16.6063041 C29.4821753,17.6949618 31.2492822,19.6307891 32.11114,22.0041073 L32.2537564,22.4273862 L32.3669877,22.8933978 C32.4229878,23.1494956 32.484947,23.4691863 32.5464335,23.8456069 C32.8127986,25.4762927 32.9148343,27.2689503 32.7572138,29.1258898 C32.6164392,30.784855 32.1848867,32.4625693 31.4945615,34.1399603 C31.1330305,35.0185195 30.7436655,35.7704303 30.3337698,36.4053538 C29.3229129,37.9709618 27.4758103,38.7664499 25.6338092,38.4393817 C23.5553522,38.0697927 21.376485,37.0505238 19.1837067,35.5856958 C18.2189206,34.9411958 17.3152135,34.2519192 16.4964662,33.5622676 L15.8594527,33.0102097 C15.6820635,32.8513792 15.5401734,32.7191137 15.435434,32.6175416 C14.2014128,31.3744986 13.2441541,30.1173309 12.5448004,28.8521938 C11.8085202,27.5203313 11.4194259,26.0707037 11.3567832,24.6159955 L11.6271889,24.8616166 C8.80154545,22.3451788 7.56884936,19.7535879 7.64444534,17.2158166 C7.69614574,15.4802248 8.32788777,14.0293658 9.1703893,12.932496 L9.45897025,12.549435 C9.57799718,12.3863253 9.66542352,12.2565943 9.74957551,12.1186052 C10.9683889,10.1201936 11.2988749,8.03512101 11.1416972,6.3105234 L11.1159178,6.08602962 C11.0403502,5.63203854 11.3471231,5.20274641 11.8011142,5.12717881 C12.2551053,5.05161121 12.6843974,5.35838406 12.759965,5.81237514 L12.7868627,6.0140743 L12.8014848,6.15925239 C12.9883949,8.21008196 12.6031464,10.6406567 11.1724983,12.9864003 C10.992263,13.2819431 10.8161664,13.5260665 10.4920566,13.9478645 C9.84519623,14.7900252 9.35025148,15.9267155 9.31037305,17.2654418 C9.26128964,18.9131811 9.92536913,20.6325007 11.5130814,22.4052122 C11.8630499,20.5068567 12.7698124,18.700904 14.1841348,17.2500949 L14.4941707,16.945477 L15.7477327,15.7653549 C15.8409419,15.6776252 15.9363515,15.5929596 16.0338096,15.5113999 C16.0189626,15.3973131 16.0029615,15.2659689 15.987046,15.1215199 C15.8525254,13.900615 15.8166135,12.618185 15.9217948,11.3349026 C15.0014958,10.820749 14.4756789,9.82986507 14.2560317,8.55706339 C14.120934,7.77420551 14.1122151,6.95992724 14.1767922,6.20207285 L14.2048777,5.92287556 C14.2092173,5.88664078 14.2132773,5.85577822 14.2168945,5.83062266 C14.2751215,5.42568776 14.6153395,5.13086184 15.0101732,5.11635068 L15.1603519,5.12438119 C15.5652868,5.18260818 15.8601127,5.52282621 15.8746239,5.91765993 L15.8374409,6.34357729 C15.7839296,6.97156858 15.7912198,7.65242434 15.8984223,8.27363621 C15.9690755,8.6830545 16.0748013,9.02292832 16.2164,9.29154557 L16.2189346,9.2806559 C16.2533092,9.11852696 16.2903678,8.95691659 16.3301995,8.79595197 C16.8126929,6.84613811 17.6699451,5.18232147 18.9692758,3.90891278 L19.02,3.86 L19.0202789,1.80769211 C19.0202789,1.3985923 19.3150709,1.05834483 19.7038196,0.987784893 L19.8536123,0.974358777 C20.2627121,0.974358777 20.6029596,1.26915071 20.6735195,1.65789939 L20.6869456,1.80769211 L20.6869456,4.2245852 C20.6869456,4.46419078 20.5838102,4.69220291 20.4038671,4.85041587 C19.1957798,5.91261364 18.3947637,7.39115019 17.9480674,9.19630337 C17.811559,9.74795007 17.7113484,10.3120558 17.643111,10.8807662 C17.6445734,10.8978449 17.6423816,10.9152154 17.6396245,10.9326022 C17.4962832,12.1401868 17.4989928,13.3672796 17.6037644,14.5389713 C18.6551329,14.0765854 19.81806,13.897483 20.972331,14.0337335 L21.115,14.055 L21.2234726,13.8235661 C21.3216032,13.5941465 21.4061466,13.3603207 21.4779077,13.12496 L21.57,12.79 L21.495955,12.7752999 C20.4235055,12.503969 19.6769501,11.5110204 19.7246452,10.4073813 L19.7449129,10.1853586 C19.8559779,9.3887377 20.1053081,8.61914668 20.4504966,7.89169768 C20.7357584,7.29053816 21.0239455,6.83658232 21.228751,6.56846736 C21.5081297,6.20272715 22.031102,6.13271732 22.3968422,6.41209603 C22.7625824,6.69147474 22.8325922,7.21444696 22.5532135,7.58018717 L22.3878749,7.81914476 C22.3371295,7.89832246 22.2820369,7.98909755 22.2242667,8.09051063 C22.2873312,8.0964103 22.3546218,8.10241473 22.4247501,8.10842993 C23.2308528,8.17757273 24.0945448,8.22078698 25.007531,8.23150902 L25.2066747,8.23241469 C25.0606281,6.92932259 24.5605396,6.0371646 23.8171544,5.4481988 C23.2954073,5.03483142 22.776108,4.85160889 22.475089,4.81154267 C22.1127611,4.76331612 21.8306656,4.48687572 21.7658031,4.13866538 L21.7517042,3.9854944 L21.7517042,1.80783333 C21.7517042,1.34759604 22.1248003,0.9745 22.5850376,0.9745 Z M23.6541168,21.9918934 L23.6887373,22.1382475 C23.7031155,22.2381859 23.768089,22.4694731 23.9162793,22.7890863 C24.1774985,23.3524774 24.5881856,23.9232864 25.1848597,24.4641324 C25.669557,24.9034788 26.2573106,25.3029827 26.9597061,25.6517669 C27.3719198,25.8564573 27.5401507,26.356557 27.3354603,26.7687707 C27.1307698,27.1809845 26.6306701,27.3492154 26.2184564,27.1445249 C25.7715055,26.9225853 25.3596878,26.6809113 24.9818519,26.4214189 C24.7382254,27.0276912 24.6982382,27.6225119 24.9386923,28.1541169 C25.1499063,28.6210766 25.5810116,29.0603488 26.2965837,29.4580219 C26.6988717,29.6815901 26.8437528,30.1889467 26.6201847,30.5912347 C26.3966165,30.9935228 25.8892599,31.1384038 25.4869718,30.9148357 C24.4730778,30.3513727 23.7872124,29.6525143 23.4201428,28.840983 C22.9112475,27.7158983 23.0579886,26.5503958 23.5857916,25.4611211 L23.6619785,25.3089608 C22.6210931,24.2342813 22.1526522,23.1651566 22.0390564,22.3755886 C21.9735165,21.9200418 22.2896795,21.4976176 22.7452263,21.4320776 C23.1501568,21.3738199 23.5289164,21.6171547 23.6541168,21.9918934 Z" id="Combined-Shape" fill="#437D73"></path>
    </g>
</svg>