<?xml version="1.0" encoding="UTF-8"?>
<svg width="40px" height="40px" viewBox="0 0 40 40" version="1.1" xmlns="http://www.w3.org/2000/svg" xmlns:xlink="http://www.w3.org/1999/xlink">
    <title>icon/specialty/dermatology</title>
    <g id="icon/specialty/dermatology" stroke="none" stroke-width="1" fill="none" fill-rule="evenodd">
        <g id="Group-24" transform="translate(3.333333, 0.000000)" fill="#437D73">
            <g id="Group-23">
                <path d="M21.2196704,1.37847923 C23.7588354,1.93475947 26.0738731,3.09030938 27.9214295,4.76268181 C32.4382784,8.85099294 33.2291866,14.9123637 31.5285316,20.1524371 C31.153746,21.3082777 30.5692819,22.4185904 29.7879742,23.5149226 L29.4411139,23.9840153 C29.2042005,24.2931209 28.9897724,24.6179121 28.796847,24.95677 C28.2412765,25.9325845 27.8831949,26.9841891 27.6859294,28.0399065 C27.5999435,28.5000824 27.5555923,28.8899827 27.5379619,29.1824938 L27.5286768,29.4850252 L27.5287235,38.3051938 C27.5287235,38.7654311 27.1556275,39.1385271 26.6953902,39.1385271 C26.2862904,39.1385271 25.9460429,38.8437352 25.875483,38.4549865 L25.8620568,38.3051938 L25.862045,29.495804 C25.8529367,28.08748 26.2224531,26.1099171 27.348474,24.1321529 C27.5016929,23.8630362 27.6666284,23.6008648 27.8436141,23.3463199 L28.1181722,22.9703077 C28.9667086,21.8626409 29.577976,20.7644928 29.9431958,19.6381529 L30.0341235,19.343448 L30.0287548,19.3298333 C28.9230192,17.0952103 27.2140833,15.8489224 25.070424,15.3559271 C23.7412821,15.0502532 22.4276881,15.0655909 21.326515,15.2450442 L20.2593896,15.4505014 C16.1414704,16.1634871 13.3368346,15.4703945 11.6583519,13.8137415 C11.2888601,13.4490552 11.0114613,13.0801056 10.8098995,12.732324 C8.95093598,13.6353935 7.02198107,13.6513093 5.22219126,13.1091666 C5.19956498,13.779902 5.22885147,14.4796641 5.31579307,15.2063435 L5.35503997,15.4835812 L5.42294915,15.8780446 C5.63922927,17.11041 5.50877728,18.5019141 4.74302594,19.8408461 L4.53818571,20.1743613 L2.67694046,22.8590909 L2.66529905,22.8962118 C2.64333143,22.9714116 2.6371658,23.0425052 2.64531724,23.07612 C2.65146448,23.10147 2.67983583,23.1258243 2.85646702,23.1614836 C3.05219623,23.1788649 3.31866506,23.221108 3.6000467,23.3049545 C3.70079611,23.334976 3.79725364,23.3690882 3.8899525,23.4086161 C4.51694468,23.6766181 4.77238303,24.4040775 4.50291261,24.988097 L4.45,25.0833333 L4.55465702,25.171412 C4.90084391,25.5066192 5.01643125,26.0243676 4.82878427,26.4804249 L4.81833333,26.5 L4.96117803,26.5520026 C5.40413888,26.7488308 5.68686017,27.1975806 5.66083808,27.6863767 L5.64052541,27.8505013 C5.50380664,28.5485806 5.47230137,29.2761884 5.6210552,29.8399078 C5.77867341,30.4372198 6.09516347,30.7468031 6.70978347,30.7959688 L6.92588968,30.8027497 L9.1808276,30.5827419 C11.2108928,30.384872 13.0579414,31.7749291 13.413187,33.7793227 C13.6217445,34.9556 13.733814,36.4510343 13.733814,38.3051938 C13.733814,38.7654311 13.3607179,39.1385271 12.9004806,39.1385271 C12.4402433,39.1385271 12.0671473,38.7654311 12.0671473,38.3051938 C12.0671473,36.5426137 11.962221,35.1424976 11.7721055,34.0702343 C11.5818551,32.9967884 10.6386814,32.2288305 9.55995967,32.2307526 L9.34259094,32.2415397 L7.02005507,32.4653728 C5.39488958,32.4912039 4.37290256,31.642113 4.00955075,30.2651503 C3.84759106,29.6513858 3.82234893,28.9902933 3.88701616,28.3263006 L3.93333333,27.9383333 L3.90816308,27.9273653 C3.19718278,27.5675741 2.95006622,26.9478255 3.10221059,26.3111626 L3.135,26.1983333 L3.01123211,26.0827096 C2.67481017,25.73317 2.58055547,25.3135729 2.67541887,24.9061216 L2.7,24.8183333 L2.63362614,24.8114316 C1.84840638,24.6686078 1.31110801,24.2605058 1.08817138,23.6717294 L1.02559333,23.4688951 C0.938453519,23.1095483 0.968769577,22.7599853 1.06549563,22.4288717 C1.08258125,22.370384 1.10024681,22.3177415 1.12607993,22.2564907 L1.23566959,22.0324604 L3.1554194,19.2440829 C3.75643007,18.3297975 3.91830859,17.3411192 3.82260247,16.4569609 L3.74127091,15.9377917 C3.70444986,15.7250056 3.67983099,15.5648421 3.66074863,15.4028208 C3.42212562,13.4083639 3.57225001,11.5766048 4.01918836,9.92691843 C4.52534678,8.05674195 5.59295103,6.35191266 7.07548361,4.99226802 C11.1944259,1.21552968 16.3136473,0.303889628 21.2196704,1.37847923 Z M19.1775469,28.1369289 C19.4584064,28.5032075 19.3885408,29.0260632 19.0238427,29.3056652 C18.6577473,29.5852672 18.1351531,29.5153667 17.8556909,29.1490881 C17.5748315,28.7842075 17.644697,28.2613518 18.0107924,27.9817498 C18.3754905,27.7021478 18.8980848,27.7720483 19.1775469,28.1369289 Z M23.2638868,27.9379025 C23.5434723,28.3040887 23.4735759,28.8268124 23.1087169,29.1063438 C22.74246,29.3858752 22.2196352,29.3159924 21.9400497,28.9498062 C21.6604643,28.5850177 21.7303607,28.062294 22.0952197,27.7827626 C22.4614766,27.5032312 22.9843014,27.5717164 23.2638868,27.9379025 Z M11.1331323,26.2814626 C11.4127178,26.6477195 11.3428214,27.1705443 10.9779624,27.4501297 C10.6117054,27.7297152 10.0888807,27.6598188 9.80929521,27.2949598 C9.52970977,26.9287029 9.59960613,26.4058781 9.96446514,26.1262926 C10.3307221,25.8467072 10.8535469,25.9166035 11.1331323,26.2814626 Z M15.4383106,25.6466653 C15.717896,26.0129439 15.6479997,26.5357996 15.2831407,26.8154016 C14.9168837,27.0950036 14.394059,27.0251031 14.1144735,26.6588245 C13.8348881,26.2939439 13.9047844,25.7710882 14.2696434,25.4914862 C14.6345024,25.2118842 15.1587252,25.2817847 15.4383106,25.6466653 Z M20.3976336,23.8884936 C20.677219,24.2547505 20.6073227,24.7775753 20.2424637,25.0571607 C19.8762067,25.3367462 19.353382,25.2668498 19.0737965,24.9019908 C18.7942111,24.5357339 18.8641074,24.0129091 19.2289664,23.7333236 C19.5952234,23.4537382 20.1180482,23.5236346 20.3976336,23.8884936 Z M11.9107536,22.3909587 C12.1916131,22.7572156 12.1217476,23.2800404 11.7570494,23.5596258 C11.390954,23.8392113 10.8683598,23.7693149 10.5888977,23.4044559 C10.3080382,23.038199 10.3779037,22.5153742 10.7439992,22.2357888 C11.1086973,21.9562033 11.6312915,22.0260997 11.9107536,22.3909587 Z M16.1966967,21.4118762 C16.4761117,21.7780407 16.4062579,22.3007336 16.0416214,22.5802484 C15.6755879,22.8597633 15.1530819,22.7912822 14.873667,22.4251177 C14.592855,22.0603508 14.6627087,21.5362604 15.0287423,21.2567455 C15.3933788,20.9772306 15.9172818,21.0471093 16.1966967,21.4118762 Z M9.06254574,19.3290078 C9.34213119,19.6952647 9.27223483,20.2180895 8.90737582,20.4976749 C8.54111888,20.7772604 8.0182941,20.707364 7.73870865,20.342505 C7.4591232,19.9762481 7.52901957,19.4534233 7.89387857,19.1738378 C8.26013551,18.8942524 8.7829603,18.9641488 9.06254574,19.3290078 Z M8.20192345,6.22064543 C6.94675961,7.37176806 6.04963465,8.80436343 5.62791846,10.3625389 C5.535609,10.7032608 5.45768087,11.0533345 5.39524736,11.4126592 C5.46023318,11.4361207 5.53128002,11.4598589 5.60700833,11.4837563 C7.28163069,12.0122124 9.07259719,11.9380789 10.7547516,10.8560696 C10.7613928,10.8511155 10.7683326,10.8466062 10.7753491,10.8421959 L10.7677454,10.8476901 C11.6892211,10.2519267 12.5434594,9.36579029 13.3127872,8.14766954 C13.5585481,7.75854235 14.0732265,7.64232096 14.4623537,7.88808181 C14.8514809,8.13384265 14.9677023,8.6485211 14.7219414,9.03764829 C13.9760483,10.2186635 13.1407171,11.1529422 12.228136,11.8547803 C12.3562877,12.0844745 12.5512332,12.3532648 12.8291243,12.6275418 C14.0370009,13.8197092 16.151458,14.3828636 19.489973,13.8864083 L20.096393,13.7864577 L20.5831393,13.6882697 C21.9748101,13.3979067 23.6793229,13.3258301 25.4439701,13.7316608 C27.4924302,14.2027623 29.243493,15.260736 30.5488658,16.9987119 C31.0920067,13.0408734 30.030269,8.91943757 26.8029752,5.99833454 C25.1764489,4.52603435 23.1251386,3.5021238 20.8630314,3.00654139 C16.4447781,2.03879032 11.875197,2.85254944 8.20192345,6.22064543 Z" id="Combined-Shape"></path>
            </g>
        </g>
    </g>
</svg>