<?xml version="1.0" encoding="UTF-8"?>
<svg width="40px" height="40px" viewBox="0 0 40 40" version="1.1" xmlns="http://www.w3.org/2000/svg" xmlns:xlink="http://www.w3.org/1999/xlink">
    <title>icon/specialty/endocrinology</title>
    <g id="icon/specialty/endocrinology" stroke="none" stroke-width="1" fill="none" fill-rule="evenodd">
        <g id="Group-8" transform="translate(0.000000, 1.666667)" fill="#437D73">
            <g id="Group-7">
                <path d="M22.3166404,0.977776903 C22.7257402,0.977776903 23.0659877,1.27256884 23.1365476,1.66131752 L23.1499738,1.81111024 L23.1499738,2.31953543 C23.1499738,4.27044471 23.5536704,6.09465748 24.3038547,7.66737323 C24.4522497,7.97835995 24.9064481,7.93900408 25.0054904,7.59995373 C25.6177837,5.50170321 27.1018065,4.12238463 29.5692161,3.99735809 C31.0360345,3.92270258 32.5068765,4.31373523 33.7658465,5.10387693 C37.4679842,7.42638616 39.8116118,12.4415398 38.6570477,19.1270382 L38.5118485,19.904283 C38.4829412,20.0465882 38.4433443,20.2279197 38.3919922,20.4447732 C38.2512699,21.0390264 38.0680362,21.699115 37.8372503,22.4088523 C37.178365,24.4351264 36.2687047,26.461626 35.0653635,28.3582942 C33.3379493,31.0809894 31.1480108,33.3038112 28.4395386,34.8406635 C22.1625249,38.4025249 14.1880793,37.1215327 9.11084854,31.8292692 C8.61834837,31.3157985 8.14230757,30.7734498 7.68439005,30.201271 C7.49132188,29.9599569 7.09723969,30.0775914 7.06731984,30.3867065 C7.02604484,30.8125226 6.99793212,31.3007803 6.98057254,31.8587467 L6.96253544,32.7113298 C6.95811282,33.0624187 6.95701671,33.4322417 6.95780769,33.9553316 L6.95947507,34.8434462 C6.95947507,35.3036835 6.58637902,35.6767795 6.12614173,35.6767795 C5.71704192,35.6767795 5.37679445,35.3819876 5.30623451,34.9932389 L5.2928084,34.8434462 L5.29601486,32.6885415 L5.30321322,32.2563261 C5.31917406,31.4759164 5.35215283,30.8064759 5.40841708,30.2260224 C5.5823784,28.4287506 7.85737602,27.7496583 8.9857191,29.1599639 C9.41221887,29.6928855 9.85539708,30.1977941 10.313603,30.6755104 C14.8694961,35.4243564 22.0119061,36.5716927 27.6170085,33.3911042 C30.0700866,31.9991687 32.0686029,29.9706434 33.6580425,27.4654193 C34.7805312,25.6961884 35.6339689,23.7949389 36.2522731,21.8934639 C36.4685036,21.2284891 36.639618,20.6120593 36.7701784,20.060719 L36.8772969,19.5783475 L36.9168681,19.3703996 C38.165478,13.0805015 36.1067281,8.53989692 32.8800026,6.51563407 C31.9083808,5.90583494 30.7759273,5.60476501 29.6537467,5.66187974 C27.9540269,5.74800655 27.0320185,6.60496324 26.6053625,8.06705872 C26.0789683,9.86905896 23.6098434,10.0830063 22.7996111,8.3850284 C22.0193197,6.74919492 21.5698854,4.8901337 21.4946187,2.91533851 L21.4833071,2.31953543 L21.4833071,1.81111024 C21.4833071,1.35087294 21.8564031,0.977776903 22.3166404,0.977776903 Z M5.25832546,17.4154147 C5.66742527,17.4154147 6.00767274,17.7102066 6.07823268,18.0989553 L6.09165879,18.248748 L6.09165879,22.8525801 C6.09165879,23.7593136 5.65048911,24.6074195 4.91274925,25.1460801 C3.63908629,26.0751981 2.76695609,27.3509179 2.65633279,29.0130944 L2.6444147,29.3752047 L2.6444147,34.8434462 C2.6444147,35.3036835 2.27131866,35.6767795 1.81108136,35.6767795 C1.40198155,35.6767795 1.06173408,35.3819876 0.991174147,34.9932389 L0.977748031,34.8434462 L0.977748031,29.3752047 C0.977748031,26.9259224 2.17463714,25.0804921 3.93022381,23.7998181 C4.19055561,23.6097368 4.36059018,23.3345921 4.41003694,23.034875 L4.42499213,22.8525801 L4.42499213,18.248748 C4.42499213,17.7885107 4.79808817,17.4154147 5.25832546,17.4154147 Z M17.882601,0.977776903 C18.2917009,0.977776903 18.6319483,1.27256884 18.7025083,1.66131752 L18.7159344,1.81111024 L18.7157878,3.68309359 L18.7360398,4.07677845 C18.7444894,4.19569116 18.7558935,4.33493852 18.7708959,4.49328688 C18.8343319,5.16284608 18.9403011,5.9137244 19.0987191,6.72661121 C19.5517705,9.05134329 20.3326873,11.3973422 21.5045502,13.5880009 C21.6954629,13.918381 21.9681015,14.4843741 22.2380195,15.2312078 C22.7991202,16.7837125 23.0773771,18.41324 22.9130167,20.0290285 C22.426304,24.8113669 18.0836982,27.7347831 13.1886948,26.4751836 C12.0276551,26.176559 10.740717,25.6764176 9.43196745,25.0098513 C8.57697629,24.5744041 8.00891956,23.7383591 7.92018087,22.7983385 L7.90800787,22.5396142 L7.90800787,18.248748 C7.90800787,17.7885107 8.28110392,17.4154147 8.74134121,17.4154147 C9.15044102,17.4154147 9.49068849,17.7102066 9.56124842,18.0989553 L9.57467454,18.248748 L9.57467454,22.5396142 C9.57467454,22.9523045 9.81079964,23.3324172 10.1883617,23.5247097 C11.3926223,24.1380581 12.5663398,24.5941988 13.6039466,24.8610758 C17.5234565,25.869658 20.8727958,23.6149029 21.2549107,19.8603209 C21.390833,18.5241006 21.1533879,17.1335751 20.6705826,15.7977053 C20.4370405,15.1515199 20.2062191,14.6723384 20.0482866,14.3981468 C18.7786008,12.0256362 17.9458414,9.52389392 17.4628281,7.04541898 C17.2936235,6.17718333 17.1800732,5.37258613 17.1116594,4.65048789 L17.0727321,4.18172268 C17.0631976,4.04493167 17.0568799,3.92767442 17.0531057,3.83016004 L17.0492677,3.69872178 L17.0492677,1.81111024 C17.0492677,1.35087294 17.4223638,0.977776903 17.882601,0.977776903 Z" id="Combined-Shape"></path>
            </g>
        </g>
    </g>
</svg>