<?xml version="1.0" encoding="UTF-8"?>
<svg width="40px" height="40px" viewBox="0 0 40 40" version="1.1" xmlns="http://www.w3.org/2000/svg" xmlns:xlink="http://www.w3.org/1999/xlink">
    <title>icon/specialty/expresscare</title>
    <g id="icon/specialty/expresscare" stroke="none" stroke-width="1" fill="none" fill-rule="evenodd">
        <path d="M17.7957219,25.1063295 C18.0727399,25.3888031 18.0992923,25.8230613 17.8782592,26.1346363 L17.7837718,26.2451901 L17.2017278,26.8110207 L19.2090307,34.166889 C19.2721641,34.3982942 19.2282408,34.6430771 19.0943609,34.836471 L19.0033749,34.9458226 L15.8708097,38.0981824 C15.7656562,38.2040003 15.6384348,38.2745456 15.5038575,38.3098182 L15.367373,38.3333333 L15.2292539,38.3333333 C15.0914073,38.3215758 14.9560126,38.2745456 14.8377819,38.1922428 L14.7258173,38.0981824 L11.5932521,34.9458226 C11.424068,34.7755694 11.3414266,34.5409703 11.3624281,34.306798 L11.387603,34.1668641 L13.3933797,26.8126314 L12.8127579,26.2453068 C12.4944483,25.9341802 12.4889922,25.4242961 12.8005714,25.1064488 C13.0775307,24.8239179 13.5117613,24.7882208 13.8283968,25.0022904 L13.941086,25.09428 L14.5944733,25.7329229 C14.9423176,26.0729201 15.47498,26.1106975 15.8637069,25.8463359 L16.0020904,25.7330377 L16.6552048,25.0943968 C16.9734498,24.7832043 17.4840767,24.7885467 17.7957219,25.1063295 Z M14.8536552,27.5926803 L13.065936,34.1412273 L15.2983603,36.3881265 L17.5291716,34.1412273 L15.7433371,27.5926803 C15.4490991,27.6430867 15.1479073,27.6430926 14.8536552,27.5926803 Z M19.0042161,2.16605628 C20.4031952,2.16605628 21.5511884,3.23885851 21.6681545,4.60555468 L21.6779685,4.83592506 L21.6778676,9.2900392 L21.7723036,9.60347885 C21.9998714,10.4402248 22.101064,11.2439068 22.121041,11.9373712 C22.8533585,12.4130011 23.2986728,13.3580737 23.2986728,14.4090201 C23.2986728,15.5966372 22.7260124,16.6442373 21.8309285,17.0383598 L21.7891662,17.0519081 L21.6703677,17.4045582 C21.2390782,18.5847779 20.5727777,19.6287736 19.7224196,20.4519391 L19.4841558,20.6678856 L19.6327293,21.9276111 C19.6348184,21.9455225 19.6408101,21.962584 19.6501474,21.9777689 L19.6876389,22.0166663 L19.7220569,22.0328866 L23.947103,23.2594647 C24.6209746,23.4075688 25.2960885,23.7609994 25.9457104,24.2940948 C26.8661653,25.0538762 27.526747,26.0868717 27.832811,27.2341201 L27.9139,27.5815632 L28.9142946,32.5819513 C28.991472,32.967716 28.7786987,33.3445074 28.4256555,33.4865156 L28.2869815,33.5283221 L20.7207692,35.0931412 C20.2846021,35.1833478 19.8577856,34.9034051 19.7674477,34.4678716 C19.6871474,34.0807307 19.8997363,33.7009671 20.2543037,33.5579997 L20.3936269,33.5159348 L27.1750511,32.1133807 L26.3321883,27.8973828 C26.1678623,27.0775491 25.7525832,26.3230914 25.1530975,25.745213 L24.919786,25.5370029 C24.5499254,25.2334889 24.1878133,25.0219411 23.8230868,24.8969691 L19.2729507,23.5798773 C19.0997017,23.5297991 18.9351534,23.4526873 18.7860944,23.3522815 C18.6500938,23.2608223 18.5292151,23.1516846 18.4259083,23.0288751 L15.836574,25.3436586 C15.5685987,25.583291 15.1802048,25.6132518 14.8821178,25.4335372 L14.7605096,25.3436793 L12.1708281,23.0285834 C12.0675511,23.1515405 11.9466467,23.260899 11.8105074,23.3526713 C11.7111013,23.4194047 11.6052187,23.4756312 11.4942708,23.5206655 L11.3242265,23.5797372 L7.01093223,24.8281754 C6.59183531,24.920329 6.14105297,25.1558399 5.68002944,25.5357216 C5.03104655,26.0710679 4.56190225,26.7931727 4.33698551,27.5932804 L4.26421566,27.8967647 L3.42005644,32.1133807 L9.40765087,33.3515022 C9.79535397,33.4316904 10.0599392,33.7773507 10.0504988,34.1590625 L10.0338189,34.3034463 C9.95351407,34.6905862 9.60735096,34.9547872 9.22508392,34.9453604 L9.08049015,34.9287048 L2.30988011,33.5283473 C1.92414362,33.4485658 1.65994235,33.1058203 1.66679698,32.7258581 L1.6825581,32.5820687 L2.6822846,27.5820433 C2.93789912,26.298255 3.63662974,25.132126 4.65304958,24.2936809 C5.20840627,23.8360688 5.78527921,23.5107581 6.33832638,23.3404163 L6.61265456,23.2682644 L10.8736555,22.0331715 C10.8869534,22.0293002 10.8993426,22.0235129 10.9092667,22.0168524 L10.9461234,21.9782206 L10.9635197,21.9280559 L11.1077257,20.6678856 L10.872355,20.451509 C10.0231167,19.6283801 9.35681219,18.5847071 8.9241655,17.4052933 L8.80432833,17.0519081 L8.76124274,17.0367896 C7.93235517,16.6694478 7.38179448,15.7411859 7.30737197,14.6608651 L7.29873974,14.4090471 C7.29873974,13.3763563 7.72840645,12.4451221 8.44164912,11.9603447 C8.46233636,11.2864481 8.56175005,10.5010078 8.78235114,9.67970675 L8.78456818,4.83592506 C8.78456818,3.43899268 9.85916013,2.29265383 11.2278816,2.1758562 L11.4585915,2.16605628 L19.0042161,2.16605628 Z M11.2406044,9.08669802 C10.8929683,9.21295966 10.5965149,9.45645554 10.4454907,9.73463495 L10.4670825,9.67048886 C10.1789716,10.5524855 10.063796,11.4232811 10.0509873,12.1145122 L10.0520407,12.5048412 L10.0279364,12.6613194 L9.98850209,12.7766924 L9.95647861,12.8432777 L9.90733835,12.922656 L9.81413963,13.0332501 L9.73053778,13.1053626 L9.64869116,13.1591568 L9.50134769,13.2251789 L9.46786457,13.235349 C9.18547749,13.3158314 8.91176307,13.7778757 8.91176307,14.4090471 C8.91176307,15.0968021 9.23103305,15.5656532 9.52439485,15.5925108 C9.86197705,15.6234169 10.1441714,15.8618203 10.2306113,16.1891366 C10.6140657,17.6411383 11.4019723,18.8769676 12.4554988,19.6953721 C12.6407662,19.8392922 12.7521859,20.0549533 12.7654616,20.2845348 L12.7614555,20.4234916 L12.6594541,21.300883 L15.2983603,23.6621405 L17.9356534,21.3024937 L17.8330785,20.4243344 C17.8003639,20.1444011 17.9165781,19.8677579 18.1395027,19.6949036 C19.1941813,18.877113 19.9813485,17.6422373 20.3621199,16.1904285 C20.4483544,15.8616329 20.7320261,15.6222929 21.0710742,15.5922685 C21.3649734,15.5662422 21.6856495,15.0969708 21.6856495,14.4090201 C21.6856495,13.8386935 21.4627539,13.4084366 21.2124936,13.2696363 L21.1177451,13.2315439 L21.0186839,13.1999454 L20.8961151,13.139289 L20.8295402,13.0945788 L20.7579114,13.0336088 L20.6467584,12.9030257 L20.6263793,12.8715578 C20.5901302,12.8125116 20.5611738,12.7484217 20.5409308,12.680738 L20.5141829,12.5554053 L20.5072991,12.4692593 L20.5094486,12.3780597 C20.5232259,11.8529797 20.4758864,11.1976561 20.3297164,10.5013223 C19.3447505,10.8339026 18.3049381,10.9206162 17.1548614,10.7941685 C16.3795178,10.7087301 15.7094438,10.5012947 14.853355,10.1185797 L13.464471,9.45834609 C13.4065923,9.4312679 13.3511126,9.40563874 13.2957161,9.3803901 C12.4684743,9.00352933 11.7704557,8.89433487 11.2406044,9.08669802 Z M31.1720269,1.66666667 C35.1272769,1.66666667 38.3333333,4.86816058 38.3333333,8.8175713 C38.3333333,12.6541417 35.3078629,15.7849229 31.5091562,15.9606928 L31.1720269,15.9684759 C30.7266028,15.9684759 30.3655152,15.6079128 30.3655152,15.1631357 L30.365759,13.3664746 C30.365759,12.9216975 30.7268466,12.5611344 31.1722707,12.5611344 C31.5682032,12.5611344 31.8974995,12.8460238 31.9657884,13.2217137 L31.9787823,13.3664746 L31.9805395,14.2994022 C34.6616695,13.9085746 36.72031,11.6032208 36.72031,8.8175713 C36.72031,5.75770419 34.2364181,3.27734708 31.1720269,3.27734708 C28.3820705,3.27734708 26.0729732,5.33399277 25.6822594,8.0118864 L26.6167505,8.0122311 C27.0621746,8.0122311 27.4232621,8.37279419 27.4232621,8.8175713 C27.4232621,9.21292874 27.1379584,9.5417467 26.761722,9.6099364 L26.6167505,9.62291151 L24.817503,9.62291151 C24.3720789,9.62291151 24.0109913,9.26234842 24.0109913,8.8175713 C24.0109913,4.86829583 27.2171832,1.66666667 31.1720269,1.66666667 Z M31.1721623,6.06871771 C31.5680949,6.06871771 31.8973911,6.35360707 31.96568,6.729297 L31.978674,6.87405792 L31.9786346,8.48469899 L33.8809616,10.3834048 C34.195924,10.6979097 34.195924,11.2078229 33.8809616,11.5223278 C33.600995,11.8018878 33.1664072,11.83295 32.8520803,11.6155145 L32.7403819,11.5223278 L30.5439069,9.32253344 L30.4688351,9.21197887 L30.4133872,9.09112325 L30.3745691,8.93662921 L30.3686322,8.88569731 L30.3656507,6.87405792 C30.3656507,6.42928081 30.7267382,6.06871771 31.1721623,6.06871771 Z M19.0042161,3.7767367 L11.4585915,3.7767367 C10.925919,3.7767367 10.4848825,4.16869961 10.4090963,4.67941956 L10.3975915,4.83592506 L10.3969588,7.69567461 C10.49221,7.65013269 10.5898286,7.60914281 10.6893411,7.5729998 C11.6940884,7.2082251 12.7901568,7.37968843 13.9653652,7.91506991 L15.1660441,8.48865928 C16.0636595,8.91421401 16.6610762,9.11929793 17.3315958,9.19318534 C18.3595383,9.30620477 19.2389209,9.21287763 20.066683,8.88398154 L20.0649452,4.83592506 C20.0649452,4.30410601 19.6724847,3.8638684 19.1609691,3.7882204 L19.0042161,3.7767367 Z M15.2312142,3.84894682 C15.6271467,3.84894682 15.956443,4.13383618 16.0247319,4.50952611 L16.0377258,4.65428703 L16.037125,5.15381189 L16.5386078,5.15430616 C16.9840319,5.15430616 17.3451194,5.51486926 17.3451194,5.95964637 C17.3451194,6.35500381 17.0598157,6.68382177 16.6835793,6.75201147 L16.5386078,6.76498658 L16.037125,6.76449231 L16.0377258,7.26511391 C16.0377258,7.70989103 15.6766383,8.07045412 15.2312142,8.07045412 C14.8352817,8.07045412 14.5059854,7.78556476 14.4376965,7.40987483 L14.4247025,7.26511391 L14.4241016,6.76449231 L13.9237122,6.76498658 C13.4782881,6.76498658 13.1172006,6.40442349 13.1172006,5.95964637 C13.1172006,5.56428894 13.4025043,5.23547098 13.7787407,5.16728127 L13.9237122,5.15430616 L14.4241016,5.15381189 L14.4247025,4.65428703 C14.4247025,4.20950991 14.7857901,3.84894682 15.2312142,3.84894682 Z" id="Combined-Shape" fill="#437D73"></path>
    </g>
</svg>