<?xml version="1.0" encoding="UTF-8"?>
<svg width="40px" height="40px" viewBox="0 0 40 40" version="1.1" xmlns="http://www.w3.org/2000/svg" xmlns:xlink="http://www.w3.org/1999/xlink">
    <title>icon/specialty/gastroenterology</title>
    <g id="icon/specialty/gastroenterology" stroke="none" stroke-width="1" fill="none" fill-rule="evenodd">
        <path d="M10.3025697,0.833154316 C11.2711038,0.829048707 12.1796994,1.18124103 12.8774416,1.79100732 L12.9583333,1.86666667 L13.017504,1.82009233 C13.5867528,1.40611921 14.2629293,1.1513006 14.9804988,1.09139895 L15.2903718,1.07776477 C16.2020699,1.07382509 17.0617123,1.38516049 17.7424614,1.93108098 L17.8633333,2.035 L18.019115,1.91233014 C18.5855014,1.49890552 19.2612307,1.24129249 19.9811876,1.18081019 L20.2922585,1.1670789 C21.1853456,1.16313992 22.0292556,1.46174063 22.7038964,1.98789186 L22.815,2.08 L22.9106748,2.0004428 C23.5009923,1.54183328 24.2199953,1.25724872 24.988448,1.1969042 L25.278781,1.18488433 C26.1660478,1.18094573 27.0046206,1.47561042 27.6770588,1.9957515 L27.7816667,2.08333333 L27.8835267,1.99820657 C28.475738,1.53408411 29.1991402,1.24579817 29.9727784,1.18469906 L30.2650894,1.17253657 C31.2334859,1.16796145 32.142092,1.52007328 32.8398688,2.1298441 L32.92,2.205 L32.9848838,2.15516404 C33.7238121,1.61919859 34.6371805,1.35522881 35.5834709,1.42911748 L35.8999263,1.46635066 C37.513977,1.7197891 38.8155923,2.99385303 39.0876327,4.59225643 C39.2691389,5.65863233 39.0032281,6.70610435 38.3871061,7.52995594 L38.2466667,7.70333333 L38.3229334,7.79223428 C38.7966589,8.37988552 39.0916568,9.09990923 39.1542035,9.87129861 L39.1668599,10.1628192 C39.1708916,11.0648611 38.8554596,11.9129209 38.3036524,12.5851422 L38.21,12.6883333 L38.3014628,12.7952322 C38.7769596,13.4021412 39.0719868,14.138723 39.1346377,14.9261371 L39.1471378,15.2236462 C39.1513546,16.1440804 38.8383487,17.0129689 38.2872782,17.7085024 L38.1783333,17.8333333 L38.2848469,17.9558058 C38.776439,18.5682883 39.0824495,19.3175514 39.1475184,20.1201496 L39.160517,20.423461 C39.1668599,21.865738 38.3958418,23.1769568 37.1650077,23.893892 C36.7673166,24.1255387 36.2571376,23.9909332 36.0254909,23.5932421 C35.7938441,23.1955511 35.9284496,22.685372 36.3261407,22.4537253 C37.0486682,22.0328681 37.497623,21.2694769 37.4938686,20.4312531 C37.4901233,19.6624454 37.1059709,18.9589105 36.4726689,18.5246622 C35.9912707,18.1945726 35.9896157,17.4846329 36.4694698,17.1523026 C37.1029389,16.7135838 37.4840262,16.0034597 37.480489,15.2313711 C37.4769566,14.4779902 37.1070869,13.7868553 36.4930755,13.349949 C36.0160129,13.0104901 36.0285627,12.2978399 36.5172816,11.9753885 C37.1320648,11.5697612 37.5034367,10.9008397 37.5000088,10.1705565 C37.496723,9.45485216 37.1380547,8.80017988 36.5471064,8.39788021 C36.0646999,8.06947256 36.0605484,7.35972404 36.5390801,7.02569562 C36.6518212,6.94699922 36.7513774,6.8645084 36.8398532,6.77594379 C37.3371757,6.28163385 37.5669563,5.59079865 37.4445945,4.87190445 C37.2931362,3.98199468 36.5511249,3.25568961 35.6411234,3.11280101 C34.9028775,2.99663309 34.1967103,3.23263867 33.6969559,3.73177334 C33.6404075,3.78815878 33.5822424,3.85501077 33.5179284,3.93720658 C33.162631,4.39129054 32.4646399,4.35603184 32.1569101,3.86845536 C31.7540114,3.23009054 31.0485113,2.83552061 30.2727422,2.83918565 C29.5420444,2.84244389 28.8757201,3.19711917 28.4672709,3.77823954 C28.1363961,4.24899121 27.4393194,4.25072228 27.1061106,3.78161973 C26.6930323,3.20007428 26.0205677,2.84827461 25.2862213,2.85153439 C24.560869,2.85479085 23.8986042,3.20483973 23.4889693,3.77974584 C23.1551587,4.24823569 22.4583172,4.24562986 22.1280197,3.77465657 C21.7159716,3.18711466 21.0389744,2.83046837 20.2997127,2.8337289 C19.5824361,2.83698145 18.926916,3.18004803 18.5155491,3.74595349 C18.1752257,4.21412654 17.4730085,4.20130954 17.1499964,3.72102915 C16.7410027,3.1129043 16.052188,2.74115499 15.2979575,2.74441413 C14.7008614,2.74726922 14.1452264,2.98280732 13.7335233,3.39385374 C13.6775153,3.44951901 13.6198343,3.51581459 13.5561807,3.59740356 C13.2012186,4.05238156 12.5024334,4.01757746 12.1944377,3.5295798 C11.7915312,2.89120243 11.0859431,2.49655243 10.3100043,2.4999916 C9.57956697,2.50327079 8.91336512,2.8580043 8.50471527,3.43919535 C8.20395541,3.8669428 7.60078574,3.90733055 7.24320193,3.55892957 L7.14384236,3.44274418 C6.77622985,2.92567018 6.20394784,2.59022047 5.56301789,2.52449773 L5.32833333,2.51166667 L5.26833333,2.51166667 L5.05483586,2.524922 C4.01511853,2.63358859 3.194972,3.45032678 3.09439491,4.46965874 L3.08403871,4.69100373 C3.08708933,5.32095684 3.36583879,5.90496167 3.84396654,6.31453595 C4.29320293,6.69936128 4.20965694,7.41666772 3.68400298,7.68794578 C2.95730747,8.06297682 2.49633405,8.80097464 2.49999121,9.61725702 C2.5032745,10.3322496 2.86124295,10.9862803 3.45115346,11.3886128 C3.93341021,11.7175229 3.93679599,12.4275231 3.45769806,12.7610177 C2.87142886,13.1691129 2.51953373,13.8263415 2.52299882,14.541028 C2.52626011,15.2557173 2.88423427,15.909873 3.47412822,16.3125568 C3.95607323,16.6415507 3.95937026,17.3512243 3.48050289,17.6846819 C2.89438603,18.0928224 2.54251068,18.75012 2.54597561,19.4647751 C2.54923691,20.1794643 2.90721107,20.83362 3.49710501,21.2363039 C3.97918293,21.5653885 3.98231996,22.275313 3.50316914,22.6086451 C2.83694924,23.072116 2.4794583,23.8494885 2.58797537,24.6715771 C2.71422222,25.6283088 3.51487736,26.4122279 4.49280407,26.5298184 C5.33599727,26.6311488 6.12698978,26.2688125 6.59223904,25.6063351 C6.92232199,25.1363237 7.61775569,25.13328 7.95194015,25.6003841 C8.31946166,26.1140849 8.88998212,26.4472388 9.45676978,26.5170446 L9.6687364,26.5307156 L10.0131182,26.5102126 C10.6481773,26.4391756 11.2152232,26.1010642 11.5784302,25.5837393 C11.9084268,25.1137165 12.6037976,25.1105399 12.9380748,25.577528 C13.3519216,26.1556755 14.0221204,26.5050185 14.7529372,26.5017626 C14.8628392,26.5012173 15.2548056,26.3733232 15.7620267,26.1510299 C17.1226762,25.5537164 18.5037683,26.9443275 17.8971744,28.298048 L17.7435457,28.6586014 C17.6094359,28.991982 17.535464,29.2357116 17.5358624,29.3165995 C17.5389147,29.9894888 17.8568151,30.6093562 18.3916335,31.0179867 C18.8138746,31.3406021 18.8227601,31.9569775 18.4469554,32.2966774 L18.3227019,32.3897167 C17.6762938,32.787829 17.2796526,33.479282 17.2831162,34.2363048 C17.2859721,34.8184283 17.5222284,35.3618625 17.9363484,35.7662622 C18.0846559,35.9117044 18.2634682,36.0393194 18.4675946,36.1455506 C18.6963695,36.2646094 18.8544593,36.4811483 18.9015811,36.729117 L18.9162158,36.8811413 L18.9167959,37.014324 C18.9180737,37.2813799 19.1426474,37.5012035 19.4229859,37.5000091 C19.663744,37.4988819 19.8615783,37.3358283 19.9123915,37.1223669 L19.9250644,37.0119518 L19.9247736,36.9694488 C19.9228402,36.6869106 20.0638157,36.4261558 20.2933333,36.2720117 L20.4152189,36.2042166 C21.0793765,35.9044012 21.5603115,35.2903583 21.6725532,34.5922218 C21.7883518,33.8724202 21.5519725,33.1832218 21.048509,32.6917494 C20.9920651,32.6363794 20.924774,32.5792976 20.8419597,32.5163052 C20.37608,32.161935 20.4111255,31.4503014 20.9095696,31.1434209 C21.5560025,30.7454271 21.9525132,30.0541015 21.9490472,29.2965381 C21.9457821,28.5667235 21.573259,27.9002043 20.9643313,27.5010078 C20.463907,27.1729431 20.4620639,26.4400462 20.9608318,26.1094687 C21.6471951,25.6545552 22.022816,24.8683499 21.9190469,24.0341868 C21.7992381,23.070299 20.9957619,22.2776203 20.0116216,22.1592107 C19.1675544,22.0578741 18.3757401,22.4212973 17.9110743,23.08509 C17.6111447,23.5135509 17.0079038,23.5551073 16.6496333,23.207279 L16.5500496,23.0912465 C16.1366448,22.5119097 15.4654117,22.1615977 14.7328636,22.1648568 C14.0017907,22.168114 13.3348887,22.5234788 12.9265185,23.105226 C12.6265402,23.5325625 12.0245484,23.5740589 11.6664153,23.2272004 L11.566837,23.1114897 C11.1989732,22.5975808 10.6285596,22.2644557 10.0539914,22.1955755 L9.8361034,22.1825821 L9.643142,22.1812767 L9.7470749,22.1872549 C9.50133702,22.1884873 8.94793001,22.3774272 8.27195988,22.6970461 C7.11201044,23.2448498 5.89424306,22.0450802 6.45481547,20.8816648 C6.77373949,20.2197102 6.96036504,19.6790828 6.95916081,19.4448108 C6.95589937,18.7300901 6.59790598,18.0760029 6.00785858,17.6733626 C5.52563303,17.3442984 5.52248411,16.6342022 6.00177227,16.3008741 C6.58790512,15.8932394 6.93973696,15.2361291 6.93647487,14.5210649 C6.93321368,13.8066015 6.57519663,13.1525271 5.98517263,12.7499028 C5.50307013,12.4209225 5.49977306,11.7110587 5.97879883,11.3776143 C6.56506802,10.9695191 6.91696315,10.3122905 6.91349793,9.59757319 L6.89245947,9.44815226 C6.85144495,9.23904051 6.75251667,8.86094049 6.61380445,8.4046099 C6.20719869,7.06555937 7.53415195,5.86578127 8.83515889,6.36907645 L9.30554463,6.54440064 C9.82096479,6.72844235 10.2069678,6.83744025 10.330771,6.83692665 C11.017077,6.83387595 11.6476526,6.52037977 12.0628938,5.99537528 C12.4230618,5.54000173 13.1268482,5.5832753 13.4285151,6.07934295 C13.826289,6.73345089 14.5433472,7.14127853 15.333265,7.13760713 C16.0562632,7.13435106 16.7160358,6.78688129 17.1262447,6.2150054 C17.4615146,5.74760283 18.1582893,5.75237685 18.487123,6.22432958 C18.8985985,6.81489241 19.5778112,7.17389482 20.3198241,7.17063308 C21.0453502,7.16737677 21.7073688,6.81742787 22.117075,6.24242164 C22.4508856,5.77393179 23.1477272,5.77653762 23.4780247,6.2475109 C23.8900888,6.83507577 24.5671002,7.19169935 25.3066855,7.1884383 C26.0371045,7.18518131 26.7032986,6.83045802 27.1119492,6.24926586 C27.4127549,5.82145332 28.0160406,5.78113091 28.3735957,6.12966012 L28.4729421,6.2458858 C28.886176,6.82743553 29.5586981,7.17926527 30.2927828,7.17580298 C30.4590385,7.17503009 30.80273,7.09075078 31.241433,6.93546562 C32.6154276,6.4493695 33.9403281,7.79306376 33.3883455,9.15023105 C33.1922561,9.63224977 33.0857527,10.0130214 33.0864979,10.1902441 C33.0897523,10.858824 33.4040642,11.4751015 33.9337772,11.884205 C34.3965422,12.2416038 34.3569547,12.9520172 33.8573463,13.2557882 C33.1548406,13.6829243 32.7223963,14.4319069 32.7261414,15.2526353 C32.729677,16.0210859 33.1138607,16.7246782 33.7471614,17.1590776 C34.2284102,17.4891803 34.2300648,18.1989397 33.7503604,18.5312826 C33.117048,18.9700463 32.7359829,19.6802371 32.7395203,20.4523812 C32.7416288,20.9126136 32.370246,21.287415 31.9100135,21.2895235 C31.4497811,21.291632 31.0749797,20.9202492 31.0728712,20.4600167 C31.0686547,19.5396646 31.3816089,18.6708089 31.9325494,17.9752691 L32.0383333,17.8483333 L31.9348256,17.7276428 C31.4432693,17.1151015 31.1372999,16.3658642 31.0724149,15.5634899 L31.0594922,15.2602719 C31.0548827,14.2500916 31.4329295,13.3044201 32.0847845,12.5817373 L32.1916667,12.47 L32.1152995,12.3693837 C31.7287837,11.8216816 31.4891737,11.1775171 31.4327224,10.4933193 L31.4198485,10.1978051 C31.4179336,9.74250033 31.5715972,9.19312129 31.8445107,8.52225668 C31.8485115,8.51241974 31.8310889,8.49474995 31.7974359,8.50665581 C31.1945875,8.72004257 30.7030332,8.84058048 30.3005871,8.84245137 C29.4134279,8.84663563 28.5748334,8.55201789 27.9023093,8.03191946 L27.795,7.94333333 L27.6954944,8.02943175 C27.1033127,8.49351767 26.3800148,8.78182155 25.6063874,8.84292516 L25.3140757,8.85508858 C24.4208237,8.85902719 23.5768517,8.56044576 22.9021789,8.03429318 L22.7916667,7.94166667 L22.695381,8.02176156 C22.1050996,8.48037396 21.3861583,8.76492758 20.6176057,8.82526491 L20.3272273,8.8372833 C19.4310838,8.84122257 18.5844603,8.54068845 17.9087203,8.01151449 L17.795,7.915 L17.7019531,7.99390244 C17.1126966,8.44973485 16.3960616,8.73236807 15.630231,8.79231242 L15.3408911,8.80425635 C14.3558253,8.80883477 13.4324892,8.44506794 12.7304671,7.81780418 L12.6416667,7.73166667 L12.5274287,7.81862912 C11.9743919,8.19981659 11.3246777,8.43562023 10.6355293,8.4909948 L10.3379325,8.50357791 C9.88244724,8.50546761 9.19999601,8.2977536 8.23347962,7.92334788 L8.2084984,7.9201216 L8.36758101,8.46544518 C8.50548462,8.96506036 8.57897336,9.33062083 8.58014626,9.58976101 C8.58441178,10.469532 8.28597817,11.3000614 7.76017342,11.9657523 L7.68333333,12.055 L7.76099471,12.1452524 C8.23384929,12.7326231 8.52828715,13.4518995 8.59070017,14.2223146 L8.60312418,14.5134596 C8.60713913,15.3935537 8.30863427,16.2241716 7.78273317,16.8897263 L7.705,16.9783333 L7.78369899,17.0687295 C8.25655491,17.6561007 8.55097699,18.3753447 8.61338507,19.1456318 L8.62580779,19.4367242 C8.62764177,19.793468 8.53232326,20.2053632 8.35640766,20.680329 L8.27833333,20.8766667 L8.49637709,20.7942596 C8.88635155,20.6546997 9.24535017,20.5659446 9.58944648,20.5371166 L9.655,20.5333333 L9.74412711,20.5206069 C10.6278823,20.5166695 11.463418,20.8092418 12.1346529,21.3259585 L12.2383333,21.4116667 L12.3422899,21.3250731 C12.9347208,20.860358 13.6586339,20.5715876 14.4328942,20.5103882 L14.7254434,20.4982067 C15.6106034,20.4942686 16.4474338,20.7876517 17.1191665,21.3056869 L17.2216667,21.39 L17.3099749,21.3168252 C18.033386,20.7420957 18.9531117,20.434633 19.919377,20.4801294 L20.210503,20.5044527 C21.9518717,20.7139703 23.3583123,22.1015106 23.5729757,23.8285236 C23.707217,24.9076422 23.3834545,25.9479961 22.7256916,26.7412989 L22.67,26.8 L22.7427885,26.8809759 C23.2322389,27.4737596 23.5380873,28.206044 23.6028317,28.9919407 L23.6156968,29.2889973 C23.6201008,30.2515725 23.262112,31.1529497 22.6437866,31.8439661 L22.5783333,31.91 C23.1573252,32.6691973 23.436852,33.6008006 23.3539069,34.5663361 L23.3180753,34.8568622 C23.1469299,35.9213764 22.5144002,36.8591248 21.6161118,37.4419452 L21.535,37.49 L21.4969439,37.6441925 C21.246557,38.4554714 20.526317,39.0623743 19.652035,39.154525 L19.4304381,39.1667586 C18.3837225,39.1711189 17.5038407,38.4384774 17.296404,37.4565884 L17.2816667,37.3733333 L17.2049672,37.3216353 L16.9798853,37.1470851 L16.7706532,36.9574504 C16.042448,36.2463424 15.621541,35.2781765 15.6164683,34.2442059 C15.6120648,33.2817583 15.970109,32.380412 16.5883874,31.6893656 L16.6566667,31.6166667 L16.5718011,31.5069242 C16.1812338,30.957289 15.9390129,30.3096059 15.8821352,29.6216298 L15.8692144,29.3244843 C15.8673958,28.9552961 15.999388,28.5034901 16.2444415,27.919562 L16.33,27.72 L16.1344036,27.8037007 C15.6576211,27.9995814 15.2709261,28.1210279 14.9474784,28.1571 L14.7607847,28.1684107 C13.8770296,28.1723481 13.0414939,27.8797758 12.370259,27.3630592 L12.265,27.275 L12.1623919,27.3640644 C11.5697608,27.8287721 10.8453219,28.1174554 10.0691107,28.1786397 L9.77576099,28.1908192 C8.89068718,28.1950359 8.05495812,27.902402 7.38372944,27.3856339 L7.27833333,27.2983333 L7.19168276,27.3747775 C6.46846161,27.9480777 5.54973285,28.2545501 4.5846523,28.2089121 L4.29388674,28.1845721 C2.56347038,27.9764987 1.16188412,26.6042097 0.935637173,24.8896511 C0.795262735,23.8262218 1.10032804,22.7978697 1.734536,22.003967 L1.79833333,21.9283333 L1.72125264,21.840738 C1.24851351,21.2533474 0.954146007,20.5340868 0.891748291,19.7637365 L0.879327415,19.472618 C0.875062302,18.5929311 1.17344289,17.7624365 1.69911562,17.09674 L1.775,17.0066667 L1.69827585,16.916991 C1.22553672,16.3296003 0.931169212,15.6103398 0.868771496,14.8399895 L0.85635062,14.548871 C0.8520851,13.6691001 1.15051871,12.8385706 1.67632346,12.1728797 L1.75166667,12.0816667 L1.67556817,11.993637 C1.20266347,11.4062824 0.908208684,10.6868604 0.845774092,9.91610083 L0.833155048,9.6248172 C0.828572801,8.56039563 1.26669081,7.57310661 2.00381994,6.86259221 L2.07,6.80166667 L1.98641313,6.67939194 C1.67505679,6.176908 1.48193555,5.60499704 1.43093612,5.00247335 L1.41739048,4.69884013 C1.40812152,2.66669296 2.99517573,1.00010728 5.01161032,0.856059836 L5.31578661,0.846009832 C6.20288655,0.841825854 7.04143071,1.13640173 7.71403682,1.65644728 L7.82,1.74333333 L7.9211619,1.65903522 C8.51333797,1.19494941 9.23663085,0.906637436 10.0102579,0.845513245 L10.3025697,0.833154316 Z" id="Path" fill="#437D73"></path>
    </g>
</svg>