<?xml version="1.0" encoding="UTF-8"?>
<svg width="40px" height="40px" viewBox="0 0 40 40" version="1.1" xmlns="http://www.w3.org/2000/svg" xmlns:xlink="http://www.w3.org/1999/xlink">
    <title>icon/specialty/neurology</title>
    <g id="icon/specialty/neurology" stroke="none" stroke-width="1" fill="none" fill-rule="evenodd">
        <path d="M21.7716063,2.64409711 L21.9899686,2.65126546 C22.7130857,2.69885349 23.3856668,2.98136694 23.9188429,3.43851178 L23.9188429,3.43851178 L23.9816667,3.49666667 L24.1203159,3.41292446 C24.5231813,3.18741644 24.972823,3.04684811 25.4439533,3.00625612 L25.4439533,3.00625612 L25.7290079,2.99401837 L25.7290079,2.99401837 L25.9417555,3.00081346 C26.8574126,3.05944166 27.6873586,3.49403396 28.2573435,4.17149077 L28.2573435,4.17149077 L28.3066667,4.23333333 L28.4786659,4.16207231 C28.7501135,4.06139516 29.0356968,3.99631265 29.3292376,3.97006371 L29.3292376,3.97006371 L29.6252021,3.95687927 L29.6252021,3.95687927 L29.83687,3.96358679 C31.0272853,4.03923726 32.0571791,4.74852954 32.5742716,5.77230012 L32.5742716,5.77230012 L32.6333333,5.90333333 L32.6840669,5.89679161 L33.0086404,5.88086877 L33.0086404,5.88086877 L33.1988477,5.88624955 C34.7725393,5.97552501 36.0518876,7.16558512 36.278959,8.69849622 L36.278959,8.69849622 L36.2833333,8.73833333 L36.3314989,8.74380637 C37.8460491,8.96816307 39.0258505,10.2197455 39.1400443,11.7676501 L39.1400443,11.7676501 L39.1491129,12.0144121 C39.1491129,12.7612102 38.898614,13.467141 38.4570138,14.0362184 L38.4570138,14.0362184 L38.41,14.09 L38.4531856,14.1798578 C38.5995401,14.5205731 38.6910421,14.8845313 38.7217887,15.2603338 L38.7217887,15.2603338 L38.7333648,15.5442283 C38.7333648,17.1307938 37.6709398,18.4693035 36.2187276,18.8868852 L36.2187276,18.8868852 L36.0566667,18.9266667 L36.0033689,19.2207967 C35.6808643,20.6067861 34.4865642,21.65823 33.0298866,21.7657106 L33.0298866,21.7657106 L32.7831549,21.7747795 C31.9811242,21.7747795 31.2253159,21.4866966 30.6357263,20.982392 L30.6357263,20.982392 L30.5416667,20.8933333 L30.5040882,20.8996718 C30.1835279,20.9601374 29.9940825,21.1107048 29.8720191,21.3477944 L29.8720191,21.3477944 L29.8163075,21.4735328 C29.723743,21.716265 29.6968853,21.9941565 29.7100721,22.2141706 L29.7100721,22.2141706 L29.7156745,22.317168 C29.7156745,23.9770353 28.4922746,25.3513323 26.8980471,25.5874865 L26.8980471,25.5874865 L26.8516667,25.5916667 L26.7807368,25.7937509 C26.6206573,26.1904684 26.3803843,26.5454704 26.0803264,26.8390773 C26.546611,28.1478905 26.2980475,29.7781442 24.9678555,31.6162342 L24.7101242,31.957634 C24.5844516,32.1061638 24.371195,32.4201956 24.1527145,32.8689338 C23.5240888,34.1600715 23.3433805,35.6045614 23.8747708,37.1371894 C24.0255385,37.5720313 23.7952509,38.0467617 23.360409,38.1975294 C22.9255671,38.3482971 22.4508367,38.1180094 22.3000691,37.6831675 C21.6091292,35.6903693 21.8455939,33.8001918 22.6542199,32.1393507 C22.9386055,31.5552495 23.2282151,31.1287837 23.4186901,30.9045135 C24.4938802,29.5360897 24.7644503,28.4643648 24.5815058,27.6450859 L24.3961127,27.6793656 L24.3961127,27.6793656 L24.1909139,27.7032114 L23.9366719,27.7136247 C23.5673385,27.7136247 23.2077926,27.6476671 22.8716284,27.522907 L22.8716284,27.522907 L22.6533333,27.4316667 L22.4507857,27.6066185 C21.9515324,27.9994089 21.3432187,28.2454144 20.6918981,28.3007784 L20.7469885,28.2927038 C20.6905911,28.4904002 20.6282009,28.7381119 20.5646195,29.0366278 C20.3080544,30.2412075 20.1649102,31.6824003 20.1784351,33.3673805 C20.1798873,33.3789163 20.1805569,33.3889338 20.1810451,33.3989508 L20.1796718,33.4884401 C20.1940248,34.6465155 20.2818527,35.9182542 20.4569093,37.3059377 C20.5145118,37.762556 20.1910455,38.1794144 19.7344271,38.2370169 C19.2778088,38.2946194 18.8609504,37.9711531 18.8033479,37.5145348 C18.6813952,36.5478083 18.599765,35.6315406 18.5544995,34.7652146 C17.0487147,35.3055144 15.6260599,35.0178385 14.4012918,34.1796949 C14.2308349,34.0630463 14.0784594,33.9458722 13.9444973,33.8327128 C11.7282304,35.0633856 9.10876767,35.1351596 6.99506401,34.2184913 C4.39987508,33.0935258 3.50701973,30.3280957 4.75479204,28.0881814 C4.67871349,27.9511345 4.61284249,27.8067134 4.55802637,27.6568951 L4.55802637,27.6568951 L4.53,27.5716667 L4.35069737,27.5665508 C2.72132407,27.4463469 1.42028563,26.1454142 1.30007193,24.5161906 L1.30007193,24.5161906 L1.29100262,24.2694514 C1.29100262,23.6878263 1.44299413,23.1303947 1.71983511,22.6426868 L1.71983511,22.6426868 L1.81166667,22.4933333 L1.70566267,22.372918 C1.30129645,21.8702251 1.04726147,21.2534821 0.990070947,20.5918175 L0.990070947,20.5918175 L0.977748031,20.3056982 C0.977748031,19.2215093 1.50450651,18.2394319 2.345,17.6266667 L2.345,17.6266667 L2.28809639,17.4921008 C2.18257137,17.2152067 2.1142521,16.9232324 2.08668778,16.6227664 L2.08668778,16.6227664 L2.0728399,16.3197139 C2.0728399,15.0073598 2.84192199,13.8613327 3.96999755,13.3300976 L3.96999755,13.3300976 L4.045,13.2966667 L4.03022789,13.1691762 L4.01934908,12.9001864 C4.01934908,11.3233124 5.1234675,10.0041657 6.60073019,9.67372044 L6.60073019,9.67372044 L6.72833333,9.64833333 L6.73106878,9.58847256 C6.85127542,7.95933517 8.15223551,6.65857526 9.78143312,6.53838755 L9.78143312,6.53838755 L10.028168,6.52932021 L10.3016667,6.54166667 L10.3615534,6.37346051 C10.811784,5.20905255 11.9018714,4.36385431 13.1999524,4.26844832 L13.1999524,4.26844832 L13.4456745,4.25945144 C13.8543957,4.25945144 14.2517544,4.33458332 14.622077,4.47631122 L14.622077,4.47631122 L14.7066667,4.51166667 L14.8194607,4.34579688 C15.3749906,3.5880125 16.2414278,3.08363004 17.2159103,3.00482869 L17.2159103,3.00482869 L17.4842047,2.99401837 L17.4842047,2.99401837 L17.7249625,3.0027146 C18.2827403,3.04311474 18.810606,3.22300196 19.2669854,3.51558789 L19.2669854,3.51558789 L19.425,3.625 L19.5669025,3.48879397 C20.0931499,3.01636687 20.7661728,2.71639537 21.4956026,2.65556747 L21.4956026,2.65556747 L21.7716063,2.64409711 L21.7716063,2.64409711 Z M18.6083333,27.775 L18.4943401,27.8943049 C17.9544708,28.406856 17.2478187,28.7318759 16.4793741,28.7917544 L16.4793741,28.7917544 L16.2210814,28.8017874 C15.5576533,28.8017874 14.9279157,28.6041063 14.3983289,28.2529404 L14.3983289,28.2529404 L14.2633333,28.155 L14.1977782,28.2282735 C13.6525673,28.7778704 12.9209419,29.1299069 12.1207817,29.1948182 L12.1207817,29.1948182 L11.851685,29.2056982 C11.2195473,29.2056982 10.6185888,29.0261493 10.1058488,28.7060309 L10.1058488,28.7060309 L9.91833333,28.5783333 L9.79633052,28.7214523 C9.27692936,29.2768798 8.5613775,29.6387061 7.77090702,29.7055171 L7.77090702,29.7055171 L7.5048084,29.7167218 C6.96521282,29.7167218 6.45692164,29.5802879 6.01292201,29.3396951 C5.5608116,30.6276125 6.1547613,32.0377177 7.65806049,32.6893696 C10.1182805,33.7563145 13.5107868,33.1003499 15.4180201,30.2575293 C15.6744315,29.8753362 16.1921227,29.7733699 16.5743158,30.0297813 C16.9565089,30.2861926 17.0584752,30.8038838 16.8020639,31.186077 C16.3784273,31.8175271 15.8963742,32.3631202 15.3724203,32.8259407 L15.3425421,32.8042583 C16.2838209,33.4484022 17.3231505,33.5982275 18.5123242,32.9679225 L18.5136341,32.7832884 C18.5340969,31.2259854 18.6846208,29.862703 18.9345178,28.6894301 C18.9863097,28.4462662 19.0386762,28.2280035 19.0899727,28.0344234 C19.0040398,27.9998958 18.9202051,27.958905 18.8382726,27.9144459 L18.8382726,27.9144459 L18.6083333,27.775 Z M7.61967247,21.6905643 L7.53911479,21.7586251 C7.72818697,21.9222022 7.8969286,22.1114061 8.03981607,22.3275095 C8.59706177,23.1692716 8.61855557,24.2610437 8.1483933,25.1789598 C7.73364594,25.9884852 7.07999237,26.681654 6.1540045,27.1592813 C6.37870522,27.6839227 6.89993146,28.0500551 7.5048084,28.0500551 L7.5048084,28.0500551 L7.63769986,28.0440779 C8.17941254,27.9951589 8.64551814,27.6500158 8.85659727,27.1582914 C8.3407255,25.3782038 9.11106338,23.8794091 10.6265031,22.7409289 C10.9672911,22.4849106 11.3061559,22.2735625 11.6182296,22.1047991 C11.5146024,21.7757067 11.4601239,21.425073 11.4574739,21.0666939 C11.4565449,20.9384816 11.4614667,20.8092683 11.4719614,20.6795665 C9.97130034,20.367746 8.67234484,20.8248905 7.61967247,21.6905643 Z M19.5452651,17.1344303 L19.514784,17.2024943 C19.6663695,17.4106143 19.9001762,17.6699394 20.2237908,17.934226 C21.0057286,18.5728115 22.028587,18.9728224 23.3478678,19.0134741 C23.8078868,19.0276489 24.1693149,19.4120588 24.1551401,19.8720778 C24.1409653,20.3320967 23.7565553,20.6935249 23.2965364,20.6793501 C21.6016733,20.6271255 20.2289786,20.0903034 19.1695636,19.2251104 C18.6247313,18.780162 18.2467196,18.328237 18.0109617,17.9523386 C17.9247727,17.9171707 17.8174873,17.8769985 17.6925546,17.8360877 C17.135909,17.653807 16.5661086,17.5719523 16.0160138,17.6271253 C15.9987817,17.631286 15.9813007,17.6335302 15.9636535,17.6352265 C15.6898631,17.6647376 15.4218342,17.7308477 15.1630024,17.8357155 C15.0159004,17.895315 14.8725464,17.9673327 14.733307,18.0522942 C13.8382562,18.5990684 13.1159529,19.9306193 13.1240959,21.0544943 C13.1287048,21.6777898 13.41664,22.2308376 13.8817021,22.5132998 C14.1660414,22.686105 14.4506735,22.7445307 14.7650677,22.6706444 C15.5192442,22.4931313 15.8356399,22.0437905 15.7772634,21.5170604 C15.7338111,21.1249904 15.510242,20.8734673 15.2302202,20.8519066 L15.1071151,20.8570063 C14.652416,20.9281899 14.2261038,20.6172892 14.1549202,20.1625901 C14.0837366,19.7078911 14.3946373,19.2815789 14.8493364,19.2103953 C16.2020164,18.9986318 17.2866171,20.0055524 17.4337877,21.3334711 C17.5849131,22.6970731 16.7222736,23.9221818 15.146644,24.293043 C14.3777076,24.4737523 13.6539045,24.3251789 13.0163111,23.937686 C12.8240337,23.8209036 12.6475109,23.6848074 12.487901,23.5325538 C12.2257934,23.6675514 11.9254709,23.8496621 11.6275722,24.0734597 C10.5796724,24.8606987 10.1403854,25.7404005 10.4880556,26.8038886 C10.7906264,27.2598885 11.2965731,27.5390315 11.851685,27.5390315 L11.851685,27.5390315 L12.0053954,27.5318633 C12.6138303,27.4748901 13.1394843,27.0827863 13.369883,26.5165552 L13.369883,26.5165552 L13.9744313,25.0308089 L14.842515,26.3796423 C15.1437784,26.8477471 15.6573922,27.1351207 16.2210814,27.1351207 L16.2210814,27.1351207 L16.3685447,27.1285124 C16.806608,27.0891021 17.2027838,26.8755833 17.4775149,26.5462377 L17.5049966,26.5109163 C16.4972393,24.2996564 17.7919632,21.1599447 20.3369158,21.1473217 L20.5975663,21.1567885 C21.9341449,21.259779 22.9525465,22.5551414 22.6940212,23.8712284 C22.5606351,24.5494402 22.106445,25.249839 21.3892305,25.505987 C20.9558057,25.6607816 20.4789598,25.4349072 20.3241652,25.0014824 C20.1693707,24.5680577 20.3952451,24.0912117 20.8286698,23.9364172 C20.8954448,23.912569 21.0272799,23.7092683 21.0586453,23.5497887 C21.1223512,23.2254782 20.8238788,22.8458344 20.4696614,22.81854 C19.1437811,22.7166004 18.3522124,24.7970862 19.1399266,26.0389466 C19.4506417,26.4212135 19.9111063,26.6460394 20.4103202,26.6460394 L20.4103202,26.6460394 L20.5624654,26.639021 C21.0646765,26.5924966 21.5134577,26.3173231 21.7877445,25.8929516 L21.7877445,25.8929516 L22.3042979,25.0937493 L23.0283577,25.7112353 C23.2816885,25.9272785 23.5990056,26.046958 23.9366719,26.046958 L23.9366719,26.046958 L24.0741464,26.040267 C24.6170783,25.9871496 25.0712914,25.6227236 25.2523077,25.1244889 C25.1672115,25.0447739 25.0806011,24.95421 24.9944813,24.8527468 C24.1285698,23.8325624 23.9600261,22.4364194 24.8262459,20.8066812 L25.0247672,20.4595875 C25.0913871,20.3507568 25.2617625,20.071591 25.3161629,19.9794984 C25.845045,19.0841715 26.0556201,18.4055699 25.9067021,17.6773791 C25.2926269,17.7072063 24.666768,17.6146813 24.036773,17.3736222 L23.7057003,17.2332771 L21.9607522,16.3434807 C21.0534596,15.8808872 19.9671607,16.2680305 19.5452651,17.1344303 Z M6.16727481,22.8313892 L6.07683069,22.8849713 C5.74339113,23.0614129 5.39179086,23.1963764 5.02768001,23.2846965 C4.4403553,23.4272115 3.84373917,23.4535994 3.25209494,23.338408 C3.0621844,23.6065755 2.95766929,23.9292174 2.95766929,24.2694514 C2.95766929,25.1748605 3.6918207,25.9089528 4.59745932,25.9089528 L4.59745932,25.9089528 L4.72835552,25.9031044 C4.81648519,25.8953116 4.90647177,25.8797411 4.99907025,25.8564537 L4.92274803,25.8720971 L4.95974803,25.8640971 L5.13287375,25.7980566 C5.88054234,25.4829484 6.36811847,24.9986114 6.6650328,24.4190786 C6.8704984,24.0179401 6.86162201,23.567066 6.6498234,23.2471279 C6.57735173,23.1375216 6.48685099,23.0438934 6.38050503,22.9641975 C6.30784696,22.9097474 6.23469179,22.8657606 6.16727481,22.8313892 Z M28.7883249,16.6626849 L28.6978598,16.7254598 C28.6211938,16.7757077 28.542765,16.8241385 28.4626702,16.8707221 C28.1615762,17.0456907 27.8529366,17.1966997 27.5381501,17.3194453 C27.7782397,18.4105917 27.5315224,19.4092728 26.9234062,20.5242372 L26.4275282,21.3600371 L26.2917232,21.5986267 C25.7519251,22.6058302 25.8378117,23.2707653 26.2651452,23.7742335 C26.3291262,23.8496135 26.391881,23.9108169 26.4452827,23.956886 C27.3339224,23.937495 28.0490719,23.2119104 28.0539123,22.4074448 C28.0509649,22.3791734 28.0509649,22.3791734 28.046391,22.3138852 L28.046391,22.3138852 L28.040193,22.0454404 C28.0452728,21.6786881 28.1066263,21.2793259 28.259031,20.8796745 C28.5636281,20.0809286 29.1668679,19.5102139 30.0479466,19.2960072 L30.0528407,19.2948217 L30.2046424,19.2637194 C30.2991055,18.3223533 29.7423444,17.1747242 28.7883249,16.6626849 Z M7.32551706,11.260685 L7.18406766,11.2667037 C6.34489515,11.3384354 5.68601575,12.0424584 5.68601575,12.9001864 C5.68601575,13.1243894 5.73104206,13.3414616 5.8173283,13.5433832 L5.8173283,13.5433832 L6.24850233,14.5523891 L5.16079097,14.6969156 C4.35135429,14.8044672 3.73950656,15.4963955 3.73950656,16.3197139 C3.73950656,16.7231011 3.88637142,17.1021088 4.15013741,17.4011493 L4.15013741,17.4011493 L4.99171352,18.3552728 L3.78080963,18.7455467 C3.10895849,18.9620841 2.6444147,19.5891355 2.6444147,20.3056982 C2.6444147,20.8773913 2.94012116,21.3970324 3.4192571,21.6957761 L3.34374803,21.6430971 L3.44583314,21.674283 C3.83181694,21.7721149 4.22885826,21.7635003 4.63473306,21.6650143 C5.15379576,21.5391085 5.64715506,21.2552955 6.06812131,20.8450988 C7.55978258,19.3925706 9.53521147,18.5443371 11.8642434,19.0557969 L11.8778861,19.0589898 C12.0862067,18.5626498 12.3642643,18.0926079 12.6945746,17.681123 C12.5387562,17.0601616 12.2128552,16.6055097 11.756511,16.2704611 C11.525411,16.1007871 11.2930209,15.981448 11.0941615,15.9037813 C10.8925371,16.067059 10.6657603,16.2012462 10.4215873,16.3033029 C10.3309603,16.3411769 10.2400183,16.373783 10.1488445,16.4012498 L9.97333333,16.4433333 L9.96423956,16.662722 C9.84962069,17.9332057 8.83799722,18.9449403 7.56765125,19.0595717 L7.3265853,19.0703963 C6.86634801,19.0703963 6.49325197,18.6973003 6.49325197,18.237063 C6.49325197,17.8279632 6.7880439,17.4877157 7.17679258,17.4171558 L7.3265853,17.4037297 C7.86878685,17.4037297 8.30839633,16.9640719 8.30839633,16.4216299 C8.30839633,16.3531149 8.30111547,16.2855638 8.2867877,16.2193888 C7.95472589,16.0340971 7.55871789,15.7683144 7.15981931,15.4226925 C6.90511897,15.2020098 6.67338317,14.96599 6.47020534,14.7134204 C6.18172691,14.354814 6.23857686,13.8302481 6.59718327,13.5417696 C6.95578968,13.2532912 7.48035559,13.3101412 7.76883403,13.6687476 C7.90602768,13.8392925 8.06847468,14.0047426 8.2512076,14.1630698 C8.60885216,14.4729476 8.97059521,14.7019236 9.22250893,14.832229 L9.14256141,14.8184027 C9.36318637,14.8683965 9.56557091,14.8546872 9.77889418,14.7655372 C10.1330162,14.6175253 10.3951587,14.3123225 10.4678652,13.9690211 C10.4941923,13.8446935 10.498762,13.7223128 10.4826372,13.6018413 C10.1721326,13.430368 9.82668448,13.190595 9.48169579,12.8724172 C9.02907751,12.4549743 8.65492016,11.9603621 8.38685345,11.3848049 L7.42040701,11.2643566 L7.32551706,11.260685 L7.32551706,11.260685 Z M36.0808607,10.3917639 L36.0678482,10.4254579 C35.8668131,10.9392079 35.5483839,11.5484956 35.084807,12.1606442 C33.9842876,13.6138693 32.4506902,14.4888662 30.4828414,14.4755009 L30.467093,14.5198724 C30.3456437,14.8444791 30.1879675,15.1556697 29.9922905,15.4509303 C31.3975776,16.4346127 32.119061,18.2441794 31.8088645,19.7849415 L31.8710151,19.8312398 C32.1361362,20.0092484 32.4511388,20.1081129 32.7831549,20.1081129 L32.7831549,20.1081129 L32.9246043,20.1020942 C33.6712062,20.0382753 34.275098,19.4739694 34.3992455,18.7462104 C33.1090337,18.1045825 32.4195849,17.1206247 32.4236032,15.9952297 C32.4275929,14.8870195 33.1527398,13.8438128 34.1154702,13.553948 C34.5561656,13.4212607 35.0209841,13.6709506 35.1536714,14.1116461 C35.2863587,14.5523415 35.0366688,15.01716 34.5959734,15.1498473 C34.3580093,15.221495 34.0916983,15.6046138 34.0902768,16.0012034 C34.0885225,16.4906542 34.4522082,16.9713306 35.344184,17.3499405 L35.4532805,17.3445987 C36.2956763,17.253296 36.9647839,16.5840867 37.0560728,15.741552 L37.0560728,15.741552 L37.0666982,15.5442283 C37.0666982,15.1483547 36.9379792,14.772916 36.7020488,14.4593661 L36.7020488,14.4593661 L36.2113272,13.8072004 L36.8531385,13.303012 C37.2485223,12.9924098 37.4824462,12.5233848 37.4824462,12.0144121 C37.4824462,11.2041038 36.8947657,10.5310804 36.1225124,10.3983697 L36.0808607,10.3917639 L36.0808607,10.3917639 Z M21.7716063,4.31076378 L21.6245111,4.31734993 C21.0418393,4.36972103 20.5328989,4.73059249 20.285809,5.26253494 L20.3226346,5.19242596 C20.3065203,6.04153622 20.4322106,6.78878045 20.7154571,7.41904806 C21.060767,8.18717656 21.6679165,8.77612852 22.3506376,8.99038347 C22.7897589,9.12819073 23.0340222,9.59588374 22.896215,10.035005 C22.7584077,10.4741264 22.2907147,10.7183897 21.8515934,10.5805824 C20.6868526,10.2150576 19.7261062,9.28310688 19.1952904,8.10232773 C18.8011458,7.22529433 18.635078,6.23788606 18.6562778,5.15721445 C18.3538031,4.84345115 17.9349321,4.66068504 17.4842047,4.66068504 L17.4842047,4.66068504 L17.3338222,4.66755917 C16.8198094,4.7147402 16.3678152,5.00143262 16.1007776,5.42347215 L16.0538725,5.49869721 C16.2675376,5.72546845 16.5045076,6.00510773 16.7415753,6.33062432 C17.1903788,6.94687427 17.5328308,7.59609558 17.7233915,8.2734919 C18.2108424,10.00661 17.288995,11.7630171 15.6643864,12.4369142 C15.2392717,12.6132543 14.7516962,12.4115825 14.5753562,11.9864678 C14.3990161,11.5613531 14.6006878,11.0737776 15.0258025,10.8974375 C15.8909746,10.5385591 16.3715772,9.62286105 16.1189879,8.72478656 C15.9879597,8.25901372 15.7352322,7.77989226 15.3943286,7.31179919 C15.066738,6.861986 14.7388542,6.52146141 14.5360905,6.34479728 C14.23078,6.07414539 13.8505288,5.92611811 13.4456745,5.92611811 L13.4456745,5.92611811 L13.304829,5.93208827 C12.4691829,6.0032449 11.8119977,6.70170742 11.8067348,7.55574149 L11.8067348,7.55574149 L11.805748,7.58409711 L11.8138886,7.65697584 C11.8809261,8.03156476 12.143112,8.38921844 12.5825059,8.72200897 L12.8080134,8.88050207 C14.7487792,10.1495941 14.3411374,13.0224366 12.3501259,13.7413341 L12.1566667,13.8 L12.1409758,14.0527271 L12.0983712,14.3143151 C12.0847741,14.3785169 12.0688343,14.4419576 12.0506417,14.504546 C12.2739233,14.615086 12.5081422,14.7546677 12.7428754,14.9270092 C13.3029697,15.3382312 13.7510743,15.8697274 14.0498531,16.5239157 L13.8648206,16.6297933 C14.0821487,16.4971832 14.3065557,16.3844463 14.5371554,16.291017 C14.7139653,16.2193811 14.8918625,16.1595011 15.0704617,16.1106762 C15.1655558,14.9001686 15.5898765,13.8682372 16.2828867,13.0186195 L16.5175791,12.7488334 L16.8408942,12.4308297 C18.6581984,10.7331065 21.4260384,10.6656926 23.4206452,12.1677706 L23.6762846,12.3725895 C24.0550343,12.6949912 24.4205471,12.8754729 24.7722112,12.9480533 C25.3494426,13.0672699 25.949149,12.7612591 26.1642595,12.2429324 L26.193984,12.1615263 C26.3409932,11.6956011 26.1036762,11.0881393 25.5524995,10.4360237 C25.3236307,10.1652413 25.0933173,9.94461822 24.9160007,9.79531355 L24.7938007,9.69703787 C22.6247437,8.00331422 22.1692114,6.22273104 22.8642104,4.73258793 C22.5703208,4.46515699 22.1845304,4.31076378 21.7716063,4.31076378 L21.7716063,4.31076378 Z M25.7290079,4.66068504 L25.572288,4.66813663 C25.1584574,4.70767611 24.7800964,4.90294545 24.5033939,5.2150955 L24.5033939,5.2150955 L24.4864268,5.23714367 L24.4297541,5.32894117 C24.4180596,5.34989589 24.4055236,5.37356709 24.3925708,5.39978814 C24.0258917,6.14207224 24.2078007,7.0324217 25.5467878,8.16252068 L25.8115559,8.37724618 C26.0764203,8.57894836 26.4497817,8.91574435 26.8254002,9.36015119 C27.7077856,10.4041309 28.1439084,11.5204773 27.7834109,12.663024 L27.7035516,12.8819612 C27.178029,14.1482513 25.7850018,14.8590682 24.4352161,14.5802948 C23.911554,14.4722154 23.3933083,14.2413999 22.8934557,13.876642 L22.5958551,13.6416246 C21.2200944,12.4701211 19.2428928,12.4676795 17.9789098,13.6484907 L17.725,13.8983333 L17.5441159,14.1096758 C17.1335727,14.6259488 16.8649105,15.2344714 16.7618483,15.956334 C17.1289669,15.9841789 17.4928517,16.0491481 17.8513331,16.1450711 L18.1383333,16.23 L18.195681,16.129225 C19.0588907,14.7040838 20.8883726,14.0740697 22.49062,14.7527751 L22.7178378,14.8586914 L24.435785,15.7353288 C25.4854895,16.223699 26.5889213,16.0319342 27.6250099,15.4298533 C27.9946123,15.2148903 28.2998546,14.9494301 28.5222355,14.6461068 C28.6856016,14.423089 28.8124338,14.1862017 28.9061051,13.9358395 C29.1812763,13.2003689 29.1634563,12.3843262 28.9602526,11.6077557 L28.8820785,11.3408274 L28.8238904,11.1825243 C28.6080344,10.6828985 28.9212536,10.1138227 29.4588474,10.0288956 C30.201649,9.91155038 30.6568291,9.59303628 30.9295906,9.12576597 L31.0235308,8.94366902 C31.2138909,8.52464468 31.7078946,8.33927568 32.1269189,8.52963577 C32.5459432,8.71999586 32.7313122,9.21399955 32.5409522,9.63302389 C32.2083624,10.3651269 31.6608146,10.9553507 30.8865839,11.3233078 L30.63,11.4333333 L30.6570746,11.5483479 C30.7410197,11.9598484 30.7856905,12.3792814 30.7814696,12.8006425 C32.0474798,12.7312068 33.0127445,12.136099 33.7561403,11.1544522 C34.0417456,10.7773131 34.2715758,10.3693434 34.4484705,9.96180388 L34.5909214,9.60180136 L34.608748,9.54709711 L34.612748,9.52409711 L34.6250007,9.44500518 C34.635408,9.37958791 34.6422238,9.32072028 34.6456113,9.26609094 L34.6481417,9.18703675 C34.6481417,8.28165724 33.9140199,7.54753543 33.0086404,7.54753543 L33.0086404,7.54753543 L32.8479034,7.55538948 C32.6885926,7.57104817 32.5338487,7.60997255 32.3862653,7.67082864 L32.3862653,7.67082864 L31.3997189,8.07763166 L31.2441566,7.02190301 C31.1264491,6.22307632 30.4394335,5.62354593 29.6252021,5.62354593 L29.6252021,5.62354593 L29.4577673,5.63202815 C29.1263498,5.66579581 28.8174675,5.79941568 28.5639244,6.01547848 L28.5639244,6.01547848 L27.6813843,6.7675561 L27.2499238,5.69129426 C27.0022673,5.07352447 26.4041899,4.66068504 25.7290079,4.66068504 L25.7290079,4.66068504 Z M10.028168,8.19598688 L9.88670651,8.20200391 C9.04746964,8.27371616 8.38866667,8.9775522 8.38866667,9.83519948 C8.38866667,9.96763298 8.40669124,10.1028173 8.4423407,10.242137 L8.45938525,10.0587285 C8.53536389,9.99341837 8.62448603,9.94080591 8.72461101,9.90537633 C9.15848594,9.75184812 9.63467027,9.97911403 9.78819848,10.412989 C9.96049015,10.89989 10.2438472,11.3080529 10.6116384,11.6472611 C10.9297968,11.9406937 11.2470903,12.1341338 11.4730053,12.2369026 L11.502488,12.2340785 C12.46747,12.1450419 12.7511919,10.8347176 11.8955459,10.2751994 C11.0538002,9.72421939 10.4553613,9.0421603 10.2293029,8.2099426 C10.1629961,8.20011692 10.0958952,8.19598688 10.028168,8.19598688 L10.028168,8.19598688 Z" id="Combined-Shape" fill="#437D73"></path>
        <path d="M27.4620579,4.76528636 C27.8021753,4.45522422 28.3292499,4.47958881 28.6393121,4.8197062 C28.9149229,5.12203276 28.9262952,5.57207864 28.6865445,5.88612296 L28.5848922,5.99696036 C28.5763065,6.00478736 28.5321178,6.05587128 28.482525,6.13744407 C28.3351722,6.37981773 28.2981585,6.63963269 28.4197198,6.93180226 L28.4857724,7.04138598 C28.5181367,7.08807951 28.5602444,7.14223578 28.6102862,7.19574618 C28.8270926,7.42758068 29.0126946,7.4808433 29.3373375,7.31986447 C29.7496661,7.11540545 30.2496713,7.28391704 30.4541303,7.69624564 C30.6585893,8.10857424 30.4900777,8.6085794 30.0777491,8.81303842 C29.0252213,9.33494936 28.0734997,9.06183176 27.3929811,8.33414247 C27.1563716,8.08113219 27.000209,7.8307054 26.8962093,7.60672695 C26.5368599,6.74841385 26.6520194,5.94005929 27.058394,5.27163314 C27.1985629,5.04107602 27.3441358,4.87278799 27.4620579,4.76528636 Z" id="Stroke-31" fill="#437D73"></path>
    </g>
</svg>