<?xml version="1.0" encoding="UTF-8"?>
<svg width="40px" height="40px" viewBox="0 0 40 40" version="1.1" xmlns="http://www.w3.org/2000/svg" xmlns:xlink="http://www.w3.org/1999/xlink">
    <title>icon/specialty/obgyn</title>
    <g id="icon/specialty/obgyn" stroke="none" stroke-width="1" fill="none" fill-rule="evenodd">
        <path d="M38.660543,2.54077267 C39.6354034,5.31185759 38.7772765,9.20690312 35.7552195,11.6869436 C34.697835,12.5547715 33.3237832,13.0302732 31.7342023,13.1862241 C30.6214472,13.295242 29.4909823,13.2512137 28.361653,13.0277984 C28.3409844,13.036985 28.3171202,13.0499423 28.2906796,13.0651796 C28.0514534,13.2030419 27.7991415,13.4298216 27.5502971,13.773872 C26.9992158,14.5357927 26.5834528,15.7041738 26.3834678,17.3626138 L26.3343368,17.8271286 C26.2925551,18.2846725 26.2262094,18.6925443 26.1229287,19.0819486 C25.8194544,20.2259059 25.3279351,21.3419089 24.5898338,22.2987826 L24.5466667,22.3483333 L24.5917449,22.7523629 C24.6870385,23.7268338 24.7173341,24.734527 24.6426681,25.6880958 C24.5734512,26.5720737 24.4192336,27.3471199 24.1550232,27.9930094 L24.02,28.29 L24.7293805,29.1523021 C24.8713626,29.3251403 24.9364336,29.5457259 24.9146992,29.7638753 L24.8819679,29.9262465 L22.7197628,36.9563747 C22.6256505,37.2623685 22.3665278,37.4833333 22.0581107,37.5337933 L21.9232513,37.5447308 L18.0682026,37.5447308 C17.748063,37.5447308 17.4606868,37.3620153 17.3217902,37.0820598 L17.271691,36.9563747 L15.1094859,29.9262465 C15.0437306,29.7124516 15.067254,29.4836747 15.1701622,29.2900992 L15.2620734,29.1523021 L15.97,28.2883333 L15.8364307,27.9930094 C15.6162553,27.4547681 15.4724639,26.8268347 15.3905933,26.1209135 L15.3487857,25.6880958 C15.2741197,24.734527 15.3044153,23.7268338 15.3997089,22.7523629 L15.4416667,22.35 L15.4016201,22.2987826 C14.7557813,21.4615177 14.2987311,20.5024164 13.9912489,19.5093358 L13.8685138,19.0819056 C13.7996676,18.8223314 13.7472318,18.5545303 13.7075502,18.2693311 L13.6571361,17.8273375 C13.482476,15.9199659 13.0423364,14.6050582 12.4411568,13.773872 C12.1923123,13.4298216 11.9400005,13.2030419 11.7007742,13.0651796 C11.6743973,13.049979 11.6505844,13.0370474 11.6295568,13.0261431 C10.5008534,13.2511966 9.37019561,13.2952522 8.25724126,13.1862148 C6.66765172,13.0302973 5.29377177,12.5548276 4.23635136,11.6869702 C1.21414984,9.20681108 0.355848217,5.31138609 1.33105476,2.54060429 C1.91460118,0.882981439 3.81588983,0.44259723 5.09286256,1.69932733 C5.34606144,1.94851249 5.40633131,2.31971545 5.27218633,2.62696006 C6.76000354,1.69597477 8.91127759,2.29634279 10.2916426,3.94624276 C11.7735525,5.71751553 11.9076731,8.14999235 10.4227552,9.39205712 C8.93808815,10.634235 6.56769097,10.0725857 5.08567595,8.3011872 C3.69774588,6.64153743 3.49219244,4.40210841 4.69234533,3.10486574 C4.4723211,3.15606101 4.23447935,3.11516778 4.03998392,2.98271689 L3.92380411,2.88721626 C3.51719805,2.48705574 3.08128833,2.58802292 2.90316941,3.09398778 C2.14942914,5.23553395 2.84411861,8.38840078 5.29368104,10.3986256 C6.06514299,11.0317881 7.1327047,11.4012478 8.4198433,11.5274989 C9.38459675,11.6220169 10.3642294,11.5828133 11.3448658,11.3843608 C11.4316157,11.3481792 11.5253847,11.3266441 11.6223901,11.3220577 C13.1927116,10.9576567 14.7620493,10.1770581 16.2736592,8.87732686 L16.7336575,8.46324819 L17.0230281,8.17642393 C17.8514473,7.3371616 18.8525283,6.70693846 19.9957692,6.70693846 C21.0348811,6.70693846 21.9570471,7.22796796 22.7383485,7.95306736 L23.3370839,8.53770314 C24.9646511,10.0421156 26.6655409,10.9262289 28.3673024,11.3234935 C28.4618614,11.3262835 28.5530507,11.3465674 28.6379926,11.3805792 C29.6211294,11.5825712 30.6038493,11.6223199 31.5715825,11.52751 C32.8587145,11.4012318 33.9264712,11.031726 34.6978898,10.398599 C37.1473211,8.38848182 37.8418795,5.23587533 37.0883881,3.09404187 C36.9264615,2.63407284 36.5513411,2.50878684 36.1791769,2.79036738 L36.0678324,2.88711973 C35.8575131,3.09417341 35.5650931,3.16675217 35.2972127,3.1056904 C36.4991304,4.40107212 36.2939301,6.64123813 34.9056375,8.30132134 C33.4237347,10.0725857 31.0533375,10.634235 29.5687523,9.39212555 C28.0837525,8.14999235 28.2178732,5.71751553 29.699783,3.94624276 C31.0807579,2.29561388 33.2333231,1.6954445 34.7215572,2.62655155 C34.5850804,2.3206735 34.645144,1.94892262 34.8985778,1.69942386 C36.1752822,0.442542792 38.0769355,0.882976517 38.660543,2.54077267 Z M19.9956212,29.352159 L19.9559081,29.4385773 C19.8156985,29.7013352 19.5388386,29.8801564 19.2202128,29.8801564 C18.5217942,29.8801564 17.869651,29.7263854 17.2790385,29.4707195 L17.190036,29.4288629 L16.8333333,29.8633333 L18.6816667,35.8766667 L19.9957128,35.8780641 L21.3083333,35.8766667 L23.1566667,29.865 L22.8022339,29.4308883 C22.7729673,29.4441829 22.7430252,29.457469 22.7124153,29.4707195 C22.1218029,29.7263854 21.4696596,29.8801564 20.771241,29.8801564 C20.4187858,29.8801564 20.1174361,29.6613475 19.9956212,29.352159 Z M19.9957692,8.37360513 C19.4273543,8.37360513 18.7482206,8.80114874 18.2091557,9.34726947 L17.8812943,9.67187335 L17.7857505,9.76160968 C16.4159929,11.0277205 14.986049,11.9128227 13.536503,12.4737316 C13.622222,12.572085 13.707377,12.6806554 13.7916111,12.7971167 C14.5206798,13.8051214 15.0327043,15.2447778 15.2647387,17.1810986 L15.3168778,17.6755637 C15.350723,18.0461963 15.4024507,18.3642015 15.4794697,18.6545898 C15.7607252,19.7147928 16.2373548,20.7443636 16.9443755,21.5523872 C17.1068476,21.7380696 17.1786856,21.986203 17.1405438,22.2299659 L17.0771654,22.7321723 L17.0584632,22.9145727 C16.9718984,23.7997831 16.9443763,24.7152229 17.0103665,25.5579913 C17.0858766,26.5223394 17.2802788,27.2852271 17.5816975,27.7599656 L17.6071165,27.7749619 C17.6893975,27.8226713 17.8021819,27.8810574 17.9411371,27.9412087 C18.3347955,28.1116166 18.7668397,28.2134897 19.2202128,28.2134897 C19.572668,28.2134897 19.8740177,28.4322986 19.9958326,28.7414872 C20.1174361,28.4322986 20.4187858,28.2134897 20.771241,28.2134897 C21.2246141,28.2134897 21.6566584,28.1116166 22.0503167,27.9412087 C22.2038292,27.8747559 22.3254001,27.8104573 22.4091878,27.7603293 L22.3356188,27.8679877 C22.6794171,27.4056064 22.8995564,26.5992333 22.9810873,25.5579913 C23.0338795,24.8837765 23.0268238,24.1630522 22.9775686,23.4485032 L22.9329906,22.9145727 C22.901597,22.5935422 22.8705901,22.3557408 22.85091,22.2299659 C22.8127682,21.986203 22.8846063,21.7380696 23.0470784,21.5523872 C23.754099,20.7443636 24.2307286,19.7147928 24.5119727,18.6546329 C24.5633263,18.461012 24.6034343,18.255136 24.6345008,18.0295199 L24.6745951,17.6753548 C24.8749194,15.4877181 25.4100183,13.8891218 26.1998428,12.7971167 C26.2840768,12.6806554 26.3692318,12.572085 26.4548678,12.4710517 C25.0053148,11.9127477 23.5756082,11.0277782 22.2061497,9.76194391 L21.9077497,9.47360479 C21.8694607,9.43528733 21.8281136,9.39359542 21.7823615,9.34724786 C21.2435253,8.80135882 20.5640008,8.37360513 19.9957692,8.37360513 Z M19.9957128,20.8330538 C20.4048126,20.8330538 20.7450601,21.1278458 20.81562,21.5165945 L20.8290462,21.6663872 L20.8290462,26.461259 C20.8290462,26.9214963 20.4559501,27.2945923 19.9957128,27.2945923 C19.586613,27.2945923 19.2463655,26.9998004 19.1758056,26.6110517 L19.1623795,26.461259 L19.1623795,21.6663872 C19.1623795,21.2061499 19.5354755,20.8330538 19.9957128,20.8330538 Z M33.9672602,4.13377506 C33.2830264,3.56129652 31.9258427,3.88287182 30.9780734,5.01570596 C30.0303595,6.14847382 29.9535702,7.54116125 30.6381603,8.11378904 C31.3223941,8.68626759 32.6795778,8.36469228 33.6272349,7.23199229 C34.5747867,6.09893518 34.6515814,4.70614881 33.9672602,4.13377506 Z M9.01335226,5.01570596 C8.0655829,3.88287182 6.70839919,3.56129652 6.02398583,4.13392529 C5.33969021,4.7061288 5.41654328,6.09882074 6.36407851,7.23185814 C7.31184787,8.36469228 8.66903158,8.68626759 9.35334714,8.11372061 C10.0378555,7.54116125 9.96106616,6.14847382 9.01335226,5.01570596 Z M19.9959103,3.88645385 C21.5887948,3.88645385 22.9799607,4.67274384 24.124453,5.8111049 C24.4507628,6.1356666 24.4521799,6.66330217 24.1276182,6.98961195 C23.8030565,7.31592173 23.2754209,7.31733884 22.9491111,6.99277715 C22.0868268,6.13511222 21.0571215,5.55312051 19.9959103,5.55312051 C19.0309072,5.55312051 18.0918587,6.03420489 17.281856,6.76544864 L17.0428297,6.99209562 L16.9503169,7.08432639 C16.6243835,7.40926607 16.0967466,7.40846051 15.7718069,7.08252713 C15.4829717,6.79280857 15.4515154,6.34371936 15.6770044,6.019283 L15.7736062,5.9040172 L15.8668034,5.8111049 C17.0111737,4.67286523 18.4027975,3.88645385 19.9959103,3.88645385 Z" id="Combined-Shape" fill="#437D73"></path>
    </g>
</svg>