<?xml version="1.0" encoding="UTF-8"?>
<svg width="40px" height="40px" viewBox="0 0 40 40" version="1.1" xmlns="http://www.w3.org/2000/svg" xmlns:xlink="http://www.w3.org/1999/xlink">
    <title>icon/specialty/ophthalmology</title>
    <g id="icon/specialty/ophthalmology" stroke="none" stroke-width="1" fill="none" fill-rule="evenodd">
        <path d="M19.9036515,4.33338348 C27.7746011,4.74539849 34.2285452,10.9673114 34.9291917,18.8179664 C35.0554256,20.2295726 34.9953475,21.6298677 34.7563866,22.9975308 C34.5955339,23.9188841 35.019202,24.8441387 35.8078927,25.3445846 L36.0125429,25.4605977 L38.5679498,26.7462408 C38.9790863,26.9530864 39.1446968,27.45406 38.9378511,27.8651965 C38.7539883,28.2306512 38.3377281,28.40211 37.9587415,28.2904258 L37.8188954,28.2350978 L35.2634671,26.949444 C33.6919175,26.1587295 32.8132075,24.4369814 33.1145724,22.7107837 C33.3285429,21.4861501 33.3823425,20.2321938 33.2691363,18.9662696 C32.6422362,11.9419337 26.8587842,6.36640742 19.8165247,5.99777126 C15.2787839,5.7602251 11.0187471,7.64689015 8.15278363,11.0256301 L8.13134083,11.0494912 C8.11903156,11.0629087 8.10623434,11.0759682 8.09295703,11.0886416 L8.15278363,11.0256301 C8.11782502,11.0668435 8.07972049,11.1038129 8.03912263,11.1364845 C8.02986836,11.1431824 8.02010265,11.1506716 8.01013478,11.1579688 C7.98880556,11.1744482 7.96675576,11.1890579 7.94417691,11.2025233 C7.93821547,11.2051819 7.93258384,11.2084498 7.92690002,11.2116609 C4.68877961,13.0410796 2.64447244,16.4695907 2.64447244,20.2570577 C2.64447244,23.8992648 4.53547139,27.210035 7.56044995,29.0857292 L7.85333333,29.2583333 L7.89362648,29.2775754 L8.00254182,29.3478776 L8.10826877,29.4401905 L8.15,29.49 C10.7435887,32.5419975 14.4831408,34.3849723 18.5390697,34.5275267 L19.0476483,34.5364541 C22.7219074,34.5364541 26.1752349,33.1422504 28.8041752,30.6785145 C29.9737955,29.5821666 31.6476404,29.2612119 33.0980636,29.852277 L33.3849536,29.9826908 L38.5670796,32.5822708 C38.9784576,32.7886359 39.1446533,33.2894156 38.9382882,33.7007935 C38.7548526,34.0664628 38.3387931,34.2384079 37.9596762,34.1271667 L37.8197655,34.0720021 L32.6366979,31.471949 C31.7562867,31.028902 30.6876447,31.197424 29.9439194,31.8945576 C27.0091147,34.6449372 23.1496226,36.2031207 19.0476483,36.2031207 C14.4778058,36.2031207 10.2210093,34.2685031 7.22325628,30.9562695 L6.98,30.68 L6.72547517,30.5289322 C3.3172313,28.4353705 1.13757639,24.7739513 0.986234,20.710184 L0.977805774,20.2570577 C0.977805774,15.9132964 3.2962746,11.9747782 6.97738259,9.83489797 L6.88177805,9.94751947 C10.0805029,6.17648075 14.8406272,4.06833925 19.9036515,4.33338348 Z M34.3596328,27.5874812 L34.5004542,27.6402774 L38.554575,29.5890963 C38.969376,29.7884915 39.143997,30.286396 38.9446018,30.701197 C38.7673617,31.0699091 38.3542623,31.2488492 37.9733226,31.1440201 L37.8325011,31.0912239 L33.7783804,29.142405 C33.3635793,28.9430098 33.1889584,28.4451054 33.3883536,28.0303043 C33.5655937,27.6615922 33.978693,27.4826521 34.3596328,27.5874812 Z M19.0224729,6.80987725 L19.5445699,6.82484126 C21.1974686,6.91140581 22.8049813,7.29993275 24.3029686,7.9643828 C24.7236764,8.15099276 24.9134503,8.64332111 24.7268403,9.06402895 C24.5402303,9.48473679 24.047902,9.67451062 23.6271941,9.48790067 C22.3140251,8.90542894 20.9058673,8.56508499 19.4574401,8.48922888 C17.2169103,8.37198725 14.7839242,9.06125471 12.7274105,10.3846074 C10.8800266,11.5732566 9.72607835,13.6259597 9.60356368,15.8688784 L9.59271916,16.2665249 L9.59166667,26.785 L9.75604277,26.7428121 C11.772444,26.1402952 13.358735,23.7517442 13.4777746,20.7875491 L13.4849501,20.4291601 C13.4849501,18.8095993 13.0967133,17.3855524 12.4505904,16.1660233 C12.0684674,15.4447824 11.6944939,14.9608805 11.4672057,14.7342303 C11.1413117,14.4092511 11.1405701,13.8816142 11.4655492,13.5557202 C11.7905284,13.2298261 12.3181654,13.2290845 12.6440594,13.5540637 C12.9824339,13.8914883 13.4569546,14.5054931 13.9233256,15.3857484 C14.6913595,16.8353793 15.1516168,18.5235963 15.1516168,20.4291601 C15.1516168,24.7453115 12.5092881,28.3394011 9.07383336,28.5470845 L8.75938583,28.5565617 L8.60901059,28.5431347 C8.2688446,28.4813906 8.00062142,28.2131539 7.93889453,27.8729848 L7.92547507,27.7231863 L7.92605249,16.2664829 C7.92605249,13.3114194 9.38589773,10.552756 11.825552,8.98302656 C14.0122131,7.57592483 16.5766965,6.79689616 19.0224729,6.80987725 Z M6.00193701,14.1441759 L6.00251444,26.3709213 C4.58059843,24.6836772 3.76007349,22.5269843 3.76007349,20.2571155 C3.76007349,17.9878241 4.58030971,15.8314199 6.00193701,14.1441759 L6.00193701,14.1441759 Z" id="Combined-Shape" fill="#437D73"></path>
    </g>
</svg>