<?xml version="1.0" encoding="UTF-8"?>
<svg width="40px" height="40px" viewBox="0 0 40 40" version="1.1" xmlns="http://www.w3.org/2000/svg" xmlns:xlink="http://www.w3.org/1999/xlink">
    <title>icon/specialty/orthopedics</title>
    <g id="icon/specialty/orthopedics" stroke="none" stroke-width="1" fill="none" fill-rule="evenodd">
        <path d="M15.6145221,18.9661756 C15.939959,18.6407387 16.4675965,18.6407387 16.7930334,18.9661756 L16.7930334,18.9661756 L17.34,19.5133333 L19.2805697,19.0540113 C19.8378893,18.9215809 20.3435497,19.3742069 20.3051819,19.9194955 L20.3051819,19.9194955 L20.2839711,20.0574632 L19.9795795,21.3381779 C19.8823577,21.747233 20.0041878,22.1773299 20.3011642,22.4743064 L20.3011642,22.4743064 L20.4404953,22.6305823 C20.9978207,23.3338932 20.9513922,24.3588413 20.3013932,25.0088403 L20.3013932,25.0088403 L14.1431392,31.1670943 C13.9580316,31.3522019 13.9225804,31.6453328 14.0635926,31.8984783 C15.1841102,33.909543 14.7104687,36.4608695 12.8680044,37.9368351 C11.13838,39.3220198 8.62237688,39.3082014 6.90517695,37.9059217 C5.94751154,37.1238105 5.3562321,36.0384591 5.19583323,34.8685873 L5.19583323,34.8685873 L5.18333333,34.76 L5.07699049,34.7497503 C4.01347804,34.6038845 3.01989429,34.1018669 2.2603448,33.2921958 L2.2603448,33.2921958 L2.03966508,33.0401133 C0.637401245,31.3229328 0.623582006,28.8068891 2.00874037,27.0776513 C3.48426425,25.2349654 6.03557961,24.7614305 8.04721623,25.882065 C8.29995607,26.0229236 8.59331943,25.9873783 8.77851684,25.8021809 L8.77851684,25.8021809 Z M16.2033333,20.7333333 L9.95702814,26.9806922 C9.23623762,27.7014827 8.12894465,27.8356477 7.23598112,27.3379755 L7.23598112,27.3379755 L7.00192992,27.220218 C5.736547,26.6492045 4.21554611,26.9881675 3.30962699,28.1195111 C2.41622328,29.2348402 2.42524423,30.8772697 3.33056454,31.9859045 C3.98038999,32.781591 4.94248357,33.1864564 5.93853068,33.120531 C6.44130297,33.087254 6.85836424,33.5043218 6.82507927,34.0070936 C6.75913925,35.0031225 7.16392527,35.9653813 7.95938583,36.6150222 C9.06806136,37.5203758 10.7105318,37.5293967 11.8260764,36.6360031 C13.0279791,35.6731801 13.3355985,34.0161515 12.6076245,32.70961 L12.6076245,32.70961 L12.5039752,32.4999328 C12.1340561,31.6482449 12.2993001,30.6539108 12.9646279,29.988583 L12.9646279,29.988583 L19.1228819,23.830329 C19.1719306,23.7812803 19.1719306,23.7020574 19.1228819,23.6530467 C18.4165948,22.9467596 18.1270844,21.9247001 18.3580818,20.9527908 L18.3580818,20.9527908 L18.35,20.9866667 L17.2741023,21.2438617 C17.0395899,21.2995866 16.7949751,21.2506507 16.6015882,21.1144279 L16.6015882,21.1144279 L16.4921941,21.0223588 L16.2033333,20.7333333 Z M27.3422917,1.81171506 C29.056419,0.62861596 31.4086721,0.707501053 33.0398803,2.03955919 C33.9977987,2.82165882 34.5891679,3.90701144 34.7495939,5.07705825 L34.7495939,5.07705825 L34.76,5.18333333 L34.8686118,5.19607625 C35.932293,5.34192088 36.9259868,5.8439264 37.6855123,6.65374418 L37.6855123,6.65374418 L37.9061808,6.90587553 C39.3079647,8.62325537 39.3215727,11.1388651 37.9366369,12.8682665 C36.4608132,14.7108976 33.909819,15.1843923 31.8982203,14.0637789 C31.6453209,13.9228314 31.3519891,13.9583026 31.1669197,14.1433721 L31.1669197,14.1433721 L24.3309144,20.9793773 C24.0055157,21.304776 23.4779537,21.3048198 23.152501,20.9794752 L23.152501,20.9794752 L22.2765751,20.1038403 C22.0719867,19.8993199 21.9881016,19.6033292 22.0549637,19.3218786 L22.0549637,19.3218786 L22.3083333,18.245 L21.9669771,18.3273049 C21.3120373,18.4825654 20.6271319,18.326336 20.1070172,17.9137023 L20.1070172,17.9137023 L19.9200791,17.7470533 C19.0674146,16.8948596 19.0674146,15.5128706 19.9199163,14.6608396 L19.9199163,14.6608396 L25.8022973,8.77845863 C25.9874049,8.59335098 26.0228561,8.30022007 25.8818439,8.04707461 C24.7612991,6.03596101 25.2347124,3.48494585 27.0770525,2.00907982 L27.0770525,2.00907982 Z M31.9857597,3.33053068 C30.8771793,2.42525475 29.2347094,2.41637062 28.1189806,3.30991177 C26.9172384,4.27260612 26.6097892,5.92931378 27.337812,7.23594287 L27.337812,7.23594287 L27.4414613,7.4456201 C27.8113804,8.29730799 27.6461364,9.2916421 26.9808086,9.95696994 L26.9808086,9.95696994 L21.0982649,15.8395136 C20.8969082,16.0407591 20.8969082,16.3669711 21.0984276,16.5683793 C21.2250392,16.6949909 21.4082226,16.7469056 21.5820893,16.7056888 L21.5820893,16.7056888 L23.2414015,16.3113766 C23.8451303,16.1679089 24.3882608,16.7110016 24.2448352,17.3147405 L24.2448352,17.3147405 L23.8083333,19.1433333 L29.9884084,12.9648608 C30.6537454,12.2995238 31.6484024,12.1342538 32.4998504,12.5042088 L32.4998504,12.5042088 L32.943502,12.725625 C34.2088501,13.2966352 35.7296591,12.9577017 36.6357446,11.8264139 C37.529029,10.710949 37.5201451,9.06866827 36.6150909,7.95985123 C35.965446,7.16416384 35.0032485,6.75936796 34.0069058,6.82531295 C33.5041388,6.85858961 33.0870797,6.44153049 33.1203564,5.93876348 C33.1863013,4.9424208 32.7815055,3.98022329 31.9857597,3.33053068 Z" id="Combined-Shape" fill="#437D73"></path>
    </g>
</svg>