<?xml version="1.0" encoding="UTF-8"?>
<svg width="40px" height="40px" viewBox="0 0 40 40" version="1.1" xmlns="http://www.w3.org/2000/svg" xmlns:xlink="http://www.w3.org/1999/xlink">
    <title>icon/specialty/primarycare</title>
    <g id="icon/specialty/primarycare" stroke="none" stroke-width="1" fill="none" fill-rule="evenodd">
        <path d="M20.0338148,0.97889418 C22.7832663,0.97889418 24.8806085,2.19652122 26.3683069,4.19516164 C27.2471067,5.37578051 27.7385949,6.5507111 27.9344643,7.32304614 C28.0309367,7.62952185 28.11307,7.95163958 28.182002,8.2876461 C28.3896624,9.29987952 28.4667988,10.3412093 28.4628926,11.2886169 L28.4592572,11.4939122 C29.33507,12.0550975 29.8704735,13.1879515 29.8704735,14.4555344 C29.8704735,15.8912631 29.1794634,17.1465369 28.1119208,17.6016772 L28.0183333,17.635 L27.872124,18.0800484 C27.3323737,19.5856662 26.4859415,20.913798 25.4019845,21.9501028 L25.09,22.2316667 L25.2844731,23.8998921 C25.2886173,23.9355327 25.2984221,23.96984 25.3132414,24.0017051 C25.3167662,24.010073 25.3208747,24.0179801 25.3252998,24.0257153 L25.3132414,24.0017051 C25.3208982,24.0181692 25.3298937,24.0339813 25.3401388,24.0489884 L25.3252998,24.0257153 C25.3505599,24.0698707 25.3861352,24.1084262 25.4302206,24.1381065 L25.4739106,24.1628613 L25.5217853,24.1808618 L28.8377358,25.1438942 L30.8024811,25.7157688 C30.9694578,25.7525079 31.1361599,25.7992908 31.3023778,25.8559056 C31.9570169,26.0779013 32.6116759,26.4585411 33.2477841,26.9818961 C33.5533616,27.2343545 33.8354997,27.5115431 34.0920235,27.8105033 C34.1974402,27.9336257 34.2992416,28.060834 34.396483,28.1915147 C34.4204512,28.2239638 34.4443865,28.2567858 34.468038,28.2898227 C34.9732935,28.9938892 35.3482691,29.7947619 35.570263,30.66127 L35.6057358,30.8218942 L35.6617512,31.0649706 L36.5117777,38.1369811 C36.5199374,38.2048686 36.5196915,38.2718292 36.511859,38.33682 C36.4674783,38.7041611 36.1809178,39.0085336 35.7998981,39.0617643 C35.7940683,39.062531 35.7889658,39.0631915 35.7838469,39.0638068 C35.488446,39.0993127 35.2105952,38.975664 35.0362178,38.7603448 L34.975728,38.6754931 C34.9389364,38.6161975 34.9092832,38.5516997 34.8881109,38.4830543 L34.8569049,38.3359342 L34.0168617,31.3266796 C33.892863,30.7068356 33.6574943,30.1146393 33.3282391,29.580106 C33.2043876,29.3785676 33.0668295,29.1855855 32.916706,29.0021374 C32.8460137,28.9150458 32.7723433,28.83039 32.6959898,28.748073 C32.5369391,28.5779142 32.3663479,28.4168108 32.1848796,28.2670029 C32.0803202,28.1806735 31.9760303,28.1000165 31.8718647,28.0249641 C31.7309737,27.9232383 31.5900704,27.8319497 31.4494312,27.7508785 C31.2014491,27.6080038 30.9530781,27.4963325 30.7023344,27.4150245 L30.4094739,27.3356726 L30.4027358,27.3328942 L30.3910929,27.3299306 L25.7207358,25.9738942 L23.850928,27.6493815 C21.7650898,29.5171206 18.6509613,29.5918302 16.4822169,27.8734741 L16.2161905,27.6493407 L14.3447358,25.9738942 L9.62298423,27.3434852 C9.06922289,27.4653779 8.48031,27.7735557 7.88261774,28.2670401 C7.03197203,28.9692752 6.42031826,29.9197641 6.14124291,30.9265183 L6.06066389,31.2639236 L5.21063744,38.3359342 C5.15571413,38.7928826 4.74076017,39.1187883 4.28381182,39.063865 C3.87763551,39.0150442 3.57499907,38.6817549 3.55133545,38.2873638 L3.55588108,38.1370393 L4.41589077,31.0022728 C4.72743167,29.4323185 5.5805003,28.0062985 6.82152776,26.9817907 C7.49912096,26.4223362 8.20060697,26.0259818 8.87615436,25.8176927 L9.21153581,25.7293358 L14.5456191,24.1809939 C14.578825,24.1713401 14.6101056,24.156691 14.6386159,24.1374631 C14.6922506,24.1013012 14.7335838,24.0506822 14.7584824,23.9925536 L14.7829876,23.9005969 L14.975,22.2316667 L14.6653351,21.9500663 C13.5815632,20.9137846 12.7351562,19.5856937 12.1952622,18.0801256 L12.045,17.6333333 L11.9554125,17.601663 C10.9591836,17.1768439 10.2908692,16.0550128 10.2061883,14.7400781 L10.1970688,14.4555344 C10.1970688,13.1879515 10.7324723,12.0550975 11.6082851,11.4939122 L11.6166339,11.8444229 C11.5750809,10.7584961 11.6362447,9.50211786 11.8853473,8.28767301 C11.9542695,7.95165761 12.036399,7.6295309 12.1203198,7.36712774 C12.3287448,6.55070701 12.8202446,5.37577233 13.6990762,4.19515078 C15.186822,2.19651457 17.2842449,0.97889418 20.0338148,0.97889418 Z M27.1346088,2.0312105 L27.2842331,2.0463982 C29.6760997,2.50776952 31.3747253,3.84553456 32.4571563,5.75856194 C32.928786,6.59209359 33.2507394,7.47828488 33.45287,8.36371043 C33.5342715,8.72028687 33.5862173,9.0273319 33.6152075,9.25584669 L33.6422887,9.53609633 C33.6660859,9.74346772 33.6824693,9.95642475 33.69186,10.1745567 C33.7320019,11.1069936 33.6458888,12.0908856 33.4783907,13.0621914 C33.4451332,13.2550484 33.4117523,13.4305715 33.3799167,13.5859576 C34.1069845,14.2848758 34.4055234,15.4612701 34.173311,16.6663459 C33.9083148,18.0394226 33.0149468,19.1136042 31.9066792,19.3521531 L31.825,19.365 L31.8181973,19.3821384 C31.4108837,20.1354838 30.9219344,20.8262345 30.364027,21.4370457 L30.021109,21.793801 L29.8644409,21.9423786 C29.8188094,21.992847 29.8488805,22.0038488 29.9881143,22.0453415 L30.2097344,22.1142455 L31.3387209,22.4896044 C36.1569053,24.0907548 38.7218214,26.4757337 39.025156,31.1640936 L39.0498143,31.6665656 L39.086084,32.0136377 C39.1221606,32.4724589 38.7794585,32.8736528 38.3206374,32.9097295 C37.9127964,32.9417976 37.550488,32.6745838 37.4496723,32.2925623 L37.4215802,32.1104427 L37.3864599,31.7750353 L37.3816814,31.6797349 C37.2505769,27.6499734 35.3295616,25.6620389 31.2434514,24.2186259 L30.8130116,24.0711883 L29.6839975,23.6958202 C28.1825568,23.196812 27.6979219,21.9141821 28.6966408,20.770769 L28.8494561,20.6084709 C29.5311675,19.9347328 30.1088652,19.1187642 30.5507989,18.2001885 C30.6809639,17.9296358 30.9442383,17.7536061 31.2363009,17.7306723 L31.3842482,17.7322345 C31.8219402,17.7757825 32.3663669,17.2338346 32.5367969,16.3507526 C32.6769555,15.6233933 32.4948689,15.0025558 32.1797058,14.745306 L32.0699822,14.6733749 L32.0593756,14.6681168 C32.0340321,14.6548653 32.0095602,14.6403974 31.9860152,14.6248082 L32.0699822,14.6733749 C32.033772,14.65505 31.9994764,14.6344426 31.9671816,14.6118163 C31.8502501,14.529639 31.7580289,14.4198942 31.6969254,14.2944623 C31.6887599,14.2777316 31.6811132,14.2605446 31.6740553,14.2431276 C31.6688598,14.2304411 31.664039,14.2176984 31.6595291,14.2048338 C31.6502087,14.1779137 31.6421787,14.1505268 31.6355605,14.1227801 C31.6342917,14.1180723 31.6333837,14.1141275 31.6325042,14.1101745 C31.6275306,14.0871778 31.6233035,14.0634459 31.6201071,14.0395386 C31.6185853,14.0291969 31.6173699,14.0185193 31.6163618,14.0078014 C31.6143768,13.9855335 31.6131711,13.9635174 31.612845,13.9414333 C31.6126458,13.9296865 31.612738,13.9179403 31.6130826,13.9061668 C31.6136817,13.8838822 31.6152287,13.8612023 31.6177229,13.8385354 C31.6193821,13.8247369 31.6212035,13.811392 31.6233586,13.7980381 C31.6266894,13.7761575 31.6312059,13.7538001 31.6366785,13.7315412 C31.6381722,13.7262285 31.6394455,13.7212435 31.6407668,13.71626 C31.6875693,13.5397427 31.7613777,13.2114923 31.8359661,12.7789613 C31.9848644,11.9155136 32.0611001,11.0444772 32.0267356,10.2462411 L32.0025479,9.8817858 L31.9601493,9.45592392 C31.9366288,9.27316284 31.894797,9.02722369 31.8280052,8.7346448 C31.6596525,7.99718201 31.3920104,7.26048495 31.0065934,6.57932082 C30.1528902,5.07053401 28.8523172,4.04625819 26.9685658,3.6828981 C26.5166588,3.59572897 26.2209804,3.15872146 26.3081495,2.70681449 C26.3856332,2.30511941 26.7395324,2.02686414 27.1346088,2.0312105 Z M13.759569,2.70682277 C13.8467336,3.15873062 13.5510507,3.59573515 13.0991428,3.6828997 C11.2152689,4.04626364 9.91461911,5.07054621 9.06087209,6.57933613 C8.67543735,7.26049815 8.40778392,7.99719229 8.23942512,8.73465197 C8.1592722,9.08574468 8.11506318,9.3696762 8.09328032,9.5811619 L8.08093688,9.72611002 C8.06177553,9.89308404 8.04842072,10.0666749 8.0406903,10.2462411 C8.00632583,11.0444772 8.08256148,11.9155136 8.23145984,12.7789613 L8.31891306,13.2449068 C8.36077401,13.4498153 8.39857765,13.6103496 8.42665911,13.71626 L8.43342971,13.7427893 C8.43767051,13.7611401 8.44126531,13.7795516 8.44422396,13.7979937 L8.42665911,13.71626 C8.43742257,13.7568548 8.44499709,13.7975444 8.44953701,13.8380632 C8.45246259,13.863474 8.45408417,13.888927 8.45453857,13.9143184 C8.4547169,13.9232476 8.45474487,13.9323332 8.454624,13.9413985 C8.45358109,14.008635 8.44445969,14.0751141 8.42769324,14.1395075 C8.41070777,14.2051809 8.385615,14.2684022 8.35338434,14.3276946 C8.35184668,14.3306823 8.35039028,14.3333314 8.34891922,14.335973 C8.33330785,14.3637798 8.3161012,14.3908504 8.29738086,14.4168737 C8.29065162,14.4264979 8.28332805,14.4362369 8.27578042,14.4458251 C8.26200228,14.4630855 8.24768275,14.4798718 8.2326932,14.4960907 C8.22275042,14.5070033 8.21252226,14.517479 8.20198981,14.5277051 C8.18242881,14.5466144 8.16237221,14.564323 8.1414204,14.5810793 C8.13571274,14.5855697 8.13040315,14.5896925 8.12503383,14.5937577 C8.08705888,14.6225088 8.04867441,14.6468754 8.00805029,14.6681168 L7.99744376,14.6733749 C7.61699901,14.865907 7.37489721,15.5425756 7.53058351,16.3505165 C7.68686159,17.1602705 8.15736823,17.6831054 8.57205893,17.7310666 L8.68349451,17.7322319 C9.03211166,17.6975573 9.36519057,17.8846282 9.51700259,18.2003644 C9.88477726,18.9652563 10.3473189,19.6594776 10.8858561,20.2597476 L11.2179478,20.6084492 C12.3593205,21.7363888 11.9946229,23.0477101 10.591043,23.6192719 L10.3835148,23.6957915 L9.25430022,24.0712262 C5.01853727,25.4788298 2.96069998,27.379359 2.70574268,31.2689742 L2.68111249,31.7745311 L2.64288028,32.1442829 C2.60680361,32.603104 2.20560968,32.9458061 1.74678854,32.9097295 C1.2879674,32.8736528 0.945265284,32.4724589 0.981341946,32.0136377 L1.01764888,31.6672634 L1.0199592,31.6255402 C1.17739228,26.7865165 3.59665988,24.3003541 8.26935987,22.6470869 L8.72859101,22.4896424 L9.85777791,22.1142168 C10.3216584,21.9600448 10.2952798,22.0398338 10.0462956,21.7937799 C9.46113946,21.2152421 8.94247053,20.553496 8.50317507,19.8260074 L8.24,19.365 L8.16091904,19.3521503 C7.12641107,19.1295029 6.27918914,18.1789405 5.95533376,16.9366266 L5.89406936,16.6661098 C5.66189412,15.4612265 5.96043988,14.2848678 6.68722794,13.5838311 C6.65570793,13.4307516 6.62230981,13.2551474 6.58903526,13.0621914 C6.42153716,12.0908856 6.33542407,11.1069936 6.37556595,10.1745567 L6.40262194,9.75879448 L6.45104551,9.26932443 C6.48121054,9.02732797 6.53315844,8.72028133 6.61456364,8.36370325 C6.81670311,7.47827459 7.13867243,6.59208039 7.61032655,5.75854662 C8.6928091,3.84552236 10.3915152,2.50776407 12.7834921,2.0463966 C13.2353999,1.95923205 13.6724045,2.25491492 13.759569,2.70682277 Z M20.0338148,2.64556085 C17.852482,2.64556085 16.228511,3.58832737 15.0360071,5.190336 C14.6104509,5.76202783 14.2721319,6.37856038 14.0143902,6.9946942 L13.8598201,7.3903615 C13.8386123,7.44920866 13.819566,7.50449677 13.8025082,7.5562103 L13.7226389,7.82347238 C13.6440056,8.07327641 13.5758919,8.34043027 13.5180222,8.6225614 C13.3366483,9.50681028 13.2681065,10.4411753 13.2716393,11.2858042 L13.2906036,11.9561823 L13.291887,11.9752849 C13.2924969,11.9883578 13.2927948,12.0014025 13.2927857,12.0144098 L13.2906036,11.9561823 C13.2934444,11.9974464 13.2932306,12.0382153 13.2901551,12.0782677 C13.2885237,12.1004291 13.2859795,12.121871 13.2826182,12.1431202 C13.2809764,12.1535254 13.2790893,12.1642177 13.2769988,12.1748426 C13.2726451,12.1966066 13.2675312,12.2178985 13.2616018,12.2389192 C13.2584171,12.2506607 13.2548645,12.2623043 13.2510654,12.2738419 C13.2445289,12.2932269 13.2373674,12.3125153 13.2295134,12.3314995 C13.2235228,12.3463394 13.2172485,12.3603529 13.2106028,12.374162 C13.2023252,12.3910972 13.1933856,12.4081863 13.1838675,12.4249481 C13.1770077,12.4371852 13.1697371,12.449241 13.1621727,12.4610975 C13.1527559,12.4758069 13.1429976,12.4901356 13.1327964,12.5041575 C13.1234858,12.5168867 13.113954,12.5292116 13.1040882,12.5412597 C13.0928563,12.5551055 13.0813981,12.5682546 13.0695199,12.5810497 C13.0525816,12.5991006 13.0347636,12.6166367 13.0161772,12.6333573 C13.0106853,12.6384986 13.0052562,12.6432533 12.9997603,12.6479408 C12.9832665,12.661828 12.9660295,12.6754154 12.9482508,12.6883229 C12.9351248,12.697969 12.9219175,12.7069633 12.908413,12.7155944 C12.8437252,12.7570467 12.7722072,12.7901106 12.6958738,12.8126335 L12.6879866,12.814741 C12.2494527,12.9399264 11.8637354,13.5920276 11.8637354,14.4555344 C11.8637354,15.3210083 12.2473651,15.9572461 12.6734092,16.0904151 L12.7903984,16.1140554 C13.1392651,16.1459834 13.4309138,16.3926937 13.5202388,16.7314391 C14.0097948,18.5879715 15.0171128,20.1701804 16.3670109,21.2205092 C16.5583783,21.3694084 16.6734788,21.5925007 16.6872239,21.8300013 L16.6831076,21.9737523 L16.4385815,24.0923936 C16.3913059,24.4989642 16.2211372,24.8768831 15.9567306,25.1788589 L17.3279476,26.4076589 C18.7914008,27.7176799 20.9681183,27.783181 22.5023989,26.6042381 L22.7391173,26.4077476 L24.1107852,25.1788003 C23.9667717,25.0143004 23.8507172,24.8272564 23.7672417,24.6252713 L23.7095789,24.4690296 C23.6926227,24.4158772 23.6778553,24.3618871 23.6653535,24.3071854 L23.6285307,24.0929317 L23.3814672,21.9749952 C23.3459163,21.6702369 23.4795564,21.384734 23.7080481,21.2124604 L23.7003024,21.220461 C25.0504341,20.1701545 26.0577137,18.5880061 26.546984,16.7315472 C26.6235202,16.4411428 26.8487516,16.2183591 27.1312675,16.1405302 L27.2768759,16.1140533 C27.7472416,16.071019 28.2038069,15.3997355 28.2038069,14.4555344 C28.2038069,13.6705282 27.8850323,13.0602374 27.4975963,12.8617095 L27.3795558,12.814741 L27.3679035,12.8114868 C27.3439507,12.8042927 27.3204766,12.7960591 27.2975294,12.7868416 L27.3795558,12.814741 C27.3395923,12.8033329 27.3011472,12.7891944 27.2643652,12.7725857 C27.2498925,12.7661151 27.2355286,12.7590959 27.2214111,12.7516863 C27.2003421,12.7406632 27.180051,12.7289146 27.1603876,12.716397 C27.1530444,12.7115859 27.1453583,12.7065017 27.1377649,12.701296 C27.1177216,12.687748 27.0987696,12.6735308 27.0805199,12.6585865 C27.0715338,12.6509634 27.0624961,12.6432295 27.0536317,12.6353108 C27.035973,12.6198253 27.0190658,12.603375 27.002917,12.5862769 C26.9964148,12.5791137 26.9903998,12.5725344 26.9844914,12.565861 C26.9684117,12.547942 26.9530337,12.5289357 26.9385292,12.5093161 C26.9318544,12.5001507 26.925224,12.4908117 26.9187851,12.4813361 C26.908432,12.4661535 26.8987538,12.4508168 26.8895836,12.4351851 C26.8808691,12.4203881 26.8723987,12.4049001 26.8644175,12.3891332 C26.8575866,12.3755062 26.8511498,12.3618613 26.8450835,12.3480459 C26.8373109,12.3305238 26.8301978,12.312689 26.8236975,12.2945769 C26.8224737,12.2909807 26.8211549,12.2872288 26.8198627,12.2834667 L26.7987628,12.2117083 C26.7983633,12.2100753 26.7979686,12.2084406 26.7975788,12.206804 C26.791228,12.1802873 26.786216,12.1536925 26.7825101,12.1268097 C26.7817409,12.120219 26.7809008,12.113442 26.7801434,12.1066425 C26.7746172,12.0571328 26.7734404,12.0107515 26.7762563,11.9640441 L26.7770192,11.9562817 C26.7787226,11.932239 26.7821474,11.8691267 26.7855058,11.7811973 C26.8223151,10.8174344 26.7670758,9.68394298 26.5493381,8.62258831 C26.5107506,8.43449497 26.4676121,8.25305815 26.4161212,8.06591962 L26.3321452,7.77939078 C26.2957187,7.63670492 26.2056799,7.3597967 26.0529507,6.99468869 C25.7952133,6.37855276 25.4569026,5.7620183 25.0313598,5.19032513 C23.8388995,3.58832071 22.2150114,2.64556085 20.0338148,2.64556085 Z" id="Combined-Shape" fill="#437D73"></path>
    </g>
</svg>