<svg width="352" height="185" viewBox="0 0 352 185" fill="none" xmlns="http://www.w3.org/2000/svg">
<path d="M125.638 0C126.848 7.57 130.778 14.26 132.638 21.61C133.068 23.28 134.638 25.45 132.108 26.3C129.578 27.15 129.348 24.42 128.778 22.9C126.598 17.02 124.658 11.05 122.508 5.15001C121.858 3.35001 121.378 1.69 122.618 0H125.638Z" fill="#00A5DF"/>
<path d="M311.354 162.82C299.584 162.82 287.814 162.82 276.044 162.77C274.314 162.77 271.404 163.94 271.244 160.93C271.084 157.73 274.074 158.84 275.774 158.83C299.474 158.763 323.178 158.763 346.884 158.83C347.384 158.83 347.884 158.83 348.384 158.83C349.864 158.9 351.634 158.73 351.524 160.95C351.414 163.17 349.584 162.84 348.154 162.84C337.548 162.84 326.938 162.84 316.324 162.84L311.354 162.82Z" fill="#00A5DF"/>
<path d="M292.152 148.87C300.932 148.87 309.722 148.87 318.502 148.87C320.112 148.87 322.652 148.05 322.592 150.97C322.592 153.47 320.272 152.84 318.752 152.84C300.858 152.88 282.965 152.88 265.072 152.84C263.562 152.84 261.292 153.47 261.232 150.98C261.162 148.06 263.692 148.88 265.312 148.87C274.262 148.82 283.202 148.87 292.152 148.87Z" fill="#00A5DF"/>
<path d="M61.2326 162.027C54.2326 162.027 47.3226 162.027 40.3626 162.027C38.7826 162.027 36.6726 162.387 36.8726 159.787C37.0426 157.617 38.9526 158.037 40.3526 158.027C54.5926 158.027 68.8359 158.027 83.0826 158.027C84.5226 158.027 86.3326 157.787 86.3426 160.027C86.3526 162.267 84.5426 162.027 83.0926 162.027C75.8126 162.037 68.5226 162.017 61.2326 162.027Z" fill="#00A5DF"/>
<path d="M24.4628 171.936C17.4628 171.936 10.5528 171.936 3.59284 171.936C2.05284 171.936 -0.0872522 172.396 0.00274782 169.796C0.0827478 167.586 2.00276 167.936 3.39276 167.936C17.6328 167.936 31.8762 167.936 46.1229 167.936C47.5429 167.936 49.4228 167.626 49.4628 169.836C49.4628 172.436 47.3628 171.916 45.8228 171.926C38.7028 171.996 31.5828 171.936 24.4628 171.936Z" fill="#00A5DF"/>
<path d="M98.922 167.936L102.602 171.866C88.3621 171.866 74.122 171.966 59.892 171.936C58.282 171.936 55.672 172.736 55.892 169.816C56.112 166.896 58.612 167.986 60.222 167.976C73.092 167.936 86.012 167.936 98.922 167.936Z" fill="#00A5DF"/>
<path d="M115.189 40.8199C110.799 39.2599 105.509 37.4099 100.189 35.4999C98.1888 34.7699 96.1888 33.9399 94.1888 33.0699C92.9988 32.5499 91.4588 31.9999 92.1888 30.2699C92.7988 28.7599 94.1888 28.8099 95.5588 29.3299C100.559 31.1699 105.489 32.9699 110.449 34.7799C112.619 35.5699 114.819 36.2999 116.959 37.1599C117.444 37.3041 117.86 37.6203 118.129 38.0492C118.398 38.4782 118.501 38.9904 118.419 39.4899C118.279 40.7099 117.209 40.7599 115.189 40.8199Z" fill="#00A5DF"/>
<path d="M107.728 12.8999C108.433 13.3805 109.101 13.9119 109.728 14.4899C114.458 19.4899 119.888 23.8899 123.918 29.5699C124.648 30.5699 126.128 31.4399 124.808 32.8899C123.488 34.3399 122.418 33.1799 121.508 32.2299C116.638 27.1199 111.168 22.5599 106.988 16.7899C106.418 15.9999 105.508 15.3099 106.158 14.2199C106.618 13.7096 107.147 13.2654 107.728 12.8999V12.8999Z" fill="#00A5DF"/>
<path d="M58.1538 93.1424C58.647 93.3657 59.0971 93.6737 59.4838 94.0524C61.3838 96.4824 63.2038 97.0524 65.2838 94.2124C65.9638 93.2924 67.1238 92.4524 68.2838 93.4524C69.4438 94.4524 68.7239 95.6824 67.8239 96.4524C65.4239 98.3924 64.8239 100.172 67.6639 102.252C68.5939 102.932 69.4339 104.082 68.4339 105.252C67.4339 106.422 66.1939 105.692 65.4339 104.792C63.4839 102.392 61.7038 101.792 59.6138 104.642C58.9338 105.562 57.7838 106.402 56.6138 105.402C55.4438 104.402 56.1439 103.132 57.0739 102.402C60.0739 100.172 59.4838 98.2524 56.8838 96.2424C56.5424 95.996 56.2904 95.6451 56.1659 95.2428C56.0415 94.8405 56.0513 94.4087 56.1939 94.0124C56.5239 93.2724 57.0938 93.0224 58.1538 93.1424Z" fill="#C1E4ED"/>
<path d="M261.154 0.142427C261.647 0.365682 262.097 0.67368 262.484 1.05243C264.384 3.48243 266.204 4.05243 268.284 1.21243C268.964 0.292428 270.124 -0.547572 271.284 0.452428C272.444 1.45243 271.724 2.68243 270.824 3.45243C268.424 5.39243 267.824 7.17243 270.664 9.25243C271.594 9.93243 272.434 11.0824 271.434 12.2524C270.434 13.4224 269.194 12.6924 268.434 11.7924C266.484 9.39243 264.704 8.79243 262.614 11.6424C261.934 12.5624 260.784 13.4024 259.614 12.4024C258.444 11.4024 259.144 10.1324 260.074 9.40243C263.074 7.17243 262.484 5.25243 259.884 3.24243C259.542 2.99597 259.29 2.64511 259.166 2.24282C259.041 1.84053 259.051 1.40866 259.194 1.01243C259.524 0.272428 260.094 0.0224273 261.154 0.142427Z" fill="#00A5DF"/>
<path d="M294.154 102.142C294.647 102.366 295.097 102.674 295.484 103.052C297.384 105.482 299.204 106.052 301.284 103.212C301.964 102.292 303.124 101.452 304.284 102.452C305.444 103.452 304.724 104.682 303.824 105.452C301.424 107.392 300.824 109.172 303.664 111.252C304.594 111.932 305.434 113.082 304.434 114.252C303.434 115.422 302.194 114.692 301.434 113.792C299.484 111.392 297.704 110.792 295.614 113.642C294.934 114.562 293.784 115.402 292.614 114.402C291.444 113.402 292.144 112.132 293.074 111.402C296.074 109.172 295.484 107.252 292.884 105.242C292.542 104.996 292.29 104.645 292.166 104.243C292.041 103.841 292.051 103.409 292.194 103.012C292.524 102.272 293.094 102.022 294.154 102.142Z" fill="#C1E4ED"/>
<path d="M258.913 158.63C260.913 159.53 264.563 157.36 264.653 160.63C264.753 164.54 260.853 162.72 258.853 162.63C256.643 162.63 252.423 164.63 252.473 160.72C252.523 156.81 256.813 159.72 258.913 158.63Z" fill="#00A5DF"/>
<path d="M242 62H278.19C280.818 62 283.339 63.0441 285.197 64.9026C287.056 66.7611 288.1 69.2817 288.1 71.91V71.91C288.1 74.5383 287.056 77.0589 285.197 78.9174C283.339 80.7759 280.818 81.82 278.19 81.82H242V62Z" fill="#B3E4F5" fill-opacity="0.32"/>
<path d="M126.648 91.8701H113.228C110.6 91.8701 108.079 90.826 106.221 88.9675C104.362 87.1091 103.318 84.5884 103.318 81.9601C103.318 79.3318 104.362 76.8112 106.221 74.9527C108.079 73.0942 110.6 72.0501 113.228 72.0501H126.648V91.8701Z" fill="#B3E4F5" fill-opacity="0.32"/>
<path d="M95 140.146C95.4292 138.024 95.7759 135.885 96.2959 133.779C97.8449 127.5 100.879 121.696 105.136 116.867C105.334 116.603 105.511 116.324 105.665 116.031L109.47 119.591C108.719 120.56 107.968 121.488 107.258 122.449C90.9718 144.174 104.014 175.926 130.708 179.519C139.812 180.764 149.037 178.376 156.432 172.858C163.827 167.341 168.811 159.127 170.33 149.956C171.422 143.736 170.808 137.331 168.555 131.439C168.227 130.721 168.091 129.927 168.16 129.138C168.23 128.349 168.502 127.593 168.951 126.944C170.42 124.638 171.733 122.231 173.293 119.574C170.437 120.142 167.911 120.602 165.41 121.162C164.728 121.353 164.005 121.339 163.331 121.121C162.656 120.902 162.059 120.49 161.613 119.934C155.838 113.461 147.919 109.355 139.356 108.393C130.793 107.431 122.178 109.679 115.141 114.711C114.885 114.895 114.612 115.062 114.2 115.338L111.179 111.26C114.178 108.808 117.578 106.905 121.224 105.637C137.282 100.139 151.534 103.239 163.982 114.937C164.26 115.274 164.628 115.523 165.043 115.653C165.457 115.784 165.9 115.79 166.318 115.672C170.008 114.837 173.747 114.135 177.445 113.383C178.65 113.14 179.781 113.249 180.54 114.377C181.3 115.505 181.027 116.566 180.383 117.661C178.237 121.262 176.091 124.863 174.036 128.523C173.683 129.186 173.592 129.959 173.78 130.687C175.646 136.213 176.325 142.079 175.771 147.891C175.218 153.704 173.444 159.33 170.569 164.393C167.694 169.456 163.784 173.839 159.1 177.249C154.417 180.658 149.068 183.016 143.412 184.164C141.926 184.474 140.432 184.708 138.946 185H131.988C131.723 184.874 131.447 184.776 131.162 184.708C123.142 183.86 115.558 180.588 109.399 175.319C103.24 170.049 98.7891 163.026 96.6261 155.162C95.9327 152.655 95.5612 150.09 95.0412 147.558L95 140.146Z" fill="#00A5DF"/>
<path d="M180.928 42.1686H191.089C191.089 41.2798 191.089 40.3992 191.089 39.527C191.099 38.5343 191.305 37.5534 191.695 36.6404C192.084 35.7274 192.649 34.9001 193.358 34.2059C194.066 33.5116 194.904 32.9639 195.824 32.5941C196.744 32.2243 197.728 32.0396 198.719 32.0506C200.715 32.0351 202.636 32.8139 204.059 34.2157C205.482 35.6176 206.291 37.5279 206.308 39.527C206.308 40.3577 206.308 41.1884 206.308 42.1022H216.485C216.485 41.2715 216.485 40.3494 216.485 39.4772C216.496 38.4823 216.703 37.4993 217.094 36.5847C217.485 35.67 218.052 34.8417 218.763 34.1471C219.475 33.4525 220.316 32.9054 221.239 32.5371C222.161 32.1687 223.148 31.9865 224.141 32.0008C226.119 31.9916 228.022 32.7616 229.439 34.1447C230.855 35.5278 231.672 37.4131 231.714 39.3941C231.714 40.2248 231.714 41.0555 231.714 42.177H236.499C242.654 42.177 247 46.5132 247 52.6688C247 88.932 247 125.206 247 161.492C247 167.639 242.654 171.992 236.516 172C215.98 172 195.44 172 174.898 172H173.405V166.916H236.184C240.025 166.916 242.131 164.598 241.841 160.545C239.087 162.148 236.11 161.816 233.173 161.816H178.44V156.732H236.151C239.983 156.732 242.098 154.397 241.791 150.343C239.154 151.93 236.276 151.631 233.439 151.631H180.978V146.647H216.477V144.753C216.477 140.242 216.477 135.74 216.477 131.229C216.472 129.901 216.728 128.586 217.232 127.358C217.736 126.13 218.476 125.014 219.412 124.074C220.348 123.134 221.46 122.388 222.684 121.879C223.908 121.371 225.221 121.11 226.546 121.111C231.1 121.111 235.67 121.111 240.207 121.111H241.866V75.4219H130.101V98.1251H125V96.4637C125 81.9374 125 67.4111 125 52.8848C125 46.5216 129.288 42.2434 135.658 42.2351H140.286C140.004 38.9621 140.286 35.9549 142.999 33.7868C144.474 32.5424 146.375 31.9226 148.299 32.0589C150.787 32.2085 153.001 33.2136 154.105 35.3818C155.1 37.3838 155.407 39.7181 156.07 42.1271H165.708C165.451 38.987 165.708 36.0214 168.329 33.82C169.758 32.6057 171.591 31.9741 173.463 32.0506C174.658 32.0629 175.834 32.3592 176.892 32.9152C177.95 33.4713 178.862 34.2711 179.551 35.2488C181.069 37.2592 180.928 39.6682 180.928 42.1686ZM241.907 70.1386C241.907 64.0827 241.957 58.2013 241.907 52.3199C241.914 51.08 241.458 49.8823 240.63 48.9606C239.802 48.039 238.66 47.4596 237.428 47.3356C235.604 47.1529 233.754 47.3356 231.763 47.3356C231.763 48.2743 231.763 49.1134 231.763 49.9441C231.758 50.9393 231.557 51.9237 231.171 52.8408C230.785 53.758 230.222 54.59 229.515 55.2891C228.808 55.9881 227.97 56.5407 227.049 56.9149C226.128 57.2892 225.143 57.4779 224.149 57.4703C222.15 57.488 220.224 56.711 218.796 55.3096C217.367 53.9082 216.551 51.9967 216.527 49.9939C216.527 49.1632 216.527 48.2494 216.527 47.4104H206.524C206.342 49.0718 206.466 50.7332 205.927 52.1538C205.387 53.6305 204.455 54.9316 203.231 55.9169C201.913 56.7613 200.416 57.2874 198.86 57.4537C197.934 57.5467 196.999 57.4366 196.119 57.131C195.24 56.8255 194.437 56.3318 193.768 55.6843C191.163 53.5244 190.881 50.5588 191.147 47.3273H181.534C180.837 49.8195 180.53 52.1621 179.535 54.1641C178.448 56.3405 176.217 57.354 173.729 57.4869C171.808 57.6157 169.912 56.9967 168.437 55.759C165.75 53.5909 165.443 50.5837 165.708 47.4104H155.498C155.498 48.2993 155.498 49.0718 155.498 49.9025C155.505 50.9107 155.31 51.9101 154.925 52.8418C154.541 53.7735 153.974 54.6188 153.258 55.3278C152.543 56.0369 151.693 56.5953 150.758 56.9704C149.824 57.3455 148.824 57.5296 147.817 57.5118C146.824 57.5118 145.84 57.3155 144.922 56.9342C144.004 56.5528 143.171 55.9939 142.469 55.2894C141.767 54.5849 141.211 53.7487 140.832 52.8286C140.453 51.9085 140.259 50.9227 140.261 49.9275C140.261 49.0967 140.261 48.266 140.261 47.3356C138.545 47.3356 137.018 47.3356 135.492 47.3356C134.774 47.3037 134.057 47.4221 133.387 47.6831C132.717 47.9441 132.108 48.342 131.6 48.8516C131.092 49.3612 130.696 49.9712 130.436 50.6427C130.177 51.3142 130.06 52.0325 130.093 52.7519C130.093 58.2595 130.093 63.7754 130.093 69.283C130.114 69.5872 130.156 69.8896 130.217 70.1884L241.907 70.1386ZM221.57 142.111L237.486 126.186C234.053 126.186 230.295 126.12 226.546 126.186C225.251 126.186 224.006 126.692 223.076 127.596C222.147 128.5 221.607 129.732 221.57 131.029C221.495 134.859 221.57 138.664 221.57 142.111ZM225.617 146.555C229.209 146.555 232.759 146.555 236.3 146.555C239.842 146.555 241.874 144.412 241.899 140.865C241.899 137.692 241.899 134.51 241.899 131.337C241.886 131.009 241.855 130.682 241.808 130.357L225.617 146.555ZM150.414 44.7521C150.414 43.1738 150.414 41.5871 150.414 40.0005C150.414 38.4138 149.319 37.1262 147.925 37.1179C146.532 37.1096 145.437 38.2726 145.379 39.9756C145.379 43.1489 145.379 46.3139 145.379 49.4789C145.379 51.1901 146.466 52.3531 147.867 52.3614C149.269 52.3697 150.356 51.2067 150.422 49.5038C150.488 47.8008 150.414 46.3388 150.414 44.7521ZM175.827 44.8934C175.827 43.2319 175.827 41.6204 175.827 39.9839C175.827 38.3474 174.716 37.1179 173.281 37.1179C171.846 37.1179 170.793 38.2809 170.793 39.9922C170.759 43.1655 170.759 46.3333 170.793 49.4955C170.793 51.2067 171.896 52.3697 173.331 52.3614C174.765 52.3531 175.819 51.1984 175.869 49.4872C175.86 47.9587 175.827 46.4302 175.827 44.8934V44.8934ZM196.148 44.586C196.148 46.2474 196.148 47.859 196.148 49.4955C196.148 51.132 197.251 52.3614 198.686 52.3614C200.121 52.3614 201.174 51.1984 201.224 49.4955C201.257 46.3222 201.257 43.1544 201.224 39.9922C201.224 38.2809 200.121 37.1179 198.686 37.1179C197.251 37.1179 196.198 38.2809 196.148 39.9922C196.115 41.5207 196.148 43.0492 196.148 44.586V44.586ZM226.654 44.7605C226.654 43.1738 226.654 41.5871 226.654 40.0088C226.654 38.2975 225.568 37.1346 224.166 37.1179C223.808 37.1279 223.456 37.2111 223.131 37.3622C222.806 37.5133 222.516 37.7293 222.278 37.9969C222.039 38.2644 221.858 38.5779 221.745 38.9182C221.632 39.2585 221.589 39.6183 221.62 39.9756C221.575 43.1378 221.575 46.3056 221.62 49.4789C221.62 51.1403 222.698 52.3531 224.108 52.3614C225.518 52.3697 226.596 51.215 226.663 49.5121C226.729 47.8091 226.654 46.3388 226.654 44.7605Z" fill="#B3E4F5"/>
<path d="M125.305 154.03C121.219 154.03 117.299 154.03 113.379 154.03C110.749 154.03 110 153.287 110 150.672C110 146.137 110 141.602 110 137.067C110 134.877 110.832 134.027 113.054 134.019H125.305C125.305 130.088 125.305 126.305 125.305 122.514C125.305 119.678 125.987 119 128.834 119H142.541C144.854 119 145.687 119.817 145.687 122.113C145.687 126.011 145.687 129.917 145.687 134.019H149.548C152.469 134.019 155.374 134.019 158.312 134.019C158.656 133.982 159.005 134.019 159.333 134.126C159.661 134.234 159.962 134.411 160.215 134.644C160.467 134.877 160.665 135.161 160.795 135.476C160.924 135.791 160.983 136.13 160.967 136.47C161.011 141.471 161.011 146.477 160.967 151.489C160.967 153.123 159.926 153.94 158.17 153.989C154.084 153.989 149.998 153.989 145.762 153.989C145.762 154.561 145.687 155.068 145.687 155.566C145.687 159.113 145.687 162.659 145.687 166.189C145.687 168.077 144.763 168.992 142.865 169C137.933 169 132.992 169 128.043 169C126.245 169 125.322 168.052 125.313 166.279C125.288 162.316 125.305 158.304 125.305 154.03ZM140.452 163.983C140.507 163.854 140.549 163.72 140.577 163.582C140.577 160.314 140.577 157.119 140.577 153.883C140.577 149.217 140.76 149.038 145.462 149.038H155.765V139.02H143.564C141.467 139.02 140.593 138.137 140.577 136.062C140.56 133.986 140.577 131.976 140.577 129.958V124.123H130.365C130.365 128.152 130.365 132.066 130.365 135.972C130.365 138.153 129.533 139.011 127.311 139.02H115.177V148.874C115.288 148.939 115.408 148.986 115.534 149.013H127.003C129.641 149.013 130.39 149.757 130.39 152.363V163.991L140.452 163.983Z" fill="#00A5DF"/>
<path d="M143 91V86H148V91H143Z" fill="#1DADE0"/>
<path d="M168 91H163V86H168V91Z" fill="#1DADE0"/>
<path d="M189 86V91H184V86H189Z" fill="#1DADE0"/>
<path d="M204 91V86H209V91H204Z" fill="#1DADE0"/>
<path d="M224 91V86H229V91H224Z" fill="#1DADE0"/>
<path d="M163 106H168V111H163V106Z" fill="#1DADE0"/>
<path d="M189 106V111H184V106H189Z" fill="#1DADE0"/>
<path d="M209 106V111H204V106H209Z" fill="#1DADE0"/>
<path d="M229 106V111H224V106H229Z" fill="#1DADE0"/>
<path d="M184 131V126H188V131H184Z" fill="#1DADE0"/>
<path d="M209 131H204V126H209V131Z" fill="#1DADE0"/>
</svg>