<svg width="273" height="164" viewBox="0 0 273 164" fill="none" xmlns="http://www.w3.org/2000/svg">
<path d="M79.5878 0C80.6009 6.33837 83.8915 11.9399 85.4489 18.0941C85.8089 19.4924 87.1234 21.3093 85.0051 22.021C82.8867 22.7327 82.6942 20.4469 82.2169 19.1742C80.3916 14.2509 78.7672 9.25218 76.967 4.31211C76.4228 2.80497 76.0208 1.41504 77.0591 0H79.5878Z" fill="#B3E4F5"/>
<path d="M82.2824 76.1437C82.2824 63.6679 82.2824 51.1837 82.2824 38.7079C82.2824 31.8421 84.585 29.3888 91.4927 29.3637C115.674 29.2799 139.855 29.3637 164.036 29.3051C164.86 29.275 165.681 29.4242 166.441 29.7422C167.201 30.0602 167.884 30.5396 168.441 31.1471C173.406 36.1709 178.396 41.1947 183.512 46.1432C184.154 46.7613 184.651 47.5131 184.97 48.3452C185.288 49.1772 185.419 50.0692 185.354 50.9576C185.304 72.4512 185.245 93.9363 185.354 115.43C185.354 118.98 183.939 119.072 181.461 118.025C176.529 115.941 171.899 115.514 167.788 119.784C166.373 121.249 164.941 120.504 163.794 119.348C160.193 115.723 156.568 116.116 152.825 119.089C150.531 120.914 148.371 120.864 146.294 118.645C143.958 116.133 141.362 115.84 138.675 118.134C135.325 121.006 131.976 120.763 128.753 117.95C126.576 116.049 124.65 116.116 122.741 118.411C120.832 120.705 118.688 121.132 116.302 119.139C112.291 115.79 108.39 116.041 104.446 119.29C102.981 120.504 101.306 121.232 99.6732 119.491C95.6457 115.179 91.0071 116.192 86.2763 118C83.0192 119.256 82.0898 118.352 82.0898 114.827C82.3996 101.933 82.2824 89.0381 82.2824 76.1437ZM85.1544 74.2681C85.1544 86.4592 85.2465 98.6587 85.0874 110.85C85.0874 114.358 85.8075 115.874 89.4917 114.333C92.9413 112.859 96.19 112.918 98.9782 115.781C101.03 117.891 103.165 117.598 105.208 115.84C108.641 112.91 112.057 112.742 115.573 115.689C118.144 117.841 120.497 117.665 122.682 115.003C124.189 113.161 125.964 112.533 128.007 114.366C131.876 117.85 135.819 117.824 139.797 114.542C141.831 112.868 143.832 112.91 145.658 114.819C148.27 117.582 150.949 117.917 154.031 115.488C157.254 112.91 160.486 112.692 163.501 115.907C165.518 118.059 167.478 117.364 169.253 115.673C171.865 113.161 174.637 112.968 177.994 114.132C182.424 115.673 182.516 115.463 182.516 110.666C182.516 91.6756 182.399 72.6856 182.616 53.7291C182.616 49.5426 181.611 48.0522 177.283 48.3118C173.607 48.5295 168.91 49.8692 166.398 47.6084C163.886 45.3477 165.862 40.5333 165.56 36.8659C165.514 36.4513 165.514 36.0329 165.56 35.6183C165.987 32.8301 164.723 32.1519 162.035 32.1602C138.7 32.244 115.356 32.1602 92.0202 32.2272C86.0586 32.2272 85.2465 33.0645 85.2381 38.9256C85.1655 50.7037 85.1376 62.4845 85.1544 74.2681ZM167.21 35.1662C167.21 38.0297 167.21 41.1445 167.21 44.2676C167.21 45.7329 167.52 46.6121 169.245 46.5786C172.493 46.5032 175.742 46.5786 178.84 46.5786C174.988 42.7772 171.195 39.0512 167.235 35.1662H167.21Z" fill="#00A5DF"/>
<path d="M83.3054 159.774C81.681 149.575 82.8951 139.302 82.535 129.062C82.4764 127.596 83.2133 126.818 84.5362 126.29C85.9685 125.752 87.3362 125.056 88.6138 124.214C92.231 121.702 95.6471 121.434 99.055 124.582C101.324 126.684 103.618 126.089 105.753 124.289C108.642 121.836 111.489 121.275 114.461 124.13C116.881 126.458 119.284 126.273 121.771 124.13C124.501 121.785 127.297 121.149 130.01 124.197C132.723 127.245 135.528 125.746 137.998 123.954C141.129 121.677 143.934 121.442 146.789 124.247C149.092 126.525 151.453 126.232 153.756 124.247C156.837 121.585 159.768 121.308 162.573 124.649C164.247 126.642 166.19 126.324 168.04 124.992C172.955 121.442 177.485 121.693 182.14 125.679C183.756 127.06 184.761 128.149 184.728 130.376C184.602 138.28 184.728 146.184 184.669 154.08C184.619 162.16 183.246 163.517 175.182 163.525C148.64 163.525 122.095 163.525 95.5467 163.525C92.4989 163.525 89.426 163.768 86.4117 163.064L83.3054 159.774ZM133.543 160.728C147.845 160.728 162.146 160.653 176.455 160.728C180.039 160.728 181.939 159.573 181.948 155.83C181.948 147.382 182.023 138.933 182.09 130.485C182.09 129.212 181.253 128.643 180.457 127.831C176.271 123.736 172.269 125.319 168.157 127.831C166.215 129.003 164.256 130.117 162.296 127.73C159.684 124.565 156.871 124.791 153.806 127.22C151.797 128.81 149.569 130.075 147.175 127.68C144.026 124.523 140.719 124.616 137.32 127.253C134.498 129.438 131.793 129.472 129.231 126.868C126.945 124.54 124.626 124.766 122.382 126.826C119.393 129.572 116.521 129.296 113.624 126.709C111.455 124.75 109.354 124.607 107.068 126.575C103.953 129.246 100.746 129.731 97.5143 126.675C96.9775 126.236 96.3795 125.878 95.7393 125.612C92.3901 123.937 85.3986 128.015 85.3819 131.766C85.3316 139.386 85.3149 147.005 85.3819 154.624C85.4321 159.858 86.3029 160.67 91.4607 160.67C105.472 160.714 119.493 160.731 133.527 160.72L133.543 160.728Z" fill="#00A5DF"/>
<path d="M239.363 163.122C229.508 163.122 219.653 163.122 209.798 163.081C208.349 163.081 205.913 164.06 205.779 161.54C205.645 158.861 208.148 159.79 209.571 159.782C229.416 159.726 249.262 159.726 269.112 159.782C269.531 159.782 269.949 159.782 270.368 159.782C271.607 159.84 273.089 159.698 272.997 161.557C272.905 163.415 271.373 163.139 270.175 163.139C261.294 163.139 252.411 163.139 243.524 163.139L239.363 163.122Z" fill="#00A5DF"/>
<path d="M223.285 151.442C230.636 151.442 237.996 151.442 245.348 151.442C246.696 151.442 248.823 150.756 248.772 153.201C248.772 155.294 246.83 154.766 245.557 154.766C230.575 154.8 215.593 154.8 200.611 154.766C199.347 154.766 197.446 155.294 197.396 153.209C197.337 150.764 199.455 151.451 200.812 151.442C208.306 151.4 215.791 151.442 223.285 151.442Z" fill="#00A5DF"/>
<path d="M51.7475 154.825C45.8864 154.825 40.1007 154.825 34.273 154.825C32.9585 154.825 31.1834 155.127 31.3509 152.95C31.4932 151.133 33.0924 151.485 34.2647 151.476C46.1878 151.476 58.1138 151.476 70.0425 151.476C71.2482 151.476 72.7637 151.275 72.7721 153.151C72.7805 155.026 71.265 154.825 70.0509 154.825C63.9553 154.834 57.8514 154.817 51.7475 154.825Z" fill="#00A5DF"/>
<path d="M20.9592 163.123C15.0981 163.123 9.31236 163.123 3.48474 163.123C2.1953 163.123 0.403506 163.508 0.478863 161.331C0.55422 159.481 2.15348 159.774 3.31733 159.774C15.2405 159.774 27.1664 159.774 39.0952 159.774C40.2841 159.774 41.8582 159.514 41.8917 161.365C41.8917 163.542 40.1334 163.106 38.8523 163.115C32.8824 163.173 26.9208 163.123 20.9592 163.123Z" fill="#00A5DF"/>
<path d="M83.3056 159.774L86.3868 163.065C74.4637 163.065 62.5489 163.148 50.6258 163.123C49.2777 163.123 47.0924 163.793 47.2766 161.348C47.4608 158.903 49.5624 159.816 50.902 159.807C61.6781 159.774 72.4961 159.774 83.3056 159.774Z" fill="#00A5DF"/>
<path d="M70.8379 34.1791C67.1622 32.8729 62.7328 31.3239 58.2784 29.7247C56.6038 29.1134 54.9292 28.4185 53.2546 27.69C52.2582 27.2546 50.9688 26.7941 51.58 25.3456C52.0907 24.0813 53.2546 24.1231 54.4017 24.5585C58.5882 26.0992 62.7161 27.6063 66.8691 29.1218C68.6861 29.7833 70.5281 30.3945 72.3199 31.1146C72.7262 31.2353 73.0745 31.5001 73.2995 31.8592C73.5246 32.2184 73.6109 32.6473 73.5424 33.0655C73.4251 34.087 72.5293 34.1289 70.8379 34.1791Z" fill="#B3E4F5"/>
<path d="M64.5888 10.8013C65.1786 11.2037 65.7383 11.6486 66.2634 12.1326C70.2238 16.3191 74.7703 20.0032 78.1446 24.7591C78.7558 25.5964 79.9951 26.3248 78.8898 27.5389C77.7846 28.753 76.8886 27.7817 76.1267 26.9863C72.049 22.7077 67.469 18.8896 63.9691 14.0584C63.4918 13.3969 62.7299 12.8192 63.2741 11.9065C63.6593 11.4792 64.1017 11.1073 64.5888 10.8013Z" fill="#B3E4F5"/>
<path d="M35.5102 115.028C35.9243 115.213 36.3016 115.471 36.6239 115.79C38.2232 117.816 39.747 118.302 41.4886 115.924C42.0579 115.154 43.0292 114.45 44.0005 115.279C44.9717 116.108 44.3773 117.147 43.6154 117.791C41.6058 119.416 41.1034 120.906 43.4897 122.648C44.2601 123.217 44.9634 124.18 44.1345 125.159C43.3055 126.139 42.2589 125.536 41.6226 124.774C39.9982 122.773 38.4994 122.262 36.7578 124.649C36.1884 125.419 35.2172 126.122 34.2459 125.293C33.2746 124.465 33.8608 123.393 34.6395 122.782C37.1514 120.923 36.6574 119.315 34.4804 117.624C34.1923 117.419 33.9796 117.126 33.8752 116.788C33.7708 116.451 33.7804 116.088 33.9027 115.757C34.1204 115.137 34.606 114.919 35.5102 115.028Z" fill="#B3E4F5"/>
<path d="M195.451 159.614C197.126 160.368 200.182 158.551 200.257 161.289C200.341 164.563 197.076 163.039 195.401 162.963C193.551 162.963 190.017 164.638 190.059 161.364C190.101 158.09 193.693 160.527 195.451 159.614Z" fill="#00A5DF"/>
<path d="M147.98 94.5231C147.729 94.8496 147.553 95.3185 147.235 95.4525C146.129 95.9298 145.376 95.1762 144.723 94.4645C141.759 91.1823 138.234 89.4909 133.679 89.8175C129.861 90.0938 126.855 91.8437 124.041 94.1798C123.146 94.9334 122.074 96.5075 120.969 95.1846C119.621 93.6021 121.504 92.9406 122.559 92.12C130.932 85.5891 137.957 85.3044 145.468 91.2827C146.548 92.1033 147.645 92.9908 147.98 94.5231Z" fill="#C1E4ED"/>
<path d="M115.507 66.1049C115.08 68.7257 113.732 70.6012 111.019 70.6347C108.114 70.6766 106.314 68.8931 106.397 66.0044C106.376 65.4126 106.481 64.8231 106.705 64.2747C106.928 63.7263 107.266 63.2316 107.694 62.8233C108.123 62.415 108.634 62.1023 109.193 61.9059C109.751 61.7095 110.345 61.6338 110.936 61.684C113.665 61.6923 114.988 63.5428 115.507 66.1049Z" fill="#C1E4ED"/>
<path d="M157.631 61.5415C160.202 62.0188 162.094 63.3668 162.077 66.088C162.077 68.9516 160.285 70.7686 157.363 70.6262C156.772 70.6396 156.184 70.5274 155.639 70.2971C155.094 70.0668 154.604 69.7235 154.201 69.2899C153.798 68.8564 153.492 68.3423 153.303 67.7818C153.113 67.2212 153.045 66.6268 153.101 66.0378C153.168 63.3166 155.011 61.9769 157.631 61.5415Z" fill="#C1E4ED"/>
<path d="M204.839 120.94C201.738 120.94 198.762 119.71 196.565 117.521C194.368 115.332 193.128 112.361 193.117 109.259C193.117 106.15 194.352 103.169 196.551 100.97C198.749 98.7721 201.73 97.5371 204.839 97.5371C207.948 97.5371 210.93 98.7721 213.128 100.97C215.327 103.169 216.562 106.15 216.562 109.259C216.551 112.361 215.311 115.332 213.113 117.521C210.916 119.71 207.941 120.94 204.839 120.94ZM204.839 99.2452C202.175 99.2452 199.619 100.304 197.735 102.188C195.85 104.072 194.792 106.628 194.792 109.293C194.792 111.958 195.85 114.513 197.735 116.398C199.619 118.282 202.175 119.34 204.839 119.34C207.497 119.34 210.046 118.288 211.929 116.412C213.812 114.537 214.876 111.992 214.887 109.335C214.893 108.012 214.637 106.701 214.134 105.477C213.632 104.253 212.892 103.14 211.959 102.203C211.025 101.265 209.916 100.522 208.694 100.014C207.472 99.5065 206.162 99.2452 204.839 99.2452Z" fill="#B3E4F5"/>
<path d="M204.84 118.009C202.52 118.007 200.294 117.085 198.653 115.445C197.011 113.805 196.086 111.58 196.082 109.26C196.084 106.938 197.008 104.711 198.65 103.069C200.292 101.427 202.518 100.504 204.84 100.501C207.161 100.506 209.385 101.43 211.025 103.072C212.665 104.714 213.588 106.939 213.59 109.26C213.588 111.58 212.665 113.804 211.025 115.444C209.384 117.085 207.16 118.007 204.84 118.009ZM204.84 102.176C202.962 102.178 201.162 102.925 199.834 104.253C198.506 105.581 197.759 107.382 197.757 109.26C197.761 111.136 198.509 112.934 199.837 114.261C201.165 115.587 202.964 116.333 204.84 116.335C206.716 116.333 208.514 115.586 209.841 114.26C211.167 112.934 211.913 111.135 211.915 109.26C211.915 107.382 211.17 105.582 209.844 104.254C208.517 102.926 206.717 102.178 204.84 102.176Z" fill="#B3E4F5"/>
<path d="M223.142 132.235C222.666 132.235 222.193 132.141 221.754 131.957C221.314 131.773 220.915 131.503 220.58 131.163L209.402 119.801L210.591 118.629L221.769 129.982C221.943 130.175 222.155 130.329 222.39 130.438C222.626 130.546 222.881 130.606 223.14 130.614C223.399 130.621 223.657 130.576 223.899 130.482C224.14 130.387 224.36 130.245 224.545 130.063C224.73 129.881 224.877 129.664 224.976 129.425C225.075 129.185 225.124 128.928 225.122 128.668C225.119 128.409 225.064 128.153 224.96 127.916C224.855 127.678 224.705 127.464 224.516 127.286L213.338 115.924L214.535 114.752L225.713 126.106C226.212 126.612 226.55 127.254 226.685 127.952C226.82 128.649 226.745 129.372 226.47 130.027C226.195 130.682 225.733 131.242 225.14 131.635C224.548 132.027 223.853 132.236 223.142 132.235Z" fill="#B3E4F5"/>
<path d="M185.523 66.6489H215.825C216.915 66.6489 217.994 66.8636 219.001 67.2805C220.007 67.6975 220.922 68.3087 221.693 69.0793C222.463 69.8498 223.074 70.7645 223.491 71.7712C223.908 72.7779 224.123 73.8569 224.123 74.9466C224.123 76.0362 223.908 77.1152 223.491 78.122C223.074 79.1287 222.463 80.0434 221.693 80.8139C220.922 81.5844 220.007 82.1956 219.001 82.6126C217.994 83.0296 216.915 83.2442 215.825 83.2442H185.523V66.6489Z" fill="#B3E4F5"/>
<path d="M82.082 90.3359H55.5061C54.4165 90.3359 53.3375 90.1213 52.3308 89.7043C51.3241 89.2873 50.4094 88.6761 49.6389 87.9056C48.8684 87.1351 48.2571 86.2204 47.8401 85.2137C47.4231 84.2069 47.2085 83.1279 47.2085 82.0383C47.2085 80.9486 47.4231 79.8696 47.8401 78.8629C48.2571 77.8562 48.8684 76.9415 49.6389 76.171C50.4094 75.4005 51.3241 74.7893 52.3308 74.3723C53.3375 73.9553 54.4165 73.7406 55.5061 73.7406H82.082V90.3359Z" fill="#B3E4F5"/>
<path d="M82.082 110.474H70.8454C69.7558 110.474 68.6768 110.259 67.6701 109.842C66.6634 109.425 65.7487 108.814 64.9782 108.043C64.2077 107.273 63.5964 106.358 63.1794 105.351C62.7624 104.345 62.5478 103.266 62.5478 102.176C62.5478 99.9753 63.4221 97.8648 64.9782 96.3087C66.5343 94.7525 68.6447 93.8783 70.8454 93.8783H82.082V110.474Z" fill="#B3E4F5"/>
</svg>
