<svg width="40" height="37" viewBox="0 0 40 37" fill="none" xmlns="http://www.w3.org/2000/svg">
<path d="M34.2334 5.30925C33.0671 4.23819 31.5822 3.5094 29.9663 3.21493C28.3503 2.92047 26.6759 3.07354 25.1544 3.65481C23.6329 4.23608 22.3326 5.21947 21.4179 6.48076C20.5031 7.74204 20.0149 9.22464 20.0149 10.7413C20.0149 12.2579 20.5031 13.7405 21.4179 15.0018C22.3326 16.263 23.6329 17.2464 25.1544 17.8277C26.6759 18.409 28.3503 18.5621 29.9663 18.2676C31.5822 17.9731 33.0671 17.2443 34.2334 16.1733C35.0094 15.4606 35.6251 14.6139 36.0452 13.6818C36.4653 12.7497 36.6816 11.7504 36.6816 10.7413C36.6816 9.73208 36.4653 8.73282 36.0452 7.80071C35.6251 6.86859 35.0094 6.02194 34.2334 5.30925ZM24.8 7.48819C25.7368 6.62464 27.0077 6.13893 28.3334 6.13786C29.0727 6.1442 29.8013 6.30142 30.4667 6.5982L23.8 12.7361C23.3552 11.8738 23.2124 10.9056 23.3916 9.96539C23.5707 9.02519 24.0629 8.15951 24.8 7.48819ZM31.8667 13.9943C31.1363 14.6614 30.2003 15.1048 29.1862 15.264C28.1721 15.4233 27.1293 15.2907 26.2 14.8843L32.8667 8.74645C33.3116 9.60868 33.4543 10.5769 33.2751 11.5171C33.096 12.4573 32.6038 13.323 31.8667 13.9943ZM13.3334 15.3447C12.0315 15.3399 10.7415 15.5719 9.53737 16.0275C8.33324 16.483 7.23872 17.1531 6.31669 17.9993C4.90574 19.2816 3.94065 20.9211 3.54402 22.7096C3.14739 24.498 3.33712 26.3547 4.08912 28.0436C4.84112 29.7325 6.12144 31.1775 7.76742 32.1951C9.41341 33.2126 11.3508 33.7567 13.3334 33.7583C15.9034 33.7571 18.3743 32.8449 20.2334 31.211L20.4334 31.0883C20.4684 31.0298 20.5074 30.9735 20.55 30.9195C21.905 29.6169 22.8145 27.9767 23.1658 26.2023C23.517 24.428 23.2945 22.5977 22.5259 20.9388C21.7572 19.2799 20.4762 17.8654 18.842 16.8709C17.2078 15.8763 15.2923 15.3456 13.3334 15.3447ZM8.61669 28.894C7.58517 27.9337 6.92647 26.687 6.74267 25.3471C6.55886 24.0071 6.86021 22.6488 7.60003 21.4825L16.6667 29.83C15.4 30.5112 13.9246 30.7886 12.4692 30.6194C11.0138 30.4501 9.65971 29.8437 8.61669 28.894ZM19.0667 27.6204L10 19.2729C11.0096 18.7212 12.1595 18.4248 13.3334 18.4136C14.5002 18.4201 15.6448 18.7084 16.6526 19.2497C17.6605 19.7911 18.4964 20.5665 19.0768 21.4985C19.6572 22.4305 19.9617 23.4864 19.9599 24.5607C19.9581 25.635 19.6501 26.69 19.0667 27.6204Z" fill="#C5299B"/>
</svg>
