<svg width="44" height="44" viewBox="0 0 44 44" fill="none" xmlns="http://www.w3.org/2000/svg">
<path d="M15.4999 19.833C15.9285 19.833 16.3474 19.7059 16.7037 19.4679C17.06 19.2298 17.3377 18.8914 17.5017 18.4955C17.6657 18.0996 17.7086 17.6639 17.625 17.2436C17.5414 16.8234 17.335 16.4373 17.032 16.1343C16.729 15.8313 16.3429 15.6249 15.9226 15.5413C15.5023 15.4577 15.0667 15.5006 14.6708 15.6646C14.2749 15.8286 13.9365 16.1063 13.6984 16.4626C13.4603 16.8189 13.3333 17.2378 13.3333 17.6663C13.3333 18.241 13.5615 18.7921 13.9679 19.1984C14.3742 19.6047 14.9253 19.833 15.4999 19.833ZM21.9999 0.333008C17.7147 0.333008 13.5256 1.60374 9.96257 3.9845C6.39951 6.36526 3.62244 9.74913 1.98254 13.7082C0.34264 17.6673 -0.0864325 22.0237 0.749581 26.2266C1.58559 30.4296 3.64914 34.2902 6.67928 37.3203C9.70942 40.3505 13.5701 42.414 17.773 43.25C21.9759 44.086 26.3323 43.657 30.2914 42.0171C34.2505 40.3772 37.6343 37.6001 40.0151 34.037C42.3959 30.474 43.6666 26.2849 43.6666 21.9997C43.6666 19.1544 43.1062 16.3369 42.0173 13.7082C40.9285 11.0795 39.3325 8.69096 37.3206 6.67903C35.3086 4.66709 32.9201 3.07114 30.2914 1.98228C27.6627 0.893433 24.8452 0.333008 21.9999 0.333008V0.333008ZM21.9999 39.333C18.5717 39.333 15.2205 38.3164 12.37 36.4118C9.51959 34.5072 7.29794 31.8001 5.98602 28.6329C4.6741 25.4656 4.33084 21.9804 4.99965 18.6181C5.66846 15.2558 7.3193 12.1673 9.74341 9.74316C12.1675 7.31905 15.256 5.66821 18.6184 4.9994C21.9807 4.33059 25.4659 4.67384 28.6331 5.98576C31.8004 7.29768 34.5075 9.51934 36.4121 12.3698C38.3167 15.2202 39.3333 18.5715 39.3333 21.9997C39.3333 26.5968 37.5071 31.0056 34.2564 34.2562C31.0058 37.5068 26.597 39.333 21.9999 39.333V39.333ZM28.4999 24.1663H15.4999C14.9253 24.1663 14.3742 24.3946 13.9679 24.8009C13.5615 25.2073 13.3333 25.7584 13.3333 26.333C13.3333 28.6316 14.2464 30.836 15.8717 32.4613C17.497 34.0866 19.7014 34.9997 21.9999 34.9997C24.2985 34.9997 26.5029 34.0866 28.1282 32.4613C29.7535 30.836 30.6666 28.6316 30.6666 26.333C30.6666 25.7584 30.4383 25.2073 30.032 24.8009C29.6257 24.3946 29.0746 24.1663 28.4999 24.1663ZM21.9999 30.6663C21.24 30.6656 20.4937 30.465 19.8358 30.0847C19.1779 29.7044 18.6315 29.1578 18.2516 28.4997H25.7483C25.3683 29.1578 24.822 29.7044 24.1641 30.0847C23.5062 30.465 22.7598 30.6656 21.9999 30.6663ZM28.4999 15.4997C28.0714 15.4997 27.6525 15.6267 27.2962 15.8648C26.9399 16.1029 26.6622 16.4413 26.4982 16.8372C26.3342 17.2331 26.2913 17.6687 26.3749 18.089C26.4585 18.5093 26.6649 18.8954 26.9679 19.1984C27.2709 19.5014 27.6569 19.7078 28.0772 19.7914C28.4975 19.875 28.9332 19.8321 29.3291 19.6681C29.725 19.5041 30.0634 19.2264 30.3014 18.8701C30.5395 18.5138 30.6666 18.0949 30.6666 17.6663C30.6666 17.0917 30.4383 16.5406 30.032 16.1343C29.6257 15.7279 29.0746 15.4997 28.4999 15.4997Z" fill="#00A5DF"/>
</svg>
