<svg width="44" height="44" viewBox="0 0 44 44" fill="none" xmlns="http://www.w3.org/2000/svg">
<path d="M14.1133 29.2147C13.6766 29.5815 13.4021 30.1056 13.3493 30.6735C13.2966 31.2413 13.4699 31.8071 13.8316 32.248C14.0135 32.4674 14.2369 32.6488 14.489 32.7817C14.741 32.9146 15.0169 32.9965 15.3007 33.0227C15.5844 33.0488 15.8706 33.0188 16.1427 32.9342C16.4149 32.8496 16.6677 32.7121 16.8866 32.5297C18.335 31.3619 20.1394 30.7251 21.9999 30.7251C23.8604 30.7251 25.6649 31.3619 27.1133 32.5297C27.5031 32.8527 27.9937 33.029 28.4999 33.028C28.941 33.0237 29.3703 32.8848 29.7303 32.6299C30.0903 32.3751 30.364 32.0164 30.5148 31.6019C30.6655 31.1873 30.6861 30.7367 30.5739 30.3101C30.4616 29.8835 30.2219 29.5013 29.8866 29.2147C27.6509 27.4176 24.8684 26.4379 21.9999 26.4379C19.1315 26.4379 16.349 27.4176 14.1133 29.2147ZM15.9549 18.8363C16.3609 19.2399 16.91 19.4664 17.4824 19.4664C18.0548 19.4664 18.604 19.2399 19.0099 18.8363C19.4135 18.4304 19.64 17.8812 19.64 17.3088C19.64 16.7364 19.4135 16.1873 19.0099 15.7813C17.77 14.6048 16.1259 13.9489 14.4166 13.9489C12.7073 13.9489 11.0632 14.6048 9.82326 15.7813C9.59645 15.9756 9.41224 16.2146 9.28219 16.4834C9.15214 16.7522 9.07906 17.045 9.06753 17.3434C9.05601 17.6418 9.10629 17.9393 9.21521 18.2174C9.32414 18.4954 9.48937 18.7479 9.70052 18.9591C9.91167 19.1702 10.1642 19.3355 10.4422 19.4444C10.7203 19.5533 11.0178 19.6036 11.3162 19.5921C11.6146 19.5805 11.9074 19.5075 12.1762 19.3774C12.445 19.2474 12.684 19.0632 12.8783 18.8363C13.0797 18.6333 13.3193 18.4721 13.5833 18.3621C13.8474 18.2521 14.1306 18.1954 14.4166 18.1954C14.7026 18.1954 14.9858 18.2521 15.2498 18.3621C15.5139 18.4721 15.7535 18.6333 15.9549 18.8363V18.8363ZM21.9999 0.333008C17.7147 0.333008 13.5256 1.60374 9.96257 3.9845C6.39951 6.36526 3.62244 9.74913 1.98254 13.7082C0.34264 17.6673 -0.0864325 22.0237 0.749581 26.2266C1.58559 30.4296 3.64914 34.2902 6.67928 37.3203C9.70942 40.3505 13.5701 42.414 17.773 43.25C21.9759 44.086 26.3323 43.657 30.2914 42.0171C34.2505 40.3772 37.6343 37.6001 40.0151 34.037C42.3959 30.474 43.6666 26.2849 43.6666 21.9997C43.6666 19.1544 43.1062 16.3369 42.0173 13.7082C40.9285 11.0795 39.3325 8.69096 37.3206 6.67903C35.3086 4.66709 32.9201 3.07114 30.2914 1.98228C27.6627 0.893433 24.8452 0.333008 21.9999 0.333008V0.333008ZM21.9999 39.333C18.5717 39.333 15.2205 38.3164 12.37 36.4118C9.51959 34.5072 7.29794 31.8001 5.98602 28.6329C4.6741 25.4656 4.33084 21.9804 4.99965 18.6181C5.66846 15.2558 7.3193 12.1673 9.74341 9.74316C12.1675 7.31905 15.256 5.66821 18.6184 4.9994C21.9807 4.33059 25.4659 4.67384 28.6331 5.98576C31.8004 7.29768 34.5075 9.51934 36.4121 12.3698C38.3167 15.2202 39.3333 18.5715 39.3333 21.9997C39.3333 26.5968 37.5071 31.0056 34.2564 34.2562C31.0058 37.5068 26.597 39.333 21.9999 39.333V39.333ZM34.1766 15.7813C32.9367 14.6048 31.2925 13.9489 29.5833 13.9489C27.874 13.9489 26.2299 14.6048 24.9899 15.7813C24.635 16.1958 24.4495 16.729 24.4706 17.2743C24.4916 17.8196 24.7177 18.3369 25.1035 18.7227C25.4894 19.1086 26.0067 19.3347 26.552 19.3557C27.0973 19.3768 27.6304 19.1913 28.0449 18.8363C28.2463 18.6333 28.486 18.4721 28.75 18.3621C29.014 18.2521 29.2972 18.1954 29.5833 18.1954C29.8693 18.1954 30.1525 18.2521 30.4165 18.3621C30.6805 18.4721 30.9202 18.6333 31.1216 18.8363C31.5275 19.2399 32.0767 19.4664 32.6491 19.4664C33.2215 19.4664 33.7706 19.2399 34.1766 18.8363C34.5801 18.4304 34.8066 17.8812 34.8066 17.3088C34.8066 16.7364 34.5801 16.1873 34.1766 15.7813V15.7813Z" fill="#FF6A14"/>
</svg>
