<svg width="24" height="24" viewBox="0 0 24 24" fill="none" xmlns="http://www.w3.org/2000/svg">
<path d="M20 7.99988L14 2.73988C13.45 2.24793 12.738 1.97595 12 1.97595C11.2621 1.97595 10.5501 2.24793 10 2.73988L4.00003 7.99988C3.6824 8.28396 3.42893 8.63244 3.25651 9.02213C3.08408 9.41182 2.99665 9.83377 3.00003 10.2599V18.9999C3.00003 19.7955 3.3161 20.5586 3.87871 21.1212C4.44132 21.6838 5.20438 21.9999 6.00003 21.9999H18C18.7957 21.9999 19.5587 21.6838 20.1214 21.1212C20.684 20.5586 21 19.7955 21 18.9999V10.2499C21.002 9.82545 20.9139 9.40542 20.7415 9.01756C20.5691 8.62971 20.3164 8.28284 20 7.99988ZM14 19.9999H10V14.9999C10 14.7347 10.1054 14.4803 10.2929 14.2928C10.4805 14.1052 10.7348 13.9999 11 13.9999H13C13.2652 13.9999 13.5196 14.1052 13.7071 14.2928C13.8947 14.4803 14 14.7347 14 14.9999V19.9999ZM19 18.9999C19 19.2651 18.8947 19.5195 18.7071 19.707C18.5196 19.8945 18.2652 19.9999 18 19.9999H16V14.9999C16 14.2042 15.684 13.4412 15.1214 12.8786C14.5587 12.316 13.7957 11.9999 13 11.9999H11C10.2044 11.9999 9.44132 12.316 8.87871 12.8786C8.3161 13.4412 8.00003 14.2042 8.00003 14.9999V19.9999H6.00003C5.73482 19.9999 5.48046 19.8945 5.29293 19.707C5.10539 19.5195 5.00003 19.2651 5.00003 18.9999V10.2499C5.00021 10.1079 5.03063 9.96758 5.08925 9.83826C5.14787 9.70894 5.23337 9.59359 5.34003 9.49988L11.34 4.24988C11.5225 4.08956 11.7571 4.00115 12 4.00115C12.2429 4.00115 12.4775 4.08956 12.66 4.24988L18.66 9.49988C18.7667 9.59359 18.8522 9.70894 18.9108 9.83826C18.9694 9.96758 18.9999 10.1079 19 10.2499V18.9999Z" fill="#002855"/>
</svg>
