<svg width="24" height="24" viewBox="0 0 24 24" fill="none" xmlns="http://www.w3.org/2000/svg">
<path d="M11.4401 2C8.87652 2.00731 6.41362 2.99891 4.56013 4.77V3C4.56013 2.73478 4.45478 2.48043 4.26724 2.29289C4.07971 2.10536 3.82535 2 3.56013 2C3.29492 2 3.04056 2.10536 2.85303 2.29289C2.66549 2.48043 2.56013 2.73478 2.56013 3V7.5C2.56013 7.76522 2.66549 8.01957 2.85303 8.20711C3.04056 8.39464 3.29492 8.5 3.56013 8.5H8.06013C8.32535 8.5 8.5797 8.39464 8.76724 8.20711C8.95478 8.01957 9.06013 7.76522 9.06013 7.5C9.06013 7.23478 8.95478 6.98043 8.76724 6.79289C8.5797 6.60536 8.32535 6.5 8.06013 6.5H5.66013C6.57184 5.53701 7.70864 4.81576 8.96826 4.40114C10.2279 3.98651 11.5708 3.89152 12.8763 4.1247C14.1817 4.35788 15.4087 4.91193 16.4469 5.73699C17.4851 6.56205 18.3019 7.63226 18.8238 8.85133C19.3458 10.0704 19.5565 11.4001 19.437 12.7208C19.3175 14.0415 18.8716 15.3118 18.1394 16.4174C17.4071 17.5231 16.4115 18.4293 15.2421 19.0547C14.0727 19.68 12.7662 20.0049 11.4401 20C11.1749 20 10.9206 20.1054 10.733 20.2929C10.5455 20.4804 10.4401 20.7348 10.4401 21C10.4401 21.2652 10.5455 21.5196 10.733 21.7071C10.9206 21.8946 11.1749 22 11.4401 22C14.0923 22 16.6358 20.9464 18.5112 19.0711C20.3866 17.1957 21.4401 14.6522 21.4401 12C21.4401 9.34784 20.3866 6.8043 18.5112 4.92893C16.6358 3.05357 14.0923 2 11.4401 2ZM11.4401 8C11.1749 8 10.9206 8.10536 10.733 8.29289C10.5455 8.48043 10.4401 8.73478 10.4401 9V12C10.4401 12.2652 10.5455 12.5196 10.733 12.7071C10.9206 12.8946 11.1749 13 11.4401 13H13.4401C13.7053 13 13.9597 12.8946 14.1472 12.7071C14.3348 12.5196 14.4401 12.2652 14.4401 12C14.4401 11.7348 14.3348 11.4804 14.1472 11.2929C13.9597 11.1054 13.7053 11 13.4401 11H12.4401V9C12.4401 8.73478 12.3348 8.48043 12.1472 8.29289C11.9597 8.10536 11.7053 8 11.4401 8Z" fill="#002855"/>
</svg>
