<svg width="24" height="24" viewBox="0 0 24 24" fill="none" xmlns="http://www.w3.org/2000/svg">
<path d="M16 14.0482H8C7.73478 14.0482 7.48043 14.1452 7.29289 14.3178C7.10536 14.4905 7 14.7247 7 14.9688C7 15.213 7.10536 15.4472 7.29289 15.6199C7.48043 15.7925 7.73478 15.8895 8 15.8895H16C16.2652 15.8895 16.5196 15.7925 16.7071 15.6199C16.8946 15.4472 17 15.213 17 14.9688C17 14.7247 16.8946 14.4905 16.7071 14.3178C16.5196 14.1452 16.2652 14.0482 16 14.0482ZM16 10.3654H10C9.73478 10.3654 9.48043 10.4624 9.29289 10.6351C9.10536 10.8078 9 11.0419 9 11.2861C9 11.5303 9.10536 11.7645 9.29289 11.9371C9.48043 12.1098 9.73478 12.2068 10 12.2068H16C16.2652 12.2068 16.5196 12.1098 16.7071 11.9371C16.8946 11.7645 17 11.5303 17 11.2861C17 11.0419 16.8946 10.8078 16.7071 10.6351C16.5196 10.4624 16.2652 10.3654 16 10.3654ZM20 4.84136H17V3.92068C17 3.6765 16.8946 3.44232 16.7071 3.26966C16.5196 3.097 16.2652 3 16 3C15.7348 3 15.4804 3.097 15.2929 3.26966C15.1054 3.44232 15 3.6765 15 3.92068V4.84136H13V3.92068C13 3.6765 12.8946 3.44232 12.7071 3.26966C12.5196 3.097 12.2652 3 12 3C11.7348 3 11.4804 3.097 11.2929 3.26966C11.1054 3.44232 11 3.6765 11 3.92068V4.84136H9V3.92068C9 3.6765 8.89464 3.44232 8.70711 3.26966C8.51957 3.097 8.26522 3 8 3C7.73478 3 7.48043 3.097 7.29289 3.26966C7.10536 3.44232 7 3.6765 7 3.92068V4.84136H4C3.73478 4.84136 3.48043 4.93836 3.29289 5.11102C3.10536 5.28368 3 5.51786 3 5.76204V18.6516C3 19.3841 3.31607 20.0866 3.87868 20.6046C4.44129 21.1226 5.20435 21.4136 6 21.4136H18C18.7956 21.4136 19.5587 21.1226 20.1213 20.6046C20.6839 20.0866 21 19.3841 21 18.6516V5.76204C21 5.51786 20.8946 5.28368 20.7071 5.11102C20.5196 4.93836 20.2652 4.84136 20 4.84136ZM19 18.6516C19 18.8957 18.8946 19.1299 18.7071 19.3026C18.5196 19.4752 18.2652 19.5722 18 19.5722H6C5.73478 19.5722 5.48043 19.4752 5.29289 19.3026C5.10536 19.1299 5 18.8957 5 18.6516V6.68272H7V7.6034C7 7.84758 7.10536 8.08176 7.29289 8.25442C7.48043 8.42708 7.73478 8.52408 8 8.52408C8.26522 8.52408 8.51957 8.42708 8.70711 8.25442C8.89464 8.08176 9 7.84758 9 7.6034V6.68272H11V7.6034C11 7.84758 11.1054 8.08176 11.2929 8.25442C11.4804 8.42708 11.7348 8.52408 12 8.52408C12.2652 8.52408 12.5196 8.42708 12.7071 8.25442C12.8946 8.08176 13 7.84758 13 7.6034V6.68272H15V7.6034C15 7.84758 15.1054 8.08176 15.2929 8.25442C15.4804 8.42708 15.7348 8.52408 16 8.52408C16.2652 8.52408 16.5196 8.42708 16.7071 8.25442C16.8946 8.08176 17 7.84758 17 7.6034V6.68272H19V18.6516Z" fill="#345AA3"/>
</svg>
