<svg width="24" height="24" viewBox="0 0 24 24" fill="none" xmlns="http://www.w3.org/2000/svg">
<path d="M12 6.68272C11.7348 6.68272 11.4804 6.77972 11.2929 6.95238C11.1054 7.12504 11 7.35922 11 7.6034V16.8102C11 17.0544 11.1054 17.2886 11.2929 17.4612C11.4804 17.6339 11.7348 17.7309 12 17.7309C12.2652 17.7309 12.5196 17.6339 12.7071 17.4612C12.8946 17.2886 13 17.0544 13 16.8102V7.6034C13 7.35922 12.8946 7.12504 12.7071 6.95238C12.5196 6.77972 12.2652 6.68272 12 6.68272ZM7 12.2068C6.73478 12.2068 6.48043 12.3038 6.29289 12.4765C6.10536 12.6491 6 12.8833 6 13.1275V16.8102C6 17.0544 6.10536 17.2886 6.29289 17.4612C6.48043 17.6339 6.73478 17.7309 7 17.7309C7.26522 17.7309 7.51957 17.6339 7.70711 17.4612C7.89464 17.2886 8 17.0544 8 16.8102V13.1275C8 12.8833 7.89464 12.6491 7.70711 12.4765C7.51957 12.3038 7.26522 12.2068 7 12.2068ZM17 10.3654C16.7348 10.3654 16.4804 10.4624 16.2929 10.6351C16.1054 10.8078 16 11.0419 16 11.2861V16.8102C16 17.0544 16.1054 17.2886 16.2929 17.4612C16.4804 17.6339 16.7348 17.7309 17 17.7309C17.2652 17.7309 17.5196 17.6339 17.7071 17.4612C17.8946 17.2886 18 17.0544 18 16.8102V11.2861C18 11.0419 17.8946 10.8078 17.7071 10.6351C17.5196 10.4624 17.2652 10.3654 17 10.3654ZM19 3H5C4.20435 3 3.44129 3.291 2.87868 3.80898C2.31607 4.32697 2 5.0295 2 5.76204V18.6516C2 19.3841 2.31607 20.0866 2.87868 20.6046C3.44129 21.1226 4.20435 21.4136 5 21.4136H19C19.7956 21.4136 20.5587 21.1226 21.1213 20.6046C21.6839 20.0866 22 19.3841 22 18.6516V5.76204C22 5.0295 21.6839 4.32697 21.1213 3.80898C20.5587 3.291 19.7956 3 19 3ZM20 18.6516C20 18.8957 19.8946 19.1299 19.7071 19.3026C19.5196 19.4752 19.2652 19.5722 19 19.5722H5C4.73478 19.5722 4.48043 19.4752 4.29289 19.3026C4.10536 19.1299 4 18.8957 4 18.6516V5.76204C4 5.51786 4.10536 5.28368 4.29289 5.11102C4.48043 4.93836 4.73478 4.84136 5 4.84136H19C19.2652 4.84136 19.5196 4.93836 19.7071 5.11102C19.8946 5.28368 20 5.51786 20 5.76204V18.6516Z" fill="#00A5DF"/>
</svg>
