<svg width="24" height="24" viewBox="0 0 24 24" fill="none" xmlns="http://www.w3.org/2000/svg">
<path d="M9 10.3654H10C10.2652 10.3654 10.5196 10.2684 10.7071 10.0958C10.8946 9.92312 11 9.68894 11 9.44476C11 9.20058 10.8946 8.9664 10.7071 8.79374C10.5196 8.62108 10.2652 8.52408 10 8.52408H9C8.73478 8.52408 8.48043 8.62108 8.29289 8.79374C8.10536 8.9664 8 9.20058 8 9.44476C8 9.68894 8.10536 9.92312 8.29289 10.0958C8.48043 10.2684 8.73478 10.3654 9 10.3654ZM9 12.2068C8.73478 12.2068 8.48043 12.3038 8.29289 12.4765C8.10536 12.6491 8 12.8833 8 13.1275C8 13.3717 8.10536 13.6058 8.29289 13.7785C8.48043 13.9512 8.73478 14.0482 9 14.0482H15C15.2652 14.0482 15.5196 13.9512 15.7071 13.7785C15.8946 13.6058 16 13.3717 16 13.1275C16 12.8833 15.8946 12.6491 15.7071 12.4765C15.5196 12.3038 15.2652 12.2068 15 12.2068H9ZM20 9.38952C19.9896 9.30494 19.9695 9.22161 19.94 9.14093V9.05807C19.8919 8.96341 19.8278 8.87639 19.75 8.80028L13.75 3.2762C13.6673 3.20459 13.5728 3.14554 13.47 3.10127C13.4402 3.09737 13.4099 3.09737 13.38 3.10127C13.2784 3.04764 13.1662 3.01321 13.05 3H7C6.20435 3 5.44129 3.291 4.87868 3.80898C4.31607 4.32697 4 5.0295 4 5.76204V18.6516C4 19.3841 4.31607 20.0866 4.87868 20.6046C5.44129 21.1226 6.20435 21.4136 7 21.4136H17C17.7956 21.4136 18.5587 21.1226 19.1213 20.6046C19.6839 20.0866 20 19.3841 20 18.6516V9.44476C20 9.44476 20 9.44476 20 9.38952ZM14 6.13952L16.59 8.52408H15C14.7348 8.52408 14.4804 8.42708 14.2929 8.25442C14.1054 8.08176 14 7.84758 14 7.6034V6.13952ZM18 18.6516C18 18.8957 17.8946 19.1299 17.7071 19.3026C17.5196 19.4752 17.2652 19.5722 17 19.5722H7C6.73478 19.5722 6.48043 19.4752 6.29289 19.3026C6.10536 19.1299 6 18.8957 6 18.6516V5.76204C6 5.51786 6.10536 5.28368 6.29289 5.11102C6.48043 4.93836 6.73478 4.84136 7 4.84136H12V7.6034C12 8.33594 12.3161 9.03847 12.8787 9.55646C13.4413 10.0744 14.2044 10.3654 15 10.3654H18V18.6516ZM15 15.8895H9C8.73478 15.8895 8.48043 15.9865 8.29289 16.1592C8.10536 16.3318 8 16.566 8 16.8102C8 17.0544 8.10536 17.2886 8.29289 17.4612C8.48043 17.6339 8.73478 17.7309 9 17.7309H15C15.2652 17.7309 15.5196 17.6339 15.7071 17.4612C15.8946 17.2886 16 17.0544 16 16.8102C16 16.566 15.8946 16.3318 15.7071 16.1592C15.5196 15.9865 15.2652 15.8895 15 15.8895Z" fill="#002855"/>
</svg>
