<svg width="956" height="608" viewBox="0 0 956 608" fill="none" xmlns="http://www.w3.org/2000/svg">
<path d="M817.335 209.701C796.781 209.701 724.529 210.033 695.947 258.985C678.697 203.649 608.263 116.072 509.432 115.382C368.02 114.399 326.978 226.333 318.923 259.038C312.289 220.413 213.604 186.035 137.995 209.701C23.0154 245.765 -18.1197 393.072 27.5403 483.078L922.522 458.323C1004.04 343.138 920.704 209.701 817.335 209.701Z" fill="#00A5DF" fill-opacity="0.3"/>
<path d="M695.47 259.134L695.807 260.216L696.379 259.237C710.573 234.927 735.63 222.657 759.776 216.471C783.915 210.286 807.063 210.201 817.335 210.201C920.21 210.201 1003.31 343 922.258 457.83L27.8433 482.569C5.22437 437.744 4.12728 378.7 22.9982 326.331C41.9059 273.859 80.8346 228.154 138.144 210.179C175.834 198.382 219.303 201.047 254.181 211.49C271.618 216.71 286.883 223.867 298.192 232.11C309.514 240.362 316.804 249.653 318.43 259.123L319.409 259.158C323.424 242.854 335.669 206.78 364.539 174.913C393.394 143.062 438.875 115.392 509.429 115.882C558.691 116.226 600.894 138.224 632.948 167.063C665.007 195.907 686.874 231.56 695.47 259.134Z" stroke="#00A5DF" stroke-opacity="0.1"/>
<path d="M670.563 247.836C680.231 247.955 689.831 246.211 698.84 242.699C734.044 228.616 750.67 188.478 769.911 142.008C772.167 136.553 774.476 130.991 776.851 125.363C780.553 116.603 789.006 86.4195 742.35 65.7132C741.516 65.3012 740.608 65.0623 739.679 65.0106C738.75 64.9589 737.82 65.0956 736.946 65.4125C736.071 65.7294 735.27 66.2199 734.589 66.8546C733.909 67.4892 733.364 68.2549 732.987 69.1056C732.611 69.9563 732.41 70.8745 732.396 71.8048C732.383 72.7352 732.558 73.6587 732.911 74.5196C733.264 75.3806 733.787 76.1614 734.449 76.8149C735.111 77.4685 735.899 77.9814 736.764 78.3228C769.765 92.9234 768.12 110.71 764.192 119.988C761.803 125.642 759.481 131.243 757.212 136.738C739.166 180.315 723.574 217.971 693.758 229.89C673.562 237.974 646.652 234.323 611.488 218.741C576.987 203.463 556.552 186.128 548.936 165.767C537.431 135.013 555.132 97.1177 575.634 53.223C577.664 48.8694 579.734 44.4361 581.804 39.9498C581.923 39.6976 594.728 15.3544 623.55 28.1366C624.384 28.5485 625.292 28.7875 626.221 28.8392C627.15 28.8908 628.08 28.7541 628.954 28.4372C629.829 28.1203 630.63 27.6298 631.311 26.9952C631.991 26.3605 632.536 25.5948 632.913 24.7441C633.289 23.8934 633.491 22.9753 633.504 22.0449C633.517 21.1145 633.342 20.1911 632.989 19.3301C632.636 18.4691 632.113 17.6884 631.451 17.0348C630.789 16.3813 630.001 15.8684 629.136 15.527C594.41 0.129976 573.776 24.4333 569.291 34.1095C567.221 38.587 565.168 43.0115 563.134 47.3828C541.319 94.0914 522.476 134.429 536.024 170.598C545.008 194.61 567.871 214.493 605.901 231.35C630.662 242.354 652.065 247.836 670.563 247.836Z" fill="#012A54"/>
<path d="M727.061 84.9221L744.578 92.6903C749.602 94.9187 755.482 92.6506 757.709 87.6245L763.615 74.3011C765.842 69.275 763.575 63.394 758.55 61.1657L741.033 53.3975C736.009 51.1691 730.129 53.4372 727.902 58.4634L721.997 71.7867C719.769 76.8129 722.036 82.6938 727.061 84.9221Z" fill="#012A54"/>
<path d="M615.692 35.5593L633.209 43.3276C638.233 45.5559 644.113 43.2878 646.34 38.2617L652.245 24.9383C654.473 19.9122 652.206 14.0312 647.181 11.8029L629.664 4.03467C624.64 1.80634 618.76 4.07442 616.533 9.10057L610.628 22.4239C608.4 27.4501 610.667 33.331 615.692 35.5593Z" fill="#012A54"/>
<path d="M109.599 607.076C109.599 607.076 -24.6082 584.592 4.00065 474.145C17.8406 420.733 77.208 406.451 77.208 406.451C77.208 406.451 61.8818 312.012 127.499 279.413C225.985 230.461 289.187 369.127 289.187 369.127C289.187 369.127 356.476 206.622 492.408 206.622C651.083 206.622 712.68 366.976 712.68 366.976C712.68 366.976 756.31 298.234 810.781 294.942C897.032 289.753 951.874 354.845 951.874 452.615C951.941 596.272 806.176 606.147 806.176 606.147L109.599 607.076Z" fill="#00B2F0"/>
<path d="M127.406 607.369C74.6735 607.369 44.0212 547.639 76.372 500.028C109.824 450.824 156.32 474.516 156.32 474.516C156.32 474.516 161.031 408.031 211.627 393.55C278.041 374.449 330.76 486.462 330.76 486.462C330.76 486.462 399.695 395.806 487.631 393.616C570.605 391.532 693.546 495.979 693.546 495.979C693.546 495.979 743.677 433.595 791.076 428.007C833.405 423.029 897.417 453.226 889.376 526.8C881.839 595.701 823.029 606.984 823.029 606.984L127.406 607.369Z" fill="#012A54"/>
<path d="M642.326 591.918V187.402C642.326 178.738 635.304 171.713 626.642 171.713L308.454 171.713C299.792 171.713 292.77 178.738 292.77 187.402V591.918C292.77 600.583 299.792 607.607 308.454 607.607H626.642C635.304 607.607 642.326 600.583 642.326 591.918Z" fill="white"/>
<path d="M623.854 588.082V190.097L311.24 190.097V588.082H623.854Z" fill="#B3E2F4"/>
<path d="M428.715 154.87H507.27C511.384 154.87 515.458 155.68 519.259 157.255C523.06 158.83 526.514 161.139 529.423 164.049C532.332 166.959 534.64 170.413 536.214 174.215C537.788 178.018 538.599 182.093 538.599 186.208V201.751H396.497V187.15C396.49 182.914 397.318 178.717 398.934 174.801C400.55 170.885 402.922 167.326 405.914 164.328C408.907 161.33 412.461 158.951 416.373 157.328C420.286 155.705 424.479 154.87 428.715 154.87Z" fill="#012A54"/>
<path d="M444.107 139.725V152.427C444.107 155.923 445.496 159.275 447.967 161.747C450.438 164.219 453.789 165.608 457.284 165.608H477.798C481.293 165.608 484.645 164.219 487.116 161.747C489.587 159.275 490.975 155.923 490.975 152.427V139.725C490.975 136.229 489.587 132.877 487.116 130.405C484.645 127.933 481.293 126.544 477.798 126.544H457.284C453.789 126.544 450.438 127.933 447.967 130.405C445.496 132.877 444.107 136.229 444.107 139.725ZM467.541 154.325C465.995 154.325 464.484 153.867 463.199 153.008C461.914 152.149 460.912 150.928 460.32 149.499C459.729 148.071 459.574 146.499 459.876 144.982C460.177 143.466 460.922 142.073 462.015 140.979C463.108 139.886 464.5 139.141 466.016 138.84C467.533 138.538 469.104 138.693 470.532 139.285C471.96 139.876 473.181 140.878 474.04 142.164C474.899 143.45 475.357 144.961 475.357 146.507C475.364 147.539 475.167 148.561 474.777 149.516C474.388 150.47 473.813 151.338 473.087 152.07C472.36 152.802 471.496 153.382 470.544 153.778C469.593 154.175 468.572 154.378 467.541 154.378V154.325Z" fill="#012A54"/>
<path d="M553.229 241.188H436.604C436.2 241.089 435.84 240.858 435.584 240.53C435.327 240.203 435.187 239.799 435.187 239.383C435.187 238.967 435.327 238.563 435.584 238.235C435.84 237.908 436.2 237.676 436.604 237.578H553.295C553.699 237.676 554.058 237.908 554.315 238.235C554.572 238.563 554.712 238.967 554.712 239.383C554.712 239.799 554.572 240.203 554.315 240.53C554.058 240.858 553.699 241.089 553.295 241.188H553.229Z" fill="white"/>
<path d="M544.365 254.448H436.604C436.2 254.349 435.84 254.117 435.584 253.79C435.327 253.463 435.187 253.059 435.187 252.643C435.187 252.226 435.327 251.822 435.584 251.495C435.84 251.168 436.2 250.936 436.604 250.837H544.431C544.835 250.936 545.195 251.168 545.451 251.495C545.708 251.822 545.848 252.226 545.848 252.643C545.848 253.059 545.708 253.463 545.451 253.79C545.195 254.117 544.835 254.349 544.431 254.448H544.365Z" fill="white"/>
<path d="M528.481 266.765H436.604C436.2 266.667 435.84 266.435 435.584 266.108C435.327 265.78 435.187 265.376 435.187 264.96C435.187 264.544 435.327 264.14 435.584 263.813C435.84 263.485 436.2 263.254 436.604 263.155H528.548C528.952 263.254 529.311 263.485 529.568 263.813C529.825 264.14 529.964 264.544 529.964 264.96C529.964 265.376 529.825 265.78 529.568 266.108C529.311 266.435 528.952 266.667 528.548 266.765H528.481Z" fill="white"/>
<path d="M479.557 278.499H436.604C436.2 278.4 435.84 278.168 435.584 277.841C435.327 277.514 435.187 277.11 435.187 276.694C435.187 276.277 435.327 275.873 435.584 275.546C435.84 275.219 436.2 274.987 436.604 274.888H479.623C480.027 274.987 480.387 275.219 480.644 275.546C480.9 275.873 481.04 276.277 481.04 276.694C481.04 277.11 480.9 277.514 480.644 277.841C480.387 278.168 480.027 278.4 479.623 278.499H479.557Z" fill="white"/>
<path d="M553.229 315.346H436.604C436.2 315.247 435.84 315.016 435.584 314.688C435.327 314.361 435.187 313.957 435.187 313.541C435.187 313.125 435.327 312.721 435.584 312.393C435.84 312.066 436.2 311.834 436.604 311.736H553.295C553.699 311.834 554.058 312.066 554.315 312.393C554.572 312.721 554.712 313.125 554.712 313.541C554.712 313.957 554.572 314.361 554.315 314.688C554.058 315.016 553.699 315.247 553.295 315.346H553.229Z" fill="white"/>
<path d="M544.365 328.606H436.604C436.2 328.507 435.84 328.275 435.584 327.948C435.327 327.621 435.187 327.217 435.187 326.801C435.187 326.384 435.327 325.98 435.584 325.653C435.84 325.326 436.2 325.094 436.604 324.995H544.431C544.835 325.094 545.195 325.326 545.451 325.653C545.708 325.98 545.848 326.384 545.848 326.801C545.848 327.217 545.708 327.621 545.451 327.948C545.195 328.275 544.835 328.507 544.431 328.606H544.365Z" fill="white"/>
<path d="M528.481 340.923H436.604C436.2 340.825 435.84 340.593 435.584 340.266C435.327 339.938 435.187 339.534 435.187 339.118C435.187 338.702 435.327 338.298 435.584 337.971C435.84 337.643 436.2 337.412 436.604 337.313H528.548C528.952 337.412 529.311 337.643 529.568 337.971C529.825 338.298 529.964 338.702 529.964 339.118C529.964 339.534 529.825 339.938 529.568 340.266C529.311 340.593 528.952 340.825 528.548 340.923H528.481Z" fill="white"/>
<path d="M479.557 352.657H436.604C436.2 352.558 435.84 352.326 435.584 351.999C435.327 351.672 435.187 351.268 435.187 350.852C435.187 350.435 435.327 350.031 435.584 349.704C435.84 349.377 436.2 349.145 436.604 349.046H479.623C480.027 349.145 480.387 349.377 480.644 349.704C480.9 350.031 481.04 350.435 481.04 350.852C481.04 351.268 480.9 351.672 480.644 351.999C480.387 352.326 480.027 352.558 479.623 352.657H479.557Z" fill="white"/>
<path d="M553.229 401.863H436.604C436.2 401.764 435.84 401.533 435.584 401.205C435.327 400.878 435.187 400.474 435.187 400.058C435.187 399.642 435.327 399.238 435.584 398.91C435.84 398.583 436.2 398.351 436.604 398.253H553.295C553.699 398.351 554.058 398.583 554.315 398.91C554.572 399.238 554.712 399.642 554.712 400.058C554.712 400.474 554.572 400.878 554.315 401.205C554.058 401.533 553.699 401.764 553.295 401.863H553.229Z" fill="white"/>
<path d="M544.365 415.123H436.604C436.2 415.024 435.84 414.792 435.584 414.465C435.327 414.138 435.187 413.734 435.187 413.318C435.187 412.902 435.327 412.497 435.584 412.17C435.84 411.843 436.2 411.611 436.604 411.512H544.431C544.835 411.611 545.195 411.843 545.451 412.17C545.708 412.497 545.848 412.902 545.848 413.318C545.848 413.734 545.708 414.138 545.451 414.465C545.195 414.792 544.835 415.024 544.431 415.123H544.365Z" fill="white"/>
<path d="M528.481 427.44H436.604C436.2 427.342 435.84 427.11 435.584 426.783C435.327 426.455 435.187 426.051 435.187 425.635C435.187 425.219 435.327 424.815 435.584 424.488C435.84 424.16 436.2 423.929 436.604 423.83H528.548C528.952 423.929 529.311 424.16 529.568 424.488C529.825 424.815 529.964 425.219 529.964 425.635C529.964 426.051 529.825 426.455 529.568 426.783C529.311 427.11 528.952 427.342 528.548 427.44H528.481Z" fill="white"/>
<path d="M479.557 439.174H436.604C436.2 439.075 435.84 438.843 435.584 438.516C435.327 438.189 435.187 437.785 435.187 437.369C435.187 436.953 435.327 436.548 435.584 436.221C435.84 435.894 436.2 435.662 436.604 435.563H479.623C480.027 435.662 480.387 435.894 480.644 436.221C480.9 436.548 481.04 436.953 481.04 437.369C481.04 437.785 480.9 438.189 480.644 438.516C480.387 438.843 480.027 439.075 479.623 439.174H479.557Z" fill="white"/>
<path d="M553.229 487.145H436.604C436.2 487.046 435.84 486.814 435.584 486.487C435.327 486.16 435.187 485.755 435.187 485.339C435.187 484.923 435.327 484.519 435.584 484.192C435.84 483.865 436.2 483.633 436.604 483.534H553.295C553.699 483.633 554.058 483.865 554.315 484.192C554.572 484.519 554.712 484.923 554.712 485.339C554.712 485.755 554.572 486.16 554.315 486.487C554.058 486.814 553.699 487.046 553.295 487.145H553.229Z" fill="white"/>
<path d="M544.365 500.404H436.604C436.2 500.306 435.84 500.074 435.584 499.747C435.327 499.419 435.187 499.015 435.187 498.599C435.187 498.183 435.327 497.779 435.584 497.452C435.84 497.124 436.2 496.893 436.604 496.794H544.431C544.835 496.893 545.195 497.124 545.451 497.452C545.708 497.779 545.848 498.183 545.848 498.599C545.848 499.015 545.708 499.419 545.451 499.747C545.195 500.074 544.835 500.306 544.431 500.404H544.365Z" fill="white"/>
<path d="M528.481 512.722H436.604C436.2 512.623 435.84 512.391 435.584 512.064C435.327 511.737 435.187 511.333 435.187 510.917C435.187 510.5 435.327 510.096 435.584 509.769C435.84 509.442 436.2 509.21 436.604 509.111H528.548C528.952 509.21 529.311 509.442 529.568 509.769C529.825 510.096 529.964 510.5 529.964 510.917C529.964 511.333 529.825 511.737 529.568 512.064C529.311 512.391 528.952 512.623 528.548 512.722H528.481Z" fill="white"/>
<path d="M479.557 524.456H436.604C436.2 524.357 435.84 524.125 435.584 523.798C435.327 523.471 435.187 523.067 435.187 522.65C435.187 522.234 435.327 521.83 435.584 521.503C435.84 521.176 436.2 520.944 436.604 520.845H479.623C480.027 520.944 480.387 521.176 480.644 521.503C480.9 521.83 481.04 522.234 481.04 522.65C481.04 523.067 480.9 523.471 480.644 523.798C480.387 524.125 480.027 524.357 479.623 524.456H479.557Z" fill="white"/>
<path d="M678.684 574.955C703.511 574.955 700.738 558.881 678.06 558.775C647.196 558.629 613.133 550.811 582.03 535.68C580.117 534.75 577.913 534.619 575.904 535.315C573.895 536.01 572.244 537.476 571.315 539.389C570.386 541.303 570.254 543.507 570.95 545.517C571.645 547.527 573.111 549.178 575.023 550.108C608.9 566.553 645.351 574.955 678.684 574.955Z" fill="#012A54"/>
<path d="M602.528 541.579C603.3 524.64 590.199 510.283 573.266 509.511C556.332 508.739 541.98 521.844 541.208 538.782C540.436 555.721 553.537 570.078 570.47 570.85C587.404 571.622 601.756 558.517 602.528 541.579Z" fill="#012A54"/>
<path d="M574.59 557.185C583.988 555.665 590.375 546.813 588.857 537.413C587.338 528.012 578.488 521.623 569.09 523.142C559.693 524.662 553.305 533.514 554.824 542.914C556.343 552.315 565.192 558.704 574.59 557.185Z" fill="#B3E2F4"/>
<circle cx="372.03" cy="340.64" r="30.635" stroke="#002855" stroke-width="3"/>
<circle cx="372.03" cy="257.831" r="30.635" stroke="#002855" stroke-width="3"/>
<circle cx="372.03" cy="424.685" r="30.635" stroke="#002855" stroke-width="3"/>
<circle cx="372.03" cy="503.787" r="30.635" stroke="#002855" stroke-width="3"/>
<line x1="372.294" y1="372.775" x2="372.294" y2="392.55" stroke="#0F172A" stroke-width="3"/>
<line x1="372.294" y1="372.775" x2="372.294" y2="392.55" stroke="#0F172A" stroke-width="3"/>
<line x1="372.294" y1="372.775" x2="372.294" y2="392.55" stroke="#0F172A" stroke-width="3"/>
<line x1="372.294" y1="372.775" x2="372.294" y2="392.55" stroke="#0F172A" stroke-width="3"/>
<line x1="372.294" y1="288.729" x2="372.294" y2="308.505" stroke="#0F172A" stroke-width="3"/>
<line x1="372.294" y1="288.729" x2="372.294" y2="308.505" stroke="#0F172A" stroke-width="3"/>
<line x1="372.294" y1="288.729" x2="372.294" y2="308.505" stroke="#0F172A" stroke-width="3"/>
<line x1="372.294" y1="288.729" x2="372.294" y2="308.505" stroke="#0F172A" stroke-width="3"/>
<line x1="372.294" y1="455.584" x2="372.294" y2="475.359" stroke="#0F172A" stroke-width="3"/>
<line x1="372.294" y1="455.584" x2="372.294" y2="475.359" stroke="#0F172A" stroke-width="3"/>
<line x1="372.294" y1="455.584" x2="372.294" y2="475.359" stroke="#0F172A" stroke-width="3"/>
<line x1="372.294" y1="455.584" x2="372.294" y2="475.359" stroke="#0F172A" stroke-width="3"/>
<circle cx="372.031" cy="257.831" r="19.7754" fill="#012A54"/>
</svg>
