<svg width="34" height="35" viewBox="0 0 34 35" fill="none" xmlns="http://www.w3.org/2000/svg">
<path d="M16.9999 28.1551C17.3296 28.1551 17.6518 28.0651 17.9259 27.8965C18.2 27.7279 18.4136 27.4882 18.5397 27.2078C18.6659 26.9274 18.6989 26.6189 18.6346 26.3212C18.5703 26.0236 18.4115 25.7502 18.1784 25.5356C17.9453 25.321 17.6484 25.1748 17.3251 25.1156C17.0018 25.0564 16.6667 25.0868 16.3621 25.2029C16.0576 25.3191 15.7973 25.5158 15.6141 25.7681C15.431 26.0204 15.3333 26.3171 15.3333 26.6206C15.3333 27.0276 15.5088 27.4179 15.8214 27.7056C16.134 27.9934 16.5579 28.1551 16.9999 28.1551ZM25.3333 28.1551C25.6629 28.1551 25.9851 28.0651 26.2592 27.8965C26.5333 27.7279 26.7469 27.4882 26.8731 27.2078C26.9992 26.9274 27.0322 26.6189 26.9679 26.3212C26.9036 26.0236 26.7449 25.7502 26.5118 25.5356C26.2787 25.321 25.9817 25.1748 25.6584 25.1156C25.3351 25.0564 25 25.0868 24.6954 25.2029C24.3909 25.3191 24.1306 25.5158 23.9475 25.7681C23.7643 26.0204 23.6666 26.3171 23.6666 26.6206C23.6666 27.0276 23.8422 27.4179 24.1547 27.7056C24.4673 27.9934 24.8912 28.1551 25.3333 28.1551ZM25.3333 22.0172C25.6629 22.0172 25.9851 21.9272 26.2592 21.7586C26.5333 21.59 26.7469 21.3503 26.8731 21.0699C26.9992 20.7896 27.0322 20.481 26.9679 20.1834C26.9036 19.8857 26.7449 19.6123 26.5118 19.3977C26.2787 19.1831 25.9817 19.037 25.6584 18.9778C25.3351 18.9185 25 18.9489 24.6954 19.0651C24.3909 19.1812 24.1306 19.3779 23.9475 19.6302C23.7643 19.8826 23.6666 20.1792 23.6666 20.4827C23.6666 20.8897 23.8422 21.28 24.1547 21.5678C24.4673 21.8555 24.8912 22.0172 25.3333 22.0172ZM16.9999 22.0172C17.3296 22.0172 17.6518 21.9272 17.9259 21.7586C18.2 21.59 18.4136 21.3503 18.5397 21.0699C18.6659 20.7896 18.6989 20.481 18.6346 20.1834C18.5703 19.8857 18.4115 19.6123 18.1784 19.3977C17.9453 19.1831 17.6484 19.037 17.3251 18.9778C17.0018 18.9185 16.6667 18.9489 16.3621 19.0651C16.0576 19.1812 15.7973 19.3779 15.6141 19.6302C15.431 19.8826 15.3333 20.1792 15.3333 20.4827C15.3333 20.8897 15.5088 21.28 15.8214 21.5678C16.134 21.8555 16.5579 22.0172 16.9999 22.0172ZM28.6666 3.6036H26.9999V2.06913C26.9999 1.66217 26.8243 1.27187 26.5118 0.984103C26.1992 0.696334 25.7753 0.534668 25.3333 0.534668C24.8912 0.534668 24.4673 0.696334 24.1547 0.984103C23.8422 1.27187 23.6666 1.66217 23.6666 2.06913V3.6036H10.3333V2.06913C10.3333 1.66217 10.1577 1.27187 9.8451 0.984103C9.53254 0.696334 9.10861 0.534668 8.66659 0.534668C8.22456 0.534668 7.80064 0.696334 7.48807 0.984103C7.17551 1.27187 6.99992 1.66217 6.99992 2.06913V3.6036H5.33325C4.00717 3.6036 2.7354 4.0886 1.79772 4.95191C0.860036 5.81521 0.333252 6.9861 0.333252 8.207V29.6895C0.333252 30.9104 0.860036 32.0813 1.79772 32.9446C2.7354 33.8079 4.00717 34.2929 5.33325 34.2929H28.6666C29.9927 34.2929 31.2644 33.8079 32.2021 32.9446C33.1398 32.0813 33.6666 30.9104 33.6666 29.6895V8.207C33.6666 6.9861 33.1398 5.81521 32.2021 4.95191C31.2644 4.0886 29.9927 3.6036 28.6666 3.6036ZM30.3333 29.6895C30.3333 30.0965 30.1577 30.4868 29.8451 30.7746C29.5325 31.0623 29.1086 31.224 28.6666 31.224H5.33325C4.89122 31.224 4.4673 31.0623 4.15474 30.7746C3.84218 30.4868 3.66659 30.0965 3.66659 29.6895V15.8793H30.3333V29.6895ZM30.3333 12.8104H3.66659V8.207C3.66659 7.80003 3.84218 7.40974 4.15474 7.12197C4.4673 6.8342 4.89122 6.67253 5.33325 6.67253H6.99992V8.207C6.99992 8.61397 7.17551 9.00426 7.48807 9.29203C7.80064 9.5798 8.22456 9.74147 8.66659 9.74147C9.10861 9.74147 9.53254 9.5798 9.8451 9.29203C10.1577 9.00426 10.3333 8.61397 10.3333 8.207V6.67253H23.6666V8.207C23.6666 8.61397 23.8422 9.00426 24.1547 9.29203C24.4673 9.5798 24.8912 9.74147 25.3333 9.74147C25.7753 9.74147 26.1992 9.5798 26.5118 9.29203C26.8243 9.00426 26.9999 8.61397 26.9999 8.207V6.67253H28.6666C29.1086 6.67253 29.5325 6.8342 29.8451 7.12197C30.1577 7.40974 30.3333 7.80003 30.3333 8.207V12.8104ZM8.66659 22.0172C8.99622 22.0172 9.31845 21.9272 9.59254 21.7586C9.86662 21.59 10.0802 21.3503 10.2064 21.0699C10.3325 20.7896 10.3655 20.481 10.3012 20.1834C10.2369 19.8857 10.0782 19.6123 9.8451 19.3977C9.61201 19.1831 9.31504 19.037 8.99174 18.9778C8.66843 18.9185 8.33332 18.9489 8.02878 19.0651C7.72424 19.1812 7.46394 19.3779 7.2808 19.6302C7.09767 19.8826 6.99992 20.1792 6.99992 20.4827C6.99992 20.8897 7.17551 21.28 7.48807 21.5678C7.80064 21.8555 8.22456 22.0172 8.66659 22.0172ZM8.66659 28.1551C8.99622 28.1551 9.31845 28.0651 9.59254 27.8965C9.86662 27.7279 10.0802 27.4882 10.2064 27.2078C10.3325 26.9274 10.3655 26.6189 10.3012 26.3212C10.2369 26.0236 10.0782 25.7502 9.8451 25.5356C9.61201 25.321 9.31504 25.1748 8.99174 25.1156C8.66843 25.0564 8.33332 25.0868 8.02878 25.2029C7.72424 25.3191 7.46394 25.5158 7.2808 25.7681C7.09767 26.0204 6.99992 26.3171 6.99992 26.6206C6.99992 27.0276 7.17551 27.4179 7.48807 27.7056C7.80064 27.9934 8.22456 28.1551 8.66659 28.1551Z" fill="white"/>
</svg>
