<svg width="34" height="35" viewBox="0 0 34 35" fill="none" xmlns="http://www.w3.org/2000/svg">
<path d="M17 28.1548C17.3297 28.1548 17.6519 28.0648 17.926 27.8962C18.2001 27.7276 18.4137 27.488 18.5398 27.2076C18.666 26.9272 18.699 26.6187 18.6347 26.321C18.5704 26.0233 18.4116 25.7499 18.1786 25.5353C17.9455 25.3207 17.6485 25.1746 17.3252 25.1154C17.0019 25.0562 16.6668 25.0866 16.3622 25.2027C16.0577 25.3188 15.7974 25.5155 15.6143 25.7679C15.4311 26.0202 15.3334 26.3169 15.3334 26.6204C15.3334 27.0273 15.509 27.4176 15.8215 27.7054C16.1341 27.9932 16.558 28.1548 17 28.1548ZM25.3334 28.1548C25.663 28.1548 25.9852 28.0648 26.2593 27.8962C26.5334 27.7276 26.747 27.488 26.8732 27.2076C26.9993 26.9272 27.0323 26.6187 26.968 26.321C26.9037 26.0233 26.745 25.7499 26.5119 25.5353C26.2788 25.3207 25.9818 25.1746 25.6585 25.1154C25.3352 25.0562 25.0001 25.0866 24.6956 25.2027C24.391 25.3188 24.1307 25.5155 23.9476 25.7679C23.7645 26.0202 23.6667 26.3169 23.6667 26.6204C23.6667 27.0273 23.8423 27.4176 24.1549 27.7054C24.4674 27.9932 24.8913 28.1548 25.3334 28.1548ZM25.3334 22.017C25.663 22.017 25.9852 21.927 26.2593 21.7584C26.5334 21.5897 26.747 21.3501 26.8732 21.0697C26.9993 20.7893 27.0323 20.4808 26.968 20.1831C26.9037 19.8855 26.745 19.6121 26.5119 19.3975C26.2788 19.1829 25.9818 19.0367 25.6585 18.9775C25.3352 18.9183 25.0001 18.9487 24.6956 19.0648C24.391 19.181 24.1307 19.3776 23.9476 19.63C23.7645 19.8823 23.6667 20.179 23.6667 20.4825C23.6667 20.8895 23.8423 21.2798 24.1549 21.5675C24.4674 21.8553 24.8913 22.017 25.3334 22.017ZM17 22.017C17.3297 22.017 17.6519 21.927 17.926 21.7584C18.2001 21.5897 18.4137 21.3501 18.5398 21.0697C18.666 20.7893 18.699 20.4808 18.6347 20.1831C18.5704 19.8855 18.4116 19.6121 18.1786 19.3975C17.9455 19.1829 17.6485 19.0367 17.3252 18.9775C17.0019 18.9183 16.6668 18.9487 16.3622 19.0648C16.0577 19.181 15.7974 19.3776 15.6143 19.63C15.4311 19.8823 15.3334 20.179 15.3334 20.4825C15.3334 20.8895 15.509 21.2798 15.8215 21.5675C16.1341 21.8553 16.558 22.017 17 22.017ZM28.6667 3.60336H27V2.06889C27 1.66192 26.8244 1.27163 26.5119 0.983859C26.1993 0.69609 25.7754 0.534424 25.3334 0.534424C24.8913 0.534424 24.4674 0.69609 24.1549 0.983859C23.8423 1.27163 23.6667 1.66192 23.6667 2.06889V3.60336H10.3334V2.06889C10.3334 1.66192 10.1578 1.27163 9.84522 0.983859C9.53266 0.69609 9.10874 0.534424 8.66671 0.534424C8.22468 0.534424 7.80076 0.69609 7.4882 0.983859C7.17564 1.27163 7.00004 1.66192 7.00004 2.06889V3.60336H5.33337C4.00729 3.60336 2.73552 4.08836 1.79784 4.95166C0.860158 5.81497 0.333374 6.98586 0.333374 8.20676V29.6893C0.333374 30.9102 0.860158 32.0811 1.79784 32.9444C2.73552 33.8077 4.00729 34.2927 5.33337 34.2927H28.6667C29.9928 34.2927 31.2646 33.8077 32.2022 32.9444C33.1399 32.0811 33.6667 30.9102 33.6667 29.6893V8.20676C33.6667 6.98586 33.1399 5.81497 32.2022 4.95166C31.2646 4.08836 29.9928 3.60336 28.6667 3.60336ZM30.3334 29.6893C30.3334 30.0963 30.1578 30.4866 29.8452 30.7743C29.5327 31.0621 29.1087 31.2238 28.6667 31.2238H5.33337C4.89135 31.2238 4.46742 31.0621 4.15486 30.7743C3.8423 30.4866 3.66671 30.0963 3.66671 29.6893V15.8791H30.3334V29.6893ZM30.3334 12.8102H3.66671V8.20676C3.66671 7.79979 3.8423 7.40949 4.15486 7.12173C4.46742 6.83396 4.89135 6.67229 5.33337 6.67229H7.00004V8.20676C7.00004 8.61372 7.17564 9.00402 7.4882 9.29179C7.80076 9.57956 8.22468 9.74122 8.66671 9.74122C9.10874 9.74122 9.53266 9.57956 9.84522 9.29179C10.1578 9.00402 10.3334 8.61372 10.3334 8.20676V6.67229H23.6667V8.20676C23.6667 8.61372 23.8423 9.00402 24.1549 9.29179C24.4674 9.57956 24.8913 9.74122 25.3334 9.74122C25.7754 9.74122 26.1993 9.57956 26.5119 9.29179C26.8244 9.00402 27 8.61372 27 8.20676V6.67229H28.6667C29.1087 6.67229 29.5327 6.83396 29.8452 7.12173C30.1578 7.40949 30.3334 7.79979 30.3334 8.20676V12.8102ZM8.66671 22.017C8.99634 22.017 9.31858 21.927 9.59266 21.7584C9.86674 21.5897 10.0804 21.3501 10.2065 21.0697C10.3327 20.7893 10.3657 20.4808 10.3013 20.1831C10.237 19.8855 10.0783 19.6121 9.84522 19.3975C9.61213 19.1829 9.31516 19.0367 8.99186 18.9775C8.66856 18.9183 8.33345 18.9487 8.0289 19.0648C7.72436 19.181 7.46406 19.3776 7.28093 19.63C7.09779 19.8823 7.00004 20.179 7.00004 20.4825C7.00004 20.8895 7.17564 21.2798 7.4882 21.5675C7.80076 21.8553 8.22468 22.017 8.66671 22.017ZM8.66671 28.1548C8.99634 28.1548 9.31858 28.0648 9.59266 27.8962C9.86674 27.7276 10.0804 27.488 10.2065 27.2076C10.3327 26.9272 10.3657 26.6187 10.3013 26.321C10.237 26.0233 10.0783 25.7499 9.84522 25.5353C9.61213 25.3207 9.31516 25.1746 8.99186 25.1154C8.66856 25.0562 8.33345 25.0866 8.0289 25.2027C7.72436 25.3188 7.46406 25.5155 7.28093 25.7679C7.09779 26.0202 7.00004 26.3169 7.00004 26.6204C7.00004 27.0273 7.17564 27.4176 7.4882 27.7054C7.80076 27.9932 8.22468 28.1548 8.66671 28.1548Z" fill="#00B2F0"/>
</svg>
