<?xml version="1.0" encoding="UTF-8"?>
<svg width="215px" height="32px" viewBox="0 0 215 32" version="1.1" xmlns="http://www.w3.org/2000/svg" xmlns:xlink="http://www.w3.org/1999/xlink">
    <title>DMG_Logo_Black</title>
    <g id="Symbols" stroke="none" stroke-width="1" fill="none" fill-rule="evenodd">
        <g id="Navigation/Desktop/LoggedOut" transform="translate(-40.000000, -16.000000)">
            <g id="Navigation/Default">
                <g id="Main-nav">
                    <g id="DMG_Logo_Black" transform="translate(40.000000, 16.000000)">
                        <rect id="container" x="0" y="0" width="215" height="32"></rect>
                        <g id="Group-2" transform="translate(4.000000, 4.000000)" fill="#1A1919">
                            <path d="M2.06307711,13.4545102 C2.06307711,15.9550218 2.01551397,16.2404007 0.634114862,16.4309979 L0.0861047372,16.5026873 C-0.0565846914,16.6453767 -0.00902154851,17.0265712 0.134357201,17.0979159 C1.25312504,17.0503527 2.11064025,17.0265712 3.1108449,17.0265712 C3.94423388,17.0265712 5.46797775,17.2168237 6.99241095,17.2168237 C8.82565991,17.2168237 10.7785061,16.9073186 12.3263762,16.073585 C15.0412666,14.5974043 16.4936657,12.0017664 16.4936657,8.97771555 C16.4936657,5.83441219 14.8741062,3.11952178 11.6594582,1.95284614 C10.1115881,1.38105445 8.42102853,1.23802036 6.42061925,1.23802036 C4.39642839,1.23802036 2.46770849,1.30970973 0.44351763,1.42861759 C0.205357255,1.52408853 0.229483487,1.905283 0.419736058,2.0238462 L0.943619951,2.09553557 C1.94382459,2.238225 2.06307711,2.73867198 2.06307711,4.40544994 L2.06307711,13.4545102 Z M4.01557859,4.11972643 C4.01557859,3.04817707 4.06348639,2.4526038 4.25373897,2.30991437 C4.4443362,2.16722494 5.20638047,1.97662771 6.61121648,1.97662771 C12.85026,1.97662771 14.1124066,6.40551457 14.1124066,9.02527869 C14.1124066,13.4545102 12.0406526,16.478561 7.42082389,16.478561 C5.92051693,16.478561 5.01578323,16.2404007 4.49189934,15.5024826 C4.08692331,14.9310356 4.01557859,14.1686467 4.01557859,12.9068447 L4.01557859,4.11972643 L4.01557859,4.11972643 Z" id="Fill-1"></path>
                            <path d="M20.5420474,13.5258549 C20.5420474,15.1688513 20.9466788,16.2641822 22.7564909,16.2641822 C23.3996273,16.2641822 24.1616715,16.002585 24.6852108,15.5500458 C24.9950605,15.2639776 25.1615315,14.907254 25.1615315,14.1686467 L25.1615315,10.2636437 C25.1615315,8.71542894 24.9950605,8.6678658 24.2805794,8.38248694 L23.9710743,8.26323442 C23.8042586,8.16810814 23.8042586,7.83447682 23.9948559,7.73935053 C24.9471527,7.71556896 26.2572071,7.5487533 26.7807463,7.31059292 C26.8999989,7.33471916 26.9713436,7.3822823 26.9951251,7.47740858 C26.947562,7.92994776 26.9237804,8.6678658 26.9237804,9.54881792 L26.9237804,13.5496365 C26.9237804,15.4307933 26.9951251,16.145619 27.6620431,16.145619 C27.9477666,16.145619 28.2572717,16.0977112 28.5909031,16.0263665 C28.7335925,16.145619 28.7577187,16.6215951 28.5667768,16.7167214 C27.6382616,16.9073186 26.2572071,17.145479 25.4475997,17.5980182 C25.3283472,17.5980182 25.2090947,17.5263288 25.1615315,17.4312025 L25.1615315,16.4547795 C25.1615315,16.2404007 25.0901868,16.1214928 24.9471527,16.1214928 C24.2330163,16.574032 23.065996,17.3595132 21.6611599,17.3595132 C19.5656244,17.3595132 18.7797985,16.3117454 18.7797985,14.3830255 L18.7797985,10.4063331 C18.7797985,8.90602617 18.7797985,8.69164737 18.0653174,8.38248694 L17.7795939,8.26323442 C17.6365598,8.14398191 17.660686,7.81069524 17.827157,7.73935053 C18.922488,7.71556896 19.8513479,7.5008455 20.3752318,7.31059292 C20.5179212,7.33471916 20.5896106,7.3822823 20.6133922,7.47740858 C20.5654843,7.88203996 20.5420474,8.38248694 20.5420474,9.54881792 L20.5420474,13.5258549" id="Fill-2"></path>
                            <path d="M33.1152609,13.4545102 C33.1152609,15.9550218 33.162824,16.2641822 34.6869125,16.4309979 L35.3297043,16.5026873 C35.4723937,16.6215951 35.4248306,17.0265712 35.2821411,17.0979159 C33.9245236,17.0503527 33.1386978,17.0265712 32.1864009,17.0265712 C31.1861963,17.0265712 30.3290257,17.0503527 29.2812579,17.0979159 C29.1382239,17.0265712 29.0906607,16.6453767 29.2336948,16.5026873 L29.7337971,16.4309979 C31.1148516,16.2404007 31.1624147,15.9550218 31.1624147,13.4545102 L31.1624147,4.66739189 C31.1624147,2.64320103 31.1148516,2.21478809 30.0429576,2.1196618 L29.1861317,2.0238462 C29.019316,1.88115677 29.0430976,1.52408853 29.2336948,1.42861759 C30.4954967,1.26214659 31.9723668,1.23802036 33.9486498,1.23802036 C35.9249329,1.23802036 37.4014583,1.50030696 38.5205708,2.19066186 C39.6159017,2.88136141 40.4258538,4.11972643 40.4258538,5.76272282 C40.4258538,7.95338467 39.0682362,9.04906026 38.0445947,9.54881792 C36.9968269,10.0492649 35.7346803,10.2636437 34.7582572,10.2636437 C34.5914416,10.1919543 34.5914416,9.8348861 34.7344757,9.7869783 C37.3059873,9.31100221 38.2351919,7.85825839 38.2351919,5.78650439 C38.2351919,3.47659002 36.8775744,1.97662771 34.4008444,1.97662771 C33.1386978,1.97662771 33.1152609,2.071754 33.1152609,2.83379827 L33.1152609,13.4545102" id="Fill-3"></path>
                            <path d="M42.3307921,13.1208789 C40.8067036,13.6685443 40.3541644,14.2162098 40.3541644,15.1454144 C40.3541644,15.8119877 40.6398879,16.4072163 41.0924271,16.8121924 C41.4970585,17.1692606 42.0688502,17.3595132 42.7595497,17.3595132 C43.426123,17.3595132 43.9500069,17.0503527 44.4738908,16.7642846 C44.9502116,16.5026873 45.2359351,16.2879638 45.4024061,16.2879638 C45.5454402,16.2879638 45.6884743,16.478561 45.7836006,16.6215951 C46.1885766,17.145479 46.7600236,17.3595132 47.3314707,17.3595132 C48.4981463,17.3595132 49.33188,16.4309979 49.33188,16.3117454 C49.33188,16.145619 49.2601906,16.002585 49.1650643,16.002585 C49.0933749,16.002585 48.9748117,16.0977112 48.8555592,16.169056 C48.7125251,16.2404007 48.4981463,16.3117454 48.2599859,16.3117454 C47.3314707,16.3117454 47.1170919,15.335667 47.164655,14.240336 L47.3076891,10.096828 C47.3790338,8.31079757 46.5456448,7.31059292 44.8309591,7.31059292 C43.0928364,7.31059292 40.4020722,9.00115246 40.4020722,10.2395175 C40.4020722,10.4538963 40.5209801,10.5731488 40.7350142,10.5731488 C41.0924271,10.5731488 41.7352189,10.4063331 42.0926317,10.1206096 C42.283229,9.97757553 42.3070105,9.69185201 42.3307921,9.31100221 C42.3783553,8.57273951 43.1879627,8.23945285 43.8548807,8.23945285 C45.3310614,8.23945285 45.6167849,9.43025473 45.593348,10.3112069 L45.5692218,11.4065378 C45.5454402,11.7639507 45.5216586,11.9779848 45.1642457,12.0968927 L42.3307921,13.1208789 Z M42.187758,14.8596909 C42.187758,13.9304863 42.8784576,13.5734181 44.2832936,13.0970973 C44.7120512,12.9544079 45.1166826,12.8592816 45.2597167,12.8592816 C45.4024061,12.8592816 45.497877,12.9068447 45.497877,13.168442 L45.4503139,14.5736227 C45.4503139,15.073725 45.4265323,15.4070117 45.1408088,15.6930799 C44.9026484,15.9308956 44.1643857,16.2879638 43.688065,16.2879638 C42.4734815,16.2879638 42.187758,15.2639776 42.187758,14.8596909 L42.187758,14.8596909 Z" id="Fill-4"></path>
                            <path d="M53.4750433,13.4545102 C52.3321492,13.4545102 51.308163,12.3591793 51.308163,10.6682751 C51.308163,9.04906026 52.1653336,8.00129248 53.3082276,8.00129248 C54.7609715,8.00129248 55.4275448,9.35856535 55.4275448,10.9777802 C55.4275448,12.430524 54.7609715,13.4545102 53.4750433,13.4545102 Z M56.9995411,8.16810814 C56.4753126,8.16810814 56.3088416,8.12020033 55.5467973,7.78691367 C54.9991318,7.5487533 54.1657428,7.31059292 53.2606645,7.31059292 C51.1413473,7.31059292 49.3790984,8.85846303 49.3790984,10.9064355 C49.3790984,12.430524 50.3555215,13.3593839 51.1651289,13.7877969 C51.1651289,13.9070494 51.0458764,14.097302 50.9269685,14.240336 C50.5223372,14.668749 50.069798,15.073725 49.6651666,15.335667 C49.40288,15.5262642 49.3077537,15.6213905 49.3077537,15.740643 C49.3077537,16.574032 50.1173611,17.3836394 51.0458764,17.6217998 C51.2605999,17.7644892 51.0700026,17.978868 50.8556238,18.1932468 C50.3079584,18.7409123 49.641385,19.3599225 49.236409,19.7886801 C49.0695933,19.9792773 48.9744671,20.2884377 48.9744671,20.6696322 C48.9744671,21.8607787 49.9981086,23.4320857 52.9273778,23.4320857 C56.023118,23.4320857 58.8569163,21.5271474 58.8569163,18.9315095 C58.8569163,16.5502504 56.856507,16.3117454 55.5230157,16.3117454 C54.4752479,16.3117454 53.4988249,16.3834348 52.6892175,16.3834348 C51.570105,16.3834348 51.0224395,15.9308956 51.0224395,15.3832301 C51.0224395,14.6928752 51.7844838,14.240336 52.0702073,14.0735204 C52.3559308,14.097302 52.6892175,14.1448651 53.1179751,14.1448651 C56.1423706,14.1448651 57.118449,12.0017664 57.118449,10.35877 C57.118449,9.95379396 57.118449,9.54881792 57.0705412,9.14418655 L58.7855716,9.14418655 C59.1426398,9.0966234 59.190203,8.28701599 58.928261,8.16810814 L56.9995411,8.16810814 Z M54.7609715,17.7886154 C56.4753126,17.7886154 57.4755172,18.407281 57.4755172,19.8600248 C57.4755172,21.2172976 56.0710258,22.4080995 53.951364,22.4080995 C51.7844838,22.4080995 50.7604975,21.3365502 50.7604975,20.050622 C50.7604975,19.1458883 51.3319446,18.407281 51.9033916,18.0502127 C52.2370229,17.8361786 53.1893198,17.7886154 53.951364,17.7886154 L54.7609715,17.7886154 L54.7609715,17.7886154 Z" id="Fill-5"></path>
                            <path d="M65.5960622,10.9305617 C66.5962668,10.9305617 66.9292088,10.9064355 67.0008982,10.7634014 C67.0484614,10.6682751 67.0960245,10.4780225 67.0960245,10.1443912 C67.0960245,8.71542894 65.7628779,7.31059292 63.7149054,7.31059292 C60.8569809,7.31059292 58.928261,9.76319673 58.928261,12.6924659 C58.928261,13.7402337 59.2139845,14.8596909 59.9284657,15.7882062 C60.6188206,16.6929398 61.833404,17.3595132 63.3812741,17.3595132 C64.6196391,17.3595132 66.3339802,16.7642846 67.1201507,15.1454144 C67.0960245,14.9310356 66.9292088,14.7880015 66.6913931,14.8596909 C65.9531304,15.7882062 65.2862124,16.0263665 64.5007313,16.0263665 C61.9523119,16.0263665 60.5478205,13.9780494 60.5478205,11.5733534 C60.5478205,10.9777802 60.5712574,10.9305617 61.1906122,10.9305617 L65.5960622,10.9305617 Z M60.9762334,10.2157359 C60.8094178,10.2157359 60.8094178,10.1443912 60.8094178,10.096828 C60.8331994,9.31100221 62.0477828,8.02507405 63.4529635,8.02507405 C64.8340179,8.02507405 65.2862124,8.85846303 65.2862124,9.52538101 C65.2862124,9.8348861 65.2148677,9.93001239 65.143523,9.97757553 C64.9529258,10.1206096 64.4293866,10.2157359 62.666793,10.2157359 L60.9762334,10.2157359 L60.9762334,10.2157359 Z" id="Fill-6"></path>
                            <path d="M82.2652205,10.6682751 C82.8125413,11.7873876 83.3367698,12.8827185 83.9082169,13.9304863 L83.95578,13.9304863 C84.5989164,12.8117185 85.194145,11.5733534 85.7893736,10.35877 L88.0275986,5.81028596 C89.1232742,3.64340568 89.7901922,2.33369594 89.8374107,1.23836502 C90.6470181,1.31005439 91.1471204,1.31005439 91.6234412,1.31005439 C92.2186698,1.31005439 93.0044956,1.28592816 93.7427583,1.23802036 C93.886137,1.3334913 93.886137,1.73846734 93.7668845,1.83359362 L93.2667822,1.88115677 C91.7664752,2.04797243 91.575878,2.47638537 91.6000042,4.143508 C91.6475674,6.66745651 91.671349,11.0732511 91.8616015,14.502278 C91.9332909,15.6930799 91.9091647,16.3117454 93.0286218,16.4309979 L93.7906661,16.5026873 C93.9337002,16.6453767 93.909574,17.0024449 93.7427583,17.0979159 C92.7663352,17.0503527 91.7902568,17.0265712 90.9327416,17.0265712 C90.0993526,17.0265712 89.0281479,17.0503527 88.0517249,17.0979159 C87.8849092,16.9786634 87.8611276,16.6453767 88.0041617,16.5026873 L88.6945166,16.4309979 C89.8615369,16.3117454 89.8615369,15.9308956 89.8615369,14.406807 L89.7901922,4.47679466 L89.7422844,4.47679466 C89.5754687,4.7387366 88.670735,6.6440196 88.1947589,7.57253487 L86.0754418,11.7398244 C85.0035478,13.83536 83.9319984,16.073585 83.5032408,17.1692606 C83.4556777,17.24095 83.3605514,17.2643869 83.2650804,17.2643869 C83.2175173,17.2643869 83.0986094,17.24095 83.0507016,17.1692606 C82.6460703,15.907114 81.5031762,13.5734181 80.9551661,12.4067424 L78.8120674,7.81069524 C78.3123097,6.71536432 77.8122074,5.4769993 77.2883235,4.38166837 L77.2404157,4.38166837 C77.1452894,5.8578491 77.0739447,7.23924821 77.0022553,8.62030265 C76.9309106,10.0730465 76.8357843,12.1923636 76.8357843,14.2162098 C76.8357843,15.9784587 76.9784737,16.3596532 77.9073337,16.4309979 L78.8120674,16.5026873 C78.978883,16.6453767 78.9551015,17.0265712 78.7882858,17.0979159 C77.9786784,17.0503527 77.0501631,17.0265712 76.1450848,17.0265712 C75.3830405,17.0265712 74.5258699,17.0503527 73.7162625,17.0979159 C73.5732284,16.9786634 73.5256653,16.6215951 73.6686994,16.5026873 L74.1925833,16.4309979 C75.1927879,16.3117454 75.5260746,16.145619 75.668764,14.4784964 C75.8117981,12.9068447 75.930706,11.597135 76.07374,9.23931283 C76.1926479,7.26302978 76.2881188,5.23883893 76.3353373,3.92912919 C76.3832451,2.42882223 76.1926479,2.1196618 74.7402487,1.88115677 L74.3593989,1.83359362 C74.2398018,1.69055953 74.263928,1.3334913 74.4541806,1.23836502 C75.1690063,1.28592816 75.7401087,1.31005439 76.3353373,1.31005439 C76.8833475,1.31005439 77.5261392,1.31005439 78.3123097,1.23802036 C78.2168388,2.16722494 78.8120674,3.64340568 79.5506747,5.16714955 L82.2652205,10.6682751" id="Fill-7"></path>
                            <path d="M101.386983,10.9305617 C102.386498,10.9305617 102.720474,10.9064355 102.791819,10.7634014 C102.839037,10.6682751 102.886945,10.4780225 102.886945,10.1443912 C102.886945,8.71542894 101.553454,7.31059292 99.5054811,7.31059292 C96.6479013,7.31059292 94.7191814,9.76319673 94.7191814,12.6924659 C94.7191814,13.7402337 95.0049049,14.8596909 95.719386,15.7882062 C96.4100856,16.6929398 97.6243244,17.3595132 99.1721945,17.3595132 C100.410559,17.3595132 102.124901,16.7642846 102.910726,15.1454144 C102.886945,14.9310356 102.720474,14.7880015 102.482313,14.8596909 C101.744051,15.7882062 101.077133,16.0263665 100.291307,16.0263665 C97.7432322,16.0263665 96.3383962,13.9780494 96.3383962,11.5733534 C96.3383962,10.9777802 96.3621778,10.9305617 96.9815326,10.9305617 L101.386983,10.9305617 Z M96.7671538,10.2157359 C96.6003381,10.2157359 96.6003381,10.1443912 96.6003381,10.096828 C96.6241197,9.31100221 97.8387032,8.02507405 99.2435392,8.02507405 C100.624594,8.02507405 101.077133,8.85846303 101.077133,9.52538101 C101.077133,9.8348861 101.005788,9.93001239 100.934443,9.97757553 C100.743846,10.1206096 100.219962,10.2157359 98.4577133,10.2157359 L96.7671538,10.2157359 L96.7671538,10.2157359 Z" id="Fill-8"></path>
                            <path d="M112.578797,3.09574021 C112.578797,2.04797243 112.62636,0.857515214 112.650486,0.142689429 C112.602578,0.0475631429 112.507452,6.75015599e-14 112.412326,6.75015599e-14 C111.554811,0.452539178 110.435698,0.80960741 109.84047,1.00020464 C109.721562,1.07189402 109.721562,1.40483602 109.84047,1.47618073 L110.07863,1.61921482 C110.792766,2.04797243 110.816893,2.19066186 110.816893,3.59584253 L110.816893,7.19168507 C110.816893,7.3822823 110.792766,7.52497173 110.673859,7.52497173 C110.411917,7.42950078 109.888377,7.31059292 109.078425,7.31059292 C105.839651,7.31059292 103.315702,9.45369164 103.315702,12.7875922 C103.315702,15.2881038 105.077607,17.3595132 107.721152,17.3595132 C108.864046,17.3595132 109.673654,16.9786634 110.721422,16.2641822 L110.816893,16.2641822 C110.864456,16.3596532 110.864456,16.6453767 110.864456,17.0024449 L110.864456,17.407421 C110.864456,17.5263288 110.983708,17.5980182 111.126053,17.5980182 C111.792971,17.3360763 113.269841,16.9786634 114.269356,16.8359739 C114.48408,16.7167214 114.460298,16.1214928 114.293483,16.073585 C113.936414,16.1928375 113.531438,16.3117454 113.269841,16.3117454 C112.602578,16.3117454 112.578797,15.4307933 112.578797,13.5496365 L112.578797,3.09574021 Z M110.816893,14.668749 C110.816893,15.0499435 110.792766,15.4070117 110.650077,15.5500458 C110.269227,15.9308956 109.459275,16.2166191 108.816483,16.2166191 C106.482787,16.2166191 105.268204,14.1686467 105.268204,12.0017664 C105.268204,9.93001239 106.387316,8.04885562 108.554541,8.04885562 C109.483401,8.04885562 110.197538,8.54861328 110.554951,9.04906026 C110.721422,9.28722064 110.816893,9.50159944 110.816893,9.97757553 L110.816893,14.668749 L110.816893,14.668749 Z" id="Fill-9"></path>
                            <path d="M118.055451,2.47638537 C118.055451,3.31011902 117.460223,3.69096882 116.817431,3.69096882 C116.079168,3.69096882 115.603192,3.16708493 115.603192,2.52394852 C115.603192,1.73846734 116.198076,1.26214659 116.889121,1.26214659 C117.602912,1.26214659 118.055451,1.80981205 118.055451,2.47638537 Z M116.10295,10.1919543 C116.10295,9.26343907 116.10295,9.14418655 115.460158,8.71542894 L115.245779,8.57273951 C115.150653,8.47761323 115.150653,8.21567128 115.269561,8.14398191 C115.817571,7.95338467 117.174499,7.33471916 117.722509,6.97730626 C117.841417,6.97730626 117.936544,7.02486941 117.959981,7.11999569 C117.913107,7.95338467 117.864854,9.0966234 117.864854,10.0730465 L117.864854,14.3592439 C117.864854,16.073585 117.913107,16.3117454 118.769933,16.4309979 L119.270035,16.5026873 C119.437195,16.6215951 119.389287,17.0265712 119.222472,17.0979159 C118.507991,17.0503527 117.817636,17.0265712 116.983902,17.0265712 C116.126732,17.0265712 115.41225,17.0503527 114.745332,17.0979159 C114.578861,17.0265712 114.531298,16.6215951 114.698459,16.5026873 L115.198216,16.4309979 C116.079168,16.3117454 116.10295,16.073585 116.10295,14.3592439 L116.10295,10.1919543 L116.10295,10.1919543 Z" id="Fill-10"></path>
                            <path d="M128.390095,7.71556896 C128.580692,7.88203996 128.747508,8.26323442 128.747508,8.6678658 C128.747508,9.0966234 128.509348,9.54881792 128.223624,9.54881792 C128.104372,9.54881792 127.985464,9.50159944 127.890338,9.38234692 C127.366109,8.73955517 126.485157,8.12020033 125.509079,8.12020033 C123.841956,8.12020033 122.223086,9.43025473 122.223086,11.9542032 C122.223086,13.8119231 123.508669,16.0263665 126.057089,16.0263665 C127.437798,16.0263665 128.151935,15.4070117 128.699945,14.5974043 C128.890542,14.5498411 129.104576,14.7166568 129.128358,14.9310356 C128.318751,16.6929398 126.53272,17.3595132 125.15201,17.3595132 C123.889864,17.3595132 122.722843,16.9548818 121.889454,16.145619 C121.056065,15.335667 120.5084,14.1686467 120.5084,12.6207766 C120.5084,10.0492649 122.318212,7.31059292 126.271123,7.31059292 C126.818788,7.31059292 127.747304,7.42950078 128.390095,7.71556896" id="Fill-11"></path>
                            <path d="M131.747777,13.1208789 C130.223689,13.6685443 129.771494,14.2162098 129.771494,15.1454144 C129.771494,15.8119877 130.056873,16.4072163 130.509757,16.8121924 C130.914044,17.1692606 131.48618,17.3595132 132.176535,17.3595132 C132.843453,17.3595132 133.366992,17.0503527 133.890876,16.7642846 C134.367197,16.5026873 134.65292,16.2879638 134.819391,16.2879638 C134.962425,16.2879638 135.10546,16.478561 135.200586,16.6215951 C135.605562,17.145479 136.177009,17.3595132 136.748456,17.3595132 C137.915476,17.3595132 138.748865,16.4309979 138.748865,16.3117454 C138.748865,16.145619 138.677865,16.002585 138.581705,16.002585 C138.510705,16.002585 138.391797,16.0977112 138.272545,16.169056 C138.129855,16.2404007 137.915476,16.3117454 137.677316,16.3117454 C136.748456,16.3117454 136.534077,15.335667 136.58233,14.240336 L136.724674,10.096828 C136.796364,8.31079757 135.962975,7.31059292 134.248289,7.31059292 C132.509822,7.31059292 129.818713,9.00115246 129.818713,10.2395175 C129.818713,10.4538963 129.937965,10.5731488 130.152,10.5731488 C130.509757,10.5731488 131.152549,10.4063331 131.509617,10.1206096 C131.700214,9.97757553 131.723996,9.69185201 131.747777,9.31100221 C131.795341,8.57273951 132.605293,8.23945285 133.271521,8.23945285 C134.748047,8.23945285 135.03446,9.43025473 135.009989,10.3112069 L134.986552,11.4065378 C134.962425,11.7639507 134.938989,11.9779848 134.581576,12.0968927 L131.747777,13.1208789 Z M131.604743,14.8596909 C131.604743,13.9304863 132.295788,13.5734181 133.700279,13.0970973 C134.129381,12.9544079 134.533668,12.8592816 134.676702,12.8592816 C134.819391,12.8592816 134.914862,12.9068447 134.914862,13.168442 L134.867299,14.5736227 C134.867299,15.073725 134.843862,15.4070117 134.557794,15.6930799 C134.319634,15.9308956 133.581716,16.2879638 133.10505,16.2879638 C131.890467,16.2879638 131.604743,15.2639776 131.604743,14.8596909 L131.604743,14.8596909 Z" id="Fill-12"></path>
                            <path d="M142.177892,14.3592439 C142.177892,16.073585 142.225455,16.3117454 143.082626,16.4309979 L143.654418,16.5026873 C143.820889,16.6215951 143.773325,17.0265712 143.60651,17.0979159 C142.820339,17.0503527 142.129984,17.0265712 141.296595,17.0265712 C140.43908,17.0265712 139.725288,17.0503527 139.010807,17.0979159 C138.843992,17.0265712 138.796428,16.6215951 138.962899,16.5026873 L139.510565,16.4309979 C140.391862,16.3117454 140.415643,16.073585 140.415643,14.3592439 L140.415643,3.59584253 C140.415643,2.19066186 140.391862,2.04797243 139.677381,1.61921482 L139.439565,1.47618073 C139.319968,1.40483602 139.319968,1.07189402 139.439565,1.00020464 C140.034449,0.80960741 141.153561,0.452539178 142.011421,-3.90798505e-14 C142.106547,-3.90798505e-14 142.201674,0.0475631429 142.249237,0.142689429 C142.225455,0.857515214 142.177892,2.04797243 142.177892,3.09574021 L142.177892,14.3592439" id="Fill-13"></path>
                            <path d="M164.395394,14.5974043 C164.395394,15.5500458 164.538084,16.1214928 164.966841,16.2879638 C165.038531,16.3596532 165.038531,16.5026873 164.943405,16.574032 C164.656992,16.574032 164.228923,16.6691583 163.776384,16.7884108 C162.514238,17.1213528 160.799207,17.407421 159.513624,17.407421 C156.679825,17.407421 154.084532,16.6215951 152.250939,14.7638753 C150.821976,13.3352577 150.059932,11.4541009 150.059932,9.35856535 C150.059932,7.33471916 150.72685,5.28674673 152.203031,3.71475039 C153.798809,2.04797243 156.155942,0.928515267 159.751784,0.928515267 C161.109402,0.928515267 162.370859,1.19045721 162.77618,1.28592816 C163.228374,1.38105445 163.966637,1.54787011 164.25236,1.50030696 C164.25236,2.2861328 164.395394,3.52415316 164.609773,4.95311541 C164.538084,5.14371264 164.109326,5.16714955 163.966637,5.02446012 C163.300063,2.4526038 161.514033,1.64299639 159.084866,1.64299639 C154.465037,1.64299639 152.441191,4.92933384 152.441191,8.50105014 C152.441191,13.0733157 154.798669,16.6691583 159.584968,16.6691583 C161.061494,16.6691583 161.942791,16.3596532 162.204733,15.9550218 C162.32364,15.7882062 162.442548,15.3594485 162.442548,14.5974043 L162.442548,13.6451074 C162.442548,11.6443535 162.370859,11.5016641 160.894678,11.3348484 L159.847255,11.2159405 C159.656658,11.1208143 159.680095,10.6920567 159.847255,10.6207119 C160.53761,10.6682751 161.846975,10.6924013 163.2525,10.6924013 C164.181016,10.6924013 164.990623,10.6682751 165.776794,10.6207119 C165.943265,10.7161829 165.967391,11.0732511 165.80023,11.2159405 L165.419381,11.2635037 C164.419176,11.3827562 164.395394,12.0493295 164.395394,13.263913 L164.395394,14.5974043" id="Fill-14"></path>
                            <path d="M168.253179,10.1919543 C168.253179,9.26343907 168.253179,9.14418655 167.610042,8.71542894 L167.395664,8.57273951 C167.300537,8.47761323 167.300537,8.21567128 167.419445,8.14398191 C167.967455,7.95338467 169.228913,7.33471916 169.824831,6.97730626 C169.943738,7.00108783 170.015428,7.04865098 170.015428,7.14412192 L170.015428,8.52517637 C170.015428,8.64408423 170.038865,8.71542894 170.086773,8.73955517 C170.920161,8.04885562 171.82524,7.31059292 172.705847,7.31059292 C173.301421,7.31059292 173.777741,7.69178739 173.777741,8.26323442 C173.777741,9.04906026 173.134605,9.35856535 172.753755,9.35856535 C172.515595,9.35856535 172.396342,9.28722064 172.229527,9.19174969 C171.872458,8.95358932 171.515045,8.81089989 171.182103,8.81089989 C170.801254,8.81089989 170.515185,9.02527869 170.324588,9.28722064 C170.086773,9.6205073 170.015428,10.3112069 170.015428,11.1208143 L170.015428,14.3592439 C170.015428,16.073585 170.062302,16.3596532 170.96738,16.4309979 L171.82524,16.5026873 C171.991711,16.6215951 171.943803,17.0265712 171.777332,17.0979159 C170.65822,17.0503527 169.967175,17.0265712 169.133786,17.0265712 C168.27696,17.0265712 167.562135,17.0503527 166.943125,17.0979159 C166.776654,17.0265712 166.728746,16.6215951 166.895906,16.5026873 L167.348101,16.4309979 C168.229053,16.2879638 168.253179,16.073585 168.253179,14.3592439 L168.253179,10.1919543" id="Fill-15"></path>
                            <path d="M178.897328,7.31059292 C176.087311,7.31059292 173.824615,9.45369164 173.824615,12.4543056 C173.824615,15.4307933 175.967714,17.3595132 178.706386,17.3595132 C181.683218,17.3595132 183.731535,15.2164145 183.731535,12.2399268 C183.731535,9.31100221 181.563966,7.31059292 178.897328,7.31059292 Z M181.683218,12.6207766 C181.683218,14.4547148 181.040426,16.6453767 178.944891,16.6453767 C176.849011,16.6453767 175.873277,14.3116808 175.873277,12.1448005 C175.873277,9.52538101 177.039608,8.02507405 178.61126,8.02507405 C180.873611,8.02507405 181.683218,10.5969304 181.683218,12.6207766 L181.683218,12.6207766 Z" id="Fill-16"></path>
                            <path d="M187.51763,13.5258549 C187.51763,15.1688513 187.922262,16.2641822 189.732074,16.2641822 C190.374866,16.2641822 191.13691,16.002585 191.660449,15.5500458 C191.970643,15.2639776 192.13677,14.907254 192.13677,14.1686467 L192.13677,10.2636437 C192.13677,8.71542894 191.970643,8.6678658 191.256162,8.38248694 L190.946313,8.26323442 C190.779497,8.16810814 190.779497,7.83447682 190.970439,7.73935053 C191.922736,7.71556896 193.232445,7.5487533 193.756329,7.31059292 C193.875237,7.33471916 193.946582,7.3822823 193.970708,7.47740858 C193.923145,7.92994776 193.899363,8.6678658 193.899363,9.54881792 L193.899363,13.5496365 C193.899363,15.4307933 193.970708,16.145619 194.637626,16.145619 C194.92335,16.145619 195.232855,16.0977112 195.566141,16.0263665 C195.708831,16.145619 195.732957,16.6215951 195.54236,16.7167214 C194.6135,16.9073186 193.232445,17.145479 192.422493,17.5980182 C192.30393,17.5980182 192.184678,17.5263288 192.13677,17.4312025 L192.13677,16.4547795 C192.13677,16.2404007 192.06577,16.1214928 191.922736,16.1214928 C191.208255,16.574032 190.041234,17.3595132 188.636398,17.3595132 C186.540863,17.3595132 185.755037,16.3117454 185.755037,14.3830255 L185.755037,10.4063331 C185.755037,8.90602617 185.755037,8.69164737 185.0409,8.38248694 L184.754832,8.26323442 C184.612143,8.14398191 184.635924,7.81069524 184.80274,7.73935053 C185.898071,7.71556896 186.826586,7.5008455 187.350815,7.31059292 C187.493504,7.33471916 187.564849,7.3822823 187.588975,7.47740858 C187.541067,7.88203996 187.51763,8.38248694 187.51763,9.54881792 L187.51763,13.5258549" id="Fill-17"></path>
                            <path d="M197.114356,20.4318165 C197.114356,22.1461576 197.089885,22.3843179 196.209278,22.5035705 L195.708831,22.5749152 C195.542015,22.693823 195.589923,23.0984544 195.756739,23.1701438 C196.423312,23.1225806 197.137793,23.0984544 197.994619,23.0984544 C198.828353,23.0984544 199.519052,23.1225806 200.661946,23.1697991 C200.828762,23.0984544 200.87667,22.693823 200.709509,22.5749152 L199.780994,22.4556627 C198.923479,22.3364101 198.87626,22.122376 198.87626,20.4318165 L198.87626,17.9313049 C198.87626,17.4312025 198.995168,17.31195 199.209892,17.2643869 C199.423926,17.31195 200.090154,17.3595132 200.519257,17.3595132 C203.90072,17.3595132 206.329198,14.9782541 206.329198,11.6684797 C206.329198,9.26343907 204.782017,7.31059292 202.376287,7.31059292 C200.852543,7.31059292 199.352236,8.28701599 199.042731,8.43005008 C198.87626,8.43005008 198.828353,8.28701599 198.828353,8.12020033 C198.828353,7.81069524 198.87626,7.45362701 198.923479,7.02486941 C198.87626,6.90561689 198.781134,6.85805375 198.6381,6.85805375 C198.01909,7.31059292 196.899633,7.88203996 196.280278,8.14398191 C196.16137,8.21567128 196.16137,8.47761323 196.256496,8.57273951 L196.470875,8.71542894 C197.114356,9.14418655 197.114356,9.26343907 197.114356,10.1919543 L197.114356,20.4318165 Z M198.87626,10.5255857 C198.87626,9.73941515 198.947605,9.38234692 199.161639,9.12040498 C199.423926,8.83468146 200.161844,8.45383165 201.18583,8.45383165 C203.329273,8.45383165 204.400478,10.3825516 204.400478,12.2874899 C204.400478,14.7638753 203.257929,16.574032 201.305427,16.574032 C200.80498,16.574032 200.066718,16.4072163 199.590397,16.0501481 C199.114421,15.6689536 198.87626,15.3832301 198.87626,14.6211858 L198.87626,10.5255857 L198.87626,10.5255857 Z" id="Fill-18"></path>
                        </g>
                    </g>
                </g>
            </g>
        </g>
    </g>
</svg>