<?xml version="1.0" encoding="UTF-8"?>
<svg width="469px" height="272px" viewBox="0 0 469 272" version="1.1" xmlns="http://www.w3.org/2000/svg" xmlns:xlink="http://www.w3.org/1999/xlink">
    <title>06E0B978-737E-461E-AACC-A567E4A1BE98@2x</title>
    <g id="Symbols" stroke="none" stroke-width="1" fill="none" fill-rule="evenodd">
        <g id="Logo/Main" transform="translate(-120.000000, -92.000000)">
            <g id="Duly_Blue_Transitional-Logo" transform="translate(120.000000, 92.000000)">
                <path d="M92.9959705,61.2680727 L92.9959705,115.460091 C83.3668229,108.452057 71.6180795,104.289736 58.8960675,104.289736 C26.3684815,104.289736 0,131.232117 0,164.467514 C0,197.705783 26.3684815,224.6496 58.8960675,224.6496 C72.5351412,224.6496 85.0545122,219.864151 95.0371723,211.91281 C97.1183107,219.0515 105.547882,223.235358 113.249721,224.03078 L130.194655,224.03078 L130.194655,61.2680727 L92.9959705,61.2680727 Z M60.4476767,191.552037 C45.8944995,191.552037 34.0984239,179.424017 34.0984239,164.467514 C34.0984239,149.512447 45.8944995,137.388734 60.4476767,137.388734 C74.9993747,137.388734 86.7969294,149.512447 86.7969294,164.467514 C86.7969294,179.424017 74.9993747,191.552037 60.4476767,191.552037 L60.4476767,191.552037 Z" id="Fill-1" fill="#002855"></path>
                <polygon id="Fill-2" fill="#002855" points="291.023345 223.798655 328.464945 223.798655 328.464945 62.1190182 291.023345 62.1190182"></polygon>
                <path d="M225.500545,198.657072 C210.957372,198.657072 199.059628,187.205474 199.059628,173.207646 L199.059628,128.513354 C199.059628,114.929163 187.511337,103.815345 173.396429,103.815345 L152.319236,103.815345 L152.319236,174.709049 C152.319236,227.989535 225.500545,240.839484 225.500545,198.657072" id="Fill-3" fill="#002855"></path>
                <path d="M224.6496,128.579188 C224.6496,114.958788 236.213113,103.815345 250.346626,103.815345 L271.4516,103.815345 L271.4516,149.901695 C271.4516,182.400651 247.224209,199.894348 224.6496,199.095006 L224.6496,128.579188" id="Fill-4" fill="#00B3F0"></path>
                <path d="M447.522528,102.9644 C439.6004,103.782703 431.902595,109.588349 430.409079,117.043522 L430.409079,167.070562 C430.409079,167.79555 430.372184,168.484648 430.372184,169.159389 C430.372184,182.514959 419.068984,189.810779 411.003703,189.810779 C402.98122,189.810779 393.007722,182.514959 393.007722,169.120627 C393.007722,168.028121 392.870472,166.89111 392.870472,165.680883 L392.870472,118.296818 C391.886109,110.247299 382.647562,103.828643 374.290072,102.9644 L353.993309,102.9644 L353.993309,165.680883 C353.993309,185.650353 359.241276,198.536475 369.594057,208.860016 C379.979305,219.213706 393.912391,224.460896 411.003703,224.460896 C417.432315,224.460896 423.493451,223.379874 429.017394,221.247979 C431.170595,220.421062 433.201304,219.446276 435.099191,218.332235 C434.528054,223.727294 432.463401,230.602477 428.832918,234.192962 C424.526515,238.445267 418.694129,240.51256 411.003703,240.51256 C403.506607,240.51256 397.575342,237.832258 392.984109,232.368289 L355.855777,232.368289 L355.939897,232.59081 C360.358461,244.341357 367.460041,253.837982 377.035071,260.8194 C386.701602,267.874036 398.12877,271.4516 411.003703,271.4516 C421.788895,271.4516 431.631046,268.942137 440.265988,263.99212 C448.889124,259.040668 455.747196,252.156871 460.655727,243.531668 C465.542121,234.938048 468.02,225.28207 468.02,214.830759 L468.02,102.9644 L447.522528,102.9644" id="Fill-5" fill="#002855"></path>
                <polyline id="Fill-6" fill="#00B3F0" points="28.3943098 250.177964 28.3943098 257.996937 21.8085515 257.996937 21.8085515 250.177964 17.0189091 250.177964 17.0189091 270.600655 21.8085515 270.600655 21.8085515 262.488506 28.3943098 262.488506 28.3943098 270.600655 33.1868727 270.600655 33.1868727 250.177964 28.3943098 250.177964"></polyline>
                <polyline id="Fill-7" fill="#00B3F0" points="40.8453818 250.177964 40.8453818 270.600655 54.4605091 270.600655 54.4605091 266.106239 45.7948278 266.106239 45.7948278 262.488506 53.5306955 262.488506 53.5306955 258.05671 45.7948278 258.05671 45.7948278 254.668109 54.305037 254.668109 54.305037 250.177964 40.8453818 250.177964"></polyline>
                <path d="M67.5660213,250.177964 L60.4171273,270.600655 L65.6762522,270.600655 L66.7266122,267.391375 L74.534728,267.391375 L75.586553,270.600655 L80.8398182,270.600655 L73.6923891,250.177964 L67.5660213,250.177964 Z M70.6292052,255.516327 L73.0932297,263.015084 L68.1681105,263.015084 L70.6292052,255.516327 L70.6292052,255.516327 Z" id="Fill-8" fill="#00B3F0"></path>
                <polyline id="Fill-9" fill="#00B3F0" points="86.7964364 250.177964 86.7964364 270.600655 99.5606182 270.600655 99.5606182 266.106239 91.7775805 266.106239 91.7775805 250.177964 86.7964364 250.177964"></polyline>
                <polyline id="Fill-10" fill="#00B3F0" points="102.9644 250.177964 102.9644 254.668109 108.561528 254.668109 108.561528 270.600655 113.536753 270.600655 113.536753 254.668109 119.132364 254.668109 119.132364 250.177964 102.9644 250.177964"></polyline>
                <polyline id="Fill-11" fill="#00B3F0" points="136.46541 250.177964 136.46541 257.996937 129.880517 257.996937 129.880517 250.177964 125.088982 250.177964 125.088982 270.600655 129.880517 270.600655 129.880517 262.488506 136.46541 262.488506 136.46541 270.600655 141.256945 270.600655 141.256945 250.177964 136.46541 250.177964"></polyline>
                <path d="M164.365801,250.177964 L156.573964,270.600655 L159.530493,270.600655 L161.230133,266.019425 L170.637138,266.019425 L172.341147,270.600655 L175.294764,270.600655 L167.500013,250.177964 L164.365801,250.177964 Z M165.916887,253.412861 L169.681728,263.481888 L162.187,263.481888 L165.916887,253.412861 L165.916887,253.412861 Z" id="Fill-12" fill="#00B3F0"></path>
                <polyline id="Fill-13" fill="#00B3F0" points="195.423008 250.177964 195.423008 265.406033 184.398378 250.177964 182.102327 250.177964 182.102327 270.600655 184.94961 270.600655 184.94961 255.342699 195.97424 270.600655 198.270291 270.600655 198.270291 250.177964 195.423008 250.177964"></polyline>
                <path d="M208.807414,268.031986 L214.377463,268.031986 C216.58435,268.031986 218.38971,267.30479 219.793543,265.844705 C221.194358,264.364697 221.897784,262.547417 221.897784,260.388598 C221.897784,258.228355 221.194358,256.411075 219.793543,254.93249 C218.38971,253.472405 216.58435,252.743786 214.377463,252.743786 L208.807414,252.743786 L208.807414,268.031986 Z M205.9288,250.177964 L214.377463,250.177964 C217.307399,250.177964 219.752787,251.169854 221.710606,253.153634 C223.671445,255.117491 224.6496,257.52962 224.6496,260.388598 C224.6496,263.229075 223.671445,265.649742 221.710606,267.652023 C219.752787,269.618726 217.307399,270.600655 214.377463,270.600655 L205.9288,270.600655 L205.9288,250.177964 L205.9288,250.177964 Z" id="Fill-14" fill="#00B3F0"></path>
                <path d="M249.460977,270.600655 C246.242974,270.600655 243.563555,269.590068 241.433222,267.563193 C239.319392,265.536318 238.264727,263.006287 238.264727,259.964549 C238.264727,256.925662 239.319392,254.402758 241.433222,252.395838 C243.547053,250.349008 246.22047,249.327018 249.460977,249.327018 C251.388778,249.327018 253.171056,249.750353 254.812313,250.599873 C256.452069,251.446542 257.742271,252.601091 258.687418,254.06067 L254.441755,256.399701 C253.972181,255.600068 253.303077,254.982883 252.42994,254.54387 C251.555304,254.106281 250.566649,253.8882 249.460977,253.8882 C247.533175,253.8882 246.005937,254.441243 244.877761,255.553031 C243.749584,256.642013 243.186996,258.11442 243.186996,259.964549 C243.186996,261.816104 243.749584,263.284234 244.877761,264.376067 C246.005937,265.48643 247.533175,266.042324 249.460977,266.042324 C250.547146,266.042324 251.537301,265.818541 252.42994,265.369549 C253.32108,264.921983 253.993185,264.309075 254.441755,263.530823 L258.687418,265.867003 C257.764774,267.328007 256.483574,268.482556 254.843818,269.329225 C253.204061,270.17732 251.406781,270.600655 249.460977,270.600655" id="Fill-15" fill="#00B3F0"></path>
                <path d="M270.944476,250.177964 L263.793091,270.600655 L269.051505,270.600655 L270.102016,267.391375 L277.911252,267.391375 L278.961763,270.600655 L284.215782,270.600655 L277.068792,250.177964 L270.944476,250.177964 Z M274.008099,255.516327 L276.469547,263.015084 L271.543721,263.015084 L274.008099,255.516327 L274.008099,255.516327 Z" id="Fill-16" fill="#00B3F0"></path>
                <path d="M299.407546,254.553645 L295.813691,254.553645 L295.813691,259.805885 L299.407546,259.805885 C300.064958,259.805885 300.630333,259.554016 301.097826,259.047434 C301.568241,258.540851 301.801988,257.917583 301.801988,257.179053 C301.801988,256.440524 301.568241,255.821525 301.097826,255.312096 C300.630333,254.808359 300.064958,254.553645 299.407546,254.553645 M307.191309,270.600655 L302.0445,270.600655 L298.089799,263.891277 L295.813691,263.891277 L295.813691,270.600655 L291.023345,270.600655 L291.023345,250.177964 L299.407546,250.177964 C301.404619,250.177964 303.102204,250.859574 304.500301,252.222794 C305.898398,253.581745 306.595255,255.236678 306.595255,257.179053 C306.595255,258.404244 306.240252,259.554016 305.531708,260.624102 C304.821702,261.692764 303.888177,262.519519 302.731131,263.102943 L307.191309,270.600655" id="Fill-17" fill="#00B3F0"></path>
                <polyline id="Fill-18" fill="#00B3F0" points="313.998873 250.177964 313.998873 270.600655 327.614 270.600655 327.614 266.106239 318.950789 266.106239 318.950789 262.488506 326.68278 262.488506 326.68278 258.05671 318.950789 258.05671 318.950789 254.668109 327.457036 254.668109 327.457036 250.177964 313.998873 250.177964"></polyline>
                <path d="M371.028062,9.61261279 C370.542185,9.61261279 370.135527,9.436762 369.805447,9.08364228 C369.475367,8.7291044 369.310327,8.30082264 369.310327,7.798797 C369.310327,7.30244397 369.475367,6.86848961 369.805447,6.50402467 C370.135527,6.13955973 370.542185,5.95661818 371.028062,5.95661818 C371.492814,5.95661818 371.89155,6.13955973 372.21899,6.50402467 C372.55039,6.86848961 372.714109,7.30244397 372.714109,7.798797 C372.714109,8.30082264 372.55039,8.7291044 372.21899,9.08364228 C371.89155,9.436762 371.492814,9.61261279 371.028062,9.61261279 L371.028062,9.61261279 Z M369.746032,28.0812 L372.278404,28.0812 L372.278404,12.4560066 L369.746032,12.4560066 L369.746032,28.0812 Z" id="Fill-19" fill="#888B8D"></path>
                <path d="M379.621813,16.6998504 C379.621813,17.7364607 380.711256,18.5440183 382.894642,19.1298646 C383.710973,19.3031224 384.399753,19.4807851 384.960981,19.6628526 C385.523709,19.8449202 386.14046,20.1224263 386.814233,20.4865614 C387.486506,20.853633 387.998214,21.3381676 388.352358,21.9431016 C388.7035,22.5465674 388.882073,23.257218 388.882073,24.0765219 C388.882073,25.5462767 388.298336,26.7223742 387.127861,27.6062827 C385.958886,28.4916595 384.482287,28.9321455 382.698062,28.9321455 C381.110418,28.9321455 379.738861,28.591503 378.580391,27.9131546 C377.423421,27.2318697 376.601087,26.3097857 376.117891,25.1469028 L378.598398,23.7534989 C378.861005,24.5316907 379.359207,25.1469028 380.084001,25.599135 C380.813297,26.0528356 381.68365,26.2774834 382.698062,26.2774834 C383.691466,26.2774834 384.482287,26.0954159 385.076528,25.7298125 C385.67377,25.3627409 385.970891,24.8121335 385.970891,24.0765219 C385.970891,22.9767753 384.879948,22.180964 382.698062,21.6846832 C381.970267,21.4879328 381.418043,21.3381676 381.044391,21.2309826 C380.669239,21.1237977 380.157531,20.9285156 379.506266,20.6510095 C378.856503,20.3690985 378.365803,20.0725046 378.035669,19.7582913 C377.702534,19.4470145 377.402412,19.0256163 377.1248,18.4970331 C376.848688,17.96845 376.713633,17.3811354 376.713633,16.7321527 C376.713633,15.3328757 377.261355,14.1758659 378.365803,13.2728697 C379.48976,12.3654686 380.888328,11.9132364 382.566009,11.9132364 C383.910554,11.9132364 385.10654,12.2112985 386.150964,12.803018 C387.19989,13.3947375 387.98921,14.2213828 388.515924,15.2770808 L386.104445,16.6058801 C385.508703,15.2256908 384.327724,14.5326595 382.566009,14.5326595 C381.727168,14.5326595 381.027884,14.7294099 380.466656,15.1170376 C379.903928,15.5061335 379.621813,16.0332483 379.621813,16.6998504" id="Fill-20" fill="#888B8D"></path>
                <path d="M408.076899,11.9132364 C409.99,11.9132364 411.525224,12.4953632 412.681087,13.6624773 C413.833987,14.8295914 414.410436,16.4100585 414.410436,18.4038785 L414.410436,28.0812 L411.571162,28.0812 L411.571162,18.5640707 C411.571162,17.3011273 411.212548,16.3156596 410.493838,15.6005161 C409.773647,14.8868029 408.783753,14.5292312 407.521195,14.5292312 C406.061547,14.5292312 404.91013,14.966899 404.059533,15.8379437 C403.210418,16.7075582 402.78512,18.007689 402.78512,19.7297545 L402.78512,28.0812 L399.944364,28.0812 L399.944364,12.3208681 L402.78512,12.3208681 L402.78512,14.5921638 C403.918755,12.8043051 405.682187,11.9132364 408.076899,11.9132364" id="Fill-21" fill="#888B8D"></path>
                <path d="M432.345128,26.4754902 C430.708441,28.1142393 428.695184,28.9321455 426.305357,28.9321455 C423.918461,28.9321455 421.905203,28.1142393 420.268516,26.4754902 C418.630364,24.8352726 417.814218,22.8176729 417.814218,20.4226909 C417.814218,18.0306458 418.630364,16.013046 420.268516,14.3728285 C421.905203,12.7326109 423.918461,11.9132364 426.305357,11.9132364 C428.695184,11.9132364 430.708441,12.7326109 432.345128,14.3728285 C434.002329,16.0336038 434.833127,18.0512036 434.833127,20.4226909 C434.833127,22.7956467 434.002329,24.8132464 432.345128,26.4754902 M426.305357,26.1818075 C427.921531,26.1818075 429.278355,25.6311526 430.375829,24.5313111 C431.474768,23.4314696 432.022773,22.0629085 432.022773,20.4226909 C432.022773,18.7839418 431.474768,17.4139122 430.375829,16.3140708 C429.278355,15.2142293 427.921531,14.6635743 426.305357,14.6635743 C424.714093,14.6635743 423.368991,15.2142293 422.271517,16.3140708 C421.172577,17.4139122 420.623107,18.7839418 420.623107,20.4226909 C420.623107,22.0629085 421.172577,23.4314696 422.271517,24.5313111 C423.368991,25.6311526 424.714093,26.1818075 426.305357,26.1818075" id="Fill-22" fill="#888B8D"></path>
                <polyline id="Fill-23" fill="#888B8D" points="452.877354 25.0864033 456.507712 12.7641818 459.510545 12.7641818 454.394496 28.9321455 451.45756 28.9321455 447.595063 16.970875 443.73556 28.9321455 440.795629 28.9321455 435.684073 12.7641818 438.686906 12.7641818 442.315767 25.0541231 446.209715 12.7641818 448.983405 12.7641818 452.877354 25.0864033"></polyline>
                <path d="M464.193717,16.7847791 C463.602452,16.7847791 463.100323,16.5883787 462.685844,16.1969807 C462.271364,15.8055827 462.063382,15.331416 462.063382,14.7744805 C462.063382,14.217545 462.271364,13.7433782 462.685844,13.354786 C463.100323,12.9605822 463.602452,12.7641818 464.193717,12.7641818 C464.802808,12.7641818 465.309394,12.9605822 465.71496,13.354786 C466.117555,13.7433782 466.318109,14.217545 466.318109,14.7744805 C466.318109,15.331416 466.117555,15.8055827 465.71496,16.1969807 C465.309394,16.5883787 464.802808,16.7847791 464.193717,16.7847791 M464.193717,28.9321455 C463.602452,28.9321455 463.100323,28.7371479 462.685844,28.3457499 C462.271364,27.9543519 462.063382,27.4801852 462.063382,26.9232497 C462.063382,26.367717 462.271364,25.8949532 462.685844,25.5021523 C463.100323,25.1107543 463.602452,24.9157567 464.193717,24.9157567 C464.802808,24.9157567 465.309394,25.1107543 465.71496,25.5021523 C466.117555,25.8949532 466.318109,26.367717 466.318109,26.9232497 C466.318109,27.4801852 466.117555,27.9543519 465.71496,28.3457499 C465.309394,28.7371479 464.802808,28.9321455 464.193717,28.9321455" id="Fill-24" fill="#888B8D"></path>
                <path d="M23.6476683,7.15593728 C23.6476683,5.4454798 23.7273475,4.49459109 24.0416376,4.26614936 C24.3559277,4.03627987 25.6145637,3.73216681 27.9326377,3.73216681 C38.2333853,3.73216681 40.318324,10.8095772 40.318324,14.9943442 C40.318324,22.0703269 36.8980213,26.9018696 29.2694773,26.9018696 C26.7935205,26.9018696 25.298798,26.5206574 24.4341313,25.341327 C23.767187,24.4289878 23.6476683,23.2111078 23.6476683,21.1936818 L23.6476683,7.15593728 Z M20.4236125,22.0703269 C20.4236125,26.0652017 20.3454088,26.5206574 18.0642233,26.8247705 L17.1611926,26.9389913 C16.9251061,27.1674331 17.0047853,27.7756592 17.2393962,27.88988 C19.0867728,27.8156365 20.5032916,27.7756592 22.1544214,27.7756592 C23.529625,27.7756592 26.046897,28.0812 28.564169,28.0812 C31.5890268,28.0812 34.8130826,27.5843392 37.3687187,26.2536661 C41.8514105,23.896433 44.2491636,19.7502156 44.2491636,14.9172451 C44.2491636,9.89581031 41.5754844,5.55827291 36.2679655,3.69647279 C33.7123295,2.7812781 30.920607,2.55283636 27.6183475,2.55283636 C24.2762485,2.55283636 21.0920323,2.66705723 17.7499332,2.85837718 C17.3574395,3.01114759 17.3972791,3.61794594 17.7130447,3.80926589 L18.5762358,3.922059 C20.2273656,4.15050073 20.4236125,4.9500468 20.4236125,7.61424851 L20.4236125,22.0703269 L20.4236125,22.0703269 Z" id="Fill-25" fill="#888B8D"></path>
                <path d="M51.4345467,21.680591 C51.4345467,24.262184 52.0911667,25.9841824 55.0263887,25.9841824 C56.0685736,25.9841824 57.3049906,25.5726444 58.1543931,24.8633384 C58.6559175,24.4138772 58.9269725,23.8520506 58.9269725,22.6918788 L58.9269725,16.5539237 C58.9269725,14.1212147 58.6559175,14.0467727 57.4977731,13.5973115 L56.9962487,13.4119087 C56.7251937,13.2602155 56.7251937,12.7363123 57.0339355,12.5860237 C58.5790944,12.5495049 60.7040501,12.286851 61.5534526,11.9132364 C61.7462351,11.9511597 61.8621945,12.0256017 61.9013308,12.1744857 C61.8230582,12.8880054 61.7853714,14.0467727 61.7853714,15.4316752 L61.7853714,21.7185143 C61.7853714,24.6751265 61.9013308,25.7987796 62.9826521,25.7987796 C63.4450401,25.7987796 63.9480139,25.722933 64.4886746,25.6105677 C64.7205934,25.7987796 64.7582802,26.5460089 64.4495383,26.6962975 C62.9435158,26.9940656 60.7040501,27.3704894 59.3908101,28.0812 C59.1965781,28.0812 59.0037956,27.9688347 58.9269725,27.8185461 L58.9269725,26.283355 C58.9269725,25.9476637 58.8110131,25.7608563 58.5790944,25.7608563 C57.42095,26.4715669 55.527913,27.7061808 53.2493111,27.7061808 C49.8502515,27.7061808 48.5761478,26.060029 48.5761478,23.0275702 L48.5761478,16.7800589 C48.5761478,14.4203874 48.5761478,14.084696 47.4180034,13.5973115 L46.9541659,13.4119087 C46.7222471,13.2222922 46.7613834,12.698389 47.030989,12.5860237 C48.8080666,12.5495049 50.3140891,12.2138136 51.1634916,11.9132364 C51.3954104,11.9511597 51.5113698,12.0256017 51.550506,12.1744857 C51.473683,12.8107543 51.4345467,13.5973115 51.4345467,15.4316752 L51.4345467,21.680591" id="Fill-26" fill="#888B8D"></path>
                <path d="M72.1870571,22.217373 C72.1870571,26.2426399 72.265174,26.7404034 74.7781821,27.0094259 L75.8408676,27.1230771 C76.0752185,27.3158526 75.9956276,27.9675488 75.7598028,28.0812 C73.522415,28.004953 72.2253786,27.9675488 70.6556698,27.9675488 C69.0048962,27.9675488 67.5914213,28.004953 65.8640046,28.0812 C65.6281798,27.9675488 65.5515367,27.3518182 65.7858876,27.1230771 L66.6098005,27.0094259 C68.8884577,26.700122 68.9665746,26.2426399 68.9665746,22.217373 L68.9665746,8.07283249 C68.9665746,4.81435159 68.8884577,4.12525121 67.1212456,3.97131856 L65.7062968,3.81738591 C65.4321504,3.58720624 65.470472,3.0131957 65.7858876,2.85926304 C67.8670415,2.59167918 70.3019326,2.55283636 73.5607365,2.55283636 C76.8224883,2.55283636 79.2559055,2.97435288 81.1012345,4.08640839 C82.9082421,5.19846391 84.2436,7.18951802 84.2436,9.83658419 C84.2436,13.3612103 82.0047383,15.1235234 80.3156432,15.9305909 C78.5882265,16.7362197 76.5070726,17.0786119 74.8960945,17.0786119 C74.6219481,16.9649607 74.6219481,16.3895116 74.8577729,16.3132646 C79.0981976,15.5464785 80.6295849,13.2087163 80.6295849,9.87398838 C80.6295849,6.15658677 78.3921971,3.73970027 74.3080064,3.73970027 C72.2253786,3.73970027 72.1870571,3.89363292 72.1870571,5.11933964 L72.1870571,22.217373" id="Fill-27" fill="#888B8D"></path>
                <path d="M87.19874,24.0604203 C87.19874,22.5648513 88.3119579,21.9910705 90.5758371,21.2245914 C91.2656578,20.9945039 91.9180352,20.8420709 92.1484555,20.8420709 C92.3788757,20.8420709 92.5315292,20.9168493 92.5315292,21.3381971 L92.4552025,23.6002452 C92.4552025,24.4055516 92.4177592,24.9419432 91.9569186,25.4006802 C91.5724048,25.7846388 90.3828601,26.3598576 89.6167127,26.3598576 C87.6595805,26.3598576 87.19874,24.7118556 87.19874,24.0604203 M87.4291603,21.2634187 C84.9737442,22.1420654 84.2436,23.0250264 84.2436,24.5205954 C84.2436,25.5919405 84.7030004,26.5496798 85.4331447,27.2025532 C86.0855221,27.776334 87.0072031,28.0812 88.1204211,28.0812 C89.1933155,28.0812 90.0386699,27.5850737 90.881144,27.1234606 C91.6501716,26.7035509 92.109572,26.3598576 92.3788757,26.3598576 C92.609296,26.3598576 92.8397163,26.6661616 92.9923697,26.8962492 C93.6461872,27.7389448 94.5664282,28.0812 95.4866692,28.0812 C97.3674746,28.0812 98.7096727,26.5899451 98.7096727,26.3972468 C98.7096727,26.1297701 98.5930225,25.8996825 98.440369,25.8996825 C98.326599,25.8996825 98.1350622,26.0521155 97.9420852,26.1671593 C97.713105,26.280765 97.3674746,26.3972468 96.9829608,26.3972468 C95.4866692,26.3972468 95.1410388,24.8268994 95.2188056,23.0638536 L95.4492259,16.3956292 C95.5629959,13.5224111 94.2207978,11.9132364 91.4586348,11.9132364 C88.6575883,11.9132364 84.3213668,14.6340215 84.3213668,16.6271548 C84.3213668,16.9722861 84.5129037,17.1635464 84.8585341,17.1635464 C85.4331447,17.1635464 86.4685958,16.8946315 87.0432063,16.4358945 C87.3528336,16.205807 87.3902768,15.7456319 87.4291603,15.1315858 C87.505487,13.9451969 88.8088016,13.4088054 89.8845763,13.4088054 C92.2622255,13.4088054 92.7245062,15.3242841 92.6841826,16.7421986 L92.6481794,18.5038063 C92.609296,19.0790251 92.5704126,19.4227184 91.9943619,19.6154167 L87.4291603,21.2634187" id="Fill-28" fill="#888B8D"></path>
                <path d="M107.590033,28.5047622 C110.472604,28.5047622 112.154354,29.4854794 112.154354,31.7851407 C112.154354,33.9347934 109.793291,35.8198081 106.228402,35.8198081 C102.583859,35.8198081 100.86153,34.1230118 100.86153,32.0865732 C100.86153,30.6544149 101.823389,29.4854794 102.783745,28.9194089 C103.345831,28.5797666 104.946424,28.5047622 106.228402,28.5047622 L107.590033,28.5047622 Z M111.354809,13.2703903 C110.472604,13.2703903 110.193064,13.195386 108.911086,12.6675253 C107.989806,12.2910884 106.589099,11.9132364 105.066657,11.9132364 C101.50327,11.9132364 98.539543,14.3643216 98.539543,17.6079054 C98.539543,20.0207809 100.180715,21.4911489 101.543849,22.1690184 C101.543849,22.358652 101.34246,22.6600845 101.142573,22.8865127 C100.461758,23.5643821 99.7012881,24.2054569 99.0204724,24.6215187 C98.5801214,24.9229513 98.4193106,25.0729599 98.4193106,25.2625935 C98.4193106,26.5815378 99.780942,27.8636874 101.34246,28.2401243 C101.703157,28.4665525 101.383038,28.8061948 101.022341,29.1458371 C100.101061,30.0133401 98.979894,30.992642 98.2990783,31.6719266 C98.019538,31.9733591 97.8587273,32.4644253 97.8587273,33.0672903 C97.8587273,34.952305 99.5810557,37.4416 104.506073,37.4416 C109.712134,37.4416 114.477844,34.4244443 114.477844,30.3147726 C114.477844,26.543328 111.114344,26.1668911 108.872011,26.1668911 C107.109104,26.1668911 105.467932,26.2801052 104.106301,26.2801052 C102.224665,26.2801052 101.303384,25.5640261 101.303384,24.6965231 C101.303384,23.6025919 102.583859,22.8865127 103.064788,22.6218747 C103.545718,22.6600845 104.106301,22.7350888 104.826192,22.7350888 C109.912021,22.7350888 111.554695,19.3414963 111.554695,16.7404024 C111.554695,16.0993276 111.554695,15.4582528 111.473538,14.8171779 L114.357612,14.8171779 C114.958774,14.7407584 115.038428,13.460024 114.598077,13.2703903 L111.354809,13.2703903 Z M105.427354,21.6425728 C103.505139,21.6425728 101.782811,19.9075668 101.782811,17.2300534 C101.782811,14.6657541 103.225599,13.0071676 105.146311,13.0071676 C107.590033,13.0071676 108.7112,15.1568202 108.7112,17.7211195 C108.7112,20.0207809 107.590033,21.6425728 105.427354,21.6425728 L105.427354,21.6425728 Z" id="Fill-29" fill="#888B8D"></path>
                <path d="M118.281789,16.5879117 C118.004051,16.5879117 118.004051,16.4728782 118.004051,16.3966685 C118.044152,15.1312996 120.062583,13.0635717 122.397369,13.0635717 C124.693539,13.0635717 125.445066,14.4037124 125.445066,15.4764002 C125.445066,15.9753581 125.326248,16.1277776 125.207429,16.2054252 C124.891075,16.4340544 124.020728,16.5879117 121.09185,16.5879117 L118.281789,16.5879117 Z M125.958957,17.7368092 C127.620932,17.7368092 128.174924,17.6994233 128.293742,17.4693562 C128.37246,17.3154988 128.452662,17.0092221 128.452662,16.4728782 C128.452662,14.1736454 126.236695,11.9132364 122.832542,11.9132364 C118.084254,11.9132364 114.877636,15.8603246 114.877636,20.5723859 C114.877636,22.2576272 115.352911,24.05934 116.541097,25.553338 C117.687696,27.0085123 119.706128,28.0812 122.27855,28.0812 C124.337083,28.0812 127.185759,27.1235458 128.492764,24.5194741 C128.452662,24.1743735 128.174924,23.9443064 127.779852,24.05934 C126.55305,25.553338 125.445066,25.9358245 124.138062,25.9358245 C119.903663,25.9358245 117.568878,22.6415516 117.568878,18.772111 C117.568878,17.8144568 117.608979,17.7368092 118.638245,17.7368092 L125.958957,17.7368092 L125.958957,17.7368092 Z" id="Fill-30" fill="#888B8D"></path>
                <path d="M153.262252,17.5742944 C154.179255,19.3567668 155.057301,21.1022229 156.016259,22.7707992 L156.097171,22.7707992 C157.173001,20.9883269 158.172415,19.0165025 159.17033,17.0816943 L162.922252,9.83506156 C164.759255,6.3840129 165.878539,4.29686879 165.957953,2.55283636 C167.315477,2.66673236 168.153067,2.66673236 168.9502,2.66673236 C169.948115,2.66673236 171.266682,2.62829246 172.504337,2.55283636 C172.745575,2.70374856 172.745575,3.34868463 172.544793,3.50102052 L171.707203,3.57647662 C169.191438,3.84270851 168.872285,4.52466078 168.911242,7.17986117 C168.992155,11.2018135 169.032611,18.2192305 169.350265,23.6819672 C169.471633,25.5783355 169.431177,26.5649596 171.307138,26.7543117 L172.585249,26.8682077 C172.824988,27.0959996 172.783034,27.6640559 172.504337,27.8163918 C170.868115,27.7409357 169.230396,27.7024958 167.791959,27.7024958 C166.396975,27.7024958 164.600428,27.7409357 162.964207,27.8163918 C162.684011,27.6270397 162.643555,27.0959996 162.883295,26.8682077 L164.041536,26.7543117 C165.998409,26.5649596 165.998409,25.9584634 165.998409,23.5296313 L165.878539,7.71090125 L165.796128,7.71090125 C165.51893,8.12804533 164.00108,11.1633736 163.202448,12.6425978 L159.648311,19.2813107 C157.853262,22.619887 156.055216,26.1848317 155.335998,27.9302878 C155.258083,28.0441838 155.099255,28.0812 154.93893,28.0812 C154.859516,28.0812 154.658734,28.0441838 154.579321,27.9302878 C153.89906,25.9200235 151.984141,22.2013192 151.064141,20.3433908 L147.472545,13.0227257 C146.634956,11.2772696 145.797366,9.30402148 144.917822,7.55998906 L144.838408,7.55998906 C144.678083,9.91194136 144.558213,12.1115578 144.439842,14.3111742 C144.316975,16.6261103 144.158148,20.0017028 144.158148,23.2263832 C144.158148,26.0339195 144.399386,26.6404157 145.956193,26.7543117 L147.472545,26.8682077 C147.751242,27.0959996 147.712285,27.7024958 147.433588,27.8163918 C146.076063,27.7409357 144.519255,27.7024958 143.001405,27.7024958 C141.723294,27.7024958 140.286356,27.7409357 138.93033,27.8163918 C138.690591,27.6270397 138.60818,27.0575597 138.84792,26.8682077 L139.725965,26.7543117 C141.404141,26.5649596 141.964532,26.2987277 142.204272,23.6435273 C142.442513,21.1406628 142.641796,19.0535187 142.881535,15.2977982 C143.082317,12.1499977 143.241145,8.9253173 143.31906,6.83959689 C143.40147,4.44920468 143.082317,3.95660451 140.645965,3.57647662 L140.006161,3.50102052 C139.808376,3.27322853 139.847334,2.70374856 140.164988,2.55283636 C141.365184,2.62829246 142.321145,2.66673236 143.31906,2.66673236 C144.23906,2.66673236 145.316389,2.66673236 146.634956,2.55283636 C146.473132,4.0320606 147.472545,6.3840129 148.711698,8.8114213 L153.262252,17.5742944" id="Fill-31" fill="#888B8D"></path>
                <path d="M176.997397,16.5879117 C176.719628,16.5879117 176.719628,16.4728782 176.719628,16.3966685 C176.759734,15.1312996 178.778385,13.0635717 181.113426,13.0635717 C183.408361,13.0635717 184.161456,14.4037124 184.161456,15.4764002 C184.161456,15.9753581 184.042624,16.1277776 183.923792,16.2054252 C183.607403,16.4340544 182.736962,16.5879117 179.807764,16.5879117 L176.997397,16.5879117 Z M184.675402,17.7368092 C186.337559,17.7368092 186.891611,17.6994233 187.010443,17.4693562 C187.089168,17.3154988 187.16938,17.0092221 187.16938,16.4728782 C187.16938,14.1736454 184.953171,11.9132364 181.548646,11.9132364 C176.79984,11.9132364 173.592873,15.8603246 173.592873,20.5723859 C173.592873,22.2576272 174.068199,24.05934 175.256515,25.553338 C176.403239,27.0085123 178.421891,28.0812 180.994594,28.0812 C183.053351,28.0812 185.902338,27.1235458 187.208,24.5194741 C187.16938,24.1743735 186.891611,23.9443064 186.496496,24.05934 C185.26956,25.553338 184.161456,25.9358245 182.854308,25.9358245 C178.619448,25.9358245 176.284408,22.6415516 176.284408,18.772111 C176.284408,17.8144568 176.324513,17.7368092 177.353892,17.7368092 L184.675402,17.7368092 L184.675402,17.7368092 Z" id="Fill-32" fill="#888B8D"></path>
                <path d="M200.699498,23.4064667 C200.699498,24.0154085 200.66034,24.5844196 200.417861,24.8125945 C199.776269,25.4201102 198.411758,25.87646 197.328885,25.87646 C193.394997,25.87646 191.349736,22.6078545 191.349736,19.1510048 C191.349736,15.8453209 193.235352,12.8433948 196.887603,12.8433948 C198.452423,12.8433948 199.657289,13.6405809 200.258216,14.439193 C200.538347,14.8199599 200.699498,15.1607962 200.699498,15.9209038 L200.699498,23.4064667 Z M203.670999,4.93998663 C203.670999,3.26717938 203.749316,1.36762332 203.78998,0.228174902 C203.708651,0.0755829364 203.549007,0 203.389362,0 C201.945029,0.721603128 200.057907,1.29204038 199.05335,1.59579822 C198.853041,1.70988567 198.853041,2.24181841 199.05335,2.35590587 L199.455474,2.58408077 C200.66034,3.26717938 200.699498,3.49535428 200.699498,5.7371727 L200.699498,11.4757715 C200.699498,11.7795293 200.66034,12.0077042 200.458525,12.0077042 C200.017243,11.8551123 199.134678,11.6654419 197.771673,11.6654419 C192.313629,11.6654419 188.058945,15.0852132 188.058945,20.4045406 C188.058945,24.3947492 191.028941,27.7004331 195.483933,27.7004331 C197.408707,27.7004331 198.774724,27.0929175 200.538347,25.9520429 L200.699498,25.9520429 C200.77932,26.1046349 200.77932,26.5609847 200.77932,27.1299959 L200.77932,27.7760161 C200.77932,27.9671125 200.981136,28.0812 201.222109,28.0812 C202.34414,27.6619286 204.835201,27.0929175 206.517496,26.8647426 C206.878956,26.6736461 206.841304,25.723868 206.559666,25.6482851 C205.955727,25.8379555 205.274978,26.029052 204.835201,26.029052 C203.708651,26.029052 203.670999,24.6229241 203.670999,21.6209981 L203.670999,4.93998663 L203.670999,4.93998663 Z" id="Fill-33" fill="#888B8D"></path>
                <path d="M209.196754,16.9486493 C209.196754,15.4517268 209.196754,15.2601092 208.167109,14.5685569 L207.823417,14.3380395 C207.670187,14.1853217 207.670187,13.7631867 207.862082,13.647928 C208.738497,13.3396109 210.913784,12.3426231 211.791631,11.7663295 C211.982094,11.7663295 212.135323,11.8426884 212.172557,11.996847 C212.096658,13.3396109 212.020759,15.1823096 212.020759,16.7570317 L212.020759,23.6667914 C212.020759,26.430119 212.096658,26.8147949 213.469995,27.0064125 L214.271944,27.1216712 C214.539738,27.3132888 214.462407,27.9659413 214.194613,28.0812 C213.050404,28.0048411 211.944861,27.9659413 210.608757,27.9659413 C209.235419,27.9659413 208.089778,28.0048411 207.021468,28.0812 C206.755106,27.9659413 206.679208,27.3132888 206.945569,27.1216712 L207.746086,27.0064125 C209.158089,26.8147949 209.196754,26.430119 209.196754,23.6667914 L209.196754,16.9486493 Z M212.325786,4.51079371 C212.325786,5.85499842 211.37204,6.46875105 210.340963,6.46875105 C209.158089,6.46875105 208.396237,5.624481 208.396237,4.5871526 C208.396237,3.32074752 209.349983,2.55283636 210.455527,2.55283636 C211.599736,2.55283636 212.325786,3.43600623 212.325786,4.51079371 L212.325786,4.51079371 Z" id="Fill-34" fill="#888B8D"></path>
                <path d="M229.36884,12.5646138 C229.686809,12.8335047 229.967281,13.4460582 229.967281,14.0974356 C229.967281,14.786199 229.566821,15.515224 229.088368,15.515224 C228.887388,15.515224 228.687907,15.4375764 228.528923,15.2463331 C227.65001,14.2124692 226.169656,13.2159912 224.531818,13.2159912 C221.734593,13.2159912 219.016862,15.3225428 219.016862,19.3846646 C219.016862,22.3726607 221.176649,25.9358245 225.451227,25.9358245 C227.769998,25.9358245 228.96688,24.9393465 229.886289,23.6365917 C230.208757,23.560382 230.567222,23.827835 230.606218,24.1729356 C229.247352,27.0085123 226.250648,28.0812 223.933377,28.0812 C221.814086,28.0812 219.856779,27.4298226 218.458917,26.1270678 C217.059555,24.824313 216.140145,22.9478284 216.140145,20.4573523 C216.140145,16.3190208 219.178846,11.9132364 225.811191,11.9132364 C226.730601,11.9132364 228.288947,12.1044796 229.36884,12.5646138" id="Fill-35" fill="#888B8D"></path>
                <path d="M235.263249,24.0604203 C235.263249,22.5648513 236.376467,21.9910705 238.640346,21.2245914 C239.331607,20.9945039 239.982544,20.8420709 240.212965,20.8420709 C240.443385,20.8420709 240.596038,20.9168493 240.596038,21.3381971 L240.521152,23.6002452 C240.521152,24.4055516 240.482268,24.9419432 240.021428,25.4006802 C239.638354,25.7846388 238.448809,26.3598576 237.681222,26.3598576 C235.72553,26.3598576 235.263249,24.7118556 235.263249,24.0604203 M235.493669,21.2634187 C233.038253,22.1420654 232.308109,23.0250264 232.308109,24.5205954 C232.308109,25.5919405 232.76895,26.5496798 233.497654,27.2025532 C234.150031,27.776334 235.071712,28.0812 236.18349,28.0812 C237.259265,28.0812 238.103179,27.5850737 238.947093,27.1234606 C239.716121,26.7035509 240.174081,26.3598576 240.443385,26.3598576 C240.673805,26.3598576 240.904225,26.6661616 241.056879,26.8962492 C241.710696,27.7389448 242.630937,28.0812 243.551178,28.0812 C245.431984,28.0812 246.774182,26.5899451 246.774182,26.3972468 C246.774182,26.1297701 246.660412,25.8996825 246.506318,25.8996825 C246.391108,25.8996825 246.199571,26.0521155 246.008034,26.1671593 C245.777614,26.280765 245.431984,26.3972468 245.04891,26.3972468 C243.551178,26.3972468 243.206988,24.8268994 243.283315,23.0638536 L243.513735,16.3956292 C243.628945,13.5224111 242.285307,11.9132364 239.523144,11.9132364 C236.722097,11.9132364 232.384436,14.6340215 232.384436,16.6271548 C232.384436,16.9722861 232.577413,17.1635464 232.923043,17.1635464 C233.497654,17.1635464 234.534545,16.8946315 235.109156,16.4358945 C235.417343,16.205807 235.454786,15.7456319 235.493669,15.1315858 C235.569996,13.9451969 236.874751,13.4088054 237.949085,13.4088054 C240.328175,13.4088054 240.789015,15.3242841 240.750132,16.7421986 L240.712689,18.5038063 C240.673805,19.0790251 240.636362,19.4227184 240.060311,19.6154167 L235.493669,21.2634187" id="Fill-36" fill="#888B8D"></path>
                <path d="M252.539409,23.7200323 C252.539409,26.4500322 252.620135,26.8300687 254.108901,27.0193752 L255.103999,27.1332438 C255.392748,27.3225504 255.31047,27.9673314 255.020168,28.0812 C253.655595,28.005762 252.455579,27.9673314 251.008728,27.9673314 C249.516857,27.9673314 248.279582,28.005762 247.03765,28.0812 C246.747348,27.9673314 246.66507,27.3225504 246.95382,27.1332438 L247.90545,27.0193752 C249.436131,26.8300687 249.478046,26.4500322 249.478046,23.7200323 L249.478046,6.5785365 C249.478046,4.34101833 249.436131,4.11328111 248.195752,3.43006945 L247.782809,3.20233224 C247.574786,3.08846363 247.574786,2.55755124 247.782809,2.44368263 C248.816718,2.14050745 250.760341,1.57116441 252.249107,0.850945455 C252.415216,0.850945455 252.579772,0.926383408 252.66205,1.07868267 C252.620135,2.21594541 252.539409,4.11328111 252.539409,5.78145624 L252.539409,23.7200323" id="Fill-37" fill="#888B8D"></path>
                <path d="M289.347636,23.5830685 C289.347636,25.1081984 289.585568,26.0224178 290.297876,26.2899594 C290.416842,26.4029849 290.416842,26.6318975 290.259212,26.7463537 C289.783349,26.7463537 289.069554,26.8980083 288.317095,27.0882918 C286.217347,27.6219442 283.363654,28.0812 281.225242,28.0812 C276.509733,28.0812 272.191273,26.822181 269.139798,23.8491794 C266.761968,21.5614847 265.494982,18.549854 265.494982,15.1948546 C265.494982,11.9557421 266.604338,8.67800064 269.060983,6.15996267 C271.715409,3.49313155 275.638308,1.70189091 281.620804,1.70189091 C283.879668,1.70189091 285.979416,2.121087 286.65306,2.27274156 C287.405519,2.42439612 288.633841,2.69193765 289.109705,2.61611037 C289.109705,3.87512936 289.347636,5.85522285 289.704534,8.14434827 C289.585568,8.44765739 288.871773,8.48628638 288.633841,8.25880454 C287.524485,4.13980948 284.553312,2.84359221 280.511447,2.84359221 C272.824766,2.84359221 269.456545,8.10428858 269.456545,13.82281 C269.456545,21.1437193 273.379444,26.8980083 281.344208,26.8980083 C283.800853,26.8980083 285.26562,26.4029849 285.70282,25.756307 C285.900601,25.4887655 286.098381,24.8034585 286.098381,23.5830685 L286.098381,22.0579387 C286.098381,18.8545938 285.979416,18.6256813 283.522771,18.3610012 L281.779921,18.1692869 C281.463174,18.0162017 281.501838,17.329464 281.779921,17.2150078 C282.927941,17.2936964 285.106504,17.329464 287.44567,17.329464 C288.990739,17.329464 290.338027,17.2936964 291.645165,17.2150078 C291.923247,17.368093 291.961911,17.9403744 291.685316,18.1692869 L291.051822,18.2465449 C289.387787,18.4353977 289.347636,19.5027025 289.347636,21.4470284 L289.347636,23.5830685" id="Fill-38" fill="#888B8D"></path>
                <path d="M295.216151,17.0488921 C295.216151,15.5654486 295.216151,15.3755564 294.120284,14.6902312 L293.752963,14.4617894 C293.592927,14.3104468 293.592927,13.8921129 293.794115,13.777892 C294.729946,13.4723512 296.882052,12.4843407 297.897138,11.9132364 C298.099851,11.9503581 298.221783,12.0274572 298.221783,12.1802276 L298.221783,14.3861181 C298.221783,14.5760103 298.261411,14.6902312 298.34524,14.7287807 C299.764227,13.6251216 301.308196,12.4457912 302.809488,12.4457912 C303.824574,12.4457912 304.638473,13.055445 304.638473,13.9677842 C304.638473,15.222786 303.541082,15.718219 302.891792,15.718219 C302.486367,15.718219 302.283654,15.6039981 301.997113,15.4512277 C301.3905,15.0714433 300.779314,14.8430016 300.210805,14.8430016 C299.563039,14.8430016 299.073786,15.1842364 298.749141,15.6039981 C298.34524,16.1365529 298.221783,17.2387843 298.221783,18.5323356 L298.221783,23.7065408 C298.221783,26.4449861 298.302563,26.9018696 299.845008,27.0160904 L301.308196,27.1303113 C301.593213,27.3202035 301.510908,27.9669791 301.225891,28.0812 C299.31765,28.0055287 298.139479,27.9669791 296.717443,27.9669791 C295.255779,27.9669791 294.039504,28.0055287 292.981741,28.0812 C292.699772,27.9669791 292.617468,27.3202035 292.902485,27.1303113 L293.672183,27.0160904 C295.176523,26.7876487 295.216151,26.4449861 295.216151,23.7065408 L295.216151,17.0488921" id="Fill-39" fill="#888B8D"></path>
                <path d="M318.314398,20.4573523 C318.314398,23.4079626 317.267163,26.9308646 313.845419,26.9308646 C310.425132,26.9308646 308.832402,23.1778955 308.832402,19.6909414 C308.832402,15.4764002 310.735802,13.0635717 313.299923,13.0635717 C316.992957,13.0635717 318.314398,17.1990274 318.314398,20.4573523 M313.768116,11.9132364 C309.183911,11.9132364 305.489418,15.3613666 305.489418,20.1898994 C305.489418,24.9781703 308.988466,28.0812 313.455987,28.0812 C318.314398,28.0812 321.657382,24.6330697 321.657382,19.8447987 C321.657382,15.1312996 318.12187,11.9132364 313.768116,11.9132364" id="Fill-40" fill="#888B8D"></path>
                <path d="M327.992686,21.680591 C327.992686,24.262184 328.649326,25.9841824 331.583187,25.9841824 C332.625403,25.9841824 333.863307,25.5726444 334.711286,24.8633384 C335.214275,24.4138772 335.485338,23.8520506 335.485338,22.6918788 L335.485338,16.5539237 C335.485338,14.1212147 335.214275,14.0467727 334.054646,13.5973115 L333.554556,13.4119087 C333.282043,13.2602155 333.282043,12.7363123 333.592244,12.5860237 C335.136,12.5495049 337.259571,12.286851 338.110449,11.9132364 C338.303237,11.9511597 338.4192,12.0256017 338.456888,12.1744857 C338.381512,12.8880054 338.342374,14.0467727 338.342374,15.4316752 L338.342374,21.7185143 C338.342374,24.6751265 338.456888,25.7987796 339.541141,25.7987796 C340.003543,25.7987796 340.506532,25.722933 341.047209,25.6105677 C341.277685,25.7987796 341.315373,26.5460089 341.006622,26.6962975 C339.500554,26.9940656 337.259571,27.3704894 335.946291,28.0812 C335.753503,28.0812 335.560714,27.9688347 335.485338,27.8185461 L335.485338,26.283355 C335.485338,25.9476637 335.369376,25.7608563 335.136,25.7608563 C333.97927,26.4715669 332.084726,27.7061808 329.807505,27.7061808 C326.406893,27.7061808 325.132751,26.060029 325.132751,23.0275702 L325.132751,16.7800589 C325.132751,14.4203874 325.132751,14.084696 323.974571,13.5973115 L323.51072,13.4119087 C323.280243,13.2222922 323.317931,12.698389 323.588995,12.5860237 C325.364676,12.5495049 326.870745,12.2138136 327.720173,11.9132364 C327.952099,11.9511597 328.068061,12.0256017 328.108649,12.1744857 C328.030374,12.8107543 327.992686,13.5973115 327.992686,15.4316752 L327.992686,21.680591" id="Fill-41" fill="#888B8D"></path>
                <path d="M346.680542,16.9926128 C346.680542,15.7206939 346.799678,15.1439943 347.157086,14.7205031 C347.593422,14.2579872 348.823501,13.6422628 350.528635,13.6422628 C354.101226,13.6422628 355.883799,16.7613548 355.883799,19.8428675 C355.883799,23.8465213 353.98209,26.7748255 350.726699,26.7748255 C349.894236,26.7748255 348.664157,26.5045427 347.870413,25.9278432 C347.076669,25.3106734 346.680542,24.8481574 346.680542,23.6167087 L346.680542,16.9926128 Z M343.74384,33.0130096 C343.74384,35.7852147 343.703631,36.1711265 342.23528,36.3633597 L341.402817,36.4789886 C341.122847,36.6712218 341.204753,37.325971 341.481745,37.4416 C342.592688,37.3649958 343.782559,37.325971 345.210702,37.325971 C346.600125,37.325971 347.749788,37.3649958 349.655964,37.4416 C349.932955,37.325971 350.013372,36.6712218 349.734892,36.4789886 L348.186124,36.2867554 C346.757981,36.0945222 346.680542,35.7476353 346.680542,33.0130096 L346.680542,28.9688856 C346.680542,28.1609281 346.878606,27.9686949 347.236014,27.8906453 C347.593422,27.9686949 348.704365,28.0452991 349.417692,28.0452991 C355.052825,28.0452991 359.098982,24.1934083 359.098982,18.8412313 C359.098982,14.9517611 356.521176,11.7936443 352.513739,11.7936443 C349.974653,11.7936443 347.474286,13.37198 346.957533,13.603238 C346.680542,13.603238 346.600125,13.37198 346.600125,13.1031426 C346.600125,12.6016019 346.680542,12.0249023 346.757981,11.3311283 C346.680542,11.1388951 346.519709,11.0622909 346.282926,11.0622909 C345.252399,11.7936443 343.386432,12.7172309 342.352927,13.140722 C342.156352,13.256351 342.156352,13.6812876 342.315697,13.834496 L342.671616,14.065754 C343.74384,14.7580826 343.74384,14.9517611 343.74384,16.4534926 L343.74384,33.0130096 L343.74384,33.0130096 Z" id="Fill-42" fill="#888B8D"></path>
            </g>
        </g>
    </g>
</svg>