<?xml version="1.0" encoding="UTF-8"?>
<svg width="469px" height="217px" viewBox="0 0 469 217" version="1.1" xmlns="http://www.w3.org/2000/svg" xmlns:xlink="http://www.w3.org/1999/xlink">
    <title>duly-logo</title>
    <g id="✅-Branded" stroke="none" stroke-width="1" fill="none" fill-rule="evenodd">
        <g id="duly-logo" transform="translate(-0.000000, 0.000000)" fill-rule="nonzero">
            <g id="Group-9">
                <path d="M93.0662475,0 L93.0662475,55.6822881 C83.4300883,48.4820523 71.673994,44.2045465 58.9423898,44.2045465 C26.3897429,44.2045465 0,71.8897916 0,106.041104 C0,140.192415 26.3897429,167.877661 58.9423898,167.877661 C72.5905336,167.877661 85.1192397,162.961617 95.1092212,154.791123 C97.1911753,162.124844 105.627937,166.425261 113.335065,167.240119 L130.292547,167.240119 L130.292547,163.438777 L130.292547,129.42892 L130.292547,126.336843 L130.292547,0 L93.0662475,0 Z M60.4936106,133.867803 C45.9309263,133.867803 34.1248571,121.408845 34.1248571,106.041104 C34.1248571,90.6723657 45.9309263,78.2144038 60.4936106,78.2144038 C75.0562949,78.2144038 86.862364,90.6723657 86.862364,106.041104 C86.862364,121.408845 75.0562949,133.867803 60.4936106,133.867803 L60.4936106,133.867803 Z" id="Fill-1" fill="#002855"></path>
                <polygon id="Fill-3" fill="#002855" points="291.416605 167.210932 328.614918 167.210932 328.614918 0.680077608 291.416605 0.680077608"></polygon>
                <g id="Group-3" transform="translate(152.008038, 44.203650)">
                    <path d="M72.8484041,97.7592386 C58.3716765,97.7592386 46.5276265,85.9547569 46.5276265,71.5263929 L46.5276265,25.4590295 C46.5276265,11.4570215 35.0324012,0.00119539055 20.9834588,0.00119539055 L0,0.00119539055 L0,73.0754198 C0,127.993654 72.8484041,141.239578 72.8484041,97.7592386" id="Fill-5" fill="#002855"></path>
                    <path d="M72.8484041,25.4588303 C72.8484041,11.4568223 84.3436293,0 98.3925717,0 L119.376031,0 L119.376031,47.3803007 C119.376031,80.7894743 95.2891308,98.7741251 72.8484041,97.9493057 L72.8484041,25.4588303 Z" id="Fill-6" fill="#00A5DF"></path>
                </g>
                <path d="M447.460915,42.8576401 C439.516905,43.6983982 431.794785,49.6643932 430.298536,57.3268466 L430.298536,108.734617 C430.298536,109.479744 430.260555,110.189009 430.260555,110.88134 C430.260555,124.605419 418.922251,132.10251 410.834314,132.10251 C402.786357,132.10251 392.784382,124.605419 392.784382,110.840497 C392.784382,109.719818 392.647451,108.551324 392.647451,107.306126 L392.647451,58.6148799 C391.658947,50.3417812 382.391603,43.7442215 374.008814,42.8576401 L353.651041,42.8576401 L353.651041,80.6698356 L353.651041,107.306126 C353.651041,127.828989 358.914397,141.069932 369.29918,151.679023 C379.714947,162.317999 393.690926,167.712199 410.834314,167.712199 C417.281076,167.712199 423.360022,166.601482 428.901238,164.410928 C431.062153,163.55722 433.09813,162.558073 435.000174,161.414483 C434.429461,166.95711 432.358501,174.022865 428.716331,177.711641 C424.396501,182.081789 418.54644,184.2056 410.834314,184.2056 C403.313093,184.2056 397.365081,181.452217 392.759394,175.837866 L355.520102,175.837866 L355.60406,176.06499 C360.036833,188.139431 367.157256,197.899795 376.76343,205.076123 C386.45756,212.32517 397.921801,216 410.834314,216 C421.65088,216 431.523921,213.422937 440.18357,208.334558 C448.832226,203.246179 455.712769,196.171459 460.634297,187.308634 C465.534835,178.477687 468.020586,168.553953 468.020586,157.814365 L468.020586,78.4165244 L468.020586,42.8576401 L447.460915,42.8576401 Z" id="Fill-7" fill="#002855"></path>
            </g>
            <g id="Health&amp;Care" transform="translate(16.494000, 194.598000)" fill="#00A5DF">
                <polygon id="Fill-8" points="11.536 0.4267 11.536 8.5637 4.857 8.5637 4.857 0.4267 0 0.4267 0 21.6787 4.857 21.6787 4.857 13.2387 11.536 13.2387 11.536 21.6787 16.394 21.6787 16.394 0.4267"></polygon>
                <polygon id="Fill-9" points="24.5921 0.4267 24.5921 21.6787 37.9501 21.6787 37.9501 17.0037 29.4481 17.0037 29.4481 13.2387 37.0391 13.2387 37.0391 8.6247 29.4481 8.6247 29.4481 5.1017 37.7981 5.1017 37.7981 0.4267"></polygon>
                <path d="M54.0399,5.9819 L56.5299,13.7849 L51.5509,13.7849 L54.0399,5.9819 Z M50.9429,0.4269 L43.7179,21.6789 L49.0309,21.6789 L50.0949,18.3389 L57.9869,18.3389 L59.0509,21.6789 L64.3629,21.6789 L57.1379,0.4269 L50.9429,0.4269 Z" id="Fill-10"></path>
                <polygon id="Fill-11" points="70.7386 0.4267 70.7386 21.6787 83.1866 21.6787 83.1866 17.0037 75.5956 17.0037 75.5956 0.4267"></polygon>
                <polygon id="Fill-12" points="86.2239 0.4267 86.2239 5.1017 91.6879 5.1017 91.6879 21.6787 96.5459 21.6787 96.5459 5.1017 102.0109 5.1017 102.0109 0.4267"></polygon>
                <polygon id="Fill-13" points="120.2264 0.4267 120.2264 8.5637 113.5474 8.5637 113.5474 0.4267 108.6904 0.4267 108.6904 21.6787 113.5474 21.6787 113.5474 13.2387 120.2264 13.2387 120.2264 21.6787 125.0834 21.6787 125.0834 0.4267"></polygon>
                <path d="M149.7523,3.7954 L153.5783,14.2704 L145.9573,14.2704 L149.7523,3.7954 Z M148.1733,0.4264 L140.2503,21.6784 L143.2553,21.6784 L144.9853,16.9124 L154.5503,16.9124 L156.2813,21.6784 L159.2863,21.6784 L151.3623,0.4264 L148.1733,0.4264 Z" id="Fill-14"></path>
                <polygon id="Fill-15" points="178.6561 0.4267 178.6561 16.2757 167.7261 0.4267 165.4481 0.4267 165.4481 21.6787 168.2731 21.6787 168.2731 5.7997 179.2021 21.6787 181.4791 21.6787 181.4791 0.4267"></polygon>
                <path d="M192.4993,19.0073 L197.9643,19.0073 C200.1303,19.0073 201.9013,18.2483 203.2783,16.7303 C204.6543,15.1913 205.3423,13.2993 205.3423,11.0523 C205.3423,8.8053 204.6543,6.9133 203.2783,5.3743 C201.9013,3.8563 200.1303,3.0973 197.9643,3.0973 L192.4993,3.0973 L192.4993,19.0073 Z M189.6763,0.4263 L197.9643,0.4263 C200.8383,0.4263 203.2373,1.4583 205.1603,3.5233 C207.0833,5.5673 208.0443,8.0773 208.0443,11.0523 C208.0443,14.0083 207.0833,16.5273 205.1603,18.6133 C203.2373,20.6573 200.8383,21.6783 197.9643,21.6783 L189.6763,21.6783 L189.6763,0.4263 Z" id="Fill-16"></path>
                <path d="M233.3524,22.104 C230.1754,22.104 227.5324,21.052 225.4284,18.947 C223.3434,16.841 222.3014,14.21 222.3014,11.052 C222.3014,7.895 223.3434,5.274 225.4284,3.189 C227.5134,1.063 230.1544,0 233.3524,0 C235.2554,0 237.0154,0.441 238.6354,1.321 C240.2544,2.202 241.5294,3.402 242.4604,4.919 L238.2714,7.348 C237.8054,6.519 237.1434,5.875 236.2834,5.42 C235.4214,4.965 234.4464,4.738 233.3524,4.738 C231.4504,4.738 229.9424,5.314 228.8294,6.469 C227.7144,7.601 227.1594,9.13 227.1594,11.052 C227.1594,12.975 227.7144,14.503 228.8294,15.636 C229.9424,16.791 231.4504,17.368 233.3524,17.368 C234.4254,17.368 235.4024,17.135 236.2834,16.669 C237.1634,16.204 237.8264,15.566 238.2714,14.757 L242.4604,17.185 C241.5504,18.703 240.2854,19.902 238.6654,20.783 C237.0474,21.664 235.2744,22.104 233.3524,22.104" id="Fill-17"></path>
                <path d="M257.7928,5.9819 L260.2818,13.7849 L255.3038,13.7849 L257.7928,5.9819 Z M254.6958,0.4269 L247.4708,21.6789 L252.7838,21.6789 L253.8468,18.3389 L261.7388,18.3389 L262.8028,21.6789 L268.1148,21.6789 L260.8898,0.4269 L254.6958,0.4269 Z" id="Fill-18"></path>
                <path d="M282.992,4.9804 L279.349,4.9804 L279.349,10.4444 L282.992,10.4444 C283.66,10.4444 284.232,10.1824 284.708,9.6554 C285.183,9.1294 285.421,8.4814 285.421,7.7124 C285.421,6.9424 285.183,6.2964 284.708,5.7694 C284.232,5.2444 283.66,4.9804 282.992,4.9804 L282.992,4.9804 Z M290.885,21.6784 L285.665,21.6784 L281.656,14.6964 L279.349,14.6964 L279.349,21.6784 L274.492,21.6784 L274.492,0.4264 L282.992,0.4264 C285.017,0.4264 286.737,1.1344 288.154,2.5524 C289.571,3.9674 290.279,5.6884 290.279,7.7124 C290.279,8.9874 289.919,10.1824 289.201,11.2954 C288.482,12.4084 287.535,13.2684 286.363,13.8764 L290.885,21.6784 Z" id="Fill-19"></path>
                <polygon id="Fill-20" points="297.7166 0.4267 297.7166 21.6787 311.0756 21.6787 311.0756 17.0037 302.5746 17.0037 302.5746 13.2387 310.1646 13.2387 310.1646 8.6247 302.5746 8.6247 302.5746 5.1017 310.9246 5.1017 310.9246 0.4267"></polygon>
            </g>
        </g>
    </g>
</svg>