<?xml version="1.0" encoding="UTF-8"?>
<svg width="24px" height="24px" viewBox="0 0 24 24" version="1.1" xmlns="http://www.w3.org/2000/svg" xmlns:xlink="http://www.w3.org/1999/xlink">
    <!-- Generator: Sketch 59.1 (86144) - https://sketch.com -->
    <title>icon/home</title>
    <desc>Created with Sketch.</desc>
    <g id="icon/home" stroke="none" stroke-width="1" fill="none" fill-rule="evenodd">
        <g id="home-24px">
            <polygon id="Path" points="0 0 24 0 24 24 0 24"></polygon>
            <path d="M9.60828012,20.4716594 L9.60828012,14.4674565 L14.3908507,14.4674565 L14.3908507,20.4716594 C14.3908507,21.1321217 14.9288899,21.6725 15.5864933,21.6725 L19.1734212,21.6725 C19.8310247,21.6725 20.3690638,21.1321217 20.3690638,20.4716594 L20.3690638,12.0657753 L22.4016563,12.0657753 C22.9516519,12.0657753 23.2146933,11.3812962 22.7962184,11.021044 L12.800646,1.97871435 C12.3463018,1.57042855 11.652829,1.57042855 11.1984848,1.97871435 L1.2029124,11.021044 C0.7963939,11.3812962 1.04747885,12.0657753 1.59747447,12.0657753 L3.63006695,12.0657753 L3.63006695,20.4716594 C3.63006695,21.1321217 4.16810613,21.6725 4.82570958,21.6725 L8.41263749,21.6725 C9.07024094,21.6725 9.60828012,21.1321217 9.60828012,20.4716594 Z" id="Path" fill="#0A1523" fill-rule="nonzero"></path>
        </g>
    </g>
</svg>