<?xml version="1.0" encoding="UTF-8"?>
<svg width="24px" height="24px" viewBox="0 0 24 24" version="1.1" xmlns="http://www.w3.org/2000/svg" xmlns:xlink="http://www.w3.org/1999/xlink">
    <title>home-24px</title>
    <g id="✅-Branded" stroke="none" stroke-width="1" fill="none" fill-rule="evenodd">
        <g id="Health-Topics-Landing-Page" transform="translate(-451.000000, -173.000000)">
            <g id="Group-10" transform="translate(451.000000, 168.000000)">
                <g id="home-24px" transform="translate(0.000000, 5.000000)">
                    <polygon id="Path" points="0 0 24 0 24 24 0 24"></polygon>
                    <path d="M9.3906491,21.3515754 L9.3906491,14.7469521 L14.6079988,14.7469521 L14.6079988,21.3515754 C14.6079988,22.0780839 15.1949506,22.6725 15.9123362,22.6725 L19.8253485,22.6725 C20.542734,22.6725 21.1296859,22.0780839 21.1296859,21.3515754 L21.1296859,12.1051028 L23.3470595,12.1051028 C23.9470547,12.1051028 24.2340089,11.3521758 23.7774908,10.9558984 L12.87323,1.00933579 C12.3775818,0.560221405 11.6210661,0.560221405 11.1254179,1.00933579 L0.22115703,10.9558984 C-0.222317693,11.3521758 0.0515931654,12.1051028 0.651588379,12.1051028 L2.86896199,12.1051028 L2.86896199,21.3515754 C2.86896199,22.0780839 3.45591383,22.6725 4.17329941,22.6725 L8.08631168,22.6725 C8.80369726,22.6725 9.3906491,22.0780839 9.3906491,21.3515754 Z" id="Path" fill="#00A5DF" fill-rule="nonzero"></path>
                </g>
            </g>
        </g>
    </g>
</svg>