<svg width="71" height="71" xmlns="http://www.w3.org/2000/svg"><g transform="translate(-683 -1328)" fill="none" fill-rule="evenodd"><rect fill="#ffffff" x="156" y="144" width="1129" height="1598" rx="6"/><path d="M676 1321h84v84h-84z"/><path d="M718.5 1328c-19.596 0-35.5 15.904-35.5 35.5s15.904 35.5 35.5 35.5 35.5-15.904 35.5-35.5-15.904-35.5-35.5-35.5zm0 63.9c-15.655 0-28.4-12.745-28.4-28.4s12.744-28.4 28.4-28.4c15.656 0 28.4 12.744 28.4 28.4 0 15.656-12.745 28.4-28.4 28.4zm13.774-41.57l-20.874 20.874-6.674-6.674a3.535 3.535 0 00-5.005 0 3.535 3.535 0 000 5.005l9.194 9.195a3.535 3.535 0 005.005 0l23.395-23.395a3.535 3.535 0 000-5.006 3.578 3.578 0 00-5.041 0z" fill="#000F26" fill-rule="nonzero"/></g></svg>