<svg width="55" height="55" xmlns="http://www.w3.org/2000/svg"><g transform="translate(-1020 -272)" fill="none" fill-rule="evenodd"><rect fill="#ffffff" x="156" y="144" width="1129" height="508" rx="6"/><text font-family="Helvetica" font-size="44" fill="#002855"><tspan x="294" y="248">Sorry, we’re currently down for scheduled </tspan> <tspan x="294" y="301">maintenance. </tspan></text><path d="M1018 270h62v62h-62z"/><path d="M1048.726 276.897c-5.207-5.19-13.005-6.25-19.274-3.202l9.404 9.373a2.566 2.566 0 010 3.642l-4.12 4.105a2.54 2.54 0 01-3.652 0l-9.403-9.373c-3.031 6.275-1.97 13.996 3.238 19.186 4.818 4.803 11.864 6.069 17.848 3.822l20.621 20.555c2.668 2.66 6.968 2.66 9.61 0 2.67-2.66 2.67-6.946 0-9.58l-20.516-20.478c2.383-6.042 1.14-13.17-3.756-18.05z" fill="#002855" fill-rule="nonzero"/></g></svg>