<?xml version="1.0" encoding="UTF-8"?>
<svg width="211px" height="171px" viewBox="0 0 211 171" version="1.1" xmlns="http://www.w3.org/2000/svg" xmlns:xlink="http://www.w3.org/1999/xlink">
    <title>Fill 1 Copy</title>
    <g id="✅-Branded" stroke="none" stroke-width="1" fill="none" fill-rule="evenodd" opacity="0.200000003">
        <g id="Desktop-/-22.0.0---Immediate-Care-(ClearStep)" transform="translate(-1229.000000, -817.000000)" fill="#C5299B">
            <g id="Group-15" transform="translate(-178.000000, 793.000000)">
                <path d="M1448.92206,25.4394019 L1448.92206,39.5868035 C1448.92206,49.1693819 1456.70762,56.9656624 1466.27719,56.9656624 L1517.02349,56.9656624 L1517.03978,56.9488694 C1517.12702,49.2595844 1514.03878,41.6086834 1508.5017,35.857793 C1503.92518,31.1048878 1495.58505,25.4394019 1481.84015,25.4394019 L1448.92206,25.4394019 Z M1617.96103,25.4394019 L1617.96103,39.5868035 C1617.96103,49.1693819 1625.74658,56.9656624 1635.31616,56.9656624 L1686.06246,56.9656624 L1686.07923,56.9488694 C1686.16599,49.2591046 1683.07727,41.6082036 1677.54019,35.8573132 C1672.96415,31.1048878 1664.62402,25.4394019 1650.8796,25.4394019 L1617.96103,25.4394019 Z M1586.36107,90.8875675 C1593.71284,90.9720124 1601.02962,87.9996475 1606.53219,82.691613 C1611.09002,78.29472 1616.52308,70.2796503 1616.52308,57.0664206 L1616.52308,25.4394019 L1602.98284,25.4394019 C1593.8087,25.4394019 1586.34477,32.9137363 1586.34477,42.1004791 L1586.34477,90.8707745 L1586.36107,90.8875675 Z M1755.40004,90.8875675 C1762.7705,90.9720124 1770.06955,88.0001273 1775.57163,82.691613 C1780.12898,78.29472 1785.56205,70.2796503 1785.56205,57.0664206 L1785.56205,25.4394019 L1772.02229,25.4394019 C1762.84767,25.4394019 1755.38374,32.9137363 1755.38374,42.1004791 L1755.38374,90.8707745 L1755.40004,90.8875675 Z M1565.31664,108.431958 L1570.28668,108.431958 C1577.59052,107.63165 1584.62019,103.078342 1584.91353,92.2962622 C1574.99166,91.9114621 1567.03739,83.7087904 1567.03739,73.6814369 L1567.03739,42.2314646 C1567.03739,33.0452016 1559.57346,25.5708673 1550.39836,25.5708673 L1536.85908,25.5708673 L1536.85908,74.7389175 C1536.85908,87.4003765 1542.46757,95.3852187 1547.1716,99.8545617 C1552.24182,104.67128 1558.86838,107.773671 1565.31664,108.431958 L1565.31664,108.431958 Z M1734.35561,108.431958 L1739.32565,108.431958 C1746.62949,107.63165 1753.65916,103.078342 1753.9525,92.2962622 C1744.03063,91.9114621 1736.07636,83.7087904 1736.07636,73.6814369 L1736.07636,42.2314646 C1736.07636,33.0452016 1728.61242,25.5708673 1719.43781,25.5708673 L1705.89805,25.5708673 L1705.89805,74.7389175 C1705.89805,87.4003765 1711.50654,95.3852187 1716.21056,99.8545617 C1721.28078,104.67128 1727.90687,107.773671 1734.35561,108.431958 L1734.35561,108.431958 Z M1494.9375,108.563423 L1500.21814,108.563423 C1513.39457,108.563423 1521.70546,102.711295 1526.35676,97.8014947 C1532.03283,91.8111838 1535.42113,83.7394976 1535.42113,76.2099862 C1535.42113,67.7520606 1530.94526,58.7241318 1518.44754,58.3973875 C1518.06408,68.7414095 1509.54086,77.0371625 1499.11858,77.0371625 L1466.41284,77.0371625 C1456.84326,77.0371625 1449.05819,84.8334431 1449.05819,94.4160214 L1449.05819,108.563423 L1494.9375,108.563423 Z M1663.97599,108.563423 L1669.25711,108.563423 C1682.43354,108.563423 1690.74443,102.711295 1695.39572,97.8019745 C1701.0718,91.8111838 1704.46058,83.7394976 1704.46058,76.210466 C1704.46058,67.7520606 1699.98471,58.7241318 1687.48651,58.3973875 C1687.10305,68.7414095 1678.57935,77.0371625 1668.15755,77.0371625 L1635.45228,77.0371625 C1625.88271,77.0371625 1618.09764,84.8334431 1618.09764,94.4160214 L1618.09764,108.563423 L1663.97599,108.563423 Z M1577.47692,108.431958 L1610.39501,108.431958 C1612.61664,108.431958 1614.70311,108.575418 1616.65968,108.83643 L1616.65968,94.4160214 C1616.65968,84.0398528 1625.08992,75.5977606 1635.45228,75.5977606 L1668.15755,75.5977606 C1677.78368,75.5977606 1685.66031,67.9511778 1686.04712,58.4050643 L1635.31616,58.4050643 C1627.50616,58.4050643 1620.79428,53.6108964 1617.96103,46.8068435 L1617.96103,57.0664206 C1617.96103,70.7853602 1612.28879,79.1372499 1607.53013,83.7279824 C1601.83008,89.2269775 1594.26597,92.3284088 1586.63476,92.3284088 C1586.54033,92.3284088 1586.44543,92.327929 1586.35005,92.3269694 C1586.1262,100.066154 1582.34822,105.812246 1576.1588,108.431958 L1577.47692,108.431958 Z M1408.43795,109.87136 L1408.43795,124.018761 C1408.43795,133.601819 1416.22303,141.39762 1425.79308,141.39762 L1476.53938,141.39762 L1476.55567,141.380827 C1476.64291,133.691062 1473.55467,126.040641 1468.01759,120.289751 C1463.44155,115.536846 1455.10142,109.87136 1441.35652,109.87136 L1408.43795,109.87136 Z M1577.47692,109.87136 L1577.47692,124.018761 C1577.47692,133.601819 1585.26247,141.39762 1594.83253,141.39762 L1645.57834,141.39762 L1645.5956,141.380827 C1645.68188,133.690582 1642.59316,126.040161 1637.05608,120.289271 C1632.48004,115.536846 1624.13991,109.87136 1610.39501,109.87136 L1577.47692,109.87136 Z M1647.03307,141.391383 C1655.27781,141.622167 1661.34933,145.744134 1663.97599,152.476217 L1663.97599,110.002825 L1622.35254,110.002825 C1629.76806,112.091397 1634.83828,115.91205 1638.09141,119.290326 C1643.88827,125.310864 1647.12223,133.326894 1647.03307,141.391383 L1647.03307,141.391383 Z M1477.99363,141.391383 C1486.23836,141.622167 1492.31084,145.745094 1494.9375,152.477176 L1494.9375,110.002825 L1453.31357,110.002825 C1460.72957,112.091397 1465.79979,115.91205 1469.05292,119.290806 C1474.84978,125.311344 1478.08374,133.326894 1477.99363,141.391383 L1477.99363,141.391383 Z M1679.96458,108.591251 C1689.46417,109.117593 1697.0302,117.022308 1697.0302,126.662942 L1697.0302,158.113395 C1697.0302,167.345239 1704.33547,174.900659 1713.46216,175.287379 L1713.46216,126.532437 C1713.46216,117.589912 1719.97273,110.141008 1728.49643,108.688171 C1723.67306,107.202708 1719.02464,104.512466 1715.22077,100.898128 C1711.36562,97.2362896 1706.92906,91.3165093 1705.20208,82.5635063 C1702.71538,93.971726 1693.68408,104.812342 1679.96458,108.591251 L1679.96458,108.591251 Z M1510.92561,108.591251 C1520.4252,109.117593 1527.99171,117.022308 1527.99171,126.662942 L1527.99171,158.113395 C1527.99171,167.345239 1535.29699,174.900659 1544.42319,175.287379 L1544.42319,126.532437 C1544.42319,117.589912 1550.93376,110.141008 1559.45746,108.688171 C1554.63409,107.202708 1549.98567,104.512466 1546.18181,100.898128 C1542.32665,97.2362896 1537.89009,91.3160295 1536.16311,82.5635063 C1533.67593,93.971726 1524.64511,104.812342 1510.92561,108.591251 L1510.92561,108.591251 Z M1714.91641,175.319525 C1722.26243,175.400612 1729.58592,172.431125 1735.088,167.123091 C1739.64583,162.725718 1745.07842,154.711128 1745.07842,141.498378 L1745.07842,109.87136 L1739.46273,109.87136 C1737.81963,110.043608 1736.05335,110.046967 1734.28946,109.87136 L1731.53866,109.87136 C1722.36404,109.87136 1714.90011,117.345694 1714.90011,126.532437 L1714.90011,175.302732 L1714.91641,175.319525 Z M1545.87696,175.319525 C1553.22298,175.399172 1560.54647,172.431605 1566.04855,167.123091 C1570.60638,162.726198 1576.03897,154.711128 1576.03897,141.498378 L1576.03897,109.87136 L1570.42376,109.87136 C1568.78066,110.043608 1567.0139,110.046967 1565.25049,109.87136 L1562.49969,109.87136 C1553.32507,109.87136 1545.86114,117.345694 1545.86114,126.532437 L1545.86114,175.302732 L1545.87696,175.319525 Z M1408.57456,192.994901 L1459.73403,192.994901 C1472.91046,192.994901 1481.22135,187.142773 1485.87265,182.233452 C1491.54872,176.242662 1494.9375,168.170975 1494.9375,160.642424 C1494.9375,152.183538 1490.46115,143.156089 1477.96343,142.829345 C1477.57997,153.172887 1469.05627,161.46864 1458.63447,161.46864 L1425.9292,161.46864 C1416.35963,161.46864 1408.57456,169.264921 1408.57456,178.847499 L1408.57456,192.994901 Z M1577.61353,192.994901 L1628.77347,192.994901 C1641.94991,192.994901 1650.26032,187.142773 1654.91161,182.233452 C1660.58769,176.242662 1663.97647,168.170975 1663.97647,160.642424 C1663.97647,152.184018 1659.5006,143.156089 1647.0024,142.829345 C1646.61894,153.172887 1638.09524,161.46864 1627.67344,161.46864 L1594.96817,161.46864 C1585.3986,161.46864 1577.61353,169.264921 1577.61353,178.847499 L1577.61353,192.994901 Z M1496.37545,110.002825 L1496.37545,159.170875 C1496.37545,171.831854 1501.98346,179.817176 1506.68796,184.28604 C1512.42827,189.739454 1520.16158,192.995381 1527.37531,192.995381 C1535.46714,192.995381 1544.10348,188.704044 1544.42942,176.72822 C1534.50755,176.34342 1526.55376,168.140748 1526.55376,158.113395 L1526.55376,126.662942 C1526.55376,117.476679 1519.08982,110.002825 1509.91521,110.002825 L1496.37545,110.002825 Z M1665.41394,110.002825 L1665.41394,159.170875 C1665.41394,171.831854 1671.02243,179.817176 1675.72645,184.28604 C1681.46724,189.739454 1689.20055,192.995381 1696.41427,192.995381 C1701.27503,192.995381 1705.43647,191.559337 1708.4485,188.842226 C1711.59474,186.004206 1713.32316,181.826581 1713.46839,176.72822 C1703.54604,176.34342 1695.59224,168.140748 1695.59224,158.113395 L1695.59224,126.662942 C1695.59224,117.476679 1688.12831,110.002825 1678.95418,110.002825 L1665.41394,110.002825 Z M1664.73043,166.939807 C1661.66663,181.117436 1648.49403,194.434783 1628.77347,194.434783 L1576.17557,194.434783 L1576.17557,178.847499 C1576.17557,168.471331 1584.60581,160.029238 1594.96817,160.029238 L1627.67344,160.029238 C1637.29957,160.029238 1645.1762,152.382656 1645.56301,142.837022 L1594.83253,142.837022 C1587.02253,142.837022 1580.31017,138.042854 1577.47692,131.238321 L1577.47692,141.498378 C1577.47692,155.216838 1571.80516,163.568728 1567.04649,168.15946 C1561.34597,173.658935 1553.78186,176.760367 1546.15017,176.760367 C1546.05574,176.760367 1545.96132,176.759887 1545.86593,176.758927 C1545.5539,187.524214 1538.36653,194.434783 1527.37531,194.434783 C1513.7253,194.434783 1499.12721,184.110912 1495.69098,166.938847 C1492.62767,181.116477 1479.45458,194.434783 1459.73403,194.434783 L1407.13661,194.434783 L1407.13661,178.847499 C1407.13661,168.471331 1415.56684,160.029238 1425.9292,160.029238 L1458.63447,160.029238 C1468.2606,160.029238 1476.13723,152.382656 1476.52404,142.837022 L1425.79308,142.837022 C1415.43024,142.837022 1407,134.39493 1407,124.018761 L1407,108.431958 L1441.35652,108.431958 C1443.57767,108.431958 1445.66318,108.575418 1447.62024,108.83643 L1447.62024,94.4160214 C1447.62024,84.0398528 1456.05047,75.5977606 1466.41284,75.5977606 L1499.11858,75.5977606 C1508.74472,75.5977606 1516.62134,67.9511778 1517.00815,58.4050643 L1466.27719,58.4050643 C1455.91483,58.4050643 1447.48411,49.9634519 1447.48411,39.5868035 L1447.48411,24 L1481.84015,24 C1496.09026,24 1504.76734,29.9053863 1509.53703,34.858848 C1515.33389,40.8798662 1518.56785,48.8954157 1518.47774,56.959425 C1526.72248,57.1902091 1532.79495,61.3126562 1535.42113,68.044739 L1535.42113,24.1314654 L1550.39836,24.1314654 C1560.36625,24.1314654 1568.47534,32.2511316 1568.47534,42.2314646 L1568.47534,73.6814369 C1568.47534,82.9132809 1575.78062,90.4687016 1584.90682,90.8549411 L1584.90682,42.1004791 C1584.90682,32.1196662 1593.01591,24 1602.98284,24 L1650.8796,24 C1665.1297,24 1673.80583,29.9049065 1678.57552,34.8583682 C1684.37238,40.8793864 1687.60634,48.8954157 1687.5167,56.959425 C1695.76144,57.1902091 1701.83344,61.3121764 1704.4601,68.0442592 L1704.4601,24.1314654 L1719.43781,24.1314654 C1729.40521,24.1314654 1737.51431,32.2511316 1737.51431,42.2314646 L1737.51431,73.6814369 C1737.51431,82.9132809 1744.81958,90.4687016 1753.94579,90.8549411 L1753.94579,42.1004791 C1753.94579,32.1196662 1762.05488,24 1772.02229,24 L1787,24 L1787,57.0664206 C1787,70.7853602 1781.32776,79.1372499 1776.56909,83.7279824 C1770.79763,89.295589 1763.1089,92.3941415 1755.38901,92.3269694 C1755.16517,100.066154 1751.38767,105.812246 1745.19777,108.431958 L1746.51637,108.431958 L1746.51637,141.498378 C1746.51637,155.216838 1740.84413,163.568728 1736.08594,168.15946 C1730.38542,173.658935 1722.82131,176.760367 1715.18914,176.760367 C1715.09519,176.760367 1715.00029,176.759887 1714.90538,176.758927 C1714.59335,187.524214 1707.4055,194.434783 1696.41427,194.434783 C1682.76427,194.434783 1668.16666,184.112352 1664.73043,166.939807 Z" id="Fill-1-Copy"></path>
            </g>
        </g>
    </g>
</svg>