<?xml version="1.0" encoding="UTF-8"?>
<svg width="202px" height="171px" viewBox="0 0 202 171" version="1.1" xmlns="http://www.w3.org/2000/svg" xmlns:xlink="http://www.w3.org/1999/xlink">
    <title>Fill 1</title>
    <g id="✅-Branded" stroke="none" stroke-width="1" fill="none" fill-rule="evenodd" opacity="0.200000003">
        <g id="Desktop-/-22.0.0---Immediate-Care-(ClearStep)" transform="translate(0.000000, -817.000000)" fill="#C5299B">
            <g id="Group-15" transform="translate(-178.000000, 793.000000)">
                <path d="M41.922063,25.4394019 L41.922063,39.5868035 C41.922063,49.1693819 49.7076164,56.9656624 59.2771893,56.9656624 L110.023487,56.9656624 L110.039783,56.9488694 C110.127019,49.2595844 107.038777,41.6086834 101.501702,35.857793 C96.9251785,31.1048878 88.5850549,25.4394019 74.8401476,25.4394019 L41.922063,25.4394019 Z M210.961031,25.4394019 L210.961031,39.5868035 C210.961031,49.1693819 218.746585,56.9656624 228.316158,56.9656624 L279.062455,56.9656624 L279.079231,56.9488694 C279.165988,49.2591046 276.077266,41.6082036 270.540191,35.8573132 C265.964147,31.1048878 257.624023,25.4394019 243.879595,25.4394019 L210.961031,25.4394019 Z M179.36107,90.8875675 C186.712841,90.9720124 194.029622,87.9996475 199.532186,82.691613 C204.090016,78.29472 209.523079,70.2796503 209.523079,57.0664206 L209.523079,25.4394019 L195.98284,25.4394019 C186.808704,25.4394019 179.344773,32.9137363 179.344773,42.1004791 L179.344773,90.8707745 L179.36107,90.8875675 Z M348.400038,90.8875675 C355.770503,90.9720124 363.069549,88.0001273 368.571634,82.691613 C373.128984,78.29472 378.562048,70.2796503 378.562048,57.0664206 L378.562048,25.4394019 L365.022288,25.4394019 C355.847673,25.4394019 348.383742,32.9137363 348.383742,42.1004791 L348.383742,90.8707745 L348.400038,90.8875675 Z M158.316637,108.431958 L163.28668,108.431958 C170.590519,107.63165 177.620189,103.078342 177.913531,92.2962622 C167.99166,91.9114621 160.037387,83.7087904 160.037387,73.6814369 L160.037387,42.2314646 C160.037387,33.0452016 152.573455,25.5708673 143.398361,25.5708673 L129.859081,25.5708673 L129.859081,74.7389175 C129.859081,87.4003765 135.467574,95.3852187 140.171596,99.8545617 C145.241816,104.67128 151.868379,107.773671 158.316637,108.431958 L158.316637,108.431958 Z M327.355606,108.431958 L332.325648,108.431958 C339.629488,107.63165 346.659157,103.078342 346.9525,92.2962622 C337.030628,91.9114621 329.076355,83.7087904 329.076355,73.6814369 L329.076355,42.2314646 C329.076355,33.0452016 321.612424,25.5708673 312.437809,25.5708673 L298.898049,25.5708673 L298.898049,74.7389175 C298.898049,87.4003765 304.506543,95.3852187 309.210564,99.8545617 C314.280784,104.67128 320.906869,107.773671 327.355606,108.431958 L327.355606,108.431958 Z M87.937497,108.563423 L93.2181374,108.563423 C106.394574,108.563423 114.705459,102.711295 119.356756,97.8014947 C125.032833,91.8111838 128.421128,83.7394976 128.421128,76.2099862 C128.421128,67.7520606 123.945262,58.7241318 111.447539,58.3973875 C111.064085,68.7414095 102.540862,77.0371625 92.1185831,77.0371625 L59.4128361,77.0371625 C49.8432632,77.0371625 42.0581891,84.8334431 42.0581891,94.4160214 L42.0581891,108.563423 L87.937497,108.563423 Z M256.975986,108.563423 L262.257106,108.563423 C275.433543,108.563423 283.744428,102.711295 288.395724,97.8019745 C294.071802,91.8111838 297.460576,83.7394976 297.460576,76.210466 C297.460576,67.7520606 292.98471,58.7241318 280.486507,58.3973875 C280.103053,68.7414095 271.579351,77.0371625 261.157552,77.0371625 L228.452284,77.0371625 C218.882711,77.0371625 211.097637,84.8334431 211.097637,94.4160214 L211.097637,108.563423 L256.975986,108.563423 Z M170.476921,108.431958 L203.395006,108.431958 C205.616642,108.431958 207.703111,108.575418 209.659685,108.83643 L209.659685,94.4160214 C209.659685,84.0398528 218.08992,75.5977606 228.452284,75.5977606 L261.157552,75.5977606 C270.783684,75.5977606 278.660308,67.9511778 279.047117,58.4050643 L228.316158,58.4050643 C220.506159,58.4050643 213.794277,53.6108964 210.961031,46.8068435 L210.961031,57.0664206 C210.961031,70.7853602 205.288789,79.1372499 200.530125,83.7279824 C194.830082,89.2269775 187.265973,92.3284088 179.63476,92.3284088 C179.540335,92.3284088 179.44543,92.327929 179.350046,92.3269694 C179.126204,100.066154 175.348224,105.812246 169.158798,108.431958 L170.476921,108.431958 Z M1.43795236,109.87136 L1.43795236,124.018761 C1.43795236,133.601819 9.22302641,141.39762 18.7930787,141.39762 L69.5393759,141.39762 L69.5556727,141.380827 C69.6429085,133.691062 66.5546662,126.040641 61.017591,120.289751 C56.4415472,115.536846 48.1014236,109.87136 34.3565163,109.87136 L1.43795236,109.87136 Z M170.476921,109.87136 L170.476921,124.018761 C170.476921,133.601819 178.262474,141.39762 187.832526,141.39762 L238.578344,141.39762 L238.5956,141.380827 C238.681877,133.690582 235.593155,126.040161 230.05608,120.289271 C225.480036,115.536846 217.139913,109.87136 203.395006,109.87136 L170.476921,109.87136 Z M240.033073,141.391383 C248.277812,141.622167 254.349327,145.744134 256.975986,152.476217 L256.975986,110.002825 L215.352538,110.002825 C222.768058,112.091397 227.838278,115.91205 231.091406,119.290326 C236.888271,125.310864 240.122226,133.326894 240.033073,141.391383 L240.033073,141.391383 Z M70.9936251,141.391383 C79.2383646,141.622167 85.3108374,145.745094 87.937497,152.477176 L87.937497,110.002825 L46.3135695,110.002825 C53.7295691,112.091397 58.7997891,115.91205 62.0529166,119.290806 C67.8497819,125.311344 71.0837368,133.326894 70.9936251,141.391383 L70.9936251,141.391383 Z M272.964578,108.591251 C282.464171,109.117593 290.030197,117.022308 290.030197,126.662942 L290.030197,158.113395 C290.030197,167.345239 297.335474,174.900659 306.462158,175.287379 L306.462158,126.532437 C306.462158,117.589912 312.972727,110.141008 321.496429,108.688171 C316.673058,107.202708 312.024637,104.512466 308.220774,100.898128 C304.365623,97.2362896 299.929061,91.3165093 298.20208,82.5635063 C295.715381,93.971726 286.684082,104.812342 272.964578,108.591251 L272.964578,108.591251 Z M103.92561,108.591251 C113.425203,109.117593 120.991708,117.022308 120.991708,126.662942 L120.991708,158.113395 C120.991708,167.345239 128.296985,174.900659 137.423189,175.287379 L137.423189,126.532437 C137.423189,117.589912 143.933758,110.141008 152.457461,108.688171 C147.634089,107.202708 142.985668,104.512466 139.181805,100.898128 C135.326655,97.2362896 130.890093,91.3160295 129.163112,82.5635063 C126.675933,93.971726 117.645113,104.812342 103.92561,108.591251 L103.92561,108.591251 Z M307.916407,175.319525 C315.262426,175.400612 322.585918,172.431125 328.088003,167.123091 C332.645832,162.725718 338.078416,154.711128 338.078416,141.498378 L338.078416,109.87136 L332.462733,109.87136 C330.819633,110.043608 329.053348,110.046967 327.28946,109.87136 L324.538657,109.87136 C315.364042,109.87136 307.90011,117.345694 307.90011,126.532437 L307.90011,175.302732 L307.916407,175.319525 Z M138.876959,175.319525 C146.222978,175.399172 153.54647,172.431605 159.048555,167.123091 C163.606385,162.726198 169.038969,154.711128 169.038969,141.498378 L169.038969,109.87136 L163.423765,109.87136 C161.780664,110.043608 160.0139,110.046967 158.250491,109.87136 L155.499688,109.87136 C146.325073,109.87136 138.861142,117.345694 138.861142,126.532437 L138.861142,175.302732 L138.876959,175.319525 Z M1.57455783,192.994901 L52.7340267,192.994901 C65.9104635,192.994901 74.2213488,187.142773 78.8726454,182.233452 C84.5487226,176.242662 87.937497,168.170975 87.937497,160.642424 C87.937497,152.183538 83.4611513,143.156089 70.9634281,142.829345 C70.5799741,153.172887 62.0562719,161.46864 51.6344725,161.46864 L18.9292048,161.46864 C9.35963188,161.46864 1.57455783,169.264921 1.57455783,178.847499 L1.57455783,192.994901 Z M170.613526,192.994901 L221.773475,192.994901 C234.949911,192.994901 243.260317,187.142773 247.911614,182.233452 C253.587691,176.242662 256.976466,168.170975 256.976466,160.642424 C256.976466,152.184018 252.500599,143.156089 240.002397,142.829345 C239.618943,153.172887 231.09524,161.46864 220.673441,161.46864 L187.968173,161.46864 C178.3986,161.46864 170.613526,169.264921 170.613526,178.847499 L170.613526,192.994901 Z M89.3754494,110.002825 L89.3754494,159.170875 C89.3754494,171.831854 94.9834635,179.817176 99.6879643,184.28604 C105.42827,189.739454 113.161578,192.995381 120.375306,192.995381 C128.467143,192.995381 137.103485,188.704044 137.429421,176.72822 C127.507549,176.34342 119.553755,168.140748 119.553755,158.113395 L119.553755,126.662942 C119.553755,117.476679 112.089824,110.002825 102.915209,110.002825 L89.3754494,110.002825 Z M258.413939,110.002825 L258.413939,159.170875 C258.413939,171.831854 264.022432,179.817176 268.726454,184.28604 C274.467239,189.739454 282.200546,192.995381 289.414274,192.995381 C294.275032,192.995381 298.436466,191.559337 301.448497,188.842226 C304.594737,186.004206 306.323156,181.826581 306.468389,176.72822 C296.546038,176.34342 288.592245,168.140748 288.592245,158.113395 L288.592245,126.662942 C288.592245,117.476679 281.128313,110.002825 271.954177,110.002825 L258.413939,110.002825 Z M257.730432,166.939807 C254.666635,181.117436 241.494032,194.434783 221.773475,194.434783 L169.175574,194.434783 L169.175574,178.847499 C169.175574,168.471331 177.605809,160.029238 187.968173,160.029238 L220.673441,160.029238 C230.299573,160.029238 238.176197,152.382656 238.563006,142.837022 L187.832526,142.837022 C180.022528,142.837022 173.310166,138.042854 170.476921,131.238321 L170.476921,141.498378 C170.476921,155.216838 164.805157,163.568728 160.046494,168.15946 C154.345971,173.658935 146.781863,176.760367 139.15017,176.760367 C139.055745,176.760367 138.961319,176.759887 138.865935,176.758927 C138.553899,187.524214 131.366534,194.434783 120.375306,194.434783 C106.725303,194.434783 92.1272109,184.110912 88.690984,166.938847 C85.6276662,181.116477 72.4545847,194.434783 52.7340267,194.434783 L0.136605474,194.434783 L0.136605474,178.847499 C0.136605474,168.471331 8.56684082,160.029238 18.9292048,160.029238 L51.6344725,160.029238 C61.2606049,160.029238 69.1372286,152.382656 69.5240378,142.837022 L18.7930787,142.837022 C8.43023534,142.837022 0,134.39493 0,124.018761 L0,108.431958 L34.3565163,108.431958 C36.5776734,108.431958 38.6631836,108.575418 40.6202368,108.83643 L40.6202368,94.4160214 C40.6202368,84.0398528 49.0504721,75.5977606 59.4128361,75.5977606 L92.1185831,75.5977606 C101.744716,75.5977606 109.621339,67.9511778 110.008148,58.4050643 L59.2771893,58.4050643 C48.9148253,58.4050643 40.4841106,49.9634519 40.4841106,39.5868035 L40.4841106,24 L74.8401476,24 C89.0902555,24 97.7673393,29.9053863 102.537027,34.858848 C108.333893,40.8798662 111.567847,48.8954157 111.477736,56.959425 C119.722475,57.1902091 125.794948,61.3126562 128.421128,68.044739 L128.421128,24.1314654 L143.398361,24.1314654 C153.366246,24.1314654 161.475339,32.2511316 161.475339,42.2314646 L161.475339,73.6814369 C161.475339,82.9132809 168.780616,90.4687016 177.906821,90.8549411 L177.906821,42.1004791 C177.906821,32.1196662 186.015913,24 195.98284,24 L243.879595,24 C258.129703,24 266.805829,29.9049065 271.575516,34.8583682 C277.372382,40.8793864 280.606337,48.8954157 280.516704,56.959425 C288.761444,57.1902091 294.833437,61.3121764 297.460097,68.0442592 L297.460097,24.1314654 L312.437809,24.1314654 C322.405215,24.1314654 330.514308,32.2511316 330.514308,42.2314646 L330.514308,73.6814369 C330.514308,82.9132809 337.819585,90.4687016 346.945789,90.8549411 L346.945789,42.1004791 C346.945789,32.1196662 355.054882,24 365.022288,24 L380,24 L380,57.0664206 C380,70.7853602 374.327757,79.1372499 369.569094,83.7279824 C363.797632,89.295589 356.108901,92.3941415 348.389014,92.3269694 C348.165173,100.066154 344.387672,105.812246 338.197766,108.431958 L339.516369,108.431958 L339.516369,141.498378 C339.516369,155.216838 333.844126,163.568728 329.085942,168.15946 C323.385419,173.658935 315.82131,176.760367 308.189139,176.760367 C308.095192,176.760367 308.000288,176.759887 307.905383,176.758927 C307.593347,187.524214 300.405503,194.434783 289.414274,194.434783 C275.764272,194.434783 261.166659,184.112352 257.730432,166.939807 Z" id="Fill-1"></path>
            </g>
        </g>
    </g>
</svg>