<?xml version="1.0" encoding="UTF-8"?>
<svg width="525px" height="235px" viewBox="0 0 525 235" version="1.1" xmlns="http://www.w3.org/2000/svg" xmlns:xlink="http://www.w3.org/1999/xlink">
    <title>Group 3 Copy 2</title>
    <defs>
        <filter color-interpolation-filters="auto" id="filter-1">
            <feColorMatrix in="SourceGraphic" type="matrix" values="0 0 0 0 0.772549 0 0 0 0 0.160784 0 0 0 0 0.607843 0 0 0 1.000000 0"></feColorMatrix>
        </filter>
        <polygon id="path-2" points="0 0 525 0 525 235 0 235"></polygon>
    </defs>
    <g id="✅-Branded" stroke="none" stroke-width="1" fill="none" fill-rule="evenodd" opacity="0.200000003">
        <g id="Group-2" transform="translate(-913.000000, -591.000000)" filter="url(#filter-1)">
            <g transform="translate(920.000000, 76.000000)">
                <g id="Group-3-Copy-2" opacity="0.300000012" transform="translate(-7.000000, 515.000000)">
                    <mask id="mask-3" fill="white">
                        <use xlink:href="#path-2"></use>
                    </mask>
                    <g id="Clip-2"></g>
                    <path d="M57.9186396,1.98468555 L57.9186396,21.4914982 C57.9186396,34.7042115 68.6749963,45.45393 81.8961168,45.45393 L152.006133,45.45393 L152.028648,45.4307753 C152.149171,34.8285851 147.882521,24.2793199 140.232614,16.3498395 C133.909786,9.79640786 122.387247,1.98468555 103.397572,1.98468555 L57.9186396,1.98468555 Z M291.45932,1.98468555 L291.45932,21.4914982 C291.45932,34.7042115 302.215676,45.45393 315.436797,45.45393 L385.546813,45.45393 L385.56999,45.4307753 C385.689851,34.8279235 381.422539,24.2786583 373.772632,16.349178 C367.450466,9.79640786 355.927927,1.98468555 336.938915,1.98468555 L291.45932,1.98468555 Z M247.801478,92.2263527 C257.95853,92.3427876 268.067241,88.2444119 275.669468,80.9255532 C281.966469,74.8630004 289.472675,63.8116097 289.472675,45.5928579 L289.472675,1.98468555 L270.765766,1.98468555 C258.090973,1.98468555 247.778963,12.290496 247.778963,24.9574208 L247.778963,92.203198 L247.801478,92.2263527 Z M481.342158,92.2263527 C491.525037,92.3427876 501.609245,88.2450735 509.21081,80.9255532 C515.507149,74.8630004 523.013355,63.8116097 523.013355,45.5928579 L523.013355,1.98468555 L504.307109,1.98468555 C491.631653,1.98468555 481.319643,12.290496 481.319643,24.9574208 L481.319643,92.203198 L481.342158,92.2263527 Z M218.726933,116.417023 L225.593439,116.417023 C235.68427,115.313538 245.396314,109.035316 245.801589,94.1686983 C232.093741,93.6381257 221.104284,82.3280643 221.104284,68.5020832 L221.104284,25.1380271 C221.104284,12.471764 210.792274,2.16595349 198.116156,2.16595349 L179.410572,2.16595349 L179.410572,69.9601655 C179.410572,87.4181212 187.159149,98.4278335 193.658126,104.590282 C200.663035,111.231701 209.818156,115.50936 218.726933,116.417023 L218.726933,116.417023 Z M452.267613,116.417023 L459.134119,116.417023 C469.22495,115.313538 478.936994,109.035316 479.342269,94.1686983 C465.634421,93.6381257 454.644965,82.3280643 454.644965,68.5020832 L454.644965,25.1380271 C454.644965,12.471764 444.332954,2.16595349 431.657499,2.16595349 L412.951252,2.16595349 L412.951252,69.9601655 C412.951252,87.4181212 420.699829,98.4278335 427.198806,104.590282 C434.203715,111.231701 443.358174,115.50936 452.267613,116.417023 L452.267613,116.417023 Z M121.492595,116.598291 L128.788216,116.598291 C146.992504,116.598291 158.474648,108.529221 164.900781,101.759459 C172.74273,93.4998592 177.423927,82.3704043 177.423927,71.9885142 C177.423927,60.3265019 171.240165,47.8785541 153.973573,47.4280305 C153.443801,61.6906424 141.668296,73.1290468 127.269095,73.1290468 L82.0835236,73.1290468 C68.8624031,73.1290468 58.1067087,83.8787653 58.1067087,97.0914785 L58.1067087,116.598291 L121.492595,116.598291 Z M355.032613,116.598291 L362.328896,116.598291 C380.533184,116.598291 392.015328,108.529221 398.441461,101.76012 C406.28341,93.4998592 410.96527,82.3704043 410.96527,71.9891757 C410.96527,60.3265019 404.781507,47.8785541 387.514253,47.4280305 C386.984481,61.6906424 375.208314,73.1290468 360.809775,73.1290468 L315.624866,73.1290468 C302.403745,73.1290468 291.648051,83.8787653 291.648051,97.0914785 L291.648051,116.598291 L355.032613,116.598291 Z M235.527325,116.417023 L281.006258,116.417023 C284.075624,116.417023 286.958245,116.61483 289.661406,116.97472 L289.661406,97.0914785 C289.661406,82.784542 301.308442,71.1443612 315.624866,71.1443612 L360.809775,71.1443612 C374.109037,71.1443612 384.991215,60.6010501 385.525622,47.4386155 L315.436797,47.4386155 C304.646667,47.4386155 295.373672,40.8282895 291.45932,31.4466809 L291.45932,45.5928579 C291.45932,64.5088959 283.622669,76.024703 277.048199,82.3545268 C269.17314,89.9366871 258.722726,94.2130229 248.179603,94.2130229 C248.049146,94.2130229 247.918028,94.2123614 247.786247,94.2110382 C247.476993,104.882031 242.257415,112.804896 233.706234,116.417023 L235.527325,116.417023 Z M1.9866447,118.401709 L1.9866447,137.908521 C1.9866447,151.121896 12.7423391,161.870953 25.9641218,161.870953 L96.0741378,161.870953 L96.0966531,161.847799 C96.2171762,151.244947 91.9505256,140.696343 84.3006191,132.766863 C77.9784534,126.213431 66.4559141,118.401709 47.4662397,118.401709 L1.9866447,118.401709 Z M235.527325,118.401709 L235.527325,137.908521 C235.527325,151.121896 246.283682,161.870953 259.505464,161.870953 L329.614818,161.870953 L329.638658,161.847799 C329.757856,151.244285 325.490544,140.695682 317.840637,132.766201 C311.518471,126.213431 299.995932,118.401709 281.006258,118.401709 L235.527325,118.401709 Z M331.62464,161.862353 C343.015399,162.180564 351.403675,167.864042 355.032613,177.146416 L355.032613,118.582977 L297.526533,118.582977 C307.771659,121.462755 314.776569,126.730772 319.271021,131.388829 C327.279848,139.690108 331.747812,150.742821 331.62464,161.862353 L331.62464,161.862353 Z M98.0832978,161.862353 C109.474056,162.180564 117.863657,167.865365 121.492595,177.147739 L121.492595,118.582977 L63.9858526,118.582977 C74.2316415,121.462755 81.2365507,126.730772 85.7310033,131.389491 C93.7398303,139.690769 98.2077942,150.742821 98.0832978,161.862353 L98.0832978,161.862353 Z M377.122115,116.636662 C390.246552,117.362395 400.699614,128.261627 400.699614,141.554389 L400.699614,184.919106 C400.699614,197.648218 410.792432,208.065832 423.401666,208.599051 L423.401666,141.374444 C423.401666,129.044254 432.39653,118.773507 444.172698,116.770297 C437.50883,114.722102 431.086669,111.012725 425.831332,106.029179 C420.505138,100.980139 414.375676,92.817789 411.989716,80.7489162 C408.554145,96.4788722 396.076692,111.426201 377.122115,116.636662 L377.122115,116.636662 Z M143.581435,116.636662 C156.705872,117.362395 167.159596,128.261627 167.159596,141.554389 L167.159596,184.919106 C167.159596,197.648218 177.252414,208.065832 189.860985,208.599051 L189.860985,141.374444 C189.860985,129.044254 198.85585,118.773507 210.632018,116.770297 C203.968149,114.722102 197.545989,111.012725 192.290652,106.029179 C186.964457,100.980139 180.834996,92.8171274 178.449036,80.7489162 C175.012803,96.4788722 162.536012,111.426201 143.581435,116.636662 L143.581435,116.636662 Z M425.410826,208.643376 C435.559931,208.75518 445.677913,204.660774 453.279477,197.341915 C459.576479,191.278701 467.082023,180.227971 467.082023,162.009881 L467.082023,118.401709 L459.323513,118.401709 C457.05344,118.63921 454.613178,118.64384 452.176227,118.401709 L448.375776,118.401709 C435.700321,118.401709 425.38831,128.707519 425.38831,141.374444 L425.38831,208.620221 L425.410826,208.643376 Z M191.869483,208.643376 C202.018589,208.753195 212.13657,204.661435 219.738135,197.341915 C226.035136,191.279362 233.54068,180.227971 233.54068,162.009881 L233.54068,118.401709 L225.782833,118.401709 C223.51276,118.63921 221.071836,118.64384 218.635547,118.401709 L214.835096,118.401709 C202.15964,118.401709 191.84763,128.707519 191.84763,141.374444 L191.84763,208.620221 L191.869483,208.643376 Z M2.17537595,233.014653 L72.8562212,233.014653 C91.0605088,233.014653 102.542653,224.945583 108.968786,218.176482 C116.810735,209.916221 121.492595,198.786766 121.492595,188.406199 C121.492595,176.742864 115.30817,164.295577 98.0415783,163.845054 C97.5118063,178.107004 85.7356388,189.545408 71.3371002,189.545408 L26.1521909,189.545408 C12.9310704,189.545408 2.17537595,200.295127 2.17537595,213.50784 L2.17537595,233.014653 Z M235.716056,233.014653 L306.397564,233.014653 C324.601851,233.014653 336.083333,224.945583 342.509467,218.176482 C350.351415,209.916221 355.033275,198.786766 355.033275,188.406199 C355.033275,176.743525 348.849512,164.295577 331.582258,163.845054 C331.052487,178.107004 319.276319,189.545408 304.87778,189.545408 L259.692871,189.545408 C246.471751,189.545408 235.716056,200.295127 235.716056,213.50784 L235.716056,233.014653 Z M123.479239,118.582977 L123.479239,186.377189 C123.479239,203.834483 131.227154,214.844857 137.726793,221.006644 C145.657478,228.525956 156.341654,233.015314 166.307988,233.015314 C177.4875,233.015314 189.419288,227.098305 189.869594,210.585722 C176.161746,210.055149 165.172952,198.745088 165.172952,184.919106 L165.172952,141.554389 C165.172952,128.888126 154.860941,118.582977 142.185486,118.582977 L123.479239,118.582977 Z M357.019257,118.582977 L357.019257,186.377189 C357.019257,203.834483 364.767834,214.844857 371.266811,221.006644 C379.198159,228.525956 389.882334,233.015314 399.848668,233.015314 C406.564189,233.015314 412.313539,231.03526 416.474898,227.288835 C420.821676,223.375697 423.209623,217.615478 423.410274,210.585722 C409.701764,210.055149 398.71297,198.745088 398.71297,184.919106 L398.71297,141.554389 C398.71297,128.888126 388.400959,118.582977 375.726166,118.582977 L357.019257,118.582977 Z M399.848668,235 C380.990112,235 360.822357,220.767158 356.074939,197.089198 C351.842061,216.637689 333.643071,235 306.397564,235 L233.729411,235 L233.729411,213.50784 C233.729411,199.200904 245.376447,187.560723 259.692871,187.560723 L304.87778,187.560723 C318.177042,187.560723 329.05922,177.017412 329.593627,163.855639 L259.505464,163.855639 C248.715335,163.855639 239.441677,157.245313 235.527325,147.863043 L235.527325,162.009881 C235.527325,180.925258 227.691336,192.441065 221.116866,198.770888 C213.241145,206.35371 202.790731,210.630046 192.246946,210.630046 C192.116489,210.630046 191.986033,210.629385 191.854252,210.628061 C191.42315,225.471525 181.493238,235 166.307988,235 C147.449432,235 127.281015,220.765174 122.533596,197.087875 C118.301381,216.636366 100.101729,235 72.8562212,235 L0.188731247,235 L0.188731247,213.50784 C0.188731247,199.200904 11.8357669,187.560723 26.1521909,187.560723 L71.3371002,187.560723 C84.636362,187.560723 95.5185395,177.017412 96.0529469,163.855639 L25.9641218,163.855639 C11.6470357,163.855639 0,152.215458 0,137.908521 L0,116.417023 L47.4662397,116.417023 C50.5349435,116.417023 53.4162405,116.61483 56.120064,116.97472 L56.120064,97.0914785 C56.120064,82.784542 67.7670997,71.1443612 82.0835236,71.1443612 L127.269095,71.1443612 C140.568357,71.1443612 151.450534,60.6010501 151.984942,47.4386155 L81.8961168,47.4386155 C67.5796928,47.4386155 55.9319949,35.7990963 55.9319949,21.4914982 L55.9319949,0 L103.397572,0 C123.085221,0 135.073298,8.14250324 141.662998,14.9724678 C149.671825,23.2744074 154.139789,34.3264597 154.015293,45.4453297 C165.406051,45.7635409 173.795652,51.4476803 177.423927,60.7300546 L177.423927,0.181267947 L198.116156,0.181267947 C211.887577,0.181267947 223.090929,11.3768791 223.090929,25.1380271 L223.090929,68.5020832 C223.090929,81.2311948 233.183746,91.6488092 245.792318,92.1813665 L245.792318,24.9574208 C245.792318,11.1956112 256.99567,0 270.765766,0 L336.938915,0 C356.626564,0 368.613316,8.14184168 375.203016,14.9718062 C383.211843,23.2737458 387.679807,34.3264597 387.555973,45.4453297 C398.946731,45.7635409 407.33567,51.4470187 410.964607,60.7293931 L410.964607,0.181267947 L431.657499,0.181267947 C445.428258,0.181267947 456.631609,11.3768791 456.631609,25.1380271 L456.631609,68.5020832 C456.631609,81.2311948 466.724427,91.6488092 479.332998,92.1813665 L479.332998,24.9574208 C479.332998,11.1956112 490.53635,0 504.307109,0 L525,0 L525,45.5928579 C525,64.5088959 517.163349,76.024703 510.588879,82.3545268 C502.61515,90.0312905 491.99256,94.3036569 481.326927,94.2110382 C481.017673,104.882031 475.798757,112.804896 467.246914,116.417023 L469.068667,116.417023 L469.068667,162.009881 C469.068667,180.925258 461.232016,192.441065 454.658209,198.770888 C446.782487,206.35371 436.332074,210.630046 425.787626,210.630046 C425.657832,210.630046 425.526713,210.629385 425.395595,210.628061 C424.964493,225.471525 415.033918,235 399.848668,235 L399.848668,235 Z" id="Fill-1" fill="#231F20" mask="url(#mask-3)"></path>
                </g>
            </g>
        </g>
    </g>
</svg>