<?xml version="1.0" encoding="UTF-8"?>
<svg width="437px" height="196px" viewBox="0 0 437 196" version="1.1" xmlns="http://www.w3.org/2000/svg" xmlns:xlink="http://www.w3.org/1999/xlink">
    <title>61C98876-C90D-4AD1-AFF1-81505561470F@2x</title>
    <defs>
        <polygon id="path-1" points="0 0 437 0 437 196 0 196"></polygon>
    </defs>
    <g id="✅-Branded" stroke="none" stroke-width="1" fill="none" fill-rule="evenodd" opacity="0.300000012">
        <g id="Events-Registration-Form-(Confirmation-Message)" transform="translate(-1245.000000, -241.000000)">
            <g id="Group-2" transform="translate(1225.000000, 7.000000)">
                <g id="Group-3-Copy" transform="translate(20.000000, 234.000000)">
                    <mask id="mask-2" fill="white">
                        <use xlink:href="#path-1"></use>
                    </mask>
                    <g id="Clip-2"></g>
                    <path d="M48.2103724,1.6553122 L48.2103724,17.9248241 C48.2103724,28.9447891 57.1637588,37.9105118 68.1687677,37.9105118 L126.52701,37.9105118 L126.545751,37.8911998 C126.646072,29.048522 123.094593,20.2499859 116.726957,13.6364619 C111.463955,8.17062102 101.872813,1.6553122 86.0661698,1.6553122 L48.2103724,1.6553122 Z M242.605186,1.6553122 L242.605186,17.9248241 C242.605186,28.9447891 251.558573,37.9105118 262.563581,37.9105118 L320.921823,37.9105118 L320.941116,37.8911998 C321.040886,29.0479703 317.488856,20.2494342 311.121219,13.6359101 C305.858769,8.17062102 296.267627,1.6553122 280.461535,1.6553122 L242.605186,1.6553122 Z M206.26523,76.9207027 C214.719767,77.0178143 223.134065,73.5995946 229.462014,67.495355 C234.703518,62.438928 240.951541,53.2215979 240.951541,38.0263836 L240.951541,1.6553122 L225.380267,1.6553122 C214.83001,1.6553122 206.246489,10.2507967 206.246489,20.8155509 L206.246489,76.9013907 L206.26523,76.9207027 Z M400.660044,76.9207027 C409.136078,77.0178143 417.529981,73.6001464 423.857379,67.495355 C429.098332,62.438928 435.346355,53.2215979 435.346355,38.0263836 L435.346355,1.6553122 L419.775632,1.6553122 C409.224824,1.6553122 400.641303,10.2507967 400.641303,20.8155509 L400.641303,76.9013907 L400.660044,76.9207027 Z M182.064133,97.0967513 L187.779682,97.0967513 C196.179097,96.1763977 204.263217,90.9400935 204.600561,78.5407015 C193.190409,78.0981814 184.042995,68.6651089 184.042995,57.1336524 L184.042995,20.9661843 C184.042995,10.4019819 175.459474,1.80649738 164.908115,1.80649738 L149.337943,1.80649738 L149.337943,58.3497551 C149.337943,72.910433 155.78771,82.0930015 161.197335,87.2327459 C167.028088,92.7719723 174.648636,96.3397219 182.064133,97.0967513 L182.064133,97.0967513 Z M376.458946,97.0967513 L382.174496,97.0967513 C390.573911,96.1763977 398.658031,90.9400935 398.995375,78.5407015 C387.585223,78.0981814 378.437809,68.6651089 378.437809,57.1336524 L378.437809,20.9661843 C378.437809,10.4019819 369.854287,1.80649738 359.30348,1.80649738 L343.732757,1.80649738 L343.732757,58.3497551 C343.732757,72.910433 350.182524,82.0930015 355.592149,87.2327459 C361.422902,92.7719723 369.042899,96.3397219 376.458946,97.0967513 L376.458946,97.0967513 Z M101.128122,97.2479365 L107.200858,97.2479365 C122.35376,97.2479365 131.911278,90.5179889 137.260269,84.8717189 C143.787758,77.9828613 147.684298,68.7004223 147.684298,60.0414842 C147.684298,50.3148697 142.537051,39.9327515 128.16467,39.5569957 C127.723697,51.4526209 117.921991,60.9927369 105.936371,60.9927369 L68.3247615,60.9927369 C57.3197527,60.9927369 48.3669175,69.9584595 48.3669175,80.9784246 L48.3669175,97.2479365 L101.128122,97.2479365 Z M295.522384,97.2479365 L301.595672,97.2479365 C316.748574,97.2479365 326.306092,90.5179889 331.655083,84.8722707 C338.182572,77.9828613 342.079663,68.7004223 342.079663,60.0420359 C342.079663,50.3148697 336.932416,39.9327515 322.559483,39.5569957 C322.118511,51.4526209 312.316254,60.9927369 300.331184,60.9927369 L262.720127,60.9927369 C251.715118,60.9927369 242.762283,69.9584595 242.762283,80.9784246 L242.762283,97.2479365 L295.522384,97.2479365 Z M196.048459,97.0967513 L233.904256,97.0967513 C236.459138,97.0967513 238.858577,97.2617308 241.108637,97.561894 L241.108637,80.9784246 C241.108637,69.0458308 250.803408,59.3374247 262.720127,59.3374247 L300.331184,59.3374247 C311.401237,59.3374247 320.459354,50.5438545 320.904184,39.565824 L262.563581,39.565824 C253.582083,39.565824 245.863418,34.0525308 242.605186,26.2278701 L242.605186,38.0263836 C242.605186,53.8031642 236.082107,63.4078374 230.609644,68.6871798 C224.054594,75.0110242 215.355869,78.5776702 206.579974,78.5776702 C206.471385,78.5776702 206.362244,78.5771184 206.252552,78.5760149 C205.995135,87.4760768 201.650458,94.0840831 194.532618,97.0967513 L196.048459,97.0967513 Z M1.65364521,98.7520635 L1.65364521,115.021575 C1.65364521,126.042092 10.6064804,135.007263 21.6120405,135.007263 L79.9702823,135.007263 L79.9890236,134.987951 C80.0893448,126.144722 76.5378661,117.346737 70.1702296,110.733213 C64.9077793,105.267372 55.3166371,98.7520635 39.5099938,98.7520635 L1.65364521,98.7520635 Z M196.048459,98.7520635 L196.048459,115.021575 C196.048459,126.042092 205.001845,135.007263 216.007405,135.007263 L274.365096,135.007263 L274.38494,134.987951 C274.484159,126.14417 270.932129,117.346185 264.564492,110.732661 C259.302042,105.267372 249.7109,98.7520635 233.904256,98.7520635 L196.048459,98.7520635 Z M276.038034,135.00009 C285.519484,135.265492 292.501726,140.005754 295.522384,147.747649 L295.522384,98.9032487 L247.655419,98.9032487 C256.183267,101.305107 262.01402,105.698857 265.755117,109.583875 C272.421512,116.507494 276.14056,125.725928 276.038034,135.00009 L276.038034,135.00009 Z M81.6426688,135.00009 C91.1241193,135.265492 98.107463,140.006858 101.128122,147.748753 L101.128122,98.9032487 L53.2606049,98.9032487 C61.7890045,101.305107 67.6197575,105.698857 71.3608541,109.584427 C78.0272492,116.508046 81.7462973,125.725928 81.6426688,135.00009 L81.6426688,135.00009 Z M313.909265,97.2799392 C324.833797,97.8852317 333.534727,106.975655 333.534727,118.062384 L333.534727,154.230404 C333.534727,164.847024 341.935795,173.535758 352.431482,173.980485 L352.431482,117.912302 C352.431482,107.628399 359.918636,99.0621587 369.720893,97.3913969 C364.174016,95.6831147 358.828332,92.5893362 354.45389,88.4328472 C350.020467,84.221733 344.91842,77.4139857 342.932392,67.3480322 C340.072688,80.4674849 329.686694,92.9341929 313.909265,97.2799392 L313.909265,97.2799392 Z M119.514451,97.2799392 C130.438983,97.8852317 139.140464,106.975655 139.140464,118.062384 L139.140464,154.230404 C139.140464,164.847024 147.541533,173.535758 158.036668,173.980485 L158.036668,117.912302 C158.036668,107.628399 165.523822,99.0621587 175.32608,97.3913969 C169.779202,95.6831147 164.433519,92.5893362 160.059076,88.4328472 C155.625653,84.221733 150.523606,77.4134339 148.537578,67.3480322 C145.677323,80.4674849 135.29188,92.9341929 119.514451,97.2799392 L119.514451,97.2799392 Z M354.103868,174.017454 C362.55179,174.110703 370.973805,170.695794 377.301203,164.591555 C382.542707,159.534576 388.790179,150.317797 388.790179,135.123135 L388.790179,98.7520635 L382.332143,98.7520635 C380.442578,98.9501492 378.41135,98.9540116 376.382879,98.7520635 L373.219455,98.7520635 C362.668648,98.7520635 354.085127,107.347548 354.085127,117.912302 L354.085127,173.998142 L354.103868,174.017454 Z M159.708503,174.017454 C168.156425,174.109048 176.57844,170.696346 182.905838,164.591555 C188.147342,159.535128 194.394814,150.317797 194.394814,135.123135 L194.394814,98.7520635 L187.937329,98.7520635 C186.047764,98.9501492 184.015985,98.9540116 181.988065,98.7520635 L178.824642,98.7520635 C168.273834,98.7520635 159.690313,107.347548 159.690313,117.912302 L159.690313,173.998142 L159.708503,174.017454 Z M1.8107415,194.344136 L60.6441308,194.344136 C75.797033,194.344136 85.3545511,187.614188 90.7035422,181.96847 C97.231031,175.079061 101.128122,165.796622 101.128122,157.138787 C101.128122,147.411069 95.980324,137.029503 81.6079423,136.653747 C81.1669702,148.54882 71.3647126,158.088936 59.3796434,158.088936 L21.7685855,158.088936 C10.7635767,158.088936 1.8107415,167.054659 1.8107415,178.074624 L1.8107415,194.344136 Z M196.205555,194.344136 L255.039496,194.344136 C270.192398,194.344136 279.749365,187.614188 285.098356,181.96847 C291.625845,175.079061 295.522935,165.796622 295.522935,157.138787 C295.522935,147.411621 290.375689,137.029503 276.002756,136.653747 C275.561784,148.54882 265.759526,158.088936 253.774457,158.088936 L216.163399,158.088936 C205.15839,158.088936 196.205555,167.054659 196.205555,178.074624 L196.205555,194.344136 Z M102.781767,98.9032487 L102.781767,155.446506 C102.781767,170.006633 109.230983,179.189753 114.641159,184.328945 C121.242511,190.600372 130.135815,194.344688 138.431601,194.344688 C147.737214,194.344688 157.669007,189.40965 158.043834,175.637453 C146.633682,175.194933 137.486819,165.76186 137.486819,154.230404 L137.486819,118.062384 C137.486819,107.498181 128.903298,98.9032487 118.35249,98.9032487 L102.781767,98.9032487 Z M297.176029,98.9032487 L297.176029,155.446506 C297.176029,170.006633 303.625797,179.189753 309.035422,184.328945 C315.637324,190.600372 324.530628,194.344688 332.826415,194.344688 C338.416287,194.344688 343.201936,192.693238 346.665772,189.56856 C350.283948,186.304836 352.271629,181.500569 352.438647,175.637453 C341.027944,175.194933 331.881081,165.76186 331.881081,154.230404 L331.881081,118.062384 C331.881081,107.498181 323.29756,98.9032487 312.747304,98.9032487 L297.176029,98.9032487 Z M332.826415,196 C317.128912,196 300.341657,184.129204 296.389997,164.380778 C292.86663,180.685052 277.718137,196 255.039496,196 L194.55191,196 L194.55191,178.074624 C194.55191,166.14203 204.246681,156.433624 216.163399,156.433624 L253.774457,156.433624 C264.844509,156.433624 273.902627,147.640054 274.347457,136.662575 L216.007405,136.662575 C207.025907,136.662575 199.306691,131.149282 196.048459,123.32407 L196.048459,135.123135 C196.048459,150.899364 189.525931,160.504037 184.053468,165.783379 C177.497867,172.107775 168.799142,175.674421 160.022696,175.674421 C159.914106,175.674421 159.805517,175.67387 159.695825,175.672766 C159.336984,188.052846 151.071514,196 138.431601,196 C122.734099,196 105.946292,184.127549 101.994632,164.379675 C98.4718161,180.683948 83.3227724,196 60.6441308,196 L0.157096295,196 L0.157096295,178.074624 C0.157096295,166.14203 9.85186694,156.433624 21.7685855,156.433624 L59.3796434,156.433624 C70.4496956,156.433624 79.5078129,147.640054 79.9526434,136.662575 L21.6120405,136.662575 C9.69477065,136.662575 0,126.954169 0,115.021575 L0,97.0967513 L39.5099938,97.0967513 C42.0643244,97.0967513 44.4626612,97.2617308 46.7132723,97.561894 L46.7132723,80.9784246 C46.7132723,69.0458308 56.4080429,59.3374247 68.3247615,59.3374247 L105.936371,59.3374247 C117.006423,59.3374247 126.06454,50.5438545 126.509371,39.565824 L68.1687677,39.565824 C56.2520491,39.565824 46.5567272,29.8579697 46.5567272,17.9248241 L46.5567272,0 L86.0661698,0 C102.453794,0 112.43244,6.79119419 117.917581,12.4876752 C124.583976,19.4118462 128.303024,28.6297281 128.199396,37.9033388 C137.680846,38.1687405 144.66419,42.9095546 147.684298,50.6514498 L147.684298,0.151185181 L164.908115,0.151185181 C176.371183,0.151185181 185.69664,9.48880131 185.69664,20.9661843 L185.69664,57.1336524 C185.69664,67.7502731 194.097709,76.4390068 204.592844,76.8831823 L204.592844,20.8155509 C204.592844,9.33761613 213.9183,0 225.380267,0 L280.461535,0 C296.849159,0 306.826703,6.79064242 312.311844,12.4871235 C318.978239,19.4112944 322.697287,28.6297281 322.59421,37.9033388 C332.07566,38.1687405 339.058453,42.9090029 342.079111,50.650898 L342.079111,0.151185181 L359.30348,0.151185181 C370.765997,0.151185181 380.091454,9.48880131 380.091454,20.9661843 L380.091454,57.1336524 C380.091454,67.7502731 388.492523,76.4390068 398.987658,76.8831823 L398.987658,20.8155509 C398.987658,9.33761613 408.313114,0 419.775632,0 L437,0 L437,38.0263836 C437,53.8031642 430.476921,63.4078374 425.004458,68.6871798 C418.367277,75.0899274 409.525236,78.6532628 400.647366,78.5760149 C400.389949,87.4760768 396.045823,94.0840831 388.927431,97.0967513 L390.443824,97.0967513 L390.443824,135.123135 C390.443824,150.899364 383.920745,160.504037 378.448833,165.783379 C371.893232,172.107775 363.194507,175.674421 354.417509,175.674421 C354.309471,175.674421 354.200331,175.67387 354.09119,175.672766 C353.732349,188.052846 345.466328,196 332.826415,196 L332.826415,196 Z" id="Fill-1" fill="#00A5DF" mask="url(#mask-2)"></path>
                </g>
            </g>
        </g>
    </g>
</svg>