<?xml version="1.0" encoding="UTF-8"?>
<svg width="914px" height="725px" viewBox="0 0 914 725" version="1.1" xmlns="http://www.w3.org/2000/svg" xmlns:xlink="http://www.w3.org/1999/xlink">
    <title>Group 8 Copy</title>
    <defs>
        <polygon id="path-1" points="0 0 434 0 434 426 0 426"></polygon>
    </defs>
    <g id="✅-Branded" stroke="none" stroke-width="1" fill="none" fill-rule="evenodd">
        <g id="PTOTAppointmentRequest(2)---Desktop" transform="translate(350.000000, -1235.000000)">
            <g id="Group-8-Copy" transform="translate(-350.000000, 1235.000000)">
                <g id="Group-3">
                    <mask id="mask-2" fill="white">
                        <use xlink:href="#path-1"></use>
                    </mask>
                    <g id="Clip-2"></g>
                    <path d="M265.852964,335.383561 C308.26747,336.520303 350.16252,320.178773 380.962915,290.441769 C403.980081,268.220181 431.415641,228.160352 431.415641,163.506416 L431.415641,2.58333279 L356.875824,2.58333279 C306.684981,2.58333279 265.852964,41.1051151 265.852964,88.4538729 L265.852964,335.383561 Z M2.58427324,2.5859163 L2.58427324,251.474763 C2.58427324,315.773897 32.8238624,356.357316 58.1910727,379.080965 C89.1835719,406.842449 130.975248,423.416495 169.986152,423.416495 C196.484451,423.416495 219.210446,416.000974 235.707273,401.97082 C253.459238,386.873678 262.972265,364.51947 263.261713,337.267797 C210.696704,336.60642 168.14695,295.996305 168.14695,246.171688 L168.14695,88.4530117 C168.14695,41.1059763 127.314933,2.5859163 77.124951,2.5859163 L2.58427324,2.5859163 Z M169.986152,426 C130.356724,426 87.9198202,409.178799 56.4664435,381.005676 C39.1064401,365.454699 25.4446549,347.042058 15.8609889,326.279289 C5.33661599,303.478996 -8.61453128e-05,278.311352 -8.61453128e-05,251.474763 L-8.61453128e-05,-0.000172233669 L77.124951,-0.000172233669 C128.739777,-0.000172233669 170.731309,39.6816038 170.731309,88.4530117 L170.731309,246.171688 C170.731309,294.573655 212.125855,334.027221 263.268604,334.684292 L263.268604,88.4538729 C263.268604,39.6798815 305.260999,-0.000172233669 356.875824,-0.000172233669 L434,-0.000172233669 L434,163.506416 C434,229.066301 406.135437,269.731531 382.758184,292.30017 C351.474513,322.503066 308.93165,339.109837 265.836596,337.967066 C265.391225,365.686353 255.575828,388.465978 237.381938,403.938589 C220.411311,418.37091 197.10642,426 169.986152,426 L169.986152,426 Z" id="Fill-1" fill="#F9E9F5" mask="url(#mask-2)"></path>
                </g>
                <path d="M745.463682,494.175601 C787.961567,495.311714 829.971793,478.934984 860.844256,449.126458 C883.914168,426.852968 911.415233,386.69712 911.415233,321.888749 L911.415233,160.584031 L836.699943,160.584031 C786.391752,160.584031 745.463682,199.197213 745.463682,246.659842 L745.463682,494.175601 Z M481.584767,160.586615 L481.584767,410.066239 C481.584767,474.517151 511.894613,515.197558 537.321832,537.975796 C568.38643,565.802369 610.276033,582.415969 649.377535,582.415969 C675.938605,582.415969 698.7173,574.982571 715.252919,560.919411 C733.048182,545.784739 742.582527,523.377741 742.872021,496.058499 C690.182397,495.401293 647.53718,454.693323 647.53718,404.750025 L647.53718,246.65898 C647.53718,199.198936 606.60911,160.586615 556.30178,160.586615 L481.584767,160.586615 Z M649.377535,585 C609.656551,585 567.121617,568.140056 535.596931,539.900038 C518.197138,524.312299 504.503901,505.857146 494.898043,485.045357 C484.348746,462.191321 479,436.964283 479,410.066239 L479,158 L556.30178,158 C608.034178,158 650.121948,197.773412 650.121948,246.65898 L650.121948,404.750025 C650.121948,453.271245 691.611774,492.821569 742.878914,493.474467 L742.878914,246.659842 C742.878914,197.772551 784.966683,158 836.699943,158 L914,158 L914,321.888749 C914,387.603253 886.069864,428.363765 862.639808,450.985238 C831.281409,481.262335 788.63016,497.912972 745.447311,496.759633 C745.001008,524.544 735.163383,547.379086 716.927848,562.887582 C699.918355,577.35299 676.559811,585 649.377535,585 L649.377535,585 Z" id="Fill-4" fill="#F9E9F5"></path>
                <path d="M408.108201,623.776423 C451.160994,625.00019 494.208617,607.998455 526.388771,576.980287 C544.04507,559.961316 557.907104,539.392561 567.588812,515.842815 C578.09004,490.303156 583.414764,461.772163 583.414764,431.0427 L583.414764,250.585422 L504.479759,250.585422 C451.340237,250.585422 408.108201,293.8154 408.108201,346.952714 L408.108201,623.776423 Z M129.585236,250.588007 L129.585236,529.608463 C129.585236,559.287383 135.15211,587.108246 146.131607,612.300597 C156.122681,635.22381 170.365607,655.552982 188.465705,672.724493 C221.262868,703.838322 265.48505,722.414578 306.760925,722.414578 C334.799531,722.414578 358.849118,714.101585 376.311524,698.373602 C395.159616,681.39686 405.243759,656.247599 405.516933,625.581048 C349.909372,624.885569 304.890076,579.434714 304.890076,523.667164 L304.890076,346.951853 C304.890076,293.816262 261.658039,250.588007 208.519379,250.588007 L129.585236,250.588007 Z M306.760925,725 C264.839603,725 219.952153,706.159169 186.686201,674.600647 C168.333612,657.189554 153.891623,636.575985 143.761807,613.333042 C132.639261,587.814066 127,559.645033 127,529.608463 L127,248 L208.519379,248 C263.083366,248 307.475312,292.390832 307.475312,346.951853 L307.475312,523.667164 C307.475312,578.011008 351.339008,622.301009 405.522965,622.995626 L405.522965,346.952714 C405.522965,292.389971 449.914911,248 504.479759,248 L586,248 L586,431.0427 C586,462.110853 580.609783,490.971918 569.980155,516.825275 C560.160568,540.707679 546.097747,561.572896 528.182925,578.841791 C495.521055,610.324473 451.836603,627.616637 408.093551,626.361845 C407.654923,657.429137 397.285542,682.96104 378.041046,700.29457 C360.096063,716.456904 335.448425,725 306.760925,725 L306.760925,725 Z" id="Fill-6" fill="#F9E9F5"></path>
            </g>
        </g>
    </g>
</svg>