<?xml version="1.0" encoding="UTF-8"?>
<svg width="1061px" height="842px" viewBox="0 0 1061 842" version="1.1" xmlns="http://www.w3.org/2000/svg" xmlns:xlink="http://www.w3.org/1999/xlink">
    <title>ptrn_large@2x</title>
    <defs>
        <polygon id="path-1" points="0 0 503.7999 0 503.7999 494.6768 0 494.6768"></polygon>
    </defs>
    <g id="✅-Branded" stroke="none" stroke-width="1" fill="none" fill-rule="evenodd">
        <g id="D-/-Locations-/-5.0.1---Locations---Location-Listing---Tooltips" transform="translate(-886.000000, -1950.000000)">
            <g id="ptrn_large" transform="translate(886.000000, 1950.000000)">
                <g id="Group-3">
                    <mask id="mask-2" fill="white">
                        <use xlink:href="#path-1"></use>
                    </mask>
                    <g id="Clip-2"></g>
                    <path d="M308.6099,389.4518 C357.8459,390.7718 406.4789,371.7958 442.2329,337.2648 C468.9519,311.4608 500.7999,264.9428 500.7999,189.8658 L500.7999,2.9998 L414.2719,2.9998 C356.0089,2.9998 308.6099,47.7318 308.6099,102.7138 L308.6099,389.4518 Z M2.9999,3.0028 L2.9999,292.0158 C2.9999,366.6808 38.1029,413.8068 67.5499,440.1938 C103.5269,472.4308 152.0399,491.6768 197.3249,491.6768 C228.0849,491.6768 254.4659,483.0658 273.6159,466.7738 C294.2229,449.2428 305.2659,423.2848 305.6019,391.6398 C244.5829,390.8718 195.1899,343.7148 195.1899,285.8578 L195.1899,102.7128 C195.1899,47.7328 147.7909,3.0028 89.5289,3.0028 L2.9999,3.0028 Z M197.3249,494.6768 C151.3219,494.6768 102.0599,475.1438 65.5479,442.4288 C45.3959,424.3708 29.5369,402.9898 18.4119,378.8798 C6.1949,352.4038 -0.0001,323.1788 -0.0001,292.0158 L-0.0001,-0.0002 L89.5289,-0.0002 C149.4449,-0.0002 198.1899,46.0788 198.1899,102.7128 L198.1899,285.8578 C198.1899,342.0628 246.2419,387.8768 305.6099,388.6398 L305.6099,102.7138 C305.6099,46.0768 354.3559,-0.0002 414.2719,-0.0002 L503.7999,-0.0002 L503.7999,189.8658 C503.7999,265.9948 471.4539,313.2158 444.3169,339.4228 C408.0019,374.4948 358.6169,393.7788 308.5909,392.4518 C308.0739,424.6398 296.6799,451.0918 275.5599,469.0588 C255.8599,485.8178 228.8069,494.6768 197.3249,494.6768 L197.3249,494.6768 Z" id="Fill-1" fill="#E5F6FC" mask="url(#mask-2)"></path>
                </g>
                <path d="M864.4292,573.1725 C913.7542,574.4915 962.5132,555.4785 998.3452,520.8715 C1025.1212,495.0125 1057.0402,448.3925 1057.0402,373.1515 L1057.0402,185.8805 L970.3222,185.8805 C911.9322,185.8805 864.4292,230.7095 864.4292,285.8125 L864.4292,573.1725 Z M558.1592,185.8835 L558.1592,475.5235 C558.1592,550.3495 593.3382,597.5785 622.8502,624.0235 C658.9052,656.3295 707.5242,675.6175 752.9072,675.6175 C783.7352,675.6175 810.1732,666.9875 829.3652,650.6605 C850.0192,633.0895 861.0852,607.0755 861.4212,575.3585 C800.2672,574.5955 750.7712,527.3345 750.7712,469.3515 L750.7712,285.8115 C750.7712,230.7115 703.2682,185.8835 644.8792,185.8835 L558.1592,185.8835 Z M752.9072,678.6175 C706.8052,678.6175 657.4372,659.0435 620.8482,626.2575 C600.6532,608.1605 584.7602,586.7345 573.6112,562.5725 C561.3672,536.0395 555.1592,506.7515 555.1592,475.5235 L555.1592,182.8805 L644.8792,182.8805 C704.9222,182.8805 753.7712,229.0565 753.7712,285.8115 L753.7712,469.3515 C753.7712,525.6835 801.9262,571.6005 861.4292,572.3585 L861.4292,285.8125 C861.4292,229.0555 910.2782,182.8805 970.3222,182.8805 L1060.0402,182.8805 L1060.0402,373.1515 C1060.0402,449.4445 1027.6232,496.7665 1000.4292,523.0295 C964.0332,558.1805 914.5302,577.5115 864.4102,576.1725 C863.8922,608.4295 852.4742,634.9405 831.3092,652.9455 C811.5672,669.7395 784.4562,678.6175 752.9072,678.6175 L752.9072,678.6175 Z" id="Fill-4" fill="#E5F6FC"></path>
                <path d="M473.8491,723.7819 C523.8091,725.2019 573.7631,705.4739 611.1061,669.4819 C631.5951,649.7339 647.6811,625.8669 658.9161,598.5409 C671.1021,568.9059 677.2811,535.7999 677.2811,500.1429 L677.2811,290.7489 L585.6821,290.7489 C524.0171,290.7489 473.8491,340.9109 473.8491,402.5689 L473.8491,723.7819 Z M150.6411,290.7519 L150.6411,614.5139 C150.6411,648.9519 157.1011,681.2339 169.8421,710.4659 C181.4361,737.0649 197.9641,760.6539 218.9681,780.5789 C257.0271,816.6819 308.3441,838.2369 356.2421,838.2369 C388.7791,838.2369 416.6871,828.5909 436.9511,810.3409 C458.8231,790.6419 470.5251,761.4599 470.8421,725.8759 C406.3131,725.0689 354.0711,672.3299 354.0711,607.6199 L354.0711,402.5679 C354.0711,340.9119 303.9031,290.7519 242.2391,290.7519 L150.6411,290.7519 Z M356.2421,841.2369 C307.5951,841.2369 255.5061,819.3749 216.9031,782.7559 C195.6061,762.5529 178.8471,738.6339 167.0921,711.6639 C154.1851,682.0529 147.6411,649.3669 147.6411,614.5139 L147.6411,287.7489 L242.2391,287.7489 C305.5571,287.7489 357.0711,339.2579 357.0711,402.5679 L357.0711,607.6199 C357.0711,670.6779 407.9721,722.0699 470.8491,722.8759 L470.8491,402.5689 C470.8491,339.2569 522.3631,287.7489 585.6821,287.7489 L680.2811,287.7489 L680.2811,500.1429 C680.2811,536.1929 674.0261,569.6819 661.6911,599.6809 C650.2961,627.3929 633.9771,651.6039 613.1881,671.6419 C575.2861,708.1729 524.5931,728.2379 473.8321,726.7819 C473.3231,762.8309 461.2901,792.4569 438.9581,812.5699 C418.1341,831.3239 389.5321,841.2369 356.2421,841.2369 L356.2421,841.2369 Z" id="Fill-6" fill="#E5F6FC"></path>
            </g>
        </g>
    </g>
</svg>