<?xml version="1.0" encoding="UTF-8"?>
<svg width="28px" height="24px" viewBox="0 0 28 24" version="1.1" xmlns="http://www.w3.org/2000/svg" xmlns:xlink="http://www.w3.org/1999/xlink">
    <title>icon/videovisit</title>
    <g id="✅-Branded-" stroke="none" stroke-width="1" fill="none" fill-rule="evenodd">
        <g id="Desktop_Scheduling_S4Confirmation-(Message)" transform="translate(-694.000000, -824.000000)" fill="#470A68">
            <g id="Group-16" transform="translate(202.000000, 733.000000)">
                <g id="icon/videovisit" transform="translate(490.000000, 87.000000)">
                    <path d="M16,4 C23.3333333,4 29.3333333,8.77333333 29.3333333,14.6666667 C29.3333333,20.56 23.3333333,25.3333333 16,25.3333333 C14.3466667,25.3333333 12.76,25.0933333 11.2933333,24.6666667 C7.62461538,27.8076923 3.21002465,27.9889053 2.71285977,27.9993599 L2.67187851,27.9999763 C2.66841716,28 2.66666667,28 2.66666667,28 C5.77333333,24.8933333 6.26666667,22.8 6.33333333,22 C4.06666667,20.0933333 2.66666667,17.5066667 2.66666667,14.6666667 C2.66666667,8.77333333 8.66666667,4 16,4 Z M19.3333333,10.6666667 L11.3333333,10.6666667 C10.9666667,10.6666667 10.6666667,10.9666667 10.6666667,11.3333333 L10.6666667,18 C10.6666667,18.3666667 10.9666667,18.6666667 11.3333333,18.6666667 L19.3333333,18.6666667 C19.7,18.6666667 20,18.3666667 20,18 L20,15.6666667 L21.5266667,17.1933333 C21.9466667,17.6133333 22.6666667,17.3133333 22.6666667,16.72 L22.6666667,12.6066667 C22.6666667,12.0133333 21.9466667,11.7133333 21.5266667,12.1333333 L20,13.6666667 L20,11.3333333 C20,10.9666667 19.7,10.6666667 19.3333333,10.6666667 Z" id="Combined-Shape"></path>
                </g>
            </g>
        </g>
    </g>
</svg>