<svg width="28" height="28" viewBox="0 0 28 28" fill="none" xmlns="http://www.w3.org/2000/svg">
<path d="M4.66666 13.9998C4.66666 13.6462 4.52618 13.3071 4.27613 13.057C4.02608 12.807 3.68695 12.6665 3.33332 12.6665H1.99999C1.64637 12.6665 1.30723 12.807 1.05718 13.057C0.807132 13.3071 0.666656 13.6462 0.666656 13.9998C0.666656 14.3535 0.807132 14.6926 1.05718 14.9426C1.30723 15.1927 1.64637 15.3332 1.99999 15.3332H3.33332C3.68695 15.3332 4.02608 15.1927 4.27613 14.9426C4.52618 14.6926 4.66666 14.3535 4.66666 13.9998ZM5.51999 20.6665L4.57332 21.6132C4.32499 21.863 4.1856 22.2009 4.1856 22.5532C4.1856 22.9054 4.32499 23.2434 4.57332 23.4932C4.82314 23.7415 5.16108 23.8809 5.51332 23.8809C5.86557 23.8809 6.20351 23.7415 6.45332 23.4932L7.39999 22.5465C7.61843 22.2914 7.73257 21.9633 7.71961 21.6278C7.70664 21.2922 7.56753 20.9739 7.33007 20.7364C7.09262 20.499 6.7743 20.3598 6.43873 20.3469C6.10316 20.3339 5.77506 20.4481 5.51999 20.6665ZM14 4.6665C14.3536 4.6665 14.6928 4.52603 14.9428 4.27598C15.1928 4.02593 15.3333 3.68679 15.3333 3.33317V1.99984C15.3333 1.64622 15.1928 1.30708 14.9428 1.05703C14.6928 0.80698 14.3536 0.666504 14 0.666504C13.6464 0.666504 13.3072 0.80698 13.0572 1.05703C12.8071 1.30708 12.6667 1.64622 12.6667 1.99984V3.33317C12.6667 3.68679 12.8071 4.02593 13.0572 4.27598C13.3072 4.52603 13.6464 4.6665 14 4.6665ZM21.5467 7.7865C21.8964 7.78503 22.2316 7.64616 22.48 7.39984L23.4267 6.45317C23.5662 6.33364 23.6796 6.18655 23.7596 6.02113C23.8397 5.85571 23.8846 5.67553 23.8917 5.49191C23.8988 5.30828 23.8679 5.12517 23.8008 4.95407C23.7338 4.78297 23.6321 4.62758 23.5022 4.49764C23.3723 4.3677 23.2169 4.26602 23.0458 4.19899C22.8747 4.13195 22.6915 4.10101 22.5079 4.10811C22.3243 4.1152 22.1441 4.16017 21.9787 4.2402C21.8133 4.32023 21.6662 4.43359 21.5467 4.57317L20.6667 5.51984C20.4183 5.76965 20.2789 6.10759 20.2789 6.45984C20.2789 6.81208 20.4183 7.15002 20.6667 7.39984C20.9017 7.63365 21.2155 7.77151 21.5467 7.7865ZM5.54666 7.39984C5.795 7.64616 6.1302 7.78503 6.47999 7.7865C6.65547 7.78752 6.82942 7.75389 6.99187 7.68753C7.15432 7.62118 7.30207 7.52341 7.42666 7.39984C7.67499 7.15002 7.81438 6.81208 7.81438 6.45984C7.81438 6.10759 7.67499 5.76965 7.42666 5.51984L6.47999 4.57317C6.35655 4.44798 6.20965 4.34832 6.0477 4.2799C5.88574 4.21147 5.7119 4.17562 5.53608 4.17438C5.36027 4.17314 5.18594 4.20655 5.02303 4.27268C4.86013 4.33882 4.71185 4.43639 4.58666 4.55984C4.46146 4.68328 4.36181 4.83017 4.29338 4.99213C4.22496 5.15408 4.18911 5.32793 4.18787 5.50374C4.18537 5.85881 4.32402 6.20033 4.57332 6.45317L5.54666 7.39984ZM26 12.6665H24.6667C24.313 12.6665 23.9739 12.807 23.7238 13.057C23.4738 13.3071 23.3333 13.6462 23.3333 13.9998C23.3333 14.3535 23.4738 14.6926 23.7238 14.9426C23.9739 15.1927 24.313 15.3332 24.6667 15.3332H26C26.3536 15.3332 26.6928 15.1927 26.9428 14.9426C27.1929 14.6926 27.3333 14.3535 27.3333 13.9998C27.3333 13.6462 27.1929 13.3071 26.9428 13.057C26.6928 12.807 26.3536 12.6665 26 12.6665ZM22.48 20.6665C22.2267 20.5256 21.9343 20.4711 21.6473 20.5112C21.3602 20.5514 21.094 20.6839 20.8891 20.8889C20.6841 21.0939 20.5515 21.36 20.5114 21.6471C20.4712 21.9342 20.5258 22.2265 20.6667 22.4798L21.6133 23.4265C21.8631 23.6748 22.2011 23.8142 22.5533 23.8142C22.9056 23.8142 23.2435 23.6748 23.4933 23.4265C23.7417 23.1767 23.881 22.8388 23.881 22.4865C23.881 22.1343 23.7417 21.7963 23.4933 21.5465L22.48 20.6665ZM14 6.6665C12.5496 6.6665 11.1318 7.0966 9.92581 7.90239C8.71985 8.70819 7.77992 9.8535 7.22487 11.1935C6.66983 12.5335 6.52461 14.008 6.80756 15.4305C7.09052 16.853 7.78895 18.1597 8.81454 19.1853C9.84013 20.2109 11.1468 20.9093 12.5693 21.1923C13.9919 21.4752 15.4663 21.33 16.8063 20.775C18.1463 20.2199 19.2916 19.28 20.0974 18.074C20.9032 16.8681 21.3333 15.4502 21.3333 13.9998C21.3298 12.056 20.5561 10.1928 19.1815 8.81828C17.807 7.44378 15.9438 6.67003 14 6.6665ZM14 18.6665C13.077 18.6665 12.1748 18.3928 11.4073 17.88C10.6399 17.3673 10.0418 16.6384 9.68855 15.7857C9.33534 14.933 9.24293 13.9947 9.42299 13.0894C9.60306 12.1842 10.0475 11.3527 10.7002 10.7C11.3528 10.0474 12.1843 9.6029 13.0896 9.42284C13.9948 9.24277 14.9331 9.33519 15.7858 9.6884C16.6386 10.0416 17.3674 10.6397 17.8802 11.4072C18.393 12.1746 18.6667 13.0769 18.6667 13.9998C18.6667 15.2375 18.175 16.4245 17.2998 17.2997C16.4247 18.1748 15.2377 18.6665 14 18.6665ZM14 23.3332C13.6464 23.3332 13.3072 23.4736 13.0572 23.7237C12.8071 23.9737 12.6667 24.3129 12.6667 24.6665V25.9998C12.6667 26.3535 12.8071 26.6926 13.0572 26.9426C13.3072 27.1927 13.6464 27.3332 14 27.3332C14.3536 27.3332 14.6928 27.1927 14.9428 26.9426C15.1928 26.6926 15.3333 26.3535 15.3333 25.9998V24.6665C15.3333 24.3129 15.1928 23.9737 14.9428 23.7237C14.6928 23.4736 14.3536 23.3332 14 23.3332Z" fill="#0F172A"/>
</svg>
