<svg width="28" height="24" viewBox="0 0 28 24" fill="none" xmlns="http://www.w3.org/2000/svg">
<path d="M21.5467 7.12C21.8964 7.11853 22.2316 6.97966 22.48 6.73333L23.4267 5.78667C23.5662 5.66714 23.6796 5.52005 23.7596 5.35463C23.8397 5.18921 23.8846 5.00903 23.8917 4.8254C23.8988 4.64178 23.8679 4.45867 23.8008 4.28757C23.7338 4.11647 23.6321 3.96107 23.5022 3.83113C23.3723 3.70119 23.2169 3.59952 23.0458 3.53248C22.8747 3.46545 22.6915 3.43451 22.5079 3.4416C22.3243 3.44869 22.1441 3.49367 21.9787 3.5737C21.8133 3.65373 21.6662 3.76709 21.5467 3.90667L20.6667 4.85333C20.4183 5.10315 20.2789 5.44109 20.2789 5.79333C20.2789 6.14558 20.4183 6.48352 20.6667 6.73333C20.9017 6.96715 21.2155 7.105 21.5467 7.12V7.12ZM14 4C14.3536 4 14.6928 3.85952 14.9428 3.60948C15.1928 3.35943 15.3333 3.02029 15.3333 2.66667V1.33333C15.3333 0.979711 15.1928 0.640573 14.9428 0.390524C14.6928 0.140476 14.3536 0 14 0C13.6464 0 13.3072 0.140476 13.0572 0.390524C12.8071 0.640573 12.6667 0.979711 12.6667 1.33333V2.66667C12.6667 3.02029 12.8071 3.35943 13.0572 3.60948C13.3072 3.85952 13.6464 4 14 4ZM3.33332 12H1.99999C1.64637 12 1.30723 12.1405 1.05718 12.3905C0.807132 12.6406 0.666656 12.9797 0.666656 13.3333C0.666656 13.687 0.807132 14.0261 1.05718 14.2761C1.30723 14.5262 1.64637 14.6667 1.99999 14.6667H3.33332C3.68695 14.6667 4.02608 14.5262 4.27613 14.2761C4.52618 14.0261 4.66666 13.687 4.66666 13.3333C4.66666 12.9797 4.52618 12.6406 4.27613 12.3905C4.02608 12.1405 3.68695 12 3.33332 12ZM5.51999 6.73333C5.76834 6.97966 6.10354 7.11853 6.45332 7.12C6.6288 7.12101 6.80275 7.08738 6.9652 7.02103C7.12765 6.95468 7.2754 6.85691 7.39999 6.73333C7.64832 6.48352 7.78771 6.14558 7.78771 5.79333C7.78771 5.44109 7.64832 5.10315 7.39999 4.85333L6.45332 3.90667C6.19825 3.68823 5.87015 3.57409 5.53459 3.58705C5.19902 3.60001 4.8807 3.73912 4.64324 3.97658C4.40578 4.21404 4.26667 4.53236 4.25371 4.86793C4.24075 5.2035 4.35489 5.5316 4.57332 5.78667L5.51999 6.73333ZM26 12H24.6667C24.313 12 23.9739 12.1405 23.7238 12.3905C23.4738 12.6406 23.3333 12.9797 23.3333 13.3333C23.3333 13.687 23.4738 14.0261 23.7238 14.2761C23.9739 14.5262 24.313 14.6667 24.6667 14.6667H26C26.3536 14.6667 26.6928 14.5262 26.9428 14.2761C27.1928 14.0261 27.3333 13.687 27.3333 13.3333C27.3333 12.9797 27.1928 12.6406 26.9428 12.3905C26.6928 12.1405 26.3536 12 26 12ZM12.6667 21.3333H8.66666C8.31303 21.3333 7.9739 21.4738 7.72385 21.7239C7.4738 21.9739 7.33332 22.313 7.33332 22.6667C7.33332 23.0203 7.4738 23.3594 7.72385 23.6095C7.9739 23.8595 8.31303 24 8.66666 24H12.6667C13.0203 24 13.3594 23.8595 13.6095 23.6095C13.8595 23.3594 14 23.0203 14 22.6667C14 22.313 13.8595 21.9739 13.6095 21.7239C13.3594 21.4738 13.0203 21.3333 12.6667 21.3333ZM22 16H20.8267C21.1634 15.1514 21.3354 14.2463 21.3333 13.3333C21.3333 11.3884 20.5607 9.52315 19.1854 8.14788C17.8102 6.77262 15.9449 6 14 6C12.0551 6 10.1898 6.77262 8.81454 8.14788C7.43927 9.52315 6.66666 11.3884 6.66666 13.3333C6.66462 14.2463 6.83658 15.1514 7.17332 16H5.99999C5.64637 16 5.30723 16.1405 5.05718 16.3905C4.80713 16.6406 4.66666 16.9797 4.66666 17.3333C4.66666 17.687 4.80713 18.0261 5.05718 18.2761C5.30723 18.5262 5.64637 18.6667 5.99999 18.6667H22C22.3536 18.6667 22.6928 18.5262 22.9428 18.2761C23.1928 18.0261 23.3333 17.687 23.3333 17.3333C23.3333 16.9797 23.1928 16.6406 22.9428 16.3905C22.6928 16.1405 22.3536 16 22 16ZM17.8 16H10.2C9.63982 15.2234 9.33677 14.2909 9.33332 13.3333C9.33332 12.0957 9.82499 10.9087 10.7002 10.0335C11.5753 9.15833 12.7623 8.66667 14 8.66667C15.2377 8.66667 16.4247 9.15833 17.2998 10.0335C18.175 10.9087 18.6667 12.0957 18.6667 13.3333C18.6632 14.2909 18.3602 15.2234 17.8 16ZM19.3333 21.3333H18C17.6464 21.3333 17.3072 21.4738 17.0572 21.7239C16.8071 21.9739 16.6667 22.313 16.6667 22.6667C16.6667 23.0203 16.8071 23.3594 17.0572 23.6095C17.3072 23.8595 17.6464 24 18 24H19.3333C19.6869 24 20.0261 23.8595 20.2761 23.6095C20.5262 23.3594 20.6667 23.0203 20.6667 22.6667C20.6667 22.313 20.5262 21.9739 20.2761 21.7239C20.0261 21.4738 19.6869 21.3333 19.3333 21.3333Z" fill="#002855"/>
</svg>
