<svg width="65" height="82" viewBox="0 0 65 82" fill="none" xmlns="http://www.w3.org/2000/svg">
<path d="M32.5 36.1737C34.0914 36.1737 35.647 35.7018 36.9701 34.8177C38.2933 33.9336 39.3245 32.677 39.9335 31.2068C40.5425 29.7366 40.7018 28.1188 40.3914 26.5581C40.0809 24.9973 39.3146 23.5636 38.1894 22.4384C37.0641 21.3131 35.6305 20.5468 34.0697 20.2364C32.5089 19.9259 30.8912 20.0853 29.4209 20.6942C27.9507 21.3032 26.6941 22.3345 25.81 23.6576C24.9259 24.9808 24.454 26.5364 24.454 28.1278C24.454 30.2617 25.3017 32.3082 26.8106 33.8171C28.3196 35.326 30.3661 36.1737 32.5 36.1737ZM29.6437 63.9726C30.0177 64.3496 30.4626 64.6489 30.9529 64.8532C31.4431 65.0574 31.9689 65.1626 32.5 65.1626C33.0311 65.1626 33.5569 65.0574 34.0472 64.8532C34.5374 64.6489 34.9823 64.3496 35.3563 63.9726L51.8103 47.4783C55.632 43.6587 58.235 38.7914 59.2902 33.4922C60.3453 28.1931 59.8052 22.7 57.7382 17.7078C55.6711 12.7156 52.1699 8.44854 47.6775 5.44638C43.1851 2.44422 37.9032 0.841797 32.5 0.841797C27.0968 0.841797 21.8149 2.44422 17.3225 5.44638C12.8301 8.44854 9.32894 12.7156 7.26187 17.7078C5.19479 22.7 4.65468 28.1931 5.70983 33.4922C6.76499 38.7914 9.36801 43.6587 13.1897 47.4783L29.6437 63.9726ZM13.3104 26.2772C13.5852 23.4089 14.4972 20.6381 15.9797 18.1673C17.4622 15.6965 19.4778 13.5879 21.8793 11.9956C25.0342 9.92413 28.7259 8.82046 32.5 8.82046C36.2741 8.82046 39.9659 9.92413 43.1207 11.9956C45.5062 13.5824 47.5104 15.6782 48.9891 18.1322C50.4679 20.5861 51.3845 23.3373 51.673 26.1878C51.9615 29.0383 51.6148 31.9174 50.6577 34.6179C49.7007 37.3184 48.1571 39.7732 46.1379 41.8059L32.5 55.4438L18.8621 41.8059C16.8406 39.7929 15.2934 37.3546 14.333 34.6683C13.3726 31.9821 13.0233 29.1155 13.3104 26.2772ZM60.6609 73.1852H4.33909C3.27213 73.1852 2.24886 73.6091 1.49441 74.3635C0.739951 75.118 0.316101 76.1413 0.316101 77.2082C0.316101 78.2752 0.739951 79.2984 1.49441 80.0529C2.24886 80.8074 3.27213 81.2312 4.33909 81.2312H60.6609C61.7279 81.2312 62.7512 80.8074 63.5056 80.0529C64.2601 79.2984 64.6839 78.2752 64.6839 77.2082C64.6839 76.1413 64.2601 75.118 63.5056 74.3635C62.7512 73.6091 61.7279 73.1852 60.6609 73.1852Z" fill="#C5299B"/>
</svg>
