<svg width="51" height="50" viewBox="0 0 51 50" fill="none" xmlns="http://www.w3.org/2000/svg">
<path d="M25.5 4.1665C22.7642 4.1665 20.0551 4.70537 17.5275 5.75235C14.9998 6.79932 12.7032 8.33389 10.7686 10.2684C6.86163 14.1755 4.66669 19.4745 4.66669 24.9998C4.64848 29.8105 6.31418 34.476 9.37503 38.1873L5.20836 42.354C4.91928 42.647 4.72346 43.019 4.64559 43.4231C4.56773 43.8273 4.61132 44.2454 4.77086 44.6248C4.9439 44.9997 5.22441 45.3147 5.57679 45.5298C5.92917 45.7449 6.33753 45.8505 6.75003 45.8332H25.5C31.0254 45.8332 36.3244 43.6382 40.2314 39.7312C44.1384 35.8242 46.3334 30.5252 46.3334 24.9998C46.3334 19.4745 44.1384 14.1755 40.2314 10.2684C36.3244 6.36144 31.0254 4.1665 25.5 4.1665ZM25.5 41.6665H11.7709L13.7084 39.729C14.0964 39.3387 14.3142 38.8106 14.3142 38.2603C14.3142 37.7099 14.0964 37.1818 13.7084 36.7915C10.9804 34.0666 9.28164 30.4801 8.90147 26.6432C8.52129 22.8062 9.48324 18.9561 11.6234 15.7488C13.7636 12.5416 16.9496 10.1756 20.6386 9.05395C24.3276 7.93231 28.2914 8.12443 31.8546 9.59757C35.4179 11.0707 38.3601 13.7337 40.1801 17.1329C42.0001 20.5321 42.5852 24.4572 41.8357 28.2394C41.0862 32.0217 39.0486 35.427 36.0699 37.8753C33.0912 40.3237 29.3558 41.6635 25.5 41.6665ZM31.75 22.9165H27.5834V18.7498C27.5834 18.1973 27.3639 17.6674 26.9732 17.2767C26.5825 16.886 26.0526 16.6665 25.5 16.6665C24.9475 16.6665 24.4176 16.886 24.0269 17.2767C23.6362 17.6674 23.4167 18.1973 23.4167 18.7498V22.9165H19.25C18.6975 22.9165 18.1676 23.136 17.7769 23.5267C17.3862 23.9174 17.1667 24.4473 17.1667 24.9998C17.1667 25.5524 17.3862 26.0823 17.7769 26.473C18.1676 26.8637 18.6975 27.0832 19.25 27.0832H23.4167V31.2498C23.4167 31.8024 23.6362 32.3323 24.0269 32.723C24.4176 33.1137 24.9475 33.3332 25.5 33.3332C26.0526 33.3332 26.5825 33.1137 26.9732 32.723C27.3639 32.3323 27.5834 31.8024 27.5834 31.2498V27.0832H31.75C32.3026 27.0832 32.8325 26.8637 33.2232 26.473C33.6139 26.0823 33.8334 25.5524 33.8334 24.9998C33.8334 24.4473 33.6139 23.9174 33.2232 23.5267C32.8325 23.136 32.3026 22.9165 31.75 22.9165Z" fill="#00A5DF"/>
</svg>
