<svg width="64" height="64" viewBox="0 0 64 64" fill="none" xmlns="http://www.w3.org/2000/svg">
<circle cx="32" cy="32" r="32" fill="#00B2F0" fill-opacity="0.3"/>
<path d="M31.9998 15.3335C29.8111 15.3335 27.6438 15.7646 25.6217 16.6022C23.5996 17.4397 21.7623 18.6674 20.2147 20.215C17.0891 23.3407 15.3331 27.5799 15.3331 32.0002C15.3185 35.8487 16.6511 39.5811 19.0998 42.5502L15.7664 45.8835C15.5352 46.1179 15.3785 46.4155 15.3162 46.7388C15.2539 47.0621 15.2888 47.3966 15.4164 47.7002C15.5549 48 15.7793 48.252 16.0612 48.4241C16.3431 48.5963 16.6698 48.6807 16.9998 48.6668H31.9998C36.4201 48.6668 40.6593 46.9109 43.7849 43.7853C46.9105 40.6597 48.6664 36.4204 48.6664 32.0002C48.6664 27.5799 46.9105 23.3407 43.7849 20.215C40.6593 17.0894 36.4201 15.3335 31.9998 15.3335ZM31.9998 45.3335H21.0164L22.5664 43.7835C22.8769 43.4712 23.0511 43.0488 23.0511 42.6085C23.0511 42.1682 22.8769 41.7458 22.5664 41.4335C20.3841 39.2536 19.0251 36.3844 18.7209 33.3148C18.4168 30.2452 19.1863 27.1652 20.8985 24.5994C22.6106 22.0336 25.1594 20.1408 28.1106 19.2435C31.0618 18.3461 34.2329 18.4998 37.0835 19.6784C39.9341 20.8569 42.2879 22.9873 43.7438 25.7066C45.1998 28.426 45.6679 31.5661 45.0683 34.5918C44.4688 37.6176 42.8386 40.3419 40.4557 42.3006C38.0727 44.2592 35.0844 45.3311 31.9998 45.3335ZM36.9998 30.3335H33.6664V27.0002C33.6664 26.5581 33.4908 26.1342 33.1783 25.8217C32.8657 25.5091 32.4418 25.3335 31.9998 25.3335C31.5577 25.3335 31.1338 25.5091 30.8213 25.8217C30.5087 26.1342 30.3331 26.5581 30.3331 27.0002V30.3335H26.9998C26.5577 30.3335 26.1338 30.5091 25.8213 30.8217C25.5087 31.1342 25.3331 31.5581 25.3331 32.0002C25.3331 32.4422 25.5087 32.8661 25.8213 33.1787C26.1338 33.4912 26.5577 33.6668 26.9998 33.6668H30.3331V37.0002C30.3331 37.4422 30.5087 37.8661 30.8213 38.1787C31.1338 38.4912 31.5577 38.6668 31.9998 38.6668C32.4418 38.6668 32.8657 38.4912 33.1783 38.1787C33.4908 37.8661 33.6664 37.4422 33.6664 37.0002V33.6668H36.9998C37.4418 33.6668 37.8657 33.4912 38.1783 33.1787C38.4908 32.8661 38.6664 32.4422 38.6664 32.0002C38.6664 31.5581 38.4908 31.1342 38.1783 30.8217C37.8657 30.5091 37.4418 30.3335 36.9998 30.3335Z" fill="#00A5DF"/>
</svg>
