<svg width="38" height="38" viewBox="0 0 38 38" fill="none" xmlns="http://www.w3.org/2000/svg">
<path d="M19.0001 7.33332C16.6926 7.33332 14.437 8.01756 12.5184 9.29951C10.5999 10.5815 9.10452 12.4035 8.2215 14.5353C7.33847 16.6672 7.10743 19.0129 7.55759 21.276C8.00776 23.5392 9.1189 25.618 10.7505 27.2496C12.3821 28.8812 14.4609 29.9923 16.724 30.4425C18.9872 30.8926 21.3329 30.6616 23.4647 29.7786C25.5965 28.8956 27.4186 27.4002 28.7006 25.4816C29.9825 23.5631 30.6668 21.3074 30.6668 19C30.6668 15.9058 29.4376 12.9383 27.2497 10.7504C25.0617 8.56249 22.0943 7.33332 19.0001 7.33332ZM19.0001 27.3333C17.3519 27.3333 15.7407 26.8446 14.3703 25.9289C12.9999 25.0132 11.9318 23.7117 11.3011 22.189C10.6704 20.6663 10.5053 18.9907 10.8269 17.3742C11.1484 15.7577 11.9421 14.2729 13.1075 13.1074C14.273 11.942 15.7578 11.1483 17.3743 10.8268C18.9908 10.5052 20.6664 10.6703 22.1891 11.301C23.7118 11.9317 25.0133 12.9998 25.929 14.3702C26.8447 15.7406 27.3334 17.3518 27.3334 19C27.3334 21.2101 26.4555 23.3297 24.8926 24.8925C23.3298 26.4553 21.2102 27.3333 19.0001 27.3333ZM19.0001 14C18.0112 14 17.0445 14.2932 16.2222 14.8426C15.4 15.392 14.7591 16.1729 14.3807 17.0866C14.0023 18.0002 13.9032 19.0055 14.0962 19.9754C14.2891 20.9453 14.7653 21.8363 15.4646 22.5355C16.1638 23.2348 17.0547 23.711 18.0246 23.9039C18.9945 24.0968 19.9999 23.9978 20.9135 23.6194C21.8271 23.2409 22.608 22.6001 23.1574 21.7778C23.7068 20.9556 24.0001 19.9889 24.0001 19C24.0001 17.6739 23.4733 16.4021 22.5356 15.4645C21.5979 14.5268 20.3262 14 19.0001 14ZM19.0001 20.6667C18.6705 20.6667 18.3482 20.5689 18.0741 20.3858C17.8001 20.2026 17.5864 19.9423 17.4603 19.6378C17.3341 19.3333 17.3011 18.9981 17.3654 18.6748C17.4298 18.3515 17.5885 18.0546 17.8216 17.8215C18.0547 17.5884 18.3516 17.4297 18.6749 17.3653C18.9982 17.301 19.3334 17.334 19.6379 17.4602C19.9424 17.5863 20.2027 17.8 20.3859 18.074C20.569 18.3481 20.6668 18.6704 20.6668 19C20.6668 19.442 20.4912 19.8659 20.1786 20.1785C19.866 20.4911 19.4421 20.6667 19.0001 20.6667ZM19.0001 0.666656C15.3741 0.666656 11.8295 1.74189 8.81464 3.75638C5.79974 5.77087 3.44991 8.63415 2.0623 11.9841C0.674692 15.3341 0.31163 19.0203 1.01903 22.5766C1.72642 26.133 3.4725 29.3997 6.03647 31.9636C8.60043 34.5276 11.8671 36.2737 15.4234 36.9811C18.9798 37.6884 22.666 37.3254 26.016 35.9378C29.3659 34.5502 32.2292 32.2003 34.2437 29.1854C36.2582 26.1705 37.3334 22.626 37.3334 19C37.3334 14.1377 35.4019 9.47453 31.9637 6.03637C28.5256 2.5982 23.8624 0.666656 19.0001 0.666656ZM19.0001 34C16.0334 34 13.1333 33.1203 10.6665 31.472C8.1998 29.8238 6.27721 27.4811 5.1419 24.7402C4.00658 21.9993 3.70953 18.9834 4.28831 16.0736C4.86709 13.1639 6.2957 10.4912 8.39349 8.39339C10.4913 6.2956 13.164 4.86699 16.0737 4.28821C18.9835 3.70943 21.9995 4.00648 24.7403 5.1418C27.4812 6.27711 29.8239 8.1997 31.4721 10.6664C33.1204 13.1332 34.0001 16.0333 34.0001 19C34.0001 22.9782 32.4197 26.7935 29.6067 29.6066C26.7936 32.4196 22.9783 34 19.0001 34Z" fill="#0F172A"/>
</svg>
