<svg width="18" height="16" viewBox="0 0 18 16" fill="none" xmlns="http://www.w3.org/2000/svg">
<path d="M16.6133 7.05328L9.94663 0.38661C9.81982 0.265222 9.6703 0.170069 9.50663 0.10661C9.18201 -0.0267475 8.81791 -0.0267475 8.4933 0.10661C8.32963 0.170069 8.1801 0.265222 8.0533 0.38661L1.38663 7.05328C1.26231 7.1776 1.1637 7.32518 1.09642 7.48761C1.02914 7.65004 0.994507 7.82413 0.994507 7.99994C0.994507 8.35501 1.13556 8.69554 1.38663 8.94661C1.6377 9.19768 1.97823 9.33873 2.3333 9.33873C2.68836 9.33873 3.02889 9.19768 3.27996 8.94661L7.66663 4.54661V14.6666C7.66663 15.0202 7.8071 15.3594 8.05715 15.6094C8.3072 15.8595 8.64634 15.9999 8.99996 15.9999C9.35358 15.9999 9.69272 15.8595 9.94277 15.6094C10.1928 15.3594 10.3333 15.0202 10.3333 14.6666V4.54661L14.72 8.94661C14.8439 9.07158 14.9914 9.17077 15.1539 9.23847C15.3163 9.30616 15.4906 9.34101 15.6666 9.34101C15.8426 9.34101 16.0169 9.30616 16.1794 9.23847C16.3419 9.17077 16.4893 9.07158 16.6133 8.94661C16.7383 8.82266 16.8375 8.67519 16.9052 8.51271C16.9728 8.35023 17.0077 8.17596 17.0077 7.99994C17.0077 7.82393 16.9728 7.64965 16.9052 7.48717C16.8375 7.3247 16.7383 7.17723 16.6133 7.05328Z" fill="#BE123C"/>
</svg>
