<svg width="18" height="16" viewBox="0 0 18 16" fill="none" xmlns="http://www.w3.org/2000/svg">
<path d="M16.6133 7.05333C16.4893 6.92836 16.3419 6.82917 16.1794 6.76148C16.0169 6.69379 15.8426 6.65894 15.6666 6.65894C15.4906 6.65894 15.3163 6.69379 15.1539 6.76148C14.9914 6.82917 14.8439 6.92836 14.72 7.05333L10.3333 11.4533V1.33333C10.3333 0.979711 10.1928 0.640573 9.94277 0.390525C9.69272 0.140476 9.35358 0 8.99996 0C8.64634 0 8.3072 0.140476 8.05715 0.390525C7.8071 0.640573 7.66663 0.979711 7.66663 1.33333V11.4533L3.27996 7.05333C3.02889 6.80226 2.68836 6.66121 2.3333 6.66121C1.97823 6.66121 1.6377 6.80226 1.38663 7.05333C1.13556 7.30441 0.994507 7.64493 0.994507 8C0.994507 8.35507 1.13556 8.6956 1.38663 8.94667L8.0533 15.6133C8.1801 15.7347 8.32963 15.8299 8.4933 15.8933C8.6529 15.9639 8.82547 16.0003 8.99996 16.0003C9.17446 16.0003 9.34703 15.9639 9.50663 15.8933C9.6703 15.8299 9.81982 15.7347 9.94663 15.6133L16.6133 8.94667C16.7383 8.82272 16.8375 8.67525 16.9052 8.51277C16.9728 8.35029 17.0077 8.17602 17.0077 8C17.0077 7.82398 16.9728 7.64971 16.9052 7.48723C16.8375 7.32475 16.7383 7.17728 16.6133 7.05333Z" fill="#BE123C"/>
</svg>
