<svg width="34" height="38" viewBox="0 0 34 38" fill="none" xmlns="http://www.w3.org/2000/svg">
<path d="M16.9999 30.6667C17.3296 30.6667 17.6518 30.5689 17.9259 30.3858C18.2 30.2026 18.4136 29.9423 18.5397 29.6378C18.6659 29.3332 18.6989 28.9981 18.6346 28.6748C18.5703 28.3515 18.4115 28.0546 18.1784 27.8215C17.9453 27.5884 17.6484 27.4297 17.3251 27.3653C17.0018 27.301 16.6667 27.334 16.3621 27.4602C16.0576 27.5863 15.7973 27.8 15.6141 28.074C15.431 28.3481 15.3333 28.6704 15.3333 29C15.3333 29.442 15.5088 29.8659 15.8214 30.1785C16.134 30.4911 16.5579 30.6667 16.9999 30.6667ZM25.3333 30.6667C25.6629 30.6667 25.9851 30.5689 26.2592 30.3858C26.5333 30.2026 26.7469 29.9423 26.8731 29.6378C26.9992 29.3332 27.0322 28.9981 26.9679 28.6748C26.9036 28.3515 26.7449 28.0546 26.5118 27.8215C26.2787 27.5884 25.9817 27.4297 25.6584 27.3653C25.3351 27.301 25 27.334 24.6954 27.4602C24.3909 27.5863 24.1306 27.8 23.9475 28.074C23.7643 28.3481 23.6666 28.6704 23.6666 29C23.6666 29.442 23.8422 29.8659 24.1547 30.1785C24.4673 30.4911 24.8912 30.6667 25.3333 30.6667ZM25.3333 24C25.6629 24 25.9851 23.9022 26.2592 23.7191C26.5333 23.536 26.7469 23.2757 26.8731 22.9711C26.9992 22.6666 27.0322 22.3315 26.9679 22.0082C26.9036 21.6849 26.7449 21.3879 26.5118 21.1548C26.2787 20.9217 25.9817 20.763 25.6584 20.6987C25.3351 20.6344 25 20.6674 24.6954 20.7935C24.3909 20.9197 24.1306 21.1333 23.9475 21.4074C23.7643 21.6815 23.6666 22.0037 23.6666 22.3333C23.6666 22.7753 23.8422 23.1993 24.1547 23.5118C24.4673 23.8244 24.8912 24 25.3333 24ZM16.9999 24C17.3296 24 17.6518 23.9022 17.9259 23.7191C18.2 23.536 18.4136 23.2757 18.5397 22.9711C18.6659 22.6666 18.6989 22.3315 18.6346 22.0082C18.5703 21.6849 18.4115 21.3879 18.1784 21.1548C17.9453 20.9217 17.6484 20.763 17.3251 20.6987C17.0018 20.6344 16.6667 20.6674 16.3621 20.7935C16.0576 20.9197 15.7973 21.1333 15.6141 21.4074C15.431 21.6815 15.3333 22.0037 15.3333 22.3333C15.3333 22.7753 15.5088 23.1993 15.8214 23.5118C16.134 23.8244 16.5579 24 16.9999 24ZM28.6666 3.99999H26.9999V2.33332C26.9999 1.8913 26.8243 1.46737 26.5118 1.15481C26.1992 0.842251 25.7753 0.666656 25.3333 0.666656C24.8912 0.666656 24.4673 0.842251 24.1547 1.15481C23.8422 1.46737 23.6666 1.8913 23.6666 2.33332V3.99999H10.3333V2.33332C10.3333 1.8913 10.1577 1.46737 9.8451 1.15481C9.53254 0.842251 9.10861 0.666656 8.66659 0.666656C8.22456 0.666656 7.80064 0.842251 7.48807 1.15481C7.17551 1.46737 6.99992 1.8913 6.99992 2.33332V3.99999H5.33325C4.00717 3.99999 2.7354 4.52677 1.79772 5.46446C0.860036 6.40214 0.333252 7.67391 0.333252 8.99999V32.3333C0.333252 33.6594 0.860036 34.9312 1.79772 35.8689C2.7354 36.8065 4.00717 37.3333 5.33325 37.3333H28.6666C29.9927 37.3333 31.2644 36.8065 32.2021 35.8689C33.1398 34.9312 33.6666 33.6594 33.6666 32.3333V8.99999C33.6666 7.67391 33.1398 6.40214 32.2021 5.46446C31.2644 4.52677 29.9927 3.99999 28.6666 3.99999ZM30.3333 32.3333C30.3333 32.7753 30.1577 33.1993 29.8451 33.5118C29.5325 33.8244 29.1086 34 28.6666 34H5.33325C4.89122 34 4.4673 33.8244 4.15474 33.5118C3.84218 33.1993 3.66659 32.7753 3.66659 32.3333V17.3333H30.3333V32.3333ZM30.3333 14H3.66659V8.99999C3.66659 8.55796 3.84218 8.13404 4.15474 7.82148C4.4673 7.50892 4.89122 7.33332 5.33325 7.33332H6.99992V8.99999C6.99992 9.44202 7.17551 9.86594 7.48807 10.1785C7.80064 10.4911 8.22456 10.6667 8.66659 10.6667C9.10861 10.6667 9.53254 10.4911 9.8451 10.1785C10.1577 9.86594 10.3333 9.44202 10.3333 8.99999V7.33332H23.6666V8.99999C23.6666 9.44202 23.8422 9.86594 24.1547 10.1785C24.4673 10.4911 24.8912 10.6667 25.3333 10.6667C25.7753 10.6667 26.1992 10.4911 26.5118 10.1785C26.8243 9.86594 26.9999 9.44202 26.9999 8.99999V7.33332H28.6666C29.1086 7.33332 29.5325 7.50892 29.8451 7.82148C30.1577 8.13404 30.3333 8.55796 30.3333 8.99999V14ZM8.66659 24C8.99622 24 9.31845 23.9022 9.59254 23.7191C9.86662 23.536 10.0802 23.2757 10.2064 22.9711C10.3325 22.6666 10.3655 22.3315 10.3012 22.0082C10.2369 21.6849 10.0782 21.3879 9.8451 21.1548C9.61201 20.9217 9.31504 20.763 8.99174 20.6987C8.66843 20.6344 8.33332 20.6674 8.02878 20.7935C7.72424 20.9197 7.46394 21.1333 7.2808 21.4074C7.09767 21.6815 6.99992 22.0037 6.99992 22.3333C6.99992 22.7753 7.17551 23.1993 7.48807 23.5118C7.80064 23.8244 8.22456 24 8.66659 24ZM8.66659 30.6667C8.99622 30.6667 9.31845 30.5689 9.59254 30.3858C9.86662 30.2026 10.0802 29.9423 10.2064 29.6378C10.3325 29.3332 10.3655 28.9981 10.3012 28.6748C10.2369 28.3515 10.0782 28.0546 9.8451 27.8215C9.61201 27.5884 9.31504 27.4297 8.99174 27.3653C8.66843 27.301 8.33332 27.334 8.02878 27.4602C7.72424 27.5863 7.46394 27.8 7.2808 28.074C7.09767 28.3481 6.99992 28.6704 6.99992 29C6.99992 29.442 7.17551 29.8659 7.48807 30.1785C7.80064 30.4911 8.22456 30.6667 8.66659 30.6667Z" fill="#002855"/>
</svg>
