<svg width="48" height="48" viewBox="0 0 48 48" fill="none" xmlns="http://www.w3.org/2000/svg">
    <circle cx="24" cy="24" r="24" fill="#470A68"/>
    <path d="M20 22.666H17.3333V25.3327H20V22.666ZM25.3333 22.666H22.6667V25.3327H25.3333V22.666ZM30.6667 22.666H28V25.3327H30.6667V22.666ZM33.3333 13.3327H32V10.666H29.3333V13.3327H18.6667V10.666H16V13.3327H14.6667C13.1867 13.3327 12.0133 14.5327 12.0133 15.9993L12 34.666C12 36.1327 13.1867 37.3327 14.6667 37.3327H33.3333C34.8 37.3327 36 36.1327 36 34.666V15.9993C36 14.5327 34.8 13.3327 33.3333 13.3327ZM33.3333 34.666H14.6667V19.9993H33.3333V34.666Z" fill="white"/>
</svg>
