<svg width="64" height="64" viewBox="0 0 64 64" fill="none" xmlns="http://www.w3.org/2000/svg">
<circle cx="32" cy="32" r="32" fill="#00B2F0" fill-opacity="0.3"/>
<path d="M32 43.6665C32.3296 43.6665 32.6519 43.5688 32.926 43.3856C33.2 43.2025 33.4137 42.9422 33.5398 42.6376C33.666 42.3331 33.699 41.998 33.6347 41.6747C33.5703 41.3514 33.4116 41.0544 33.1785 40.8213C32.9454 40.5882 32.6485 40.4295 32.3252 40.3652C32.0019 40.3009 31.6667 40.3339 31.3622 40.46C31.0577 40.5862 30.7974 40.7998 30.6142 41.0739C30.4311 41.348 30.3333 41.6702 30.3333 41.9998C30.3333 42.4419 30.5089 42.8658 30.8215 43.1783C31.1341 43.4909 31.558 43.6665 32 43.6665ZM40.3333 43.6665C40.663 43.6665 40.9852 43.5688 41.2593 43.3856C41.5334 43.2025 41.747 42.9422 41.8731 42.6376C41.9993 42.3331 42.0323 41.998 41.968 41.6747C41.9037 41.3514 41.7449 41.0544 41.5119 40.8213C41.2788 40.5882 40.9818 40.4295 40.6585 40.3652C40.3352 40.3009 40.0001 40.3339 39.6955 40.46C39.391 40.5862 39.1307 40.7998 38.9476 41.0739C38.7644 41.348 38.6667 41.6702 38.6667 41.9998C38.6667 42.4419 38.8423 42.8658 39.1548 43.1783C39.4674 43.4909 39.8913 43.6665 40.3333 43.6665ZM40.3333 36.9998C40.663 36.9998 40.9852 36.9021 41.2593 36.719C41.5334 36.5358 41.747 36.2755 41.8731 35.971C41.9993 35.6664 42.0323 35.3313 41.968 35.008C41.9037 34.6847 41.7449 34.3877 41.5119 34.1547C41.2788 33.9216 40.9818 33.7628 40.6585 33.6985C40.3352 33.6342 40.0001 33.6672 39.6955 33.7934C39.391 33.9195 39.1307 34.1331 38.9476 34.4072C38.7644 34.6813 38.6667 35.0035 38.6667 35.3332C38.6667 35.7752 38.8423 36.1991 39.1548 36.5117C39.4674 36.8242 39.8913 36.9998 40.3333 36.9998ZM32 36.9998C32.3296 36.9998 32.6519 36.9021 32.926 36.719C33.2 36.5358 33.4137 36.2755 33.5398 35.971C33.666 35.6664 33.699 35.3313 33.6347 35.008C33.5703 34.6847 33.4116 34.3877 33.1785 34.1547C32.9454 33.9216 32.6485 33.7628 32.3252 33.6985C32.0019 33.6342 31.6667 33.6672 31.3622 33.7934C31.0577 33.9195 30.7974 34.1331 30.6142 34.4072C30.4311 34.6813 30.3333 35.0035 30.3333 35.3332C30.3333 35.7752 30.5089 36.1991 30.8215 36.5117C31.1341 36.8242 31.558 36.9998 32 36.9998ZM43.6667 16.9998H42V15.3332C42 14.8911 41.8244 14.4672 41.5119 14.1547C41.1993 13.8421 40.7754 13.6665 40.3333 13.6665C39.8913 13.6665 39.4674 13.8421 39.1548 14.1547C38.8423 14.4672 38.6667 14.8911 38.6667 15.3332V16.9998H25.3333V15.3332C25.3333 14.8911 25.1577 14.4672 24.8452 14.1547C24.5326 13.8421 24.1087 13.6665 23.6667 13.6665C23.2246 13.6665 22.8007 13.8421 22.4882 14.1547C22.1756 14.4672 22 14.8911 22 15.3332V16.9998H20.3333C19.0073 16.9998 17.7355 17.5266 16.7978 18.4643C15.8601 19.402 15.3333 20.6738 15.3333 21.9998V45.3332C15.3333 46.6592 15.8601 47.931 16.7978 48.8687C17.7355 49.8064 19.0073 50.3332 20.3333 50.3332H43.6667C44.9928 50.3332 46.2645 49.8064 47.2022 48.8687C48.1399 47.931 48.6667 46.6592 48.6667 45.3332V21.9998C48.6667 20.6738 48.1399 19.402 47.2022 18.4643C46.2645 17.5266 44.9928 16.9998 43.6667 16.9998ZM45.3333 45.3332C45.3333 45.7752 45.1578 46.1991 44.8452 46.5117C44.5326 46.8242 44.1087 46.9998 43.6667 46.9998H20.3333C19.8913 46.9998 19.4674 46.8242 19.1548 46.5117C18.8423 46.1991 18.6667 45.7752 18.6667 45.3332V30.3332H45.3333V45.3332ZM45.3333 26.9998H18.6667V21.9998C18.6667 21.5578 18.8423 21.1339 19.1548 20.8213C19.4674 20.5088 19.8913 20.3332 20.3333 20.3332H22V21.9998C22 22.4419 22.1756 22.8658 22.4882 23.1783C22.8007 23.4909 23.2246 23.6665 23.6667 23.6665C24.1087 23.6665 24.5326 23.4909 24.8452 23.1783C25.1577 22.8658 25.3333 22.4419 25.3333 21.9998V20.3332H38.6667V21.9998C38.6667 22.4419 38.8423 22.8658 39.1548 23.1783C39.4674 23.4909 39.8913 23.6665 40.3333 23.6665C40.7754 23.6665 41.1993 23.4909 41.5119 23.1783C41.8244 22.8658 42 22.4419 42 21.9998V20.3332H43.6667C44.1087 20.3332 44.5326 20.5088 44.8452 20.8213C45.1578 21.1339 45.3333 21.5578 45.3333 21.9998V26.9998ZM23.6667 36.9998C23.9963 36.9998 24.3185 36.9021 24.5926 36.719C24.8667 36.5358 25.0803 36.2755 25.2065 35.971C25.3326 35.6664 25.3656 35.3313 25.3013 35.008C25.237 34.6847 25.0783 34.3877 24.8452 34.1547C24.6121 33.9216 24.3151 33.7628 23.9918 33.6985C23.6685 33.6342 23.3334 33.6672 23.0289 33.7934C22.7243 33.9195 22.464 34.1331 22.2809 34.4072C22.0978 34.6813 22 35.0035 22 35.3332C22 35.7752 22.1756 36.1991 22.4882 36.5117C22.8007 36.8242 23.2246 36.9998 23.6667 36.9998ZM23.6667 43.6665C23.9963 43.6665 24.3185 43.5688 24.5926 43.3856C24.8667 43.2025 25.0803 42.9422 25.2065 42.6376C25.3326 42.3331 25.3656 41.998 25.3013 41.6747C25.237 41.3514 25.0783 41.0544 24.8452 40.8213C24.6121 40.5882 24.3151 40.4295 23.9918 40.3652C23.6685 40.3009 23.3334 40.3339 23.0289 40.46C22.7243 40.5862 22.464 40.7998 22.2809 41.0739C22.0978 41.348 22 41.6702 22 41.9998C22 42.4419 22.1756 42.8658 22.4882 43.1783C22.8007 43.4909 23.2246 43.6665 23.6667 43.6665Z" fill="#00A5DF"/>
</svg>
