<svg width="26" height="26" viewBox="0 0 26 26" fill="none" xmlns="http://www.w3.org/2000/svg">
<path d="M13 0.5C6.125 0.5 0.5 6.125 0.5 13C0.5 15.875 1.5 18.625 3.375 20.875L0.875 23.375C0.375 23.875 0.375 24.625 0.875 25.125C1.125 25.375 1.375 25.5 1.75 25.5H13C19.875 25.5 25.5 19.875 25.5 13C25.5 6.125 19.875 0.5 13 0.5ZM8 14.25C7.25 14.25 6.75 13.75 6.75 13C6.75 12.25 7.25 11.75 8 11.75C8.75 11.75 9.25 12.25 9.25 13C9.25 13.75 8.75 14.25 8 14.25ZM13 14.25C12.25 14.25 11.75 13.75 11.75 13C11.75 12.25 12.25 11.75 13 11.75C13.75 11.75 14.25 12.25 14.25 13C14.25 13.75 13.75 14.25 13 14.25ZM18 14.25C17.25 14.25 16.75 13.75 16.75 13C16.75 12.25 17.25 11.75 18 11.75C18.75 11.75 19.25 12.25 19.25 13C19.25 13.75 18.75 14.25 18 14.25Z" fill="#FF6A14"/>
</svg>
