<svg width="16" height="16" viewBox="0 0 16 16" fill="none" xmlns="http://www.w3.org/2000/svg">
<path d="M7.8806 0C3.54627 0 0 3.6 0 8C0 12.4 3.54627 16 7.8806 16C12.2149 16 15.7612 12.4 15.7612 8C15.7612 3.6 12.2149 0 7.8806 0ZM11.1904 6.64L7.40776 10.48C7.09254 10.8 6.6197 10.8 6.30448 10.48L4.57075 8.72C4.25552 8.4 4.25552 7.92 4.57075 7.6C4.88597 7.28 5.35881 7.28 5.67403 7.6L6.85612 8.8L10.0872 5.52C10.4024 5.2 10.8752 5.2 11.1904 5.52C11.5057 5.84 11.5057 6.32 11.1904 6.64Z" fill="#002855"/>
</svg>
