<svg width="148" height="148" viewBox="0 0 148 148" fill="none" xmlns="http://www.w3.org/2000/svg">
<circle opacity="0.3" cx="74" cy="74" r="74" fill="#EEBFE1"/>
<path d="M111.848 94.0104L83.2704 44.2652C80.4479 39.2906 73.7446 37.514 68.8053 40.3566C67.0412 41.4226 65.63 42.8439 64.9244 44.2652L36.347 94.0104C33.5246 98.985 35.2886 105.736 40.2279 108.579C41.9919 109.645 43.756 110 45.52 110H102.322C108.32 110 112.906 105.025 112.906 99.3403C113.259 97.2084 112.553 95.4317 111.848 94.0104ZM74.0974 95.7871C71.9805 95.7871 70.5693 94.3658 70.5693 92.2338C70.5693 90.1019 71.9805 88.6806 74.0974 88.6806C76.2142 88.6806 77.6254 90.1019 77.6254 92.2338C77.6254 94.3658 76.2142 95.7871 74.0974 95.7871ZM77.6254 78.0209C77.6254 80.1528 76.2142 81.5741 74.0974 81.5741C71.9805 81.5741 70.5693 80.1528 70.5693 78.0209V63.808C70.5693 61.676 71.9805 60.2547 74.0974 60.2547C76.2142 60.2547 77.6254 61.676 77.6254 63.808V78.0209Z" fill="#C5299B"/>
</svg>
