<svg width="148" height="148" viewBox="0 0 148 148" fill="none" xmlns="http://www.w3.org/2000/svg">
<circle cx="74" cy="74" r="74" fill="#C5299B" fill-opacity="0.3"/>
<path d="M73.9978 36.7871C53.5308 36.7871 36.7852 53.5328 36.7852 73.9998C36.7852 94.4667 53.5308 111.212 73.9978 111.212C94.4648 111.212 111.21 94.4667 111.21 73.9998C111.21 53.5328 94.4648 36.7871 73.9978 36.7871ZM73.9978 92.6061C71.765 92.6061 70.2765 91.1176 70.2765 88.8848C70.2765 86.6521 71.765 85.1635 73.9978 85.1635C76.2306 85.1635 77.7191 86.6521 77.7191 88.8848C77.7191 91.1176 76.2306 92.6061 73.9978 92.6061ZM77.7191 73.9998C77.7191 76.2325 76.2306 77.721 73.9978 77.721C71.765 77.721 70.2765 76.2325 70.2765 73.9998V59.1147C70.2765 56.8819 71.765 55.3934 73.9978 55.3934C76.2306 55.3934 77.7191 56.8819 77.7191 59.1147V73.9998Z" fill="#C5299B"/>
</svg>
