<svg width="64" height="64" viewBox="0 0 64 64" fill="none" xmlns="http://www.w3.org/2000/svg">
<circle cx="32" cy="32" r="32" fill="#00B2F0" fill-opacity="0.3"/>
<path d="M38.6667 45.3335H25.3333C24.0073 45.3335 22.7355 44.8067 21.7978 43.869C20.8601 42.9314 20.3333 41.6596 20.3333 40.3335V23.6668C20.3333 23.2248 20.1577 22.8009 19.8452 22.4883C19.5326 22.1758 19.1087 22.0002 18.6667 22.0002C18.2246 22.0002 17.8007 22.1758 17.4882 22.4883C17.1756 22.8009 17 23.2248 17 23.6668V40.3335C17 42.5436 17.878 44.6632 19.4408 46.2261C21.0036 47.7889 23.1232 48.6668 25.3333 48.6668H38.6667C39.1087 48.6668 39.5326 48.4912 39.8452 48.1787C40.1577 47.8661 40.3333 47.4422 40.3333 47.0002C40.3333 46.5581 40.1577 46.1342 39.8452 45.8217C39.5326 45.5091 39.1087 45.3335 38.6667 45.3335ZM47 26.9002C46.9826 26.7471 46.9491 26.5962 46.9 26.4502V26.3002C46.8199 26.1288 46.713 25.9713 46.5833 25.8335L36.5833 15.8335C36.4456 15.7039 36.288 15.597 36.1167 15.5168H35.9667L35.4333 15.3335H28.6667C27.3406 15.3335 26.0688 15.8603 25.1311 16.798C24.1935 17.7356 23.6667 19.0074 23.6667 20.3335V37.0002C23.6667 38.3262 24.1935 39.598 25.1311 40.5357C26.0688 41.4734 27.3406 42.0002 28.6667 42.0002H42C43.3261 42.0002 44.5979 41.4734 45.5355 40.5357C46.4732 39.598 47 38.3262 47 37.0002V27.0002C47 27.0002 47 27.0002 47 26.9002ZM37 21.0168L41.3167 25.3335H38.6667C38.2246 25.3335 37.8007 25.1579 37.4882 24.8453C37.1756 24.5328 37 24.1089 37 23.6668V21.0168ZM43.6667 37.0002C43.6667 37.4422 43.4911 37.8661 43.1785 38.1787C42.866 38.4912 42.442 38.6668 42 38.6668H28.6667C28.2246 38.6668 27.8007 38.4912 27.4882 38.1787C27.1756 37.8661 27 37.4422 27 37.0002V20.3335C27 19.8915 27.1756 19.4675 27.4882 19.155C27.8007 18.8424 28.2246 18.6668 28.6667 18.6668H33.6667V23.6668C33.6667 24.9929 34.1934 26.2647 35.1311 27.2024C36.0688 28.14 37.3406 28.6668 38.6667 28.6668H43.6667V37.0002Z" fill="#00A5DF"/>
</svg>
