<svg width="50" height="50" viewBox="0 0 50 50" fill="none" xmlns="http://www.w3.org/2000/svg">
<path d="M27.0833 29.1665H18.75C18.1975 29.1665 17.6676 29.386 17.2769 29.7767C16.8862 30.1674 16.6667 30.6973 16.6667 31.2498C16.6667 31.8024 16.8862 32.3323 17.2769 32.723C17.6676 33.1137 18.1975 33.3332 18.75 33.3332H27.0833C27.6359 33.3332 28.1658 33.1137 28.5565 32.723C28.9472 32.3323 29.1667 31.8024 29.1667 31.2498C29.1667 30.6973 28.9472 30.1674 28.5565 29.7767C28.1658 29.386 27.6359 29.1665 27.0833 29.1665ZM35.4167 8.33317H32.9583C32.5285 7.11744 31.7332 6.06442 30.6814 5.31846C29.6296 4.5725 28.3728 4.17013 27.0833 4.1665H22.9167C21.6272 4.17013 20.3704 4.5725 19.3186 5.31846C18.2668 6.06442 17.4715 7.11744 17.0417 8.33317H14.5833C12.9257 8.33317 11.336 8.99165 10.1639 10.1638C8.99181 11.3359 8.33333 12.9256 8.33333 14.5832V39.5832C8.33333 41.2408 8.99181 42.8305 10.1639 44.0026C11.336 45.1747 12.9257 45.8332 14.5833 45.8332H35.4167C37.0743 45.8332 38.664 45.1747 39.8361 44.0026C41.0082 42.8305 41.6667 41.2408 41.6667 39.5832V14.5832C41.6667 12.9256 41.0082 11.3359 39.8361 10.1638C38.664 8.99165 37.0743 8.33317 35.4167 8.33317ZM20.8333 10.4165C20.8333 9.86397 21.0528 9.33407 21.4435 8.94337C21.8342 8.55266 22.3641 8.33317 22.9167 8.33317H27.0833C27.6359 8.33317 28.1658 8.55266 28.5565 8.94337C28.9472 9.33407 29.1667 9.86397 29.1667 10.4165V12.4998H20.8333V10.4165ZM37.5 39.5832C37.5 40.1357 37.2805 40.6656 36.8898 41.0563C36.4991 41.447 35.9692 41.6665 35.4167 41.6665H14.5833C14.0308 41.6665 13.5009 41.447 13.1102 41.0563C12.7195 40.6656 12.5 40.1357 12.5 39.5832V14.5832C12.5 14.0306 12.7195 13.5007 13.1102 13.11C13.5009 12.7193 14.0308 12.4998 14.5833 12.4998H16.6667V14.5832C16.6667 15.1357 16.8862 15.6656 17.2769 16.0563C17.6676 16.447 18.1975 16.6665 18.75 16.6665H31.25C31.8025 16.6665 32.3324 16.447 32.7231 16.0563C33.1138 15.6656 33.3333 15.1357 33.3333 14.5832V12.4998H35.4167C35.9692 12.4998 36.4991 12.7193 36.8898 13.11C37.2805 13.5007 37.5 14.0306 37.5 14.5832V39.5832ZM31.25 20.8332H18.75C18.1975 20.8332 17.6676 21.0527 17.2769 21.4434C16.8862 21.8341 16.6667 22.364 16.6667 22.9165C16.6667 23.469 16.8862 23.9989 17.2769 24.3896C17.6676 24.7803 18.1975 24.9998 18.75 24.9998H31.25C31.8025 24.9998 32.3324 24.7803 32.7231 24.3896C33.1138 23.9989 33.3333 23.469 33.3333 22.9165C33.3333 22.364 33.1138 21.8341 32.7231 21.4434C32.3324 21.0527 31.8025 20.8332 31.25 20.8332Z" fill="#00A5DF"/>
</svg>
