<svg width="34" height="30" viewBox="0 0 34 30" fill="none" xmlns="http://www.w3.org/2000/svg">
<path d="M20.3332 13.3334H18.6666V11.6667C18.6666 11.2247 18.491 10.8007 18.1784 10.4882C17.8658 10.1756 17.4419 10 16.9999 10C16.5579 10 16.1339 10.1756 15.8214 10.4882C15.5088 10.8007 15.3332 11.2247 15.3332 11.6667V13.3334H13.6666C13.2245 13.3334 12.8006 13.509 12.488 13.8215C12.1755 14.1341 11.9999 14.558 11.9999 15C11.9999 15.4421 12.1755 15.866 12.488 16.1785C12.8006 16.4911 13.2245 16.6667 13.6666 16.6667H15.3332V18.3334C15.3332 18.7754 15.5088 19.1993 15.8214 19.5119C16.1339 19.8244 16.5579 20 16.9999 20C17.4419 20 17.8658 19.8244 18.1784 19.5119C18.491 19.1993 18.6666 18.7754 18.6666 18.3334V16.6667H20.3332C20.7753 16.6667 21.1992 16.4911 21.5117 16.1785C21.8243 15.866 21.9999 15.4421 21.9999 15C21.9999 14.558 21.8243 14.1341 21.5117 13.8215C21.1992 13.509 20.7753 13.3334 20.3332 13.3334ZM30.5999 3.33336C28.8227 1.57454 26.4754 0.508816 23.9816 0.328501C21.4878 0.148187 19.0116 0.865153 16.9999 2.35003C14.8793 0.77276 12.2399 0.0575504 9.61309 0.348427C6.9863 0.639304 4.56729 1.91466 2.84318 3.91767C1.11907 5.92068 0.217927 8.50257 0.321225 11.1434C0.424523 13.7842 1.52459 16.2878 3.39989 18.15L13.3999 28.2334C14.3374 29.1697 15.6082 29.6956 16.9332 29.6956C18.2582 29.6956 19.5291 29.1697 20.4666 28.2334L30.4666 18.15C31.4514 17.1878 32.2365 16.0404 32.7765 14.7738C33.3165 13.5071 33.6009 12.1463 33.6133 10.7694C33.6256 9.39254 33.3658 8.02679 32.8487 6.75066C32.3315 5.47453 31.5673 4.31319 30.5999 3.33336ZM28.2499 15.7667L18.2499 25.7667C18.095 25.9229 17.9106 26.0469 17.7075 26.1315C17.5044 26.2161 17.2866 26.2597 17.0666 26.2597C16.8465 26.2597 16.6287 26.2161 16.4256 26.1315C16.2225 26.0469 16.0382 25.9229 15.8832 25.7667L5.88322 15.7667C4.57615 14.4306 3.84424 12.6358 3.84424 10.7667C3.84424 8.89759 4.57615 7.10279 5.88322 5.7667C7.21515 4.45168 9.01151 3.71431 10.8832 3.71431C12.7549 3.71431 14.5513 4.45168 15.8832 5.7667C16.0382 5.92291 16.2225 6.0469 16.4256 6.13152C16.6287 6.21613 16.8465 6.2597 17.0666 6.2597C17.2866 6.2597 17.5044 6.21613 17.7075 6.13152C17.9106 6.0469 18.095 5.92291 18.2499 5.7667C19.5818 4.45168 21.3782 3.71431 23.2499 3.71431C25.1216 3.71431 26.918 4.45168 28.2499 5.7667C29.567 7.10427 30.3052 8.90617 30.3052 10.7834C30.3052 12.6606 29.567 14.4625 28.2499 15.8V15.7667Z" fill="#0F172A"/>
</svg>
