<svg width="34" height="34" viewBox="0 0 34 34" fill="none" xmlns="http://www.w3.org/2000/svg">
<path d="M11.9999 28.6667C12.2177 28.664 12.4329 28.6187 12.6333 28.5333C12.8352 28.4489 13.0213 28.3306 13.1833 28.1833C13.2587 28.1014 13.3257 28.012 13.3833 27.9167C13.4492 27.8316 13.5 27.7357 13.5333 27.6333C13.5929 27.5408 13.6379 27.4396 13.6666 27.3333C13.6748 27.2224 13.6748 27.111 13.6666 27C13.664 26.7822 13.6187 26.5671 13.5333 26.3667C13.4584 26.1599 13.339 25.972 13.1834 25.8165C13.0279 25.661 12.8401 25.5415 12.6333 25.4667C12.3315 25.3268 11.9949 25.2804 11.6666 25.3333L11.3666 25.4333C11.2642 25.4666 11.1683 25.5174 11.0833 25.5833C10.9879 25.6409 10.8986 25.7079 10.8166 25.7833C10.6649 25.9419 10.5459 26.1288 10.4666 26.3333C10.3768 26.544 10.3314 26.771 10.3333 27C10.3333 27.442 10.5088 27.866 10.8214 28.1785C11.134 28.4911 11.5579 28.6667 11.9999 28.6667ZM5.81659 28.1833C5.97859 28.3306 6.16461 28.4489 6.36659 28.5333C6.56696 28.6187 6.78212 28.664 6.99992 28.6667H7.31659C7.42698 28.6512 7.53401 28.6174 7.63325 28.5667C7.73946 28.5302 7.84034 28.4798 7.93325 28.4167L8.18325 28.2167C8.33047 28.0547 8.44885 27.8687 8.53325 27.6667C8.6318 27.4588 8.67759 27.2298 8.66659 27C8.67477 26.8891 8.67477 26.7776 8.66659 26.6667C8.64834 26.5623 8.61464 26.4612 8.56659 26.3667C8.5333 26.2643 8.48255 26.1684 8.41659 26.0833C8.359 25.988 8.292 25.8987 8.21659 25.8167C7.98221 25.5854 7.68459 25.4288 7.36127 25.3665C7.03796 25.3042 6.70344 25.339 6.39992 25.4667C6.19533 25.546 6.00842 25.6649 5.84992 25.8167C5.77451 25.8987 5.70751 25.988 5.64992 26.0833C5.58395 26.1684 5.5332 26.2643 5.49992 26.3667C5.42853 26.457 5.37225 26.5583 5.33325 26.6667C5.32507 26.7776 5.32507 26.8891 5.33325 27C5.33589 27.2178 5.38118 27.433 5.46659 27.6333C5.55099 27.8353 5.66937 28.0213 5.81659 28.1833ZM28.6666 0.333344H5.33325C4.00717 0.333344 2.7354 0.860128 1.79772 1.79781C0.860036 2.73549 0.333252 4.00726 0.333252 5.33334V28.6667C0.333252 29.9928 0.860036 31.2645 1.79772 32.2022C2.7354 33.1399 4.00717 33.6667 5.33325 33.6667H28.6666C29.9927 33.6667 31.2644 33.1399 32.2021 32.2022C33.1398 31.2645 33.6666 29.9928 33.6666 28.6667V5.33334C33.6666 4.00726 33.1398 2.73549 32.2021 1.79781C31.2644 0.860128 29.9927 0.333344 28.6666 0.333344ZM30.3333 28.6667C30.3333 29.1087 30.1577 29.5326 29.8451 29.8452C29.5325 30.1578 29.1086 30.3333 28.6666 30.3333H5.33325C4.89122 30.3333 4.4673 30.1578 4.15474 29.8452C3.84218 29.5326 3.66659 29.1087 3.66659 28.6667V23.6667H30.3333V28.6667ZM30.3333 20.3333H3.66659V13.6667H10.3333C10.5526 13.6679 10.77 13.6259 10.9731 13.543C11.1762 13.46 11.3609 13.3378 11.5166 13.1833L13.6666 11.1L18.3333 16.4333C18.4838 16.6049 18.668 16.7438 18.8744 16.8413C19.0808 16.9387 19.3051 16.9928 19.5333 17C19.7526 17.0013 19.97 16.9592 20.1731 16.8763C20.3762 16.7934 20.5609 16.6711 20.7166 16.5167L23.5166 13.6667H30.3333V20.3333ZM30.3333 10.3333H22.8333C22.6139 10.3321 22.3965 10.3741 22.1934 10.4571C21.9903 10.54 21.8057 10.6622 21.6499 10.8167L19.5833 12.9L14.9166 7.56668C14.7607 7.40016 14.5723 7.26741 14.363 7.17666C14.1537 7.08591 13.928 7.03909 13.6999 7.03909C13.4718 7.03909 13.2461 7.08591 13.0369 7.17666C12.8276 7.26741 12.6392 7.40016 12.4833 7.56668L9.64992 10.3333H3.66659V5.33334C3.66659 4.89132 3.84218 4.46739 4.15474 4.15483C4.4673 3.84227 4.89122 3.66668 5.33325 3.66668H28.6666C29.1086 3.66668 29.5325 3.84227 29.8451 4.15483C30.1577 4.46739 30.3333 4.89132 30.3333 5.33334V10.3333Z" fill="#666E7D"/>
</svg>
