<svg width="50" height="50" viewBox="0 0 50 50" fill="none" xmlns="http://www.w3.org/2000/svg">
<path d="M33.3333 41.6665H16.6667C15.0091 41.6665 13.4194 41.008 12.2472 39.8359C11.0751 38.6638 10.4167 37.0741 10.4167 35.4165V14.5832C10.4167 14.0306 10.1972 13.5007 9.80647 13.11C9.41577 12.7193 8.88587 12.4998 8.33333 12.4998C7.7808 12.4998 7.25089 12.7193 6.86019 13.11C6.46949 13.5007 6.25 14.0306 6.25 14.5832V35.4165C6.25 38.1792 7.34747 40.8287 9.30097 42.7822C11.2545 44.7357 13.904 45.8332 16.6667 45.8332H33.3333C33.8859 45.8332 34.4158 45.6137 34.8065 45.223C35.1972 44.8323 35.4167 44.3024 35.4167 43.7498C35.4167 43.1973 35.1972 42.6674 34.8065 42.2767C34.4158 41.886 33.8859 41.6665 33.3333 41.6665ZM43.75 18.6248C43.7283 18.4335 43.6864 18.2449 43.625 18.0623V17.8748C43.5248 17.6606 43.3912 17.4637 43.2292 17.2915L30.7292 4.7915C30.5569 4.62945 30.36 4.49584 30.1458 4.39567H29.9583L29.2917 4.1665H20.8333C19.1757 4.1665 17.586 4.82498 16.4139 5.99709C15.2418 7.16919 14.5833 8.7589 14.5833 10.4165V31.2498C14.5833 32.9074 15.2418 34.4972 16.4139 35.6693C17.586 36.8414 19.1757 37.4998 20.8333 37.4998H37.5C39.1576 37.4998 40.7473 36.8414 41.9194 35.6693C43.0915 34.4972 43.75 32.9074 43.75 31.2498V18.7498C43.75 18.7498 43.75 18.7498 43.75 18.6248ZM31.25 11.2707L36.6458 16.6665H33.3333C32.7808 16.6665 32.2509 16.447 31.8602 16.0563C31.4695 15.6656 31.25 15.1357 31.25 14.5832V11.2707ZM39.5833 31.2498C39.5833 31.8024 39.3638 32.3323 38.9731 32.723C38.5824 33.1137 38.0525 33.3332 37.5 33.3332H20.8333C20.2808 33.3332 19.7509 33.1137 19.3602 32.723C18.9695 32.3323 18.75 31.8024 18.75 31.2498V10.4165C18.75 9.86397 18.9695 9.33407 19.3602 8.94337C19.7509 8.55266 20.2808 8.33317 20.8333 8.33317H27.0833V14.5832C27.0833 16.2408 27.7418 17.8305 28.9139 19.0026C30.086 20.1747 31.6757 20.8332 33.3333 20.8332H39.5833V31.2498Z" fill="#00A5DF"/>
</svg>
