<svg width="232" height="233" viewBox="0 0 232 233" fill="none" xmlns="http://www.w3.org/2000/svg">
<ellipse cx="115.927" cy="116.5" rx="115.927" ry="116.5" fill="#C5299B" fill-opacity="0.3"/>
<path d="M140.641 166.3H91.3211C86.4159 166.3 81.7116 164.352 78.2432 160.883C74.7747 157.415 72.8261 152.71 72.8261 147.805V86.1551C72.8261 84.52 72.1766 82.9519 71.0204 81.7958C69.8642 80.6396 68.2962 79.9901 66.6611 79.9901C65.026 79.9901 63.4579 80.6396 62.3018 81.7958C61.1456 82.9519 60.4961 84.52 60.4961 86.1551V147.805C60.4961 155.98 63.7437 163.821 69.5245 169.602C75.3053 175.382 83.1458 178.63 91.3211 178.63H140.641C142.276 178.63 143.844 177.981 145 176.824C146.157 175.668 146.806 174.1 146.806 172.465C146.806 170.83 146.157 169.262 145 168.106C143.844 166.95 142.276 166.3 140.641 166.3ZM171.466 98.1152C171.402 97.5488 171.278 96.9909 171.096 96.4506V95.8958C170.8 95.2619 170.404 94.6792 169.925 94.1696V94.1696L132.935 57.1796C132.425 56.7 131.843 56.3046 131.209 56.0082H130.654L128.681 55.3301H103.651C98.7459 55.3301 94.0416 57.2787 90.5732 60.7471C87.1047 64.2156 85.1561 68.9199 85.1561 73.8251V135.475C85.1561 140.38 87.1047 145.085 90.5732 148.553C94.0416 152.022 98.7459 153.97 103.651 153.97H152.971C157.876 153.97 162.581 152.022 166.049 148.553C169.518 145.085 171.466 140.38 171.466 135.475V98.4851C171.466 98.4851 171.466 98.4851 171.466 98.1152ZM134.476 76.3527L150.443 92.3201H140.641C139.006 92.3201 137.438 91.6706 136.282 90.5144C135.126 89.3582 134.476 87.7901 134.476 86.1551V76.3527ZM159.136 135.475C159.136 137.11 158.487 138.678 157.33 139.834C156.174 140.991 154.606 141.64 152.971 141.64H103.651C102.016 141.64 100.448 140.991 99.2918 139.834C98.1356 138.678 97.4861 137.11 97.4861 135.475V73.8251C97.4861 72.19 98.1356 70.6219 99.2918 69.4658C100.448 68.3096 102.016 67.6601 103.651 67.6601H122.146V86.1551C122.146 91.0603 124.095 95.7645 127.563 99.233C131.032 102.702 135.736 104.65 140.641 104.65H159.136V135.475Z" fill="#C5299B"/>
</svg>
