<svg width="232" height="233" viewBox="0 0 232 233" fill="none" xmlns="http://www.w3.org/2000/svg">
<ellipse cx="115.927" cy="116.5" rx="115.927" ry="116.5" fill="#C5299B" fill-opacity="0.3"/>
<path fill-rule="evenodd" clip-rule="evenodd" d="M56.3198 165.746L55.927 166.464C54.66 168.777 53.9955 171.399 54 174.067C54.0046 176.735 54.678 179.355 55.9529 181.664C57.2277 183.972 59.0591 185.889 61.2634 187.222C63.0432 188.298 65.0155 188.962 67.0485 189.178L67.0714 189.181C67.5488 189.231 68.0296 189.256 68.512 189.256H71.659V189.188L113.576 189.252V189.259L115.735 189.255L117.894 189.259V189.252L159.811 189.188V189.256H162.958C163.44 189.256 163.921 189.231 164.399 189.181L164.421 189.178C166.454 188.962 168.427 188.298 170.207 187.222C172.411 185.889 174.242 183.972 175.517 181.664C176.792 179.355 177.465 176.735 177.47 174.067C177.475 171.399 176.81 168.777 175.543 166.464L175.15 165.746L139.706 91.3415V58.7239H142.038C145.915 58.7239 149.059 55.4279 149.059 51.362C149.059 47.2961 145.915 44 142.037 44H139.541H91.9285H89.4325C85.5547 44 82.4111 47.2961 82.4111 51.362C82.4111 55.4279 85.5547 58.7239 89.4325 58.7239H91.7643V91.3415L56.3198 165.746ZM104.352 58.7239V94.2421L92.4538 120.375H139.016L127.118 94.2421V58.7239H104.352ZM130.265 58.7239V93.4949L142.503 120.375H142.504L130.265 93.4949V58.7239H130.265ZM145.597 134.828H85.8731L68.0526 173.967C68.049 173.991 68.0473 174.016 68.0473 174.041C68.0475 174.126 68.069 174.21 68.1098 174.284C68.1507 174.358 68.2093 174.419 68.2799 174.462C68.3505 174.505 68.4305 174.527 68.512 174.527L71.659 174.53H113.576H117.894H159.811L162.958 174.527C163.04 174.527 163.12 174.505 163.19 174.462C163.261 174.419 163.319 174.358 163.36 174.284C163.401 174.21 163.423 174.126 163.423 174.041C163.423 174.016 163.421 173.991 163.417 173.967L145.597 134.828ZM162.202 182.808L162.958 177.83L162.958 185.956C162.958 185.956 162.958 185.956 162.958 185.956V177.83C162.958 177.83 162.958 177.83 162.958 177.83H162.958L162.202 182.808ZM164.606 177.41C164.659 177.382 164.711 177.352 164.762 177.321C165.311 176.989 165.767 176.512 166.084 175.937C166.401 175.363 166.569 174.711 166.57 174.047C166.571 173.613 166.5 173.183 166.363 172.777L166.363 172.777C166.5 173.183 166.57 173.613 166.57 174.047C166.569 174.209 166.559 174.37 166.539 174.53C166.478 175.025 166.324 175.503 166.084 175.937C165.766 176.512 165.311 176.989 164.762 177.321C164.711 177.352 164.659 177.382 164.606 177.41ZM172.814 168.107C172.814 168.107 172.814 168.107 172.814 168.107L172.77 168.133L172.77 168.133L172.814 168.107Z" fill="#C5299B"/>
</svg>
