<svg width="64" height="64" viewBox="0 0 64 64" fill="none" xmlns="http://www.w3.org/2000/svg">
<circle cx="32" cy="32" r="32" fill="#00B2F0" fill-opacity="0.3"/>
<path fill-rule="evenodd" clip-rule="evenodd" d="M15.6388 45.5254L15.5306 45.7228C15.1818 46.3599 14.9988 47.082 15 47.8167C15.0013 48.5513 15.1867 49.2727 15.5378 49.9085C15.8888 50.5443 16.3931 51.0721 17.0001 51.4391C17.4902 51.7353 18.0334 51.9183 18.5932 51.9778L18.5995 51.9785C18.7309 51.9922 18.8633 51.9992 18.9962 51.9992H19.8628V51.9804L31.4056 51.9982V52L32 51.9991L32.5944 52V51.9982L44.1372 51.9804V51.9992H45.0038C45.1367 51.9992 45.2691 51.9922 45.4005 51.9785L45.4068 51.9778C45.9666 51.9183 46.5098 51.7353 46.9999 51.4391C47.6069 51.0721 48.1112 50.5443 48.4622 49.9085C48.8133 49.2727 48.9987 48.5513 49 47.8167C49.0012 47.082 48.8182 46.3599 48.4694 45.7228L48.3612 45.5254L38.6008 25.0364V16.0545H39.2429C40.3108 16.0545 41.1764 15.1469 41.1764 14.0273C41.1764 12.9076 40.3108 12 39.2429 12H38.5556H25.4444H24.7571C23.6892 12 22.8236 12.9076 22.8236 14.0273C22.8236 15.1469 23.6892 16.0545 24.7571 16.0545H25.3992V25.0364L15.6388 45.5254ZM28.8656 16.0545V25.8352L25.589 33.0314H38.411L35.1344 25.8352V16.0545H28.8656ZM36.001 16.0545V25.6294L39.3713 33.0314H39.3713L36.0011 25.6294V16.0545H36.001ZM40.2231 37.0114H23.7769L18.8697 47.7891C18.8687 47.7958 18.8682 47.8026 18.8682 47.8094C18.8683 47.833 18.8742 47.8561 18.8854 47.8764C18.8967 47.8968 18.9128 47.9137 18.9323 47.9254C18.9517 47.9372 18.9737 47.9434 18.9962 47.9434L19.8628 47.9441H31.4056H32.5944H44.1372L45.0038 47.9434C45.0263 47.9434 45.0483 47.9372 45.0677 47.9254C45.0872 47.9137 45.1033 47.8968 45.1146 47.8764C45.1258 47.8561 45.1317 47.833 45.1318 47.8094C45.1318 47.8026 45.1313 47.7958 45.1303 47.7891L40.2231 37.0114ZM44.7957 50.2237L45.0038 48.8528L45.0038 51.0905C45.0038 51.0905 45.0039 51.0906 45.0039 51.0906V48.8528C45.0039 48.8528 45.0038 48.8528 45.0038 48.8528H45.0038L44.7957 50.2237ZM45.4576 48.7372C45.4721 48.7294 45.4865 48.7212 45.5006 48.7126C45.6517 48.6213 45.7772 48.4899 45.8646 48.3317C45.952 48.1735 45.9981 47.9939 45.9984 47.8111C45.9986 47.6915 45.9792 47.5733 45.9415 47.4614L45.9414 47.4614C45.9792 47.5733 45.9986 47.6915 45.9984 47.8111C45.9983 47.8557 45.9955 47.9001 45.99 47.9441C45.9731 48.0803 45.9306 48.2121 45.8645 48.3317C45.7772 48.4899 45.6517 48.6213 45.5006 48.7126C45.4864 48.7211 45.4721 48.7293 45.4576 48.7372ZM47.7178 46.1753C47.7178 46.1753 47.7178 46.1753 47.7178 46.1753L47.7056 46.1826L47.7057 46.1827L47.7178 46.1753Z" fill="#00A5DF"/>
</svg>
