<svg width="50" height="50" viewBox="0 0 50 50" fill="none" xmlns="http://www.w3.org/2000/svg">
<path fill-rule="evenodd" clip-rule="evenodd" d="M8.6388 38.5254L8.53065 38.7228C8.18176 39.3599 7.99876 40.082 8.00001 40.8167C8.00125 41.5513 8.18671 42.2727 8.53776 42.9085C8.88882 43.5443 9.39313 44.0721 10.0001 44.4391C10.4902 44.7353 11.0334 44.9183 11.5932 44.9778L11.5995 44.9785C11.7309 44.9922 11.8633 44.9992 11.9962 44.9992H12.8628V44.9804L24.4056 44.9982V45L25 44.9991L25.5944 45V44.9982L37.1372 44.9804V44.9992H38.0038C38.1367 44.9992 38.2691 44.9922 38.4005 44.9785L38.4068 44.9778C38.9666 44.9183 39.5098 44.7353 39.9999 44.4391C40.6069 44.0721 41.1112 43.5443 41.4622 42.9085C41.8133 42.2727 41.9987 41.5513 42 40.8167C42.0012 40.082 41.8182 39.3599 41.4694 38.7228L41.3612 38.5254L31.6008 18.0364V9.05453H32.2429C33.3108 9.05453 34.1764 8.14689 34.1764 7.02727C34.1764 5.90764 33.3108 5 32.2429 5H31.5556H18.4444H17.7571C16.6892 5 15.8236 5.90764 15.8236 7.02727C15.8236 8.14689 16.6892 9.05453 17.7571 9.05453H18.3992V18.0364L8.6388 38.5254ZM21.8656 9.05453V18.8352L18.589 26.0314H31.411L28.1344 18.8352V9.05453H21.8656ZM29.001 9.05453V18.6294L32.3713 26.0314H32.3713L29.0011 18.6294V9.05453H29.001ZM33.2231 30.0114H16.7769L11.8697 40.7891C11.8687 40.7958 11.8682 40.8026 11.8682 40.8094C11.8683 40.833 11.8742 40.8561 11.8854 40.8764C11.8967 40.8968 11.9128 40.9137 11.9323 40.9254C11.9517 40.9372 11.9737 40.9434 11.9962 40.9434L12.8628 40.9441H24.4056H25.5944H37.1372L38.0038 40.9434C38.0263 40.9434 38.0483 40.9372 38.0677 40.9254C38.0872 40.9137 38.1033 40.8968 38.1146 40.8764C38.1258 40.8561 38.1317 40.833 38.1318 40.8094C38.1318 40.8026 38.1313 40.7958 38.1303 40.7891L33.2231 30.0114ZM37.7957 43.2237L38.0038 41.8528L38.0038 44.0905C38.0038 44.0905 38.0039 44.0906 38.0039 44.0906V41.8528C38.0039 41.8528 38.0038 41.8528 38.0038 41.8528H38.0038L37.7957 43.2237ZM38.4576 41.7372C38.4721 41.7294 38.4865 41.7212 38.5006 41.7126C38.6517 41.6213 38.7772 41.4899 38.8646 41.3317C38.952 41.1735 38.9981 40.9939 38.9984 40.8111C38.9986 40.6915 38.9792 40.5733 38.9415 40.4614L38.9414 40.4614C38.9792 40.5733 38.9986 40.6915 38.9984 40.8111C38.9983 40.8557 38.9955 40.9001 38.99 40.9441C38.9731 41.0803 38.9306 41.2121 38.8645 41.3317C38.7772 41.4899 38.6517 41.6213 38.5006 41.7126C38.4864 41.7211 38.4721 41.7293 38.4576 41.7372ZM40.7178 39.1753C40.7178 39.1753 40.7178 39.1753 40.7178 39.1753L40.7056 39.1826L40.7057 39.1827L40.7178 39.1753Z" fill="#00A5DF"/>
</svg>
