<svg width="34" height="20" viewBox="0 0 34 20" fill="none" xmlns="http://www.w3.org/2000/svg">
<path d="M1.83342 0C1.50378 0 1.18155 0.0977484 0.907465 0.280884C0.633383 0.46402 0.419762 0.724318 0.293616 1.02886C0.16747 1.3334 0.134465 1.66852 0.198773 1.99182C0.263082 2.31512 0.421817 2.61209 0.654904 2.84518C0.887992 3.07826 1.18496 3.237 1.50827 3.30131C1.83157 3.36562 2.16668 3.33261 2.47122 3.20647C2.77577 3.08032 3.03606 2.8667 3.2192 2.59262C3.40233 2.31853 3.50008 1.9963 3.50008 1.66667C3.50008 1.22464 3.32449 0.800716 3.01193 0.488156C2.69937 0.175595 2.27544 0 1.83342 0ZM8.50008 3.33333H31.8334C32.2754 3.33333 32.6994 3.15774 33.0119 2.84518C33.3245 2.53262 33.5001 2.10869 33.5001 1.66667C33.5001 1.22464 33.3245 0.800716 33.0119 0.488156C32.6994 0.175595 32.2754 0 31.8334 0H8.50008C8.05805 0 7.63413 0.175595 7.32157 0.488156C7.00901 0.800716 6.83342 1.22464 6.83342 1.66667C6.83342 2.10869 7.00901 2.53262 7.32157 2.84518C7.63413 3.15774 8.05805 3.33333 8.50008 3.33333ZM8.50008 8.33333C8.17045 8.33333 7.84821 8.43108 7.57413 8.61422C7.30005 8.79735 7.08643 9.05765 6.96028 9.36219C6.83414 9.66674 6.80113 10.0018 6.86544 10.3251C6.92975 10.6485 7.08848 10.9454 7.32157 11.1785C7.55466 11.4116 7.85163 11.5703 8.17493 11.6346C8.49823 11.6989 8.83334 11.6659 9.13789 11.5398C9.44243 11.4137 9.70273 11.2 9.88587 10.926C10.069 10.6519 10.1667 10.3296 10.1667 10C10.1667 9.55797 9.99115 9.13405 9.67859 8.82149C9.36603 8.50893 8.94211 8.33333 8.50008 8.33333ZM15.1667 16.6667C14.8371 16.6667 14.5149 16.7644 14.2408 16.9475C13.9667 17.1307 13.7531 17.391 13.627 17.6955C13.5008 18.0001 13.4678 18.3352 13.5321 18.6585C13.5964 18.9818 13.7552 19.2788 13.9882 19.5118C14.2213 19.7449 14.5183 19.9037 14.8416 19.968C15.1649 20.0323 15.5 19.9993 15.8046 19.8731C16.1091 19.747 16.3694 19.5334 16.5525 19.2593C16.7357 18.9852 16.8334 18.663 16.8334 18.3333C16.8334 17.8913 16.6578 17.4674 16.3453 17.1548C16.0327 16.8423 15.6088 16.6667 15.1667 16.6667ZM31.8334 8.33333H15.1667C14.7247 8.33333 14.3008 8.50893 13.9882 8.82149C13.6757 9.13405 13.5001 9.55797 13.5001 10C13.5001 10.442 13.6757 10.8659 13.9882 11.1785C14.3008 11.4911 14.7247 11.6667 15.1667 11.6667H31.8334C32.2754 11.6667 32.6994 11.4911 33.0119 11.1785C33.3245 10.8659 33.5001 10.442 33.5001 10C33.5001 9.55797 33.3245 9.13405 33.0119 8.82149C32.6994 8.50893 32.2754 8.33333 31.8334 8.33333ZM31.8334 16.6667H21.8334C21.3914 16.6667 20.9675 16.8423 20.6549 17.1548C20.3423 17.4674 20.1667 17.8913 20.1667 18.3333C20.1667 18.7754 20.3423 19.1993 20.6549 19.5118C20.9675 19.8244 21.3914 20 21.8334 20H31.8334C32.2754 20 32.6994 19.8244 33.0119 19.5118C33.3245 19.1993 33.5001 18.7754 33.5001 18.3333C33.5001 17.8913 33.3245 17.4674 33.0119 17.1548C32.6994 16.8423 32.2754 16.6667 31.8334 16.6667Z" fill="#0F172A"/>
</svg>
