<svg width="34" height="34" viewBox="0 0 34 34" fill="none" xmlns="http://www.w3.org/2000/svg">
<path d="M13.6666 25.3333H15.3333V27C15.3333 27.442 15.5088 27.866 15.8214 28.1785C16.134 28.4911 16.5579 28.6667 16.9999 28.6667C17.4419 28.6667 17.8659 28.4911 18.1784 28.1785C18.491 27.866 18.6666 27.442 18.6666 27V25.3333H20.3333C20.7753 25.3333 21.1992 25.1578 21.5118 24.8452C21.8243 24.5326 21.9999 24.1087 21.9999 23.6667C21.9999 23.2247 21.8243 22.8007 21.5118 22.4882C21.1992 22.1756 20.7753 22 20.3333 22H18.6666V20.3333C18.6666 19.8913 18.491 19.4674 18.1784 19.1548C17.8659 18.8423 17.4419 18.6667 16.9999 18.6667C16.5579 18.6667 16.134 18.8423 15.8214 19.1548C15.5088 19.4674 15.3333 19.8913 15.3333 20.3333V22H13.6666C13.2246 22 12.8006 22.1756 12.4881 22.4882C12.1755 22.8007 11.9999 23.2247 11.9999 23.6667C11.9999 24.1087 12.1755 24.5326 12.4881 24.8452C12.8006 25.1578 13.2246 25.3333 13.6666 25.3333ZM28.6666 7.00001H25.3333V5.33334C25.3333 4.00726 24.8065 2.73549 23.8688 1.79781C22.9311 0.860128 21.6593 0.333344 20.3333 0.333344H13.6666C12.3405 0.333344 11.0687 0.860128 10.1311 1.79781C9.19337 2.73549 8.66659 4.00726 8.66659 5.33334V7.00001H5.33325C4.00717 7.00001 2.7354 7.52679 1.79772 8.46448C0.860036 9.40216 0.333252 10.6739 0.333252 12V28.6667C0.333252 29.9928 0.860036 31.2645 1.79772 32.2022C2.7354 33.1399 4.00717 33.6667 5.33325 33.6667H28.6666C29.9927 33.6667 31.2644 33.1399 32.2021 32.2022C33.1398 31.2645 33.6666 29.9928 33.6666 28.6667V12C33.6666 10.6739 33.1398 9.40216 32.2021 8.46448C31.2644 7.52679 29.9927 7.00001 28.6666 7.00001ZM11.9999 5.33334C11.9999 4.89132 12.1755 4.46739 12.4881 4.15483C12.8006 3.84227 13.2246 3.66668 13.6666 3.66668H20.3333C20.7753 3.66668 21.1992 3.84227 21.5118 4.15483C21.8243 4.46739 21.9999 4.89132 21.9999 5.33334V7.00001H11.9999V5.33334ZM30.3333 28.6667C30.3333 29.1087 30.1577 29.5326 29.8451 29.8452C29.5325 30.1578 29.1086 30.3333 28.6666 30.3333H5.33325C4.89122 30.3333 4.4673 30.1578 4.15474 29.8452C3.84218 29.5326 3.66659 29.1087 3.66659 28.6667V17H30.3333V28.6667ZM30.3333 13.6667H3.66659V12C3.66659 11.558 3.84218 11.1341 4.15474 10.8215C4.4673 10.5089 4.89122 10.3333 5.33325 10.3333H28.6666C29.1086 10.3333 29.5325 10.5089 29.8451 10.8215C30.1577 11.1341 30.3333 11.558 30.3333 12V13.6667Z" fill="#666E7D"/>
</svg>
