<svg width="30" height="34" viewBox="0 0 30 34" fill="none" xmlns="http://www.w3.org/2000/svg">
<path d="M26.6667 0.333344H3.33333C2.44928 0.333344 1.60143 0.684533 0.976311 1.30965C0.351189 1.93478 0 2.78262 0 3.66668V7.00001C0 7.88407 0.351189 8.73191 0.976311 9.35703C1.60143 9.98215 2.44928 10.3333 3.33333 10.3333V28.6667C3.33333 29.9928 3.86012 31.2645 4.7978 32.2022C5.73548 33.1399 7.00725 33.6667 8.33333 33.6667H21.6667C22.9927 33.6667 24.2645 33.1399 25.2022 32.2022C26.1399 31.2645 26.6667 29.9928 26.6667 28.6667V10.3333C27.5507 10.3333 28.3986 9.98215 29.0237 9.35703C29.6488 8.73191 30 7.88407 30 7.00001V3.66668C30 2.78262 29.6488 1.93478 29.0237 1.30965C28.3986 0.684533 27.5507 0.333344 26.6667 0.333344ZM23.3333 23.6667H13.3333V17H23.3333V23.6667ZM23.3333 13.6667H11.6667C11.2246 13.6667 10.8007 13.8423 10.4882 14.1548C10.1756 14.4674 10 14.8913 10 15.3333V25.3333C10 25.7754 10.1756 26.1993 10.4882 26.5119C10.8007 26.8244 11.2246 27 11.6667 27H23.3333V28.6667C23.3333 29.1087 23.1577 29.5326 22.8452 29.8452C22.5326 30.1578 22.1087 30.3333 21.6667 30.3333H8.33333C7.89131 30.3333 7.46738 30.1578 7.15482 29.8452C6.84226 29.5326 6.66667 29.1087 6.66667 28.6667V10.3333H23.3333V13.6667ZM3.33333 7.00001V3.66668H26.6667V7.00001H3.33333Z" fill="#666E7D"/>
</svg>
