<svg width="77" height="77" viewBox="0 0 77 77" fill="none" xmlns="http://www.w3.org/2000/svg">
<circle opacity="0.3" cx="38.5" cy="38.5" r="38.5" fill="#00A5DF"/>
<path d="M53.5833 19.8359H24.4167C23.3116 19.8359 22.2518 20.2401 21.4704 20.9595C20.689 21.6789 20.25 22.6547 20.25 23.6721V27.5083C20.25 28.5257 20.689 29.5014 21.4704 30.2208C22.2518 30.9403 23.3116 31.3444 24.4167 31.3444V52.4433C24.4167 53.9695 25.0751 55.4331 26.2472 56.5122C27.4194 57.5913 29.0091 58.1976 30.6667 58.1976H47.3333C48.9909 58.1976 50.5806 57.5913 51.7528 56.5122C52.9249 55.4331 53.5833 53.9695 53.5833 52.4433V31.3444C54.6884 31.3444 55.7482 30.9403 56.5296 30.2208C57.311 29.5014 57.75 28.5257 57.75 27.5083V23.6721C57.75 22.6547 57.311 21.6789 56.5296 20.9595C55.7482 20.2401 54.6884 19.8359 53.5833 19.8359ZM49.4167 46.6891H36.9167V39.0168H49.4167V46.6891ZM49.4167 35.1806H34.8333C34.2808 35.1806 33.7509 35.3827 33.3602 35.7424C32.9695 36.1021 32.75 36.59 32.75 37.0987V48.6072C32.75 49.1159 32.9695 49.6038 33.3602 49.9635C33.7509 50.3232 34.2808 50.5253 34.8333 50.5253H49.4167V52.4433C49.4167 52.9521 49.1972 53.4399 48.8065 53.7996C48.4158 54.1593 47.8859 54.3614 47.3333 54.3614H30.6667C30.1141 54.3614 29.5842 54.1593 29.1935 53.7996C28.8028 53.4399 28.5833 52.9521 28.5833 52.4433V31.3444H49.4167V35.1806ZM24.4167 27.5083V23.6721H53.5833V27.5083H24.4167Z" fill="#00A5DF"/>
</svg>
