<svg width="40" height="34" viewBox="0 0 40 34" fill="none" xmlns="http://www.w3.org/2000/svg">
<path d="M28.3333 30.05H8.33333C7.00725 30.05 5.73548 29.5232 4.7978 28.5855C3.86012 27.6478 3.33333 26.3761 3.33333 25.05V11.7167C3.33333 11.2746 3.15774 10.8507 2.84518 10.5381C2.53262 10.2256 2.10869 10.05 1.66667 10.05C1.22464 10.05 0.800716 10.2256 0.488155 10.5381C0.175595 10.8507 0 11.2746 0 11.7167L0 25.05C0 27.2601 0.877974 29.3797 2.44078 30.9425C4.00358 32.5053 6.1232 33.3833 8.33333 33.3833H28.3333C28.7754 33.3833 29.1993 33.2077 29.5118 32.8952C29.8244 32.5826 30 32.1587 30 31.7167C30 31.2746 29.8244 30.8507 29.5118 30.5381C29.1993 30.2256 28.7754 30.05 28.3333 30.05ZM35 0.0499878H11.6667C10.3406 0.0499878 9.06881 0.576772 8.13113 1.51445C7.19345 2.45214 6.66667 3.72391 6.66667 5.04999V21.7167C6.66667 23.0427 7.19345 24.3145 8.13113 25.2522C9.06881 26.1899 10.3406 26.7167 11.6667 26.7167H35C36.3261 26.7167 37.5979 26.1899 38.5355 25.2522C39.4732 24.3145 40 23.0427 40 21.7167V5.04999C40 3.72391 39.4732 2.45214 38.5355 1.51445C37.5979 0.576772 36.3261 0.0499878 35 0.0499878ZM34.3167 3.38332L24.5167 13.1833C24.3617 13.3395 24.1774 13.4635 23.9743 13.5481C23.7712 13.6328 23.5534 13.6763 23.3333 13.6763C23.1133 13.6763 22.8955 13.6328 22.6924 13.5481C22.4893 13.4635 22.3049 13.3395 22.15 13.1833L12.35 3.38332H34.3167ZM36.6667 21.7167C36.6667 22.1587 36.4911 22.5826 36.1785 22.8952C35.866 23.2077 35.442 23.3833 35 23.3833H11.6667C11.2246 23.3833 10.8007 23.2077 10.4882 22.8952C10.1756 22.5826 10 22.1587 10 21.7167V5.66665L19.8 15.4667C20.7375 16.403 22.0083 16.9289 23.3333 16.9289C24.6583 16.9289 25.9292 16.403 26.8667 15.4667L36.6667 5.66665V21.7167Z" fill="#666E7D"/>
</svg>
