<svg width="216" height="216" viewBox="0 0 216 216" fill="none" xmlns="http://www.w3.org/2000/svg">
    <circle cx="108" cy="108" r="108" fill="#00A5DF" />
    <g>
        <path clip-path="url(#cut-off-bottom)" d="M-1.9865 179.298C2.96771 177.97 7.88215 176.46 12.8894 175.375C21.2068 173.582 29.5198 171.776 37.7223 169.496C42.763 168.16 47.6935 166.438 52.4701 164.343C56.6062 162.561 60.3526 159.983 63.4966 156.755C66.5681 153.523 70.0197 150.8 74.2845 149.286C76.5207 148.494 77.4753 146.865 77.5416 144.558C77.6521 140.671 77.1527 136.948 75.1816 133.49C73.5641 130.648 72.9056 127.47 72.2339 124.295C71.8292 122.427 71.3111 120.585 70.6826 118.779C70.1274 117.169 69.1937 115.716 67.9603 114.542C66.8433 113.374 65.9756 111.99 65.4102 110.474C64.5605 108.522 63.5166 106.66 62.2945 104.918C60.3625 102.134 59.1895 98.8924 58.8915 95.5148C58.3435 90.1358 58.5159 84.7613 58.5336 79.3912C58.5336 74.9022 58.6617 70.3954 59.0816 65.9284C59.8063 58.2474 61.6404 50.8763 65.8787 44.2356C68.385 40.3268 71.4257 36.7891 74.9121 33.7257C79.1184 30.0243 83.854 26.9742 88.9615 24.6766C93.6321 22.5102 98.6103 21.0839 103.718 20.4488C107.196 20.037 110.736 19.7271 114.254 20.3646C117.852 21.0199 121.475 21.5423 125.038 22.348C128.352 23.0962 131.397 24.6279 134.394 26.2129C134.664 26.3371 134.923 26.4853 135.167 26.6556C139.144 29.9051 144.006 31.915 147.784 35.4744C150.878 38.4007 153.428 41.628 154.635 45.8116C155.793 49.8359 157.339 53.7273 158.232 57.8445C159.805 65.105 160.044 72.454 159.761 79.803C159.664 82.3751 159.615 84.9605 159.293 87.5061C158.751 92.1886 157.496 96.7603 155.572 101.062C154.432 103.621 153.015 106.047 151.347 108.296C149.137 111.191 147.427 114.224 146.742 117.929C146.229 120.705 145.049 123.401 143.895 126.009C142.093 129.967 141.09 134.243 140.943 138.591C140.85 142.053 141.385 145.484 143.453 148.481C144.337 149.782 145.407 150.96 146.839 151.58C150.533 153.138 152.924 156.148 155.399 159.057C157.26 161.244 159.054 163.484 161.317 165.286C162.758 166.423 164.385 167.302 166.125 167.885C171.323 169.706 176.502 171.571 181.664 173.481C189.103 176.243 196.525 179.047 203.929 181.892C207.743 183.349 211.106 185.598 214.293 188.117C214.523 188.298 214.766 188.466 215 188.639C215 199.113 215 209.588 215 220.071C215 220.837 214.863 221.116 214.09 220.957C213.796 220.93 213.5 220.93 213.206 220.957H-0.218719C-0.660665 220.957 -1.10261 220.926 -1.54456 220.957C-1.9865 220.988 -2.0307 220.89 -1.9865 220.514C-1.94231 220.001 -1.9865 219.483 -1.9865 218.965V179.298Z" fill="#0C2752" />
    </g>
    <defs>
        <clipPath id="cut-off-bottom">
            <circle cx="108" cy="108" r="108" fill="#00A5DF" />
        </clipPath>
    </defs>
</svg>
