<svg width="232" height="233" viewBox="0 0 232 233" fill="none" xmlns="http://www.w3.org/2000/svg">
<ellipse cx="115.927" cy="116.5" rx="115.927" ry="116.5" fill="#C5299B" fill-opacity="0.3"/>
<path d="M159.136 60.3516H72.8261C69.556 60.3516 66.4198 61.5476 64.1075 63.6765C61.7951 65.8054 60.4961 68.6928 60.4961 71.7035V83.0555C60.4961 86.0663 61.7951 88.9537 64.1075 91.0826C66.4198 93.2115 69.556 94.4075 72.8261 94.4075V156.843C72.8261 161.36 74.7747 165.691 78.2432 168.884C81.7116 172.077 86.4159 173.871 91.3211 173.871H140.641C145.546 173.871 150.251 172.077 153.719 168.884C157.188 165.691 159.136 161.36 159.136 156.843V94.4075C162.406 94.4075 165.542 93.2115 167.855 91.0826C170.167 88.9537 171.466 86.0663 171.466 83.0555V71.7035C171.466 68.6928 170.167 65.8054 167.855 63.6765C165.542 61.5476 162.406 60.3516 159.136 60.3516ZM146.806 139.815H109.816V117.111H146.806V139.815ZM146.806 105.759H103.651C102.016 105.759 100.448 106.357 99.2918 107.422C98.1356 108.486 97.4861 109.93 97.4861 111.435V145.491C97.4861 146.997 98.1356 148.441 99.2918 149.505C100.448 150.569 102.016 151.167 103.651 151.167H146.806V156.843C146.806 158.349 146.157 159.792 145 160.857C143.844 161.921 142.276 162.519 140.641 162.519H91.3211C89.686 162.519 88.1179 161.921 86.9618 160.857C85.8056 159.792 85.1561 158.349 85.1561 156.843V94.4075H146.806V105.759ZM72.8261 83.0555V71.7035H159.136V83.0555H72.8261Z" fill="#C5299B"/>
</svg>
