<svg width="42" height="47" viewBox="0 0 35 35" fill="none" xmlns="http://www.w3.org/2000/svg">
<g id="Users / reader">
<path id="Vector" d="M33.6333 16.9834C32.4345 16.7665 31.2182 16.6604 30 16.6667C29.3 16.6667 28.6166 16.6667 27.9333 16.8C27.0826 15.6648 25.9967 14.7268 24.75 14.05C25.8209 12.8805 26.4154 11.3525 26.4166 9.76671C26.4166 8.06048 25.7388 6.42414 24.5324 5.21765C23.3259 4.01117 21.6895 3.33337 19.9833 3.33337C18.2771 3.33337 16.6407 4.01117 15.4343 5.21765C14.2278 6.42414 13.55 8.06048 13.55 9.76671C13.5512 11.3525 14.1457 12.8805 15.2166 14.05C13.9773 14.7303 12.8932 15.6612 12.0333 16.7834C11.3833 16.6667 10.7 16.6667 9.99998 16.6667C8.78068 16.6714 7.56442 16.7886 6.36664 17.0167C5.97838 17.0877 5.62791 17.2942 5.37764 17.5994C5.12737 17.9046 4.99354 18.2887 4.99998 18.6834V32.4334C4.99958 32.6782 5.05314 32.9202 5.15684 33.142C5.26054 33.3638 5.41184 33.56 5.59998 33.7167C5.78693 33.8743 6.00628 33.9889 6.24247 34.0523C6.47865 34.1156 6.72589 34.1263 6.96664 34.0834C7.964 33.8662 8.97959 33.7434 9.99998 33.7167C13.2285 33.7132 16.3869 34.6578 19.0833 36.4334L19.3 36.5167C19.5211 36.6126 19.759 36.6636 20 36.6667C20.1591 36.6647 20.3167 36.6366 20.4666 36.5834H20.5833L20.8 36.5C23.522 34.6789 26.7249 33.7099 30 33.7167C31.0183 33.7214 32.0338 33.8219 33.0333 34.0167C33.2741 34.0596 33.5213 34.049 33.7575 33.9856C33.9937 33.9222 34.213 33.8077 34.4 33.65C34.5881 33.4933 34.7394 33.2971 34.8431 33.0753C34.9468 32.8535 35.0004 32.6116 35 32.3667V18.6167C34.9986 18.2278 34.8611 17.8516 34.6115 17.5533C34.362 17.255 34.0159 17.0534 33.6333 16.9834ZM20 6.66671C20.7807 6.72407 21.5109 7.0747 22.0437 7.64818C22.5766 8.22166 22.8728 8.97552 22.8728 9.75837C22.8728 10.5412 22.5766 11.2951 22.0437 11.8686C21.5109 12.442 20.7807 12.7927 20 12.85C19.2192 12.7927 18.4891 12.442 17.9562 11.8686C17.4233 11.2951 17.1271 10.5412 17.1271 9.75837C17.1271 8.97552 17.4233 8.22166 17.9562 7.64818C18.4891 7.0747 19.2192 6.72407 20 6.66671ZM18.3333 32.2167C15.7211 31.0093 12.8778 30.3837 9.99998 30.3834C9.44998 30.3834 8.89998 30.3834 8.33331 30.4667V20C9.73092 19.8437 11.143 19.8717 12.5333 20.0834H12.7166C14.7026 20.4484 16.6058 21.1712 18.3333 22.2167V32.2167ZM20 19.3334C19.2588 18.9058 18.4905 18.5273 17.7 18.2H17.6C17.05 17.9834 16.5 17.7667 15.9333 17.6C17.0905 16.679 18.5211 16.1689 20 16.15C21.4749 16.1594 22.9051 16.6576 24.0666 17.5667C22.6518 18.0084 21.2884 18.6007 20 19.3334ZM31.6666 30.4667C28.2444 30.1229 24.7924 30.6982 21.6666 32.1334V22.1334C23.3973 21.1147 25.3016 20.4253 27.2833 20.1H27.6166C28.9566 19.8914 30.318 19.8578 31.6666 20V30.4667Z" fill="#666E7D"/>
</g>
</svg>
