<svg width="232" height="233" viewBox="0 0 232 233" fill="none" xmlns="http://www.w3.org/2000/svg">
<ellipse cx="115.927" cy="116.5" rx="115.927" ry="116.5" fill="#C5299B" fill-opacity="0.3"/>
<path d="M115.98 55.3301C107.884 55.3301 99.8676 56.9247 92.3879 60.0229C84.9081 63.1212 78.1118 67.6623 72.387 73.3871C60.8253 84.9488 54.33 100.63 54.33 116.981C54.2761 131.216 59.2053 145.022 68.263 156.005L55.9329 168.335C55.0775 169.202 54.498 170.303 54.2676 171.499C54.0372 172.695 54.1662 173.933 54.6383 175.055C55.1503 176.164 55.9804 177.097 57.0232 177.733C58.066 178.37 59.2744 178.682 60.4951 178.631H115.98C132.331 178.631 148.012 172.136 159.574 160.574C171.136 149.012 177.631 133.331 177.631 116.981C177.631 100.63 171.136 84.9488 159.574 73.3871C148.012 61.8254 132.331 55.3301 115.98 55.3301ZM115.98 166.301H75.3528L81.0863 160.567C82.2346 159.412 82.8791 157.85 82.8791 156.221C82.8791 154.592 82.2346 153.03 81.0863 151.875C73.0137 143.811 67.9867 133.198 66.8616 121.843C65.7366 110.489 68.5832 99.0958 74.9165 89.6048C81.2498 80.1138 90.6778 73.1123 101.594 69.7931C112.511 66.4739 124.241 67.0425 134.785 71.4018C145.33 75.7612 154.036 83.6417 159.422 93.7006C164.808 103.76 166.539 115.375 164.321 126.567C162.104 137.76 156.074 147.837 147.259 155.082C138.444 162.327 127.39 166.292 115.98 166.301ZM134.476 110.815H122.146V98.4854C122.146 96.8503 121.496 95.2822 120.34 94.126C119.184 92.9699 117.616 92.3203 115.98 92.3203C114.345 92.3203 112.777 92.9699 111.621 94.126C110.465 95.2822 109.815 96.8503 109.815 98.4854V110.815H97.4853C95.8503 110.815 94.2822 111.465 93.126 112.621C91.9698 113.777 91.3203 115.345 91.3203 116.981C91.3203 118.616 91.9698 120.184 93.126 121.34C94.2822 122.496 95.8503 123.146 97.4853 123.146H109.815V135.476C109.815 137.111 110.465 138.679 111.621 139.835C112.777 140.991 114.345 141.641 115.98 141.641C117.616 141.641 119.184 140.991 120.34 139.835C121.496 138.679 122.146 137.111 122.146 135.476V123.146H134.476C136.111 123.146 137.679 122.496 138.835 121.34C139.991 120.184 140.641 118.616 140.641 116.981C140.641 115.345 139.991 113.777 138.835 112.621C137.679 111.465 136.111 110.815 134.476 110.815Z" fill="#C5299B"/>
</svg>
