<svg width="28" height="28" viewBox="0 0 28 28" fill="none" xmlns="http://www.w3.org/2000/svg">
    <path d="M13.9876 0.666016C6.62763 0.666016 0.654297 6.63935 0.654297 13.9993C0.654297 21.3594 6.62763 27.3327 13.9876 27.3327C21.3476 27.3327 27.321 21.3594 27.321 13.9993C27.321 6.63935 21.3476 0.666016 13.9876 0.666016ZM18.801 9.11935C20.2276 9.11935 21.3743 10.266 21.3743 11.6927C21.3743 13.1194 20.2276 14.266 18.801 14.266C17.3743 14.266 16.2276 13.1194 16.2276 11.6927C16.2143 10.266 17.3743 9.11935 18.801 9.11935ZM10.801 7.01268C12.5343 7.01268 13.9476 8.42602 13.9476 10.1593C13.9476 11.8927 12.5343 13.306 10.801 13.306C9.06763 13.306 7.6543 11.8927 7.6543 10.1593C7.6543 8.41268 9.0543 7.01268 10.801 7.01268ZM10.801 19.186V24.186C7.60096 23.186 5.06763 20.7193 3.94763 17.5727C5.34763 16.0793 8.84096 15.3193 10.801 15.3193C11.5076 15.3193 12.401 15.426 13.3343 15.6127C11.1476 16.7727 10.801 18.306 10.801 19.186ZM13.9876 24.666C13.6276 24.666 13.281 24.6527 12.9343 24.6127V19.186C12.9343 17.2927 16.8543 16.346 18.801 16.346C20.2276 16.346 22.6943 16.866 23.921 17.8793C22.361 21.8393 18.5076 24.666 13.9876 24.666Z"
          fill="#C5299B"/>
</svg>
