<svg width="34" height="34" viewBox="0 0 34 34" fill="none" xmlns="http://www.w3.org/2000/svg">
<path d="M24.1501 7.48335L12.4834 19.15C12.3272 19.305 12.2032 19.4893 12.1186 19.6924C12.034 19.8955 11.9904 20.1133 11.9904 20.3333C11.9904 20.5534 12.034 20.7712 12.1186 20.9743C12.2032 21.1774 12.3272 21.3617 12.4834 21.5167C12.6383 21.6729 12.8227 21.7969 13.0258 21.8815C13.2289 21.9661 13.4467 22.0097 13.6667 22.0097C13.8867 22.0097 14.1046 21.9661 14.3077 21.8815C14.5108 21.7969 14.6951 21.6729 14.8501 21.5167L26.5167 9.85001C26.8306 9.53617 27.0069 9.11052 27.0069 8.66668C27.0069 8.22285 26.8306 7.79719 26.5167 7.48335C26.2029 7.16951 25.7772 6.99319 25.3334 6.99319C24.8896 6.99319 24.4639 7.16951 24.1501 7.48335ZM31.2334 2.76668C30.4593 1.99063 29.5397 1.37491 28.5273 0.954805C27.5149 0.534698 26.4295 0.318451 25.3334 0.318451C24.2373 0.318451 23.1519 0.534698 22.1395 0.954805C21.1271 1.37491 20.2075 1.99063 19.4334 2.76668L5.81673 16.4833C5.50882 16.7938 5.33524 17.2128 5.33339 17.65V26.3L0.816728 30.8167C0.660514 30.9716 0.536523 31.156 0.451909 31.3591C0.367294 31.5622 0.32373 31.78 0.32373 32C0.32373 32.22 0.367294 32.4379 0.451909 32.641C0.536523 32.8441 0.660514 33.0284 0.816728 33.1833C0.971666 33.3396 1.156 33.4636 1.3591 33.5482C1.5622 33.6328 1.78004 33.6763 2.00006 33.6763C2.22008 33.6763 2.43792 33.6328 2.64102 33.5482C2.84412 33.4636 3.02846 33.3396 3.18339 33.1833L7.70006 28.6667H16.3501C16.7873 28.6648 17.2063 28.4913 17.5167 28.1833L31.2334 14.5667C32.0095 13.7926 32.6252 12.873 33.0453 11.8606C33.4654 10.8482 33.6816 9.7628 33.6816 8.66668C33.6816 7.57056 33.4654 6.48521 33.0453 5.47279C32.6252 4.46037 32.0095 3.54078 31.2334 2.76668ZM28.8667 12.2L15.6667 25.3333H8.66673V18.3333L21.8001 5.13335C22.7479 4.25015 24.0015 3.76933 25.2969 3.79218C26.5922 3.81504 27.8281 4.33978 28.7442 5.25587C29.6603 6.17196 30.185 7.40786 30.2079 8.7032C30.2308 9.99854 29.7499 11.2522 28.8667 12.2Z" fill="#666E7D"/>
</svg>
