<svg width="16" height="16" viewBox="0 0 16 16" fill="none" xmlns="http://www.w3.org/2000/svg">
<path d="M7.99219 0.5C3.85219 0.5 0.492188 3.86 0.492188 8C0.492188 12.14 3.85219 15.5 7.99219 15.5C12.1322 15.5 15.4922 12.14 15.4922 8C15.4922 3.86 12.1322 0.5 7.99219 0.5ZM10.6997 5.255C11.5022 5.255 12.1472 5.9 12.1472 6.7025C12.1472 7.505 11.5022 8.15 10.6997 8.15C9.89719 8.15 9.25219 7.505 9.25219 6.7025C9.24469 5.9 9.89719 5.255 10.6997 5.255ZM6.19969 4.07C7.17469 4.07 7.96969 4.865 7.96969 5.84C7.96969 6.815 7.17469 7.61 6.19969 7.61C5.22469 7.61 4.42969 6.815 4.42969 5.84C4.42969 4.8575 5.21719 4.07 6.19969 4.07ZM6.19969 10.9175V13.73C4.39969 13.1675 2.97469 11.78 2.34469 10.01C3.13219 9.17 5.09719 8.7425 6.19969 8.7425C6.59719 8.7425 7.09969 8.8025 7.62469 8.9075C6.39469 9.56 6.19969 10.4225 6.19969 10.9175ZM7.99219 14C7.78969 14 7.59469 13.9925 7.39969 13.97V10.9175C7.39969 9.8525 9.60469 9.32 10.6997 9.32C11.5022 9.32 12.8897 9.6125 13.5797 10.1825C12.7022 12.41 10.5347 14 7.99219 14Z" fill="#002855"/>
</svg>
