<?xml version="1.0" encoding="UTF-8"?>
<svg width="120px" height="120px" viewBox="0 0 120 120" version="1.1" xmlns="http://www.w3.org/2000/svg" xmlns:xlink="http://www.w3.org/1999/xlink">
    <title>Physician_filler</title>
    <g id="✅-Branded" stroke="none" stroke-width="1" fill="none" fill-rule="evenodd">
        <g id="Physician_filler">
            <rect id="Rectangle" fill="#470A68" x="0" y="0" width="120" height="120" rx="2"></rect>
            <g id="Group" transform="translate(24.000000, 24.000000)" fill="#FFFFFF" fill-rule="nonzero">
                <path d="M54,18 C54,27.96 45.96,36 36,36 C26.04,36 18,27.96 18,18 C18,8.04 26.04,0 36,0 C45.96,0 54,8.04 54,18 Z" id="Path"></path>
                <path d="M18.0741703,44.3299824 C16.9454574,46.0195608 16.2872653,48.0509951 16.2872653,50.2363636 L16.2872653,50.2363636 L16.2876283,58.7359313 C11.8817811,59.1692669 8.32996437,62.6825733 7.92142686,67.1824844 L7.92142686,67.1824844 L7.5,71.8157273 L0,71.8162499 L0,59.8162499 C0,55.1183129 3.67843536,51.2480238 8.87517388,48.2773871 C11.590602,46.7251539 14.7205768,45.4185552 17.9569195,44.3678639 Z M17.8694924,61.9636364 L18.103412,61.9680947 C21.1310333,62.0836747 23.6242195,64.4333433 23.9007086,67.4787832 L23.9007086,67.4787832 L24.294,71.8157273 L10.782,71.8157273 L11.176369,67.4787832 L11.2019812,67.2459169 C11.5910411,64.2371689 14.1536632,61.9636364 17.2075853,61.9636364 L17.2075853,61.9636364 L17.8694924,61.9636364 Z M44.9094504,42.8727273 C48.9708532,42.8727273 52.2632708,46.1695396 52.2632708,50.2363636 L52.2632708,50.2363636 L52.2628241,55.9158584 C50.3589206,56.5898988 48.9949061,58.4081727 48.9949061,60.5454545 C48.9949061,63.2566706 51.1898512,65.4545455 53.8974531,65.4545455 C56.605055,65.4545455 58.8,63.2566706 58.8,60.5454545 C58.8,58.4081727 57.4359855,56.5898988 55.5320821,55.9158584 L55.5320821,55.9158584 L55.5316354,50.2363636 L55.5278172,49.9483764 C55.4719006,47.8419768 54.8044109,45.8882207 53.6966564,44.2586451 C57.0558093,45.32574 60.3126276,46.6698365 63.1248261,48.2773871 C68.3215646,51.2480238 72,55.1183129 72,59.8162499 L72,71.8162499 L27.576,71.8157273 L27.1556508,67.1824844 L27.1259086,66.9014143 C26.629789,62.7986094 23.5115528,59.5686535 19.5560316,58.8436569 L19.5560316,58.8436569 L19.55563,50.2363636 L19.5595607,49.9932984 C19.6876343,46.0389858 22.9292756,42.8727273 26.9094504,42.8727273 C28.2455178,42.8727273 29.4983663,43.2295059 30.57816,43.8531077 L35.9993189,47.7251463 L42.2801927,43.2467954 C42.4880363,43.2380033 42.7111855,43.2030343 42.9477249,43.1376369 C43.5722435,42.9649725 44.2300888,42.8727273 44.9094504,42.8727273 Z M31.575416,47.8547656 C32.8940294,51.3111483 34.3688908,56.2983097 36,62.8162499 C37.630792,56.2995773 39.1053969,51.3130881 40.4238147,47.8567823 L36,51.6 L31.575416,47.8547656 Z M53.8974531,58.9090909 C54.799987,58.9090909 55.5316354,59.6417159 55.5316354,60.5454545 C55.5316354,61.4491932 54.799987,62.1818182 53.8974531,62.1818182 C52.9949191,62.1818182 52.2632708,61.4491932 52.2632708,60.5454545 C52.2632708,59.6417159 52.9949191,58.9090909 53.8974531,58.9090909 Z" id="Combined-Shape"></path>
            </g>
        </g>
    </g>
</svg>