<svg width="24" height="24" viewBox="0 0 24 24" fill="none" xmlns="http://www.w3.org/2000/svg">
<path d="M18.813 2.57756H11.7833C11.6887 2.15952 11.5325 1.76348 11.2684 1.47085C10.989 1.16282 10.626 1 10.2167 1C9.68207 1 9.23322 1.20462 8.91639 1.58966C8.69197 1.86689 8.55556 2.21452 8.47855 2.57756H6.49615C6.17932 2.57756 5.91969 2.83498 5.91969 3.15402C5.91969 3.47305 6.17932 3.73047 6.49615 3.73047H8.40154C8.40814 3.91309 8.42354 4.08251 8.44114 4.22332C6.53795 4.24092 5 5.78988 5 7.69527V17.5016C5 19.4202 6.55556 20.9758 8.47415 20.9758H8.9846V22.0363C8.9846 22.1661 9.07921 22.3113 9.20022 22.3619L9.90429 22.6678C10.0231 22.7184 10.2145 22.7228 10.3355 22.6788L11.1452 22.3773C11.2662 22.3355 11.363 22.1947 11.363 22.0649V20.9736H11.8735C13.7899 20.9736 15.3476 19.418 15.3476 17.4995V7.69527C15.3476 5.78988 13.8119 4.24312 11.9109 4.22332C11.9175 4.08471 11.9175 3.91309 11.9175 3.72827H18.2409V22.4235C18.2409 22.7404 18.5006 23 18.8174 23C19.1364 23 19.396 22.7404 19.396 22.4235V3.15402C19.3894 2.83498 19.132 2.57756 18.813 2.57756ZM9.80968 2.32013C9.87789 2.23652 9.9791 2.15292 10.2167 2.15292C10.3003 2.15292 10.3531 2.17712 10.4125 2.24312C10.4851 2.32233 10.5424 2.43894 10.5886 2.57536H9.67767C9.71067 2.47855 9.75248 2.39054 9.80968 2.32013ZM10.758 3.73047C10.7624 3.90209 10.7602 4.06931 10.7514 4.22332H9.60726C9.58526 4.08031 9.56766 3.91089 9.55886 3.73047H10.758ZM6.0473 9.09461C5.83388 9.09461 5.66227 8.92299 5.66227 8.70957C5.66227 6.58196 7.39604 4.85038 9.52145 4.85038C9.73487 4.85038 9.90649 5.0242 9.90649 5.23542C9.90649 5.44884 9.73267 5.62046 9.52145 5.62046C7.81628 5.62046 6.43014 7.0066 6.43014 8.70957C6.43234 8.92299 6.25853 9.09461 6.0473 9.09461ZM13.9351 12.1067V16.8548C13.9351 18.3685 12.8042 19.5963 11.407 19.5963H8.93839C7.54125 19.5963 6.41034 18.3685 6.41034 16.8548V12.1067H13.9351Z" fill="#002855"/>
</svg>
