<svg width="28" height="44" viewBox="0 0 28 44" fill="none" xmlns="http://www.w3.org/2000/svg">
<path d="M14.0262 0C14.673 4.07 16.3846 7.7088 18.4526 11.1936C19.7858 13.4376 21.1982 15.642 22.5622 17.8728C24.309 20.7284 25.9546 23.6324 26.817 26.906C28.5154 33.3432 25.7038 39.7452 19.909 42.614C11.8174 46.6268 2.11097 41.514 0.839371 32.5644C0.408171 29.5372 1.07257 26.686 2.25177 23.914C3.69497 20.5172 5.74097 17.4636 7.67697 14.3484C9.60417 11.2464 11.5006 8.1268 12.7634 4.6728C13.3266 3.1548 13.7094 1.5928 14.0262 0ZM17.401 40.1852C20.1378 40.194 23.0946 37.5188 23.4598 34.7028C23.7722 32.3048 22.2102 30.734 19.8342 31.0596C17.1018 31.438 14.5674 34.1484 14.3606 36.9072C14.2242 38.7904 15.509 40.1764 17.401 40.1852ZM9.56897 22.1056C9.60857 20.7548 8.78137 20.086 7.77817 20.4732C6.70897 20.8912 5.92577 22.3168 6.15897 23.4388C6.35697 24.4112 7.20177 24.8336 8.08177 24.3628C9.04537 23.8524 9.48097 22.99 9.56897 22.1056Z" fill="#00A5DF"/>
</svg>
