<svg width="24" height="24" viewBox="0 0 24 24" fill="none" xmlns="http://www.w3.org/2000/svg">
<path d="M11.4089 0C11.7323 2.03501 12.5881 3.85442 13.6221 5.59683C14.2887 6.71883 14.9949 7.82104 15.6769 8.93644C16.5504 10.3642 17.3732 11.8163 17.8044 13.4531C18.6536 16.6717 17.2478 19.8727 14.3503 21.3071C10.3045 23.3135 5.4513 20.7571 4.8155 16.2823C4.5999 14.7687 4.9321 13.3431 5.5217 11.9571C6.24331 10.2586 7.26631 8.73184 8.23431 7.17423C9.19792 5.62323 10.1461 4.06342 10.7775 2.33641C11.0591 1.57741 11.2505 0.796404 11.4089 0ZM13.0963 20.0927C14.4647 20.0971 15.9431 18.7595 16.1258 17.3515C16.282 16.1525 15.5009 15.3671 14.3129 15.5299C12.9467 15.7191 11.6795 17.0743 11.5761 18.4537C11.5079 19.3953 12.1503 20.0883 13.0963 20.0927ZM9.18032 11.0528C9.20012 10.3774 8.78652 10.043 8.28491 10.2366C7.75031 10.4456 7.35871 11.1585 7.47531 11.7195C7.57431 12.2057 7.99671 12.4169 8.43672 12.1815C8.91852 11.9263 9.13632 11.4951 9.18032 11.0528Z" fill="#002855"/>
</svg>
