<svg width="38" height="38" viewBox="0 0 38 38" fill="none" xmlns="http://www.w3.org/2000/svg">
<path d="M31.9947 6.08265C31.9812 6.06833 31.9772 6.0493 31.9632 6.03532C31.9492 6.02133 31.9299 6.01707 31.9154 6.00354C28.4863 2.58539 23.8419 0.666016 19.0001 0.666016C14.1583 0.666016 9.51392 2.58539 6.08473 6.00354C6.0703 6.01707 6.05105 6.02122 6.03696 6.03532C6.02286 6.04941 6.01893 6.06832 6.00551 6.08265C3.45032 8.65009 1.71294 11.9169 1.01264 15.4708C0.312346 19.0248 0.680519 22.7065 2.0707 26.0514C3.46087 29.3962 5.81075 32.2543 8.82375 34.2649C11.8367 36.2756 15.3778 37.3486 19.0001 37.3486C22.6223 37.3486 26.1634 36.2756 29.1764 34.2649C32.1894 32.2543 34.5393 29.3962 35.9295 26.0514C37.3197 22.7065 37.6878 19.0248 36.9875 15.4708C36.2872 11.9169 34.5499 8.65009 31.9947 6.08265ZM19 33.666C16.8042 33.6653 14.6366 33.1706 12.6579 32.2185C10.6792 31.2664 8.93999 29.8814 7.56916 28.166H14.9305C15.4403 28.7423 16.0667 29.2038 16.7683 29.5199C17.4699 29.8359 18.2305 29.9993 19 29.9993C19.7695 29.9993 20.5301 29.8359 21.2317 29.5199C21.9333 29.2038 22.5597 28.7423 23.0695 28.166H30.4309C29.0601 29.8814 27.3209 31.2665 25.3422 32.2185C23.3634 33.1706 21.1959 33.6653 19 33.666ZM17.1667 24.4993C17.1667 24.1367 17.2742 23.7823 17.4756 23.4808C17.6771 23.1793 17.9634 22.9443 18.2984 22.8056C18.6334 22.6668 19.002 22.6305 19.3577 22.7012C19.7133 22.772 20.04 22.9466 20.2964 23.203C20.5528 23.4594 20.7274 23.7861 20.7981 24.1417C20.8688 24.4973 20.8325 24.8659 20.6938 25.2009C20.555 25.5359 20.32 25.8223 20.0185 26.0237C19.7171 26.2252 19.3626 26.3327 19 26.3327C18.5139 26.3322 18.0479 26.1389 17.7042 25.7952C17.3605 25.4515 17.1672 24.9854 17.1667 24.4993ZM32.5854 24.5032L32.5665 24.4993H24.5C24.4965 23.3656 24.1422 22.2608 23.4857 21.3365C22.8292 20.4122 21.9026 19.7138 20.8333 19.3372V13.4993C20.8333 13.0131 20.6402 12.5468 20.2964 12.203C19.9525 11.8592 19.4862 11.666 19 11.666C18.5138 11.666 18.0475 11.8592 17.7036 12.203C17.3598 12.5468 17.1667 13.0131 17.1667 13.4993V19.3372C16.0974 19.7138 15.1708 20.4122 14.5143 21.3365C13.8578 22.2608 13.5035 23.3656 13.5 24.4993H5.43352L5.41459 24.5032C4.93774 23.3266 4.61704 22.0926 4.46067 20.8327H6.16667C6.6529 20.8327 7.11921 20.6395 7.46303 20.2957C7.80684 19.9519 8 19.4856 8 18.9993C8 18.5131 7.80684 18.0468 7.46303 17.703C7.11921 17.3592 6.6529 17.166 6.16667 17.166H4.46067C4.78827 14.5601 5.81384 12.091 7.42899 10.0199L8.62931 11.2202C8.79953 11.3904 9.00162 11.5255 9.22402 11.6176C9.44643 11.7097 9.68481 11.7571 9.92554 11.7571C10.1663 11.7571 10.4046 11.7097 10.627 11.6176C10.8495 11.5255 11.0515 11.3904 11.2218 11.2202C11.392 11.05 11.527 10.8479 11.6191 10.6255C11.7113 10.4031 11.7587 10.1647 11.7587 9.92398C11.7587 9.68325 11.7113 9.44488 11.6191 9.22247C11.527 9.00007 11.392 8.79798 11.2218 8.62776L10.0215 7.42755C12.0925 5.81293 14.5612 4.78766 17.1667 4.46002V6.16601C17.1667 6.65224 17.3598 7.11856 17.7036 7.46238C18.0475 7.80619 18.5138 7.99935 19 7.99935C19.4862 7.99935 19.9525 7.80619 20.2964 7.46238C20.6402 7.11856 20.8333 6.65224 20.8333 6.16601V4.46002C23.4388 4.78766 25.9075 5.81293 27.9785 7.42755L26.7782 8.62776C26.4345 8.97154 26.2413 9.43781 26.2413 9.92398C26.2413 10.4102 26.4345 10.8764 26.7782 11.2202C27.122 11.564 27.5883 11.7571 28.0745 11.7571C28.5606 11.7571 29.0269 11.564 29.3707 11.2202L30.571 10.0199C32.1862 12.091 33.2117 14.5601 33.5393 17.166H31.8333C31.3471 17.166 30.8808 17.3592 30.537 17.703C30.1932 18.0468 30 18.5131 30 18.9993C30 19.4856 30.1932 19.9519 30.537 20.2957C30.8808 20.6395 31.3471 20.8327 31.8333 20.8327H33.5393C33.383 22.0926 33.0623 23.3266 32.5854 24.5032Z" fill="#00A5DF"/>
</svg>
