<svg width="40" height="34" viewBox="0 0 40 34" fill="none" xmlns="http://www.w3.org/2000/svg">
<path d="M30.5731 17.0971C28.7867 18.5623 27.0355 20.0143 25.0643 21.6379C23.5991 19.5259 22.2835 17.6295 20.7435 15.3943C18.9791 18.4963 17.4303 21.2155 15.7187 24.2559C13.9455 21.5015 12.3791 19.0551 10.8039 16.6131C9.25067 17.2599 7.88667 18.1135 6.26307 18.4127C5.33027 18.5843 4.32707 18.5843 3.27107 18.5623C4.23907 20.1991 5.41827 21.7127 6.73387 23.1427C10.4959 27.2215 14.9751 30.3763 19.7667 33.1043C19.9031 33.1791 20.1627 33.1659 20.2991 33.0779C21.2407 32.5323 22.1867 31.9867 23.1151 31.3883C27.2863 28.7439 31.1451 25.7431 34.3219 21.9327C35.2283 20.8415 36.0731 19.7107 36.7771 18.5095C33.7411 18.7339 32.1879 18.3379 30.5731 17.0971ZM36.3195 3.81788C32.7467 0.170283 26.6131 -0.155317 22.6443 3.07428C21.5751 3.95428 20.7083 4.98388 20.0131 6.23788C19.9515 6.14988 19.9119 6.12788 19.9031 6.08828C17.4831 2.10628 13.9191 0.368283 9.34307 1.00188C5.69107 1.50788 3.05987 3.58028 1.55947 6.94188C0.406673 9.53788 0.578273 12.1779 1.49787 14.8091C1.69587 15.3679 1.92027 15.9135 2.16667 16.4371C6.31147 16.8859 8.79307 15.0467 11.3495 13.1503C12.8367 15.1215 14.1787 16.8727 15.7187 18.9099C17.4083 15.7331 18.9703 12.8291 20.7347 9.51588C22.4859 12.4331 24.0215 14.9895 25.7375 17.8451C27.4755 16.4415 29.0507 15.1787 30.9603 13.6387C32.1659 16.0587 34.7223 16.6043 37.8727 16.4327C38.2203 15.6627 38.5195 14.8707 38.7527 14.0391C39.8571 10.1715 39.1487 6.72188 36.3195 3.81788V3.81788Z" fill="#00A5DF"/>
</svg>
