<svg width="22" height="18" viewBox="0 0 22 18" fill="none" xmlns="http://www.w3.org/2000/svg">
<path d="M16.7671 9.05278C15.7927 9.85198 14.8375 10.644 13.7623 11.5296C12.9631 10.3776 12.2455 9.34318 11.4055 8.12398C10.4431 9.81598 9.59835 11.2992 8.66475 12.9576C7.69755 11.4552 6.84315 10.1208 5.98395 8.78878C5.13675 9.14158 4.39275 9.60718 3.50715 9.77038C2.99835 9.86398 2.45115 9.86398 1.87515 9.85198C2.40315 10.7448 3.04635 11.5704 3.76395 12.3504C5.81595 14.5752 8.25915 16.296 10.8727 17.784C10.9471 17.8248 11.0887 17.8176 11.1631 17.7696C11.6767 17.472 12.1927 17.1744 12.6991 16.848C14.9743 15.4056 17.0791 13.7688 18.8119 11.6904C19.3063 11.0952 19.7671 10.4784 20.1511 9.82318C18.4951 9.94558 17.6479 9.72958 16.7671 9.05278ZM19.9015 1.80958C17.9527 -0.180018 14.6071 -0.357618 12.4423 1.40398C11.8591 1.88398 11.3863 2.44558 11.0071 3.12958C10.9735 3.08158 10.9519 3.06958 10.9471 3.04798C9.62715 0.875982 7.68315 -0.0720178 5.18715 0.273582C3.19515 0.549582 1.75995 1.67998 0.941547 3.51358C0.312747 4.92958 0.406347 6.36958 0.907947 7.80478C1.01595 8.10958 1.13835 8.40718 1.27275 8.69278C3.53355 8.93758 4.88715 7.93438 6.28155 6.89998C7.09275 7.97518 7.82475 8.93038 8.66475 10.0416C9.58635 8.30878 10.4383 6.72478 11.4007 4.91758C12.3559 6.50878 13.1935 7.90318 14.1295 9.46078C15.0775 8.69518 15.9367 8.00638 16.9783 7.16638C17.6359 8.48638 19.0303 8.78398 20.7487 8.69038C20.9383 8.27038 21.1015 7.83838 21.2287 7.38478C21.8311 5.27518 21.4447 3.39358 19.9015 1.80958Z" fill="#002855"/>
</svg>
