<svg width="38" height="38" viewBox="0 0 38 38" fill="none" xmlns="http://www.w3.org/2000/svg">
<path d="M36.9666 15.3327C36.2333 13.1327 34.0333 11.666 31.8333 11.666C28.7166 11.666 26.3333 14.0493 26.3333 17.166C26.3333 19.5493 27.8 21.566 30 22.2993V25.416C30 29.9993 26.3333 33.666 21.75 33.666C17.1666 33.666 13.5 29.9993 13.5 25.416V24.316C18.8166 23.3993 22.6666 18.816 22.6666 13.4993V2.49935C22.6666 1.39935 21.9333 0.666016 20.8333 0.666016H17.1666C16.0666 0.666016 15.3333 1.39935 15.3333 2.49935C15.3333 3.59935 16.0666 4.33268 17.1666 4.33268H19V13.4993C19 17.5327 15.7 20.8327 11.6666 20.8327C7.63329 20.8327 4.33329 17.5327 4.33329 13.4993V4.33268H6.16663C7.26663 4.33268 7.99996 3.59935 7.99996 2.49935C7.99996 1.39935 7.26663 0.666016 6.16663 0.666016H2.49996C1.39996 0.666016 0.666626 1.39935 0.666626 2.49935V13.4993C0.666626 18.816 4.51663 23.3993 9.83329 24.316V25.416C9.83329 32.016 15.15 37.3327 21.75 37.3327C28.35 37.3327 33.6666 32.016 33.6666 25.416V22.2993C36.6 21.3827 38.0666 18.266 36.9666 15.3327Z" fill="#00A5DF"/>
</svg>
