<svg width="24" height="42" viewBox="0 0 24 42" fill="none" xmlns="http://www.w3.org/2000/svg">
<path d="M13.8333 27.014V18.2507C13.8333 17.7644 13.6402 17.2981 13.2964 16.9543C12.9525 16.6105 12.4862 16.4173 12 16.4173C11.5138 16.4173 11.0475 16.6105 10.7036 16.9543C10.3598 17.2981 10.1667 17.7644 10.1667 18.2507V27.014C9.61249 27.3339 9.1517 27.7933 8.83007 28.3465C8.50845 28.8997 8.3372 29.5274 8.33333 30.1673C8.33333 31.1398 8.71964 32.0724 9.40728 32.76C10.0949 33.4477 11.0275 33.834 12 33.834C12.9725 33.834 13.9051 33.4477 14.5927 32.76C15.2804 32.0724 15.6667 31.1398 15.6667 30.1673C15.6628 29.5274 15.4915 28.8997 15.1699 28.3465C14.8483 27.7933 14.3875 27.3339 13.8333 27.014ZM20.25 22.834V9.08398C20.25 6.89595 19.3808 4.79753 17.8336 3.25035C16.2865 1.70318 14.188 0.833984 12 0.833984C9.81196 0.833984 7.71354 1.70318 6.16637 3.25035C4.61919 4.79753 3.75 6.89595 3.75 9.08398V22.834C2.48288 24.2699 1.61257 26.0117 1.22516 27.8871C0.837744 29.7625 0.946655 31.7066 1.54112 33.527C2.13558 35.3474 3.19499 36.9811 4.61456 38.2665C6.03413 39.5518 7.76467 40.4443 9.635 40.8557C10.4119 41.0327 11.2037 41.1371 12 41.1673C14.1278 41.1772 16.2128 40.5698 18.0024 39.4186C19.7919 38.2674 21.2091 36.6219 22.0823 34.6814C22.9555 32.741 23.2472 30.589 22.9219 28.4862C22.5967 26.3833 21.6686 24.42 20.25 22.834ZM16.5833 35.7957C15.1246 37.089 13.2119 37.75 11.2659 37.6331C9.3199 37.5162 7.50004 36.631 6.20667 35.1723C4.91329 33.7136 4.25236 31.8009 4.36925 29.8549C4.48615 27.9089 5.37131 26.089 6.83 24.7957C7.00323 24.6259 7.14104 24.4234 7.23545 24.1999C7.32986 23.9765 7.37899 23.7365 7.38 23.494V9.08398C7.38 7.86841 7.86288 6.70262 8.72243 5.84308C9.58197 4.98354 10.7478 4.50065 11.9633 4.50065C13.1789 4.50065 14.3447 4.98354 15.2042 5.84308C16.0638 6.70262 16.5467 7.86841 16.5467 9.08398V23.6407C16.5477 23.8832 16.5968 24.1232 16.6912 24.3466C16.7856 24.57 16.9234 24.7725 17.0967 24.9423C17.846 25.6663 18.4325 26.5416 18.8171 27.51C19.2017 28.4783 19.3754 29.5176 19.3269 30.5584C19.2783 31.5992 19.0085 32.6177 18.5354 33.5461C18.0623 34.4744 17.3969 35.2913 16.5833 35.9423V35.7957Z" fill="#00A5DF"/>
</svg>
