<svg width="38" height="38" viewBox="0 0 38 38" fill="none" xmlns="http://www.w3.org/2000/svg">
<path d="M31.8333 4.33303H29.175C28.956 3.66444 28.614 3.04266 28.1666 2.4997C27.6479 1.9197 27.012 1.45638 26.3009 1.14034C25.5898 0.824308 24.8198 0.662758 24.0416 0.666364H13.995C13.2107 0.657537 12.4336 0.816561 11.7158 1.13276C10.998 1.44897 10.3561 1.91504 9.83329 2.4997C9.37285 3.03971 9.01833 3.66168 8.78829 4.33303H6.16663C4.70794 4.33303 3.30899 4.91249 2.27754 5.94394C1.24609 6.97539 0.666626 8.37434 0.666626 9.83303V31.833C0.666626 33.2917 1.24609 34.6907 2.27754 35.7221C3.30899 36.7536 4.70794 37.333 6.16663 37.333H31.8333C33.292 37.333 34.6909 36.7536 35.7224 35.7221C36.7538 34.6907 37.3333 33.2917 37.3333 31.833V9.83303C37.3333 8.37434 36.7538 6.97539 35.7224 5.94394C34.6909 4.91249 33.292 4.33303 31.8333 4.33303ZM12.62 4.95636C12.7918 4.76081 13.0032 4.60407 13.2403 4.4966C13.4774 4.38912 13.7347 4.33336 13.995 4.33303H24.005C24.2653 4.33336 24.5225 4.38912 24.7596 4.4966C24.9967 4.60407 25.2082 4.76081 25.38 4.95636C25.553 5.14886 25.6833 5.37581 25.7623 5.62228C25.8412 5.86876 25.8672 6.12916 25.8383 6.38636L24.9216 13.7197C24.8676 14.1669 24.6508 14.5785 24.3127 14.8761C23.9745 15.1736 23.5387 15.3363 23.0883 15.333H20.0816L22.1716 10.933C22.3411 10.5015 22.3408 10.0219 22.1708 9.59061C22.0009 9.15933 21.6738 8.80845 21.2555 8.60861C20.8373 8.40877 20.3588 8.37479 19.9165 8.51354C19.4742 8.65228 19.1008 8.95343 18.8716 9.35636L16.0116 15.333H14.9116C14.4612 15.3363 14.0254 15.1736 13.6872 14.8761C13.3491 14.5785 13.1323 14.1669 13.0783 13.7197L12.1616 6.38636C12.1328 6.12916 12.1587 5.86876 12.2377 5.62228C12.3167 5.37581 12.447 5.14886 12.62 4.95636ZM33.6666 31.833C33.6666 32.3193 33.4735 32.7856 33.1297 33.1294C32.7858 33.4732 32.3195 33.6664 31.8333 33.6664H6.16663C5.6804 33.6664 5.21408 33.4732 4.87026 33.1294C4.52645 32.7856 4.33329 32.3193 4.33329 31.833V9.83303C4.33329 9.3468 4.52645 8.88049 4.87026 8.53667C5.21408 8.19285 5.6804 7.9997 6.16663 7.9997H8.67829L9.44829 14.178C9.61456 15.5162 10.2667 16.7467 11.2806 17.6356C12.2946 18.5245 13.5999 19.01 14.9483 18.9997H23.125C24.4734 19.01 25.7786 18.5245 26.7926 17.6356C27.8066 16.7467 28.4587 15.5162 28.625 14.178L29.3216 7.9997H31.8333C32.3195 7.9997 32.7858 8.19285 33.1297 8.53667C33.4735 8.88049 33.6666 9.3468 33.6666 9.83303V31.833ZM22.6666 26.333H15.3333C14.8471 26.333 14.3807 26.5262 14.0369 26.87C13.6931 27.2138 13.5 27.6801 13.5 28.1664C13.5 28.6526 13.6931 29.1189 14.0369 29.4627C14.3807 29.8065 14.8471 29.9997 15.3333 29.9997H22.6666C23.1529 29.9997 23.6192 29.8065 23.963 29.4627C24.3068 29.1189 24.5 28.6526 24.5 28.1664C24.5 27.6801 24.3068 27.2138 23.963 26.87C23.6192 26.5262 23.1529 26.333 22.6666 26.333Z" fill="#00A5DF"/>
</svg>
