<svg width="30" height="36" viewBox="0 0 30 36" fill="none" xmlns="http://www.w3.org/2000/svg">
  <path d="M19.9927 15.1792H15.821V11.0073C15.821 10.7402 15.7148 10.4839 15.5259 10.295C15.337 10.1061 15.0808 10 14.8137 10H14.187C13.9198 10 13.6635 10.1061 13.4746 10.295C13.2856 10.4839 13.1794 10.7401 13.1794 11.0073V15.1792H9.0073C8.74014 15.1792 8.48393 15.2853 8.29503 15.4742C8.10613 15.6631 8 15.9193 8 16.1865V16.8135C8 17.0807 8.10613 17.3369 8.29503 17.5258C8.48393 17.7147 8.74014 17.8208 9.0073 17.8208H13.179V21.9927C13.1791 22.2599 13.2853 22.5161 13.4743 22.705C13.6632 22.8939 13.9195 23 14.1867 23H14.8133C15.0805 23 15.3367 22.8939 15.5256 22.705C15.7145 22.5161 15.8206 22.2598 15.8206 21.9927V17.8208H19.9927C20.2599 17.8208 20.5161 17.7147 20.705 17.5258C20.8939 17.3369 21 17.0807 21 16.8135V16.1865C21 15.9193 20.8939 15.6631 20.705 15.4742C20.5161 15.2853 20.2599 15.1792 19.9927 15.1792Z" fill="#00A5DF" />
  <path d="M29.3258 7.03735C25.1473 5.73853 20.5541 3.48459 15.2844 0.147153C15.1335 0.0516365 14.9593 0.00067211 14.7814 6.60216e-06C14.6034 -0.000658906 14.4288 0.0490011 14.2773 0.143387C10.1921 2.69111 4.95563 5.77651 0.687151 7.03327C0.473186 7.09637 0.2878 7.23327 0.163159 7.42024C0.0385184 7.6072 -0.0175121 7.83242 0.00479103 8.05682C0.602477 14.1061 1.78668 18.7201 3.72831 22.5701C4.87591 24.8435 6.3188 26.8777 8.01911 28.6163C9.76689 30.4035 11.8546 31.9493 14.2286 33.2155C14.2789 33.9221 14.5747 34.5879 15.0635 35.095C15.5524 35.602 16.2028 35.9177 16.8996 35.986C17.5964 36.0543 18.2946 35.8709 18.8705 35.4682C19.4465 35.0656 19.8631 34.4696 20.0465 33.786C20.2299 33.1023 20.1683 32.375 19.8726 31.7328C19.5769 31.0907 19.0662 30.5752 18.431 30.2776C17.7957 29.9799 17.0768 29.9194 16.4017 30.1067C15.7266 30.294 15.1387 30.717 14.7422 31.3009C5.25121 26.0403 2.89149 17.0013 1.98457 8.64659C6.12898 7.27276 10.9055 4.49873 14.7751 2.10103C19.6757 5.16697 24.0264 7.31544 28.029 8.6469C27.5573 13.9282 26.5713 19.8984 22.2153 25.1919C22.1346 25.2893 22.0737 25.4019 22.0361 25.5231C21.9985 25.6444 21.9849 25.772 21.9961 25.8986C22.0073 26.0252 22.0431 26.1483 22.1014 26.2609C22.1597 26.3735 22.2394 26.4733 22.3359 26.5546C22.4324 26.6359 22.5439 26.6972 22.6638 26.7349C22.7838 26.7725 22.9099 26.7859 23.035 26.7741C23.16 26.7623 23.2816 26.7257 23.3926 26.6663C23.5037 26.6069 23.602 26.5259 23.6821 26.428C25.8631 23.7776 27.4177 20.8247 28.4344 17.4006C29.4006 14.1473 29.7662 10.8434 29.9967 8.04081C30.0148 7.82119 29.9581 7.60192 29.8361 7.41939C29.714 7.23686 29.534 7.10205 29.3258 7.03735ZM17.1829 31.793C17.4186 31.793 17.649 31.8638 17.8449 31.9963C18.0409 32.1288 18.1937 32.3171 18.2838 32.5375C18.374 32.7578 18.3976 33.0003 18.3517 33.2342C18.3057 33.4681 18.1922 33.683 18.0255 33.8516C17.8589 34.0203 17.6465 34.1352 17.4154 34.1817C17.1842 34.2282 16.9446 34.2043 16.7269 34.1131C16.5091 34.0218 16.323 33.8672 16.1921 33.6689C16.0611 33.4706 15.9913 33.2374 15.9913 32.9989C15.9916 32.6792 16.1172 32.3727 16.3406 32.1466C16.564 31.9205 16.867 31.7934 17.1829 31.793Z" fill="#00A5DF" />
</svg>
  